<?xml version="1.0" encoding="UTF-8"?><svg id="english" xmlns="http://www.w3.org/2000/svg" viewBox="0 0 612.56415 175.77148"><defs><style>.cls-1{fill:none;}</style></defs><path class="cls-1" d="M416.10815,77.81848c-.4541-2.30188-.72656-3.84192-.81836-4.61829-.24023,1.59094-.5459,3.3418-.91498,5.25598-.37012,1.91406-1.33215,6.2821-2.88483,13.10449h7.6543l-2.16309-9.42969c-.12891-.57324-.4209-2.01074-.87305-4.3125Z"/><path class="cls-1" d="M203.5647,27.2627c.64752-.85046,.9707-2.11707,.9707-3.7998,0-1.68152-.37012-2.88855-1.10931-3.61902-.73932-.73059-1.9043-1.0957-3.4942-1.0957h-3.18939v9.78992h3.4668c1.58978,0,2.70801-.4248,3.35541-1.27539Z"/><path class="cls-1" d="M443.4129,74.44836h-1.83112v12.78601h1.44238c1.84863,0,3.22662-.50879,4.13281-1.52539,.90527-1.0166,1.3584-2.68054,1.3584-4.99219,0-2.12585-.41602-3.70312-1.24799-4.72949-.83209-1.02527-2.11725-1.53894-3.85449-1.53894Z"/><path class="cls-1" d="M422.88843,40.15918c0-1.95984-.41113-3.36511-1.2334-4.2157-.82324-.84961-2.22363-1.27551-4.20215-1.27551h-1.49805v11.56543h1.88672c3.36426,0,5.04688-2.02527,5.04688-6.07422Z"/><path class="cls-1" d="M200.43091,34.83398h-3.68842v11.34387h3.7998c1.57129,0,2.74121-.48059,3.50781-1.44238,.76758-.96094,1.15131-2.4502,1.15131-4.46484,0-3.62415-1.59082-5.43665-4.77051-5.43665Z"/><path class="cls-1" d="M296.23999,77.81848c-.4541-2.30188-.7265-3.84192-.8183-4.61829-.2403,1.59094-.5459,3.3418-.9151,5.25598-.37012,1.91406-1.33203,6.2821-2.8847,13.10449h7.65417l-2.16296-9.42969c-.12891-.57324-.4209-2.01074-.87311-4.3125Z"/><path class="cls-1" d="M362.1228,30.00879c.90527-1.0166,1.3584-2.68054,1.3584-4.99219,0-2.12585-.41602-3.70312-1.24799-4.72937-.83215-1.02539-2.11725-1.53906-3.85455-1.53906h-1.83105v12.78601h1.44238c1.84857,0,3.22662-.50879,4.13281-1.52539Z"/><path class="cls-1" d="M313.53198,158.0498c4.54883,0,6.82233-4.7334,6.82233-14.20007s-2.25592-14.2002-6.7666-14.2002c-2.29303,0-4.02155,1.20593-5.18665,3.61914-1.16498,2.41309-1.74695,5.94031-1.74695,10.58105,0,4.62195,.58197,8.14453,1.74695,10.56641,1.1651,2.42273,2.875,3.63367,5.13092,3.63367Z"/><path class="cls-1" d="M235.18188,158.0498c4.54883,0,6.82281-4.7334,6.82281-14.20007s-2.25641-14.2002-6.76709-14.2002c-2.29303,0-4.02155,1.20593-5.18652,3.61914-1.1651,2.41309-1.74707,5.94031-1.74707,10.58105,0,4.62195,.58197,8.14453,1.74707,10.56641,1.16498,2.42273,2.875,3.63367,5.1308,3.63367Z"/><path class="cls-1" d="M506.84058,73.94934c-2.29303,0-4.02148,1.20593-5.18652,3.61914-1.1651,2.41309-1.74707,5.94031-1.74707,10.58105,0,4.62195,.58197,8.14453,1.74707,10.56641,1.16504,2.42273,2.875,3.63379,5.1308,3.63379,4.54895,0,6.82233-4.7334,6.82233-14.2002s-2.25592-14.2002-6.7666-14.2002Z"/><path class="cls-1" d="M510.65405,32.85156c-1.02637,4.83508-2.23236,9.25891-3.6192,13.27051h10.45514V18.85938h-4.60352c-.46191,4.49329-1.20612,9.15723-2.23242,13.99219Z"/><path class="cls-1" d="M599.50165,34.66797h-1.49799v11.56543h1.88672c3.36432,0,5.04688-2.02527,5.04688-6.07422,0-1.95984-.41119-3.36511-1.2334-4.2157-.8233-.84961-2.22357-1.27551-4.20221-1.27551Z"/><path d="M121.1684,7.28857c-24.3172,0-37.61731,17.5459-37.61731,17.5459,0,0-13.30011-17.5459-37.61731-17.5459C20.07971,7.28857,0,27.3667,0,53.21338c0,21.68457,13.24701,40.65625,35.46307,62.7395l48.08801,48.08057,48.08801-48.08057c22.21619-22.08325,35.46307-41.05493,35.46307-62.7395,0-25.84668-20.07971-45.9248-45.93378-45.9248ZM58.75787,95.01953c-.67639,.78931-1.01196,1.18372-1.67871,1.9729h-1.76538c-.3313,.39404-.49652,.59106-.82581,.98511,.11011,1.97351,.17474,2.96008,.30023,4.93359-.97412,1.18433-1.45819,1.77649-2.43054,2.96069h-1.7533c-.6496,.78931-.97498,1.18384-1.63031,1.9729,.0531,.79028,.07874,1.18542,.12585,1.97559-.33051,.39478-.4964,.59204-.83002,.98657,.02191,.39465,.03229,.59204,.052,.98657,.375,.39331,.56146,.59009,.93201,.98352h.88141c.08496,1.97473,.11475,2.96204,.12195,4.93677h-2.65869c-.71631-.78931-1.07916-1.18396-1.82129-1.97327-.02386-1.18542-.04437-1.77808-.09631-2.9635-.38019-.39343-.57135-.59021-.95587-.98352-.0791-1.57935-.12952-2.36914-.23749-3.94873-.78302-.78906-1.17725-1.18359-1.9671-1.9729-.08459-1.1842-.12903-1.77637-.21631-2.96069-.39612-.39404-.59412-.59106-.99011-.98511-.25537-3.55286-.39148-5.3291-.52728-8.88196h-1.8158c-.75684-.7887-1.13281-1.18274-1.87903-1.97144-.00891-.3927-.01257-.58923-.01862-.98206-.74127-.79102-1.10608-1.1864-1.8382-1.97742-.00098-.39294-.00177-.58948-.00348-.9823-.73029-.79028-1.0965-1.18542-1.82941-1.97559-.01141-1.57886-.01959-2.36841-.03827-3.94751,.71655-.78955,1.07416-1.18433,1.7876-1.97412-.01703-1.18433-.02625-1.77637-.04492-2.96082h-2.72028c-.36884-.39392-.5531-.59094-.92175-.98474-.00537-.39526-.00806-.59277-.01355-.98792-.73779-.78918-1.10632-1.18384-1.84222-1.9729h-2.71558c-.00421-.39294-.00635-.58948-.01044-.9823h-3.63055c-.3634-.39624-.54504-.59448-.90784-.9906h-.9079c-.72827-.78845-1.0918-1.18274-1.81781-1.97131-.00189-.39575-.00287-.59363-.00458-.98926,.36017-.39526,.54022-.59277,.90027-.98804-.00165-.39282-.00256-.58936-.00409-.98242-1.08929-1.18481-1.63251-1.77734-2.71698-2.96216-.00073-.78906-.00079-1.18372-.00031-1.97266h-.89862c-.00085,1.18481-.00061,1.7771,.00079,2.96191,.36023,.39429,.54034,.59119,.901,.98535-.35895,.39502-.53845,.59253-.89746,.98755-.72369-.78918-1.08502-1.18372-1.80688-1.9729-.00153-1.97217,.00079-2.95825,.00079-4.9303-.36053-.39636-.54071-.5946-.90112-.99084v-2.95801c.72101-.78955,1.08142-1.18445,1.80231-1.97424v-.98645c.71991-.78979,1.07977-1.18457,1.79968-1.97424v-2.95935c-.35938-.39514-.53906-.59277-.8985-.98804v-1.9729c-.72101-.79028-1.08142-1.18542-1.80237-1.97583h-3.6073c-.36053,.39624-.54065,.59448-.90112,.99084h-3.60742c-.36035-.39636-.54065-.5946-.90106-.99084v-.98486c.36041-.39453,.54071-.59192,.90106-.98657h2.70624v-.98474c.36047-.39587,.54077-.59363,.90118-.98938h1.80487c.72095-.78857,1.08142-1.18286,1.80243-1.97144h5.4071c.36102,.39526,.5415,.59277,.90247,.98792h4.50061c.36151-.39514,.54224-.59265,.90381-.98792h4.5072c.72089,.78857,1.08142,1.18286,1.80243,1.97144h.90381v-2.9552c-.36163-.39514-.54236-.59265-.90381-.98767v-.98804h4.5058v1.97571h1.80231c.36096,.39343,.54156,.59021,.90259,.98376v.98792h-1.80359v.98352h3.60858c.35999-.39343,.53998-.59009,.89996-.98352v-2.95935h2.70483v.98767c-.36102,.39343-.54163,.59021-.90259,.98376v.98792h1.80237v-1.97168c.35992-.39514,.53992-.59265,.89984-.98767h4.5047c.72089,.78857,1.08136,1.18286,1.80225,1.97144h.90515c.72095,.78857,1.08136,1.18286,1.80231,1.97144v.98938h-2.70746c-.35895,.39392-.53839,.59094-.89728,.98474h-1.80499v-.98474c.35999-.39587,.53998-.59363,.90002-.98938v-.98352h-3.60223c-.36096,.39343-.5415,.59009-.90247,.98352h-.89984c-.35999,.39575-.53986,.59351-.89978,.98938v.98474h-5.40979c-.7215,.78857-1.08221,1.18286-1.80359,1.97144v1.97583c.36035,.39526,.54059,.59277,.901,.98779h2.70758v1.97314h.89996c.72083-.78931,1.08136-1.18396,1.80225-1.97314h1.80237v-3.94849h3.60474v1.97571h.89978c.35999-.39636,.53998-.5946,.90002-.99084h1.80225v1.97583c.362,.39526,.54315,.59277,.90515,.98779v.98511c-.362,.39526-.54315,.5929-.90515,.98804v.9834c.72083,.79053,1.0813,1.18567,1.80231,1.97595v.98621h-2.69958c-.362-.39441-.54297-.5918-.90497-.98621v-.98657h-3.60223c-1.44189,1.57886-2.16278,2.36829-3.60468,3.94727v.98633h-1.80225c-1.08209,1.18372-1.62299,1.77576-2.70496,2.95935v.98657c-1.44183,1.57825-2.1651,2.36743-3.60022,3.94568,.00519,1.1842,.00958,1.77649,.02069,2.96082h-.90601c-.36328-.39417-.5448-.59106-.90729-.98535-.0058-.79016-.00812-1.1853-.01141-1.97546h-6.30865c-.72009,.79016-1.07983,1.1853-1.79901,1.97546,.00348,.78918,.00562,1.18372,.01068,1.9729-.71729,.78809-1.07581,1.18213-1.79352,1.97046,.72852,.79065,1.09332,1.18616,1.8244,1.97693h1.81244c.71429-.79077,1.07111-1.18628,1.78461-1.97693h.90607c.3656,.39563,.54858,.59351,.91479,.98926,.00922,.78857,.0141,1.18286,.02429,1.97131h.90485c.36829,.39612,.55255,.59436,.92139,.9906,.01697,1.18201,.02588,1.77295,.04358,2.9552h4.5274c.3551-.39404,.53253-.59094,.88733-.98499h2.71515c.00745,.39404,.01111,.59094,.01855,.98499,.36829,.39514,.55249,.59265,.92065,.98792h4.50549c.73602,.78967,1.10364,1.18445,1.83722,1.97412h1.79211c.73212,.78857,1.0976,1.18286,1.82678,1.97144,.0061,.39526,.00909,.59277,.01483,.98804,.72729,.78906,1.09009,1.18359,1.81378,1.97278h4.45758c.72211,.78918,1.08234,1.18396,1.80115,1.97327h.88684c.00531,.78943,.00745,1.1842,.0108,1.97375-1.06189,1.18445-1.59814,1.77673-2.65887,2.96118,.0127,2.3667,.04602,3.55017,.13348,5.91687Zm83.96881-1.25854c-.46588,.70508-.70471,1.05945-1.19281,1.77026,.08032,.53662,.12134,.80591,.21173,1.3457-.8277,1.16748-1.25623,1.75427-2.13641,2.92859-3.23889,2.0011-4.78888,3.00305-7.53137,4.98499-.30682-.00244-.45312-.00366-.73334-.0061-.6311,.48083-.9375,.7207-1.5304,1.19971-.50891-.00586-.73541-.00867-1.1499-.0144,.1308-.44727,.19379-.67139,.31201-1.11926,.5885-.89734,.87897-1.34729,1.45007-2.24719-.21588-.00171-.32019-.00244-.52289-.00439,.1488-.77551,.21082-1.16321,.29932-1.93726-.25293-.00146-.3761-.00208-.61823-.00342-.2663,.28979-.39667,.43481-.65161,.72437-.42407-.00293-.62744-.00452-1.03345-.00757-.30011,.37939-.44562,.56909-.72772,.948-.37292-.00366-.55737-.00562-.94012-.00928-.35077,.51636-.51886,.77441-.84241,1.28955-.14514-.00183-.21899-.00281-.37018-.00464,.17902-.66797,.26733-1.0022,.4408-1.67065,.28589-.44189,.43298-.66309,.73669-1.10571,.61224-2.16663,.90289-3.25146,1.43713-5.40747,.3924-.46411,.59351-.69629,1.00708-1.15967,.86243-.00159,1.2843-.0022,2.13989-.00378,.40228-.43494,.60852-.65222,1.03033-1.08606,.11029-.28845,.16479-.43262,.27271-.72034,.74847-.7605,1.13757-1.13953,1.94147-1.89343,.52332-.00073,.78668-.00098,1.31958-.00171,1.47394-1.3125,2.22253-1.96155,3.84003-3.28931,.12891,.43701,.19287,.65564,.32098,1.09277h.85168c-.20337,.4292-.30798,.63855-.52997,1.05835l-.63123,.00024c-.20117,.39014-.30365,.58582-.51178,.97852,.17889,.875,.2486,1.31543,.36639,2.20105,.4671-.00085,.70532-.0011,1.19324-.00183,.67029-1.09082,.99268-1.63245,1.60767-2.70422,.46869-.3407,.70441-.51062,1.17688-.84875,.15363,.58667,.22534,.88159,.36511,1.47412-.77551,1.28687-1.18561,1.93896-2.04248,3.2522,.53461-.00098,.8092-.00122,1.37549-.00195Zm-11.81451-11.71375c.19794-.17126,.2973-.25671,.4975-.42798,.08954,.21326,.13391,.3197,.22192,.53296-.29688,.25574-.44421,.38367-.73578,.63928-.18152,.50562-.27014,.75842-.44141,1.26404-.16974,.00012-.2547,.00012-.4248,.00037-.55273-1.26514-.83813-1.89734-1.43634-3.16138-.23895-.50537-.36047-.75781-.60797-1.26318,.11688-.33691,.1759-.50537,.29498-.84241-.33209-.67761-.5022-1.01624-.85211-1.69373,.19281-.66895,.2901-1.00317,.48242-1.67188,.32111,.60986,.47742,.91479,.78223,1.52466,.37146,.74365,.55121,1.11548,.90039,1.85925,.21649,.46143,.32257,.69202,.53119,1.15344,.2832-.00012,.4245-.00037,.70648-.00049-.15356,.40894-.22968,.61328-.37958,1.02222,.18732,.4259,.27942,.63892,.46088,1.06482Zm2.6908-1.97595c.1178-.28857,.177-.43286,.2959-.72131,.49432-.00037,.74115-.00061,1.2348-.00085,1.79193-1.44751,2.72223-2.1709,4.59222-3.61743,.20502,.5127,.30389,.76904,.49591,1.28198-.58459,.44824-.87543,.67236-1.45264,1.12048,.19543,.53198,.28979,.79822,.47382,1.33032-.95587,.73987-1.42731,1.10974-2.34857,1.84998-.27802,.61816-.41589,.92725-.6864,1.54565-.45911,.00024-.68793,.00037-1.14551,.00073-.68298,.00049-1.02368,.00049-1.70624,.00098,.26575-.67285,.4024-1.00916,.67944-1.68176-.16962-.44348-.25604-.66528-.43274-1.10876Zm-.11499,5.52637c.3891-.00012,.58374-.00024,.97369-.00049-.11566,.29614-.17249,.44409-.2843,.74036-.40021,.00024-.59979,.00024-.99896,.00037-.10321-.27734-.15509-.41602-.25983-.69324-.94568,.00037-1.4176,.00061-2.36859,.00098-.10638-.25-.15991-.375-.26758-.625,.0838-.25928,.12646-.38879,.21338-.64807,.40961-.00024,.61383-.00024,1.02148-.00061,.59613-.02576,.89343-.0387,1.48901-.06458,.1958,.51611,.29199,.77405,.48169,1.29028Zm14.36334,1.42676c-.09705-.30176-.14502-.45264-.24023-.75415-.16656-.52808-.24872-.79199-.41162-1.31934-.23175,0-.34686,0-.57605,.00012-.50354,.34949-.75281,.52429-1.24493,.87402-.14587,.26245-.21851,.3938-.3631,.65637-.38727,.00024-.57892,.00024-.9588,.00049,.11798-.21924,.17743-.32886,.29651-.54785-.72882,.00037-1.08661,.00049-1.79181,.00073,.3587-.27002,.54022-.40503,.90649-.6748,.14923-.2793,.2243-.41895,.37482-.69824-.20911-.7168-.31372-1.07495-.52759-1.79089-.29352,.00012-.43951,.00037-.73022,.00037-.1217-.40674-.18317-.61011-.30798-1.01685-.09589,.00024-.14368,.00024-.23938,.00024l.14966-.29077c.03613,.11621,.05389,.17432,.08972,.29053,.94562-.00049,1.42401-.00073,2.39752-.00146,.21844-.40295,.32776-.60437,.54608-1.00732,.89117-.00049,1.34247-.00073,2.26086-.00134,.39081,1.20935,.57922,1.81433,.96643,3.02576-.2558,.43994-.38373,.66003-.63849,1.10034,.27057,.86084,.4071,1.2915,.69086,2.15381-.26135,.00024-.39117,.00024-.64874,.00024Zm6.08777-30.87329l-.91858,1.00537c-.49841,.54565-.74762,.81836-1.24603,1.36401h-2.0025v.63013c-.2041,.22339-.30615,.33521-.51038,.55859-.41821-.45776-.78943-.98462-.78943-.98462l.49982-.85938,.6839-.79797s.67413-.1532,1.18658-.1532c.43884-.4801,.65814-.72021,1.09692-1.20044v-1.12415l.12231-1.20496s-.82214-.30334-1.28864-.81409v-1.74402h1.16632l.92548,1.01318v.83496c0,.26758-.43158,.61694-.43158,.61694,0,0,1.07611,.75732,1.5058,1.22766v1.63196Zm4.26428-15.30737h-3.97546v1.72437c.53699,.58789,.80536,.88159,1.34229,1.46936v2.17346c-1.19208-1.30493-1.78821-1.95752-2.98029-3.26245v-2.78345h-3.64459v.84851h-3.84021c-.93054,1.01843-1.39569,1.52759-2.32611,2.54602v1.18201h3.1861c.67151,.73523,1.00739,1.10266,1.67889,1.83789,.46881,.51306,.70319,.76965,1.17194,1.28259v2.75989c-.72675,.79541-1.09003,1.19324-1.81665,1.98865-.52521,.57471-.78766,.86206-1.31281,1.43677,.7265,.79541,1.08984,1.19299,1.81641,1.98828v1.54211h-1.58936c-.362-.39636-.54303-.59436-.90491-.99048v-1.44861c-.46429-.5083-.69641-.76233-1.16071-1.27051h-1.3678c-.41003-.44873-.61493-.67322-1.0249-1.12183-.7182,.78601-1.07733,1.1792-1.79541,1.96521,.55292,.60522,.82941,.90784,1.38239,1.51318h1.47632c-.40057,.4386-.60101,.65784-1.00159,1.09644,.93237,1.02063,1.3985,1.53088,2.33099,2.55151,0,.71289-.0213,1.06921-.08258,1.78198-1.54492,1.55176-2.3797,2.32739-4.11383,3.87878-.95978,.00012-1.4397,.00024-2.40082,.00024-.91809,.82739-1.38885,1.24121-2.34576,2.0686,.836,1.32568,1.21436,1.98828,1.91089,3.31348-.21271,.6084-.32349,.9126-.55078,1.52087-.36169,.29163-.54285,.4375-.90485,.72913-.59601,.00037-.89435,.00049-1.49255,.00073-.6098-1.2251-.93695-1.83777-1.64709-3.06323-.19135,.61841-.2915,.92773-.49805,1.54614-.255,.76392-.38818,1.14575-.65948,1.90991,.43579,.84143,.64331,1.26221,1.04059,2.10376-.28992,.76172-.43689,1.14258-.72858,1.90454-.25262,.65991-.37891,.98975-.62762,1.64966-.27527-.6145-.4165-.92163-.70721-1.53601,.16931-.45667,.25433-.68481,.42413-1.14124-.33978-.70752-.51532-1.06104-.87952-1.76831,.21082-.59155,.31549-.88708,.52039-1.47839,.33112-1.2771,.48975-1.91541,.76404-3.1925-.19379-.32861-.29272-.49316-.49414-.8219-.36694,.30994-.55139,.46497-.92218,.7749,.15784-.53027,.23401-.79553,.3786-1.32581-.79877-1.26807-1.22638-1.9021-2.14777-3.17065-.5741,.00024-.86176,.00024-1.4386,.00024-.53705,.00012-.80615,.00012-1.34583,.00024-.08838,.4613-.13647,.69202-.23907,1.15332-1.70001,1.47998-2.59564,2.22021-4.44745,3.70056-.22137,.74463-.33698,1.11682-.57135,1.86145,.19177,.29834,.28699,.44739,.47607,.74561-1.01959,.80322-1.53619,1.20459-2.5155,2.00757,.06122-.50879,.09198-.76331,.15259-1.27222h-.10809c.06909-.21777,.10358-.32666,.1723-.54443,.02673-.22729,.03979-.34106,.06567-.56848-.20325-.34448-.30518-.51672-.51019-.86121,.12012-.39453,.17944-.5918,.29602-.98633-.48163-.78931-.72559-1.18384-1.23041-1.97314,.41388-1.57935,.60272-2.36902,.8869-3.94849-.57782-.78857-.87689-1.18286-1.5011-1.97131h-5.3844c-.3172-.39417-.47888-.59119-.80859-.98523h-3.57898c-.66925-.79028-1.01611-1.1853-1.7326-1.97559,.00226-.39404,.00018-.59106,.00018-.98511h-1.80243c0,.78906,.00604,1.18372-.01105,1.97266,.70129,.78931,1.0412,1.18396,1.69739,1.97327h1.7796c.64868,.78845,.96088,1.18274,1.56189,1.97131h.8797c-.05432,.39575-.08337,.59375-.14478,.9895-2.05634,1.9729-3.10205,2.95923-5.09424,4.93213h-2.48499c-.276-.39294-.4165-.58936-.70233-.98242,.09991-.79028,.14783-1.1853,.23553-1.97559-.59583-.78955-.90442-1.18445-1.5415-1.97412,.05981-.78931,.086-1.18384,.12732-1.97314-.66754-.78918-1.01172-1.18384-1.71643-1.9729h-1.78888c-.00684,.78906-.0152,1.18372-.03931,1.9729,.34369,.39343,.51349,.59021,.84851,.98364-.05444,1.18555-.09119,1.77832-.1748,2.96362,1.58197,1.97241,2.31097,2.9585,3.6543,4.93079h4.85809c-.07843,.39514-.11792,.59265-.19708,.98767-3.20032,3.15845-4.66205,4.73755-7.27533,7.89612-.06927,.78845-.10071,1.18274-.15387,1.97131,.2605,.39404,.39008,.59094,.64917,.98486-.12128,1.97351-.12189,2.96021-.12189,4.93359-1.10132,1.57837-1.6546,2.36768-2.78632,3.94604v1.97412h-.71167c-.28534,.39404-.42859,.59106-.71722,.98511v1.97559c-1.15558,1.57837-1.74512,2.36768-2.96771,3.94604h-4.84186v-3.94604c-.68469-.79016-1.034-1.1853-1.74921-1.97559v-3.9458c-.35883-.39551-.54224-.59351-.9046-.98901,.00018-.78833,.00031-1.18225,.00079-1.97046,.72302-.78906,1.0871-1.18372,1.78052-1.97278-.00183-.39514-.00262-.59253-.00385-.98767-.69788-.78931-1.05438-1.18396-1.77576-1.97314v-.98486c-.71765-.78857-1.07593-1.18286-1.79242-1.97131-.00049-1.97534-.00098-2.96289-.00201-4.93811h-1.79688c-.3606-.39343-.54083-.59009-.90149-.98352h-2.69104c-.35681,.39343-.5351,.59009-.8916,.98352h-4.47821c-1.79755-1.9729-2.69928-2.95923-4.50708-4.93213-.01349-1.57776-.02002-2.36658-.03101-3.94434,.35559-.39465,.53363-.5918,.88971-.98657-.00232-.39502-.0033-.59253-.00537-.98755h-.89673c-.00452-.78931-.00641-1.18384-.00958-1.97314,1.0733-1.18433,1.61151-1.77661,2.69006-2.96094h.90503c.3598-.39502,.53979-.59253,.90009-.98755,.00073-.78857,0-1.18286,0-1.97144,.36163-.39294,.5423-.58948,.90393-.98242h4.5072c.35986-.39575,.53986-.59351,.8999-.98926h4.50989v1.97168c.36041,.39453,.54059,.5918,.90106,.98633h3.6048c.35992,.39404,.53503,.59106,.90021,.98511h.90112c-.01233-.78857-.00043-1.18286-.00043-1.97144h1.80383c.72137,.78857,1.06671,1.18286,1.8042,1.97144h3.60461c.7066-.78857,1.08099-1.18286,1.80188-1.97144v-1.97168h-4.5072c-.72101-.78918-1.08142-1.18384-1.80231-1.9729v-.98804h-.90118c-.36053,.39539-.54083,.59277-.90131,.98804h-.90253v-2.96069c-.72028-.78918-1.08051-1.18384-1.8009-1.9729h-2.70886v1.9729c.72247,.78906,1.08386,1.18372,1.8064,1.97266h.90247v1.97327h-1.80377c-.362-.39417-.54309-.59119-.90509-.98523v-.98804c-.71893-.78894-1.07819-1.18359-1.797-1.97266h-2.70624c-.7215,.78906-1.08215,1.18372-1.80365,1.97266v.98804c-.36005,.39404-.54004,.59106-.8999,.98523h-3.60602c-.36053-.39417-.54071-.59119-.90118-.98523v-2.96069c.36047-.39404,.54065-.59106,.90118-.98486h.90247c.36041,.3938,.54071,.59082,.90112,.98486h1.80243v-1.9729h-.89984v-.98486l.89984-.98792h1.80096c.7226-.78918,1.0838-1.18359,1.8064-1.97278h.89984c.36096-.39514,.5415-.59277,.90259-.98792h.90106v-1.97144h-2.70349v-1.97424c.35992-.39465,.53992-.59192,.89984-.98657h.90259c.36041-.39575,.54059-.59351,.90106-.98938v-.98376c.35834-.39563,.53754-.59338,.89594-.98901h.90509c.72162-.78931,1.08228-1.18384,1.80377-1.97314h8.11194c.36041,.39575,.54059,.59363,.90106,.98926v1.9729h.90002c.71979-.78906,1.07971-1.18372,1.79962-1.9729h.90515v1.9729h.89984c.7204-.78906,1.08057-1.18372,1.80109-1.9729h5.40961v-1.97266h1.80237c.36005,.39331,.54004,.58997,.90002,.9834v1.97314h1.80219v-1.97314c.72205-.78784,1.08301-1.18188,1.80499-1.96973h.90253c.35999-.39673,.53992-.59521,.8999-.99219h4.50977l.29083-.31543s.13037,.23901,.31641,.99194h1.88367c.71295,.78027,1.06934,1.17041,1.78223,1.95068h6.7016c.30573,.33472,.45862,.50208,.7644,.83691h3.224c.6261-.6853,.93896-1.02795,1.565-1.71326h3.16388c.32239,.35303,.48358,.52942,.80603,.88232h4.96576c.435,.47607,.65253,.71423,1.0874,1.19031h8.57623c.75439,.82568,1.13159,1.23865,1.88586,2.06445h4.63641v.67358h-3.13129c-.35193,.38525-.52789,.57788-.87988,.96313,.72778,.79663,1.09167,1.19507,1.81946,1.9917Z"/><polygon points="214.68677 164.17883 214.68677 123.63098 189.64276 123.63098 189.64276 164.17883 197.18579 164.17883 197.18579 130.25977 207.19849 130.25977 207.19849 164.17883 214.68677 164.17883"/><path d="M456.1424,80.41125c0-8.32031-3.9375-12.48059-11.81451-12.48059h-10.28906v40.54797h7.54297v-14.69934h1.88666c4.10455,0,7.24225-1.15125,9.4151-3.45312,2.17285-2.30164,3.25885-5.60632,3.25885-9.91492Zm-8.98541,5.29773c-.90619,1.0166-2.28418,1.52539-4.13281,1.52539h-1.44238v-12.78601h1.83112c1.73724,0,3.0224,.51367,3.85449,1.53894,.83197,1.02637,1.24799,2.60364,1.24799,4.72949,0,2.31165-.45312,3.97559-1.3584,4.99219Z"/><path d="M303.02026,108.47864h7.57233l-10.06842-40.71387h-10.2334l-10.03998,40.71387h7.54388l2.3291-10.23438h10.56738l2.3291,10.23438Zm-11.39838-16.91797c1.55267-6.82239,2.51459-11.19043,2.8847-13.10449,.3692-1.91418,.6748-3.66504,.9151-5.25598,.0918,.77637,.3642,2.31641,.8183,4.61829,.45221,2.30176,.7442,3.73926,.87311,4.3125l2.16296,9.42969h-7.65417Z"/><path d="M235.18188,164.7334c4.67773,0,8.2749-1.80273,10.78961-5.4082,2.51361-3.60535,3.77142-8.76355,3.77142-15.47546s-1.24805-11.86633-3.74414-15.46204-6.0835-5.39453-10.76117-5.39453c-4.7334,0-8.35742,1.78918-10.87213,5.36621-2.51459,3.57812-3.77148,8.72278-3.77148,15.43469,0,6.76758,1.2569,11.9491,3.77148,15.5448,2.51471,3.5968,6.12012,5.39453,10.81641,5.39453Zm-5.1308-31.46472c1.16498-2.41321,2.89349-3.61914,5.18652-3.61914,4.51068,0,6.76709,4.7334,6.76709,14.2002s-2.27399,14.20007-6.82281,14.20007c-2.2558,0-3.96582-1.21094-5.1308-3.63367-1.1651-2.42188-1.74707-5.94446-1.74707-10.56641,0-4.64075,.58197-8.16797,1.74707-10.58105Z"/><path d="M210.55402,28.38586c1.0166-1.58118,1.52539-3.54492,1.52539-5.89368,0-3.56824-.961-6.1709-2.88379-7.80652-1.92383-1.63672-4.99225-2.4552-9.20801-2.4552h-10.34485V52.77844h12.20325c3.41986,0,6.11517-1.04016,8.08398-3.12024,1.96973-2.07996,2.9541-4.95984,2.9541-8.63953,0-2.60645-.50879-4.69641-1.52539-6.2677-1.01764-1.57129-2.67194-2.64343-4.9649-3.2168v-.27722c1.7569-.33301,3.14362-1.29016,4.16022-2.87109Zm-13.81152-9.6377h3.18939c1.5899,0,2.75488,.36511,3.4942,1.0957,.7392,.73047,1.10931,1.9375,1.10931,3.61902,0,1.68274-.32318,2.94934-.9707,3.7998-.6474,.85059-1.76562,1.27539-3.35541,1.27539h-3.4668v-9.78992Zm7.30762,25.9873c-.7666,.96179-1.93652,1.44238-3.50781,1.44238h-3.7998v-11.34387h3.68842c3.17969,0,4.77051,1.8125,4.77051,5.43665,0,2.01465-.38373,3.50391-1.15131,4.46484Z"/><polygon points="262.99982 18.74817 262.99982 12.23047 244.72339 12.23047 244.72339 52.77844 262.99982 52.77844 262.99982 46.17786 252.26642 46.17786 252.26642 34.94543 262.22339 34.94543 262.22339 28.39954 252.26642 28.39954 252.26642 18.74817 262.99982 18.74817"/><path d="M404.61206,164.17883h6.93365v-40.54785h-9.2627l-12.37012,29.12109h-.30469c.35059-2.25598,.52625-4.53918,.52625-6.85071v-22.27039h-6.98816v40.54785h9.3183l12.4248-29.42578h.36041c-.4248,2.07031-.63776,4.47461-.63776,7.21082v22.21497Z"/><polygon points="386.86206 108.47864 394.37769 108.47864 394.37769 74.55957 402.14331 74.55957 402.14331 67.93066 379.0965 67.93066 379.0965 74.55957 386.86206 74.55957 386.86206 108.47864"/><path d="M313.53198,164.7334c4.67773,0,8.27441-1.80273,10.78912-5.4082,2.51361-3.60535,3.77148-8.76355,3.77148-15.47546s-1.24811-11.86633-3.7442-15.46204-6.08301-5.39453-10.76068-5.39453c-4.7334,0-8.35754,1.78918-10.87213,5.36621-2.51459,3.57812-3.77148,8.72278-3.77148,15.43469,0,6.76758,1.2569,11.9491,3.77148,15.5448,2.51459,3.5968,6.12012,5.39453,10.81641,5.39453Zm-5.13092-31.46472c1.1651-2.41321,2.89362-3.61914,5.18665-3.61914,4.51068,0,6.7666,4.7334,6.7666,14.2002s-2.2735,14.20007-6.82233,14.20007c-2.25592,0-3.96582-1.21094-5.13092-3.63367-1.16498-2.42188-1.74695-5.94446-1.74695-10.56641,0-4.64075,.58197-8.16797,1.74695-10.58105Z"/><polygon points="331.67072 108.47864 339.2146 108.47864 339.2146 67.93066 331.67072 67.93066 331.67072 84.04504 321.71356 84.04504 321.71356 67.93066 314.17072 67.93066 314.17072 108.47864 321.71356 108.47864 321.71356 90.70117 331.67072 90.70117 331.67072 108.47864"/><path d="M231.88208,18.24915c1.10944,0,2.13483,.23523,3.07812,.70703,.94336,.47168,1.83008,.99402,2.66211,1.56738l2.49609-6.12988c-1.55273-1.0166-3.00879-1.72852-4.3681-2.13489-1.3584-.40723-2.7774-.61023-4.2569-.61023-4.4931,0-8.00092,1.83972-10.52539,5.51843-2.52344,3.67969-3.78516,8.81067-3.78516,15.39258,0,6.58301,1.22461,11.69043,3.6748,15.32336,2.44922,3.63367,5.95801,5.4502,10.52441,5.4502,3.08789,0,5.62109-.65625,7.59961-1.96875v-6.71191c-2.34857,1.36816-4.59473,2.05164-6.7392,2.05164-4.90039,0-7.34973-4.69617-7.34973-14.08875,0-4.51086,.62415-8.0332,1.87213-10.56641,1.24811-2.5332,2.95312-3.7998,5.11719-3.7998Z"/><polygon points="378.65308 157.82727 374.04858 157.82727 374.04858 123.63098 366.5603 123.63098 366.5603 157.52246 357.79669 157.52246 357.79669 123.63098 350.30841 123.63098 350.30841 157.52246 341.5437 157.52246 341.5437 123.63098 334.00079 123.63098 334.00079 164.17883 371.33081 164.17883 371.33081 175.77148 378.65308 175.77148 378.65308 157.82727"/><polygon points="383.75562 35.00098 393.71271 35.00098 393.71271 52.77844 401.25659 52.77844 401.25659 12.23047 393.71271 12.23047 393.71271 28.34485 383.75562 28.34485 383.75562 12.23047 376.21271 12.23047 376.21271 52.77844 383.75562 52.77844 383.75562 35.00098"/><path d="M430.46069,108.47864l-10.06836-40.71387h-10.23334l-10.0401,40.71387h7.54401l2.3291-10.23438h10.56732l2.3291,10.23438h7.57227Zm-18.9707-16.91797c1.55267-6.82239,2.51471-11.19043,2.88483-13.10449,.36908-1.91418,.67474-3.66504,.91498-5.25598,.0918,.77637,.36426,2.31641,.81836,4.61829,.45215,2.30176,.74414,3.73926,.87305,4.3125l2.16309,9.42969h-7.6543Z"/><path d="M467.38849,3.60547c-.60059,.7395-1.51184,1.10962-2.73151,1.10962-1.2392,0-2.14941-.32349-2.73242-.9707-.58197-.64771-.97559-1.89551-1.17871-3.74438h-6.12885c.29486,3.16138,1.22949,5.44946,2.80078,6.8645,1.57117,1.41406,3.92871,2.12109,7.0722,2.12109,3.21777,0,5.65326-.7207,7.30859-2.16333,1.6543-1.44238,2.66602-3.71558,3.03607-6.82227h-6.24017c-.20312,1.66406-.60553,2.86646-1.20599,3.60547Z"/><path d="M471.97827,52.77844h6.93359V12.23047h-9.2627l-12.37012,29.12109h-.30469c.35059-2.25586,.52643-4.53906,.52643-6.85059V12.23047h-6.98834V52.77844h9.3183l12.4248-29.42578h.36041c-.4248,2.07031-.6377,4.47461-.6377,7.21082v22.21497Z"/><rect x="435.78485" y="12.23047" width="7.57233" height="40.54797"/><path d="M269.51831,108.47864h7.15527v-40.54797h-11.75977l-6.87793,31.86731h-.22168l-6.93359-31.86731h-11.5932v40.54797h6.98865v-27.20715c0-2.21863-.17566-4.66003-.52625-7.32214h.30469l7.7099,34.5293h8.2373l7.68268-34.47375h.22162c-.25879,2.38489-.3877,4.71497-.3877,6.98938v27.48438Z"/><polygon points="189.64276 108.47864 197.1311 108.47864 197.1311 74.44836 207.75317 74.44836 207.75317 67.93066 189.64276 67.93066 189.64276 108.47864"/><path d="M221.71802,106.21777c1.85748-1.87598,3.50787-5.0791,4.9502-9.60938l9.04108-28.67773h-7.62701l-4.40918,15.83691-.41602,1.85742-.38867,1.88684h-.22162c-.11139-1.03625-.37903-2.28418-.80469-3.74426l-5.1582-15.83691h-7.9043l10.40039,28.2334c-1.20221,4.12402-2.91223,6.18567-5.13092,6.18567-1.44238,0-2.83887-.26855-4.1875-.80469v6.71191c1.3125,.51758,2.93951,.77625,4.88092,.77625,2.79187,0,5.11713-.93835,6.97552-2.81543Z"/><path d="M299.13849,52.77844h7.15521V12.23047h-11.7597l-6.87799,31.86731h-.22162l-6.93359-31.86731h-11.59277V52.77844h6.98828V25.57129c0-2.21863-.17578-4.66003-.52643-7.32214h.30469l7.7099,34.5293h8.23743l7.68262-34.47375h.22156c-.25867,2.38489-.38757,4.71497-.38757,6.98938v27.48438Z"/><path d="M349.0047,52.77844h7.54291v-14.69934h1.88678c4.10443,0,7.24213-1.15125,9.41498-3.45312,2.17285-2.30164,3.25885-5.60632,3.25885-9.91492,0-8.32031-3.9375-12.48059-11.81451-12.48059h-10.289V52.77844Zm7.54291-34.03027h1.83105c1.7373,0,3.0224,.51367,3.85455,1.53906,.83197,1.02625,1.24799,2.60352,1.24799,4.72937,0,2.31165-.45312,3.97559-1.3584,4.99219-.90619,1.0166-2.28424,1.52539-4.13281,1.52539h-1.44238v-12.78601Z"/><path d="M367.83569,108.47864h6.93359v-40.54797h-9.2627l-12.37012,29.12122h-.30469c.35059-2.25598,.52643-4.53918,.52643-6.85071v-22.27051h-6.98834v40.54797h9.31842l12.4248-29.42578h.36029c-.4248,2.07031-.6377,4.47461-.6377,7.21082v22.21497Z"/><path d="M334.91577,52.77844h6.93359V12.23047h-9.2627l-12.37006,29.12109h-.30475c.35065-2.25586,.52643-4.53906,.52643-6.85059V12.23047h-6.98828V52.77844h9.3183l12.4248-29.42578h.36035c-.4248,2.07031-.6377,4.47461-.6377,7.21082v22.21497Z"/><path d="M427.27124,49.39465c2.16309-2.25598,3.24414-5.42578,3.24414-9.5127,0-7.87708-4.20605-11.81458-12.61914-11.81458h-1.94141V12.23047h-7.54297V52.77844h9.65137c3.97461,0,7.04395-1.12805,9.20801-3.38379Zm-11.31641-3.16125v-11.56543h1.49805c1.97852,0,3.37891,.4259,4.20215,1.27551,.82227,.85059,1.2334,2.25586,1.2334,4.2157,0,4.04895-1.68262,6.07422-5.04688,6.07422h-1.88672Z"/><path d="M541.39819,60.41516c-1.2392,0-2.14941-.32336-2.73242-.9707-.58197-.64758-.97559-1.89551-1.17871-3.74426h-6.12891c.29492,3.16125,1.22949,5.44934,2.80084,6.86438,1.57129,1.41406,3.92865,2.12109,7.0722,2.12109,3.21777,0,5.65326-.7207,7.30859-2.16321,1.6543-1.44238,2.66595-3.7157,3.03619-6.82227h-6.2403c-.20312,1.66418-.60541,2.86621-1.20599,3.60547-.60065,.73938-1.51184,1.1095-2.73151,1.1095Z"/><polygon points="486.28979 108.47864 486.28979 67.93066 478.74585 67.93066 478.74585 84.04504 468.78876 84.04504 468.78876 67.93066 461.24585 67.93066 461.24585 108.47864 468.78876 108.47864 468.78876 90.70117 478.74585 90.70117 478.74585 108.47864 486.28979 108.47864"/><polygon points="552.35229 18.74817 552.35229 12.23047 534.07599 12.23047 534.07599 52.77844 552.35229 52.77844 552.35229 46.17786 541.6189 46.17786 541.6189 34.94543 551.57599 34.94543 551.57599 28.39954 541.6189 28.39954 541.6189 18.74817 552.35229 18.74817"/><path d="M285.88159,164.17883h7.15527v-40.54785h-11.75977l-6.87793,31.86719h-.22168l-6.93359-31.86719h-11.59283v40.54785h6.98834v-27.20715c0-2.21863-.17584-4.66003-.52631-7.32214h.30457l7.71002,34.5293h8.2373l7.68262-34.47375h.22168c-.25879,2.38489-.3877,4.71497-.3877,6.98938v27.48438Z"/><path d="M506.84058,67.29297c-4.7334,0-8.35742,1.78918-10.87213,5.36621-2.51459,3.57812-3.77148,8.72278-3.77148,15.43469,0,6.76758,1.2569,11.9491,3.77148,15.5448,2.51471,3.5968,6.12012,5.39453,10.81641,5.39453,4.6778,0,8.27454-1.80273,10.78912-5.4082,2.51367-3.60535,3.77148-8.76355,3.77148-15.47546s-1.24811-11.86633-3.7442-15.46204c-2.49597-3.5957-6.08301-5.39453-10.76068-5.39453Zm-.05573,35.05676c-2.2558,0-3.96576-1.21106-5.1308-3.63379-1.1651-2.42188-1.74707-5.94446-1.74707-10.56641,0-4.64075,.58197-8.16797,1.74707-10.58105,1.16504-2.41321,2.89349-3.61914,5.18652-3.61914,4.51068,0,6.7666,4.7334,6.7666,14.2002s-2.27338,14.2002-6.82233,14.2002Z"/><path d="M534.02026,97.05188h-.30469c.35059-2.25598,.52637-4.53918,.52637-6.85071v-22.27051h-6.98828v40.54797h9.3183l12.42493-29.42578h.36029c-.4248,2.07031-.6377,4.47461-.6377,7.21082v22.21497h6.93359v-40.54797h-9.2627l-12.37012,29.12122Z"/><polygon points="575.7605 28.34485 565.80347 28.34485 565.80347 12.23047 558.2605 12.23047 558.2605 52.77844 565.80347 52.77844 565.80347 35.00098 575.7605 35.00098 575.7605 52.77844 583.3045 52.77844 583.3045 12.23047 575.7605 12.23047 575.7605 28.34485"/><path d="M599.94507,28.06738h-1.94141V12.23047h-7.54297V52.77844h9.65137c3.97461,0,7.04388-1.12805,9.20801-3.38379,2.16309-2.25598,3.24408-5.42578,3.24408-9.5127,0-7.87708-4.20599-11.81458-12.61908-11.81458Zm-.05469,18.16602h-1.88672v-11.56543h1.49799c1.97864,0,3.37891,.4259,4.20221,1.27551,.8222,.85059,1.2334,2.25586,1.2334,4.2157,0,4.04895-1.68256,6.07422-5.04688,6.07422Z"/><path d="M529.63849,64.37109v-18.24902h-4.60449V12.23047h-18.52643c-1.07227,12.48059-3.5127,23.77832-7.32227,33.8916h-2.3847v18.24902h7.3222v-11.59265h18.19336v11.59265h7.32233Zm-12.1485-18.24902h-10.45514c1.38684-4.0116,2.59283-8.43542,3.6192-13.27051,1.02631-4.83496,1.77051-9.4989,2.23242-13.99219h4.60352v27.2627Z"/></svg>