<?xml version="1.0" encoding="UTF-8"?><svg id="english" xmlns="http://www.w3.org/2000/svg" viewBox="0 0 567.62378 164.40918"><defs><style>.cls-1{fill:none;}</style></defs><path class="cls-1" d="M417.85425,130.67627h-5.01465v13.53711h5.01465c1.34961,0,2.02539-.67383,2.02539-2.02148v-9.49414c0-1.34766-.67578-2.02148-2.02539-2.02148Z"/><polygon class="cls-1" points="415.95288 39.17725 422.42456 39.17725 419.18921 21.54639 415.95288 39.17725"/><path class="cls-1" d="M203.20288,100.07861v-22.98145c0-1.38086-.67529-2.07129-2.02539-2.07129h-4.64398v27.07422h4.64398c1.3501,0,2.02539-.67383,2.02539-2.02148Z"/><polygon class="cls-1" points="456.323 150.47705 462.79468 150.47705 459.55939 132.84619 456.323 150.47705"/><path class="cls-1" d="M201.17749,19.37646h-4.64398v27.07422h4.64398c1.3501,0,2.02539-.67383,2.02539-2.02148V21.44775c0-1.38086-.67529-2.07129-2.02539-2.07129Z"/><polygon class="cls-1" points="554.8045 77.1958 551.56805 94.82666 558.03979 94.82666 554.8045 77.1958"/><path class="cls-1" d="M377.15106,19.37646h-4.64349v27.07422h4.64349c1.35065,0,2.02643-.67383,2.02643-2.02148V21.44775c0-1.38086-.67578-2.07129-2.02643-2.07129Z"/><polygon class="cls-1" points="288.74878 150.47705 295.22052 150.47705 291.98511 132.84619 288.74878 150.47705"/><polygon class="cls-1" points="241.69696 21.54639 238.46167 39.17725 244.93341 39.17725 241.69696 21.54639"/><polygon class="cls-1" points="289.17261 94.82666 295.64429 94.82666 292.409 77.1958 289.17261 94.82666"/><polygon class="cls-1" points="386.58472 132.84619 383.34839 150.47705 389.82007 150.47705 386.58472 132.84619"/><polygon class="cls-1" points="334.698 77.1958 331.46167 94.82666 337.93341 94.82666 334.698 77.1958"/><path d="M121.1684,7.66431c-24.3172,0-37.61731,17.5459-37.61731,17.5459,0,0-13.30011-17.5459-37.61731-17.5459C20.07971,7.66431,0,27.74243,0,53.58911c0,21.68457,13.24701,40.65625,35.46307,62.7395l48.08801,48.08057,48.08801-48.08057c22.21619-22.08325,35.46307-41.05493,35.46307-62.7395,0-25.84668-20.07971-45.9248-45.93378-45.9248ZM58.75787,95.39526c-.67639,.78931-1.01196,1.18384-1.67871,1.9729h-1.76538c-.3313,.39404-.49652,.59106-.82581,.98511,.11011,1.97339,.17474,2.96021,.30023,4.93359-.97412,1.18433-1.45819,1.77661-2.43054,2.96069h-1.7533c-.6496,.78906-.97498,1.18384-1.63031,1.9729,.0531,.79028,.07874,1.1853,.12585,1.97559-.33051,.39478-.4964,.59204-.83002,.98657,.02191,.39453,.03229,.59204,.052,.98657,.375,.39331,.56146,.59009,.93201,.98364h.88141c.08496,1.97461,.11475,2.96191,.12195,4.93652h-2.65869c-.71631-.78906-1.07916-1.18384-1.82129-1.97314-.02386-1.1853-.04437-1.77808-.09631-2.96338-.38019-.39355-.57135-.59033-.95587-.98364-.0791-1.57935-.12952-2.36914-.23749-3.94873-.78302-.78906-1.17725-1.18384-1.9671-1.9729-.08459-1.18408-.12903-1.77637-.21631-2.96069-.39612-.39404-.59412-.59106-.99011-.98511-.25537-3.55273-.39148-5.3291-.52728-8.88184h-1.8158c-.75684-.78882-1.13281-1.18286-1.87903-1.97168-.00891-.39258-.01257-.58911-.01862-.98193-.74127-.79102-1.10608-1.18652-1.8382-1.97754-.00098-.39282-.00177-.58936-.00348-.98218-.73029-.79028-1.0965-1.1853-1.82941-1.97559-.01141-1.57886-.01959-2.36841-.03827-3.94751,.71655-.78955,1.07416-1.18433,1.7876-1.97412-.01703-1.18433-.02625-1.77637-.04492-2.96094h-2.72028c-.36884-.3938-.5531-.59082-.92175-.98462-.00537-.39526-.00806-.59277-.01355-.98804-.73779-.78906-1.10632-1.18359-1.84222-1.97266h-2.71558c-.00421-.39307-.00635-.5896-.01044-.98242h-3.63055c-.3634-.39624-.54504-.59448-.90784-.99072h-.9079c-.72827-.78833-1.0918-1.18262-1.81781-1.97119-.00189-.39575-.00287-.59375-.00458-.98926,.36017-.39526,.54022-.59277,.90027-.98804-.00165-.39282-.00256-.58936-.00409-.98242-1.08929-1.18481-1.63251-1.77734-2.71698-2.96216-.00073-.78906-.00079-1.18359-.00031-1.97266h-.89862c-.00085,1.18481-.00061,1.7771,.00079,2.96191,.36023,.39429,.54034,.59131,.901,.98535-.35895,.39502-.53845,.59253-.89746,.98755-.72369-.78931-1.08502-1.18384-1.80688-1.9729-.00153-1.97217,.00079-2.95825,.00079-4.93018-.36053-.39648-.54071-.59473-.90112-.99097v-2.95801c.72101-.78955,1.08142-1.18433,1.80231-1.97437v-.98633c.71991-.78979,1.07977-1.18457,1.79968-1.97412v-2.95947c-.35938-.39502-.53906-.59277-.8985-.98804v-1.9729c-.72101-.79028-1.08142-1.18555-1.80237-1.97583h-3.6073c-.36053,.39624-.54065,.59448-.90112,.99097h-3.60742c-.36035-.39648-.54065-.59473-.90106-.99097v-.98486c.36041-.39453,.54071-.59204,.90106-.98657h2.70624v-.98486c.36047-.39575,.54077-.59351,.90118-.98926h1.80487c.72095-.78857,1.08142-1.18286,1.80243-1.97144h5.4071c.36102,.39526,.5415,.59277,.90247,.98804h4.50061c.36151-.39526,.54224-.59277,.90381-.98804h4.5072c.72089,.78857,1.08142,1.18286,1.80243,1.97144h.90381v-2.95508c-.36163-.39526-.54236-.59277-.90381-.98779v-.98804h4.5058v1.97583h1.80231c.36096,.39331,.54156,.59009,.90259,.98364v.98804h-1.80359v.9834h3.60858c.35999-.39355,.53998-.59009,.89996-.9834v-2.95947h2.70483v.98779c-.36102,.39331-.54163,.59009-.90259,.98364v.98804h1.80237v-1.97168c.35992-.39526,.53992-.59277,.89984-.98779h4.5047c.72089,.78857,1.08136,1.18286,1.80225,1.97144h.90515c.72095,.78857,1.08136,1.18286,1.80231,1.97144v.98926h-2.70746c-.35895,.39404-.53839,.59106-.89728,.98486h-1.80499v-.98486c.35999-.39575,.53998-.59351,.90002-.98926v-.9834h-3.60223c-.36096,.39331-.5415,.58984-.90247,.9834h-.89984c-.35999,.39575-.53986,.59351-.89978,.98926v.98486h-5.40979c-.7215,.78857-1.08221,1.18286-1.80359,1.97144v1.97583c.36035,.39526,.54059,.59277,.901,.98779h2.70758v1.97314h.89996c.72083-.78931,1.08136-1.18408,1.80225-1.97314h1.80237v-3.94849h3.60474v1.97583h.89978c.35999-.39648,.53998-.59473,.90002-.99097h1.80225v1.97583c.362,.39526,.54315,.59277,.90515,.98779v.98511c-.362,.39526-.54315,.59302-.90515,.98804v.9834c.72083,.79053,1.0813,1.18555,1.80231,1.97607v.98608h-2.69958c-.362-.39429-.54297-.5918-.90497-.98608v-.98682h-3.60223c-1.44189,1.5791-2.16278,2.36841-3.60468,3.94727v.98633h-1.80225c-1.08209,1.18384-1.62299,1.77588-2.70496,2.95947v.98657c-1.44183,1.57837-2.1651,2.36743-3.60022,3.94556,.00519,1.18433,.00958,1.77661,.02069,2.96094h-.90601c-.36328-.39404-.5448-.59106-.90729-.98535-.0058-.79004-.00812-1.1853-.01141-1.97559h-6.30865c-.72009,.79028-1.07983,1.18555-1.79901,1.97559,.00348,.78906,.00562,1.18359,.01068,1.9729-.71729,.78809-1.07581,1.18213-1.79352,1.97046,.72852,.79053,1.09332,1.18604,1.8244,1.97705h1.81244c.71429-.79102,1.07111-1.18652,1.78461-1.97705h.90607c.3656,.39551,.54858,.59351,.91479,.98926,.00922,.78857,.0141,1.18286,.02429,1.97119h.90485c.36829,.39624,.55255,.59448,.92139,.99072,.01697,1.18213,.02588,1.77295,.04358,2.95508h4.5274c.3551-.39404,.53253-.59082,.88733-.98486h2.71515c.00745,.39404,.01111,.59082,.01855,.98486,.36829,.39526,.55249,.59277,.92065,.98804h4.50549c.73602,.78979,1.10364,1.18433,1.83722,1.97412h1.79211c.73212,.78857,1.0976,1.18286,1.82678,1.97144,.0061,.39526,.00909,.59277,.01483,.98804,.72729,.78906,1.09009,1.18359,1.81378,1.9729h4.45758c.72211,.78906,1.08234,1.18384,1.80115,1.97314h.88684c.00531,.78955,.00745,1.18408,.0108,1.97363-1.06189,1.18457-1.59814,1.77686-2.65887,2.96143,.0127,2.3667,.04602,3.55005,.13348,5.91675Zm83.96881-1.25854c-.46588,.70508-.70471,1.05957-1.19281,1.77026,.08032,.53662,.12134,.80591,.21173,1.3457-.8277,1.16748-1.25623,1.75415-2.13641,2.92847-3.23889,2.00122-4.78888,3.00317-7.53137,4.98511-.30682-.00244-.45312-.00366-.73334-.0061-.6311,.48096-.9375,.7207-1.5304,1.19971-.50891-.00586-.73541-.00879-1.1499-.0144,.1308-.44727,.19379-.67139,.31201-1.11938,.5885-.89722,.87897-1.34717,1.45007-2.24707-.21588-.00171-.32019-.00244-.52289-.00439,.1488-.77539,.21082-1.16309,.29932-1.93726-.25293-.00146-.3761-.0022-.61823-.00342-.2663,.28979-.39667,.43481-.65161,.72437-.42407-.00293-.62744-.00439-1.03345-.00757-.30011,.37939-.44562,.56909-.72772,.948-.37292-.00366-.55737-.00562-.94012-.00928-.35077,.51636-.51886,.77441-.84241,1.28955-.14514-.00195-.21899-.00293-.37018-.00464,.17902-.66797,.26733-1.0022,.4408-1.67065,.28589-.44189,.43298-.66309,.73669-1.10571,.61224-2.16675,.90289-3.25146,1.43713-5.40747,.3924-.46411,.59351-.69629,1.00708-1.15967,.86243-.00146,1.2843-.0022,2.13989-.00391,.40228-.43481,.60852-.6521,1.03033-1.08594,.11029-.28857,.16479-.43262,.27271-.72021,.74847-.76074,1.13757-1.13965,1.94147-1.89355,.52332-.00073,.78668-.00098,1.31958-.00171,1.47394-1.3125,2.22253-1.96167,3.84003-3.28931,.12891,.43701,.19287,.65576,.32098,1.09277h.85168c-.20337,.4292-.30798,.63867-.52997,1.05835-.25421,.00024-.38043,.00024-.63123,.00024-.20117,.39014-.30365,.58594-.51178,.97852,.17889,.875,.2486,1.31543,.36639,2.20117,.4671-.00098,.70532-.00122,1.19324-.00195,.67029-1.09082,.99268-1.63232,1.60767-2.7041,.46869-.34082,.70441-.51074,1.17688-.84888,.15363,.58667,.22534,.88159,.36511,1.47412-.77551,1.28687-1.18561,1.93896-2.04248,3.2522,.53461-.00098,.8092-.00122,1.37549-.00195Zm-11.81451-11.71387c.19794-.17114,.2973-.25659,.4975-.42773,.08954,.21313,.13391,.31958,.22192,.53271-.29688,.25586-.44421,.38379-.73578,.6394-.18152,.50562-.27014,.75854-.44141,1.26392-.16974,.00024-.2547,.00024-.4248,.00049-.55273-1.26514-.83813-1.89746-1.43634-3.16138-.23895-.50537-.36047-.75781-.60797-1.26318,.11688-.33691,.1759-.50537,.29498-.84253-.33209-.67749-.5022-1.01611-.85211-1.6936,.19281-.66895,.2901-1.00317,.48242-1.67188,.32111,.60986,.47742,.91479,.78223,1.52466,.37146,.74365,.55121,1.11548,.90039,1.85938,.21649,.46143,.32257,.69189,.53119,1.15332,.2832,0,.4245-.00049,.70648-.00049-.15356,.40894-.22968,.61328-.37958,1.02222,.18732,.42603,.27942,.63892,.46088,1.0647Zm2.6908-1.97583c.1178-.28857,.177-.43286,.2959-.72144,.49432-.00024,.74115-.00049,1.2348-.00073,1.79193-1.44751,2.72223-2.1709,4.59222-3.61743,.20502,.5127,.30389,.76904,.49591,1.28198-.58459,.44824-.87543,.67236-1.45264,1.12036,.19543,.53223,.28979,.79834,.47382,1.33057-.95587,.73975-1.42731,1.10962-2.34857,1.84985-.27802,.61816-.41589,.92725-.6864,1.54565-.45911,.00024-.68793,.00049-1.14551,.00073-.68298,.00049-1.02368,.00049-1.70624,.00098,.26575-.67285,.4024-1.00903,.67944-1.68188-.16962-.44336-.25604-.66504-.43274-1.10864Zm-.11499,5.52637c.3891-.00024,.58374-.00024,.97369-.00049-.11566,.29614-.17249,.44409-.2843,.74048-.40021,0-.59979,0-.99896,.00024-.10321-.27734-.15509-.41602-.25983-.69312-.94568,.00024-1.4176,.00049-2.36859,.00098-.10638-.25-.15991-.375-.26758-.625,.0838-.25928,.12646-.38892,.21338-.64819,.40961-.00024,.61383-.00024,1.02148-.00073,.59613-.02563,.89343-.03857,1.48901-.06445,.1958,.51611,.29199,.77393,.48169,1.29028Zm14.36334,1.42676c-.09705-.30176-.14502-.45264-.24023-.75415-.16656-.52808-.24872-.79199-.41162-1.31934h-.57605c-.50354,.34961-.75281,.52441-1.24493,.87402-.14587,.2627-.21851,.39404-.3631,.65649-.38727,.00024-.57892,.00024-.9588,.00049,.11798-.21924,.17743-.32886,.29651-.54785-.72882,.00024-1.08661,.00049-1.79181,.00073,.3587-.27002,.54022-.40503,.90649-.6748,.14923-.2793,.2243-.41895,.37482-.69824-.20911-.7168-.31372-1.07495-.52759-1.79102-.29352,.00024-.43951,.00049-.73022,.00049-.1217-.40674-.18317-.61011-.30798-1.01685-.09589,.00024-.14368,.00024-.23938,.00024l.14966-.29077c.03613,.11621,.05389,.17432,.08972,.29053,.94562-.00049,1.42401-.00073,2.39752-.00146,.21844-.40308,.32776-.60425,.54608-1.00732l2.26086-.00122c.39081,1.20923,.57922,1.81421,.96643,3.02563-.2558,.43994-.38373,.65991-.63849,1.10034,.27057,.86084,.4071,1.2915,.69086,2.15381-.26135,.00024-.39117,.00024-.64874,.00024Zm6.08777-30.87329l-.91858,1.00537c-.49841,.54565-.74762,.81836-1.24603,1.36401h-2.0025v.63013c-.2041,.22339-.30615,.33521-.51038,.55859-.41821-.45776-.78943-.98462-.78943-.98462l.49982-.85938,.6839-.7981s.67413-.15308,1.18658-.15308c.43884-.48022,.65814-.72021,1.09692-1.20044v-1.12402l.12231-1.20508s-.82214-.30322-1.28864-.81396v-1.74414h1.16632l.92548,1.01318v.83496c0,.26758-.43158,.61694-.43158,.61694,0,0,1.07611,.75732,1.5058,1.22778v1.63184Zm4.26428-15.30737h-3.97546v1.72437c.53699,.58789,.80536,.88159,1.34229,1.46924v2.17358c-1.19208-1.30493-1.78821-1.95752-2.98029-3.26245v-2.78345h-3.64459v.84839h-3.84021c-.93054,1.01855-1.39569,1.52783-2.32611,2.54614v1.18188h3.1861c.67151,.73535,1.00739,1.10278,1.67889,1.83789,.46881,.51318,.70319,.76978,1.17194,1.28271v2.75977c-.72675,.79541-1.09003,1.19336-1.81665,1.98877-.52521,.57471-.78766,.86206-1.31281,1.43677,.7265,.79541,1.08984,1.19312,1.81641,1.98828v1.54224h-1.58936c-.362-.39648-.54303-.59448-.90491-.99072v-1.44849c-.46429-.5083-.69641-.76245-1.16071-1.27051h-1.3678c-.41003-.44873-.61493-.6731-1.0249-1.12183-.7182,.78613-1.07733,1.1792-1.79541,1.96533,.55292,.60498,.82941,.90771,1.38239,1.51318h1.47632c-.40057,.43848-.60101,.65771-1.00159,1.09619,.93237,1.02075,1.3985,1.53101,2.33099,2.55176,0,.71289-.0213,1.06909-.08258,1.78174-1.54492,1.55176-2.3797,2.32764-4.11383,3.87891-.95978,0-1.4397,.00024-2.40082,.00024-.91809,.82739-1.38885,1.24121-2.34576,2.0686,.836,1.32568,1.21436,1.98828,1.91089,3.31348-.21271,.6084-.32349,.9126-.55078,1.521-.36169,.2915-.54285,.4375-.90485,.729-.59601,.00049-.89435,.00049-1.49255,.00073-.6098-1.2251-.93695-1.83765-1.64709-3.06323-.19135,.61841-.2915,.92773-.49805,1.54614-.255,.76392-.38818,1.14575-.65948,1.90991,.43579,.84131,.64331,1.26221,1.04059,2.10376-.28992,.76172-.43689,1.14258-.72858,1.90454-.25262,.65991-.37891,.98975-.62762,1.64966-.27527-.6145-.4165-.92163-.70721-1.53589,.16931-.45679,.25433-.68506,.42413-1.14136-.33978-.70752-.51532-1.06104-.87952-1.76831,.21082-.59155,.31549-.88721,.52039-1.47852,.33112-1.27686,.48975-1.91528,.76404-3.19238-.19379-.32861-.29272-.49316-.49414-.82178-.36694,.30981-.55139,.46484-.92218,.7749,.15784-.53027,.23401-.79565,.3786-1.32593-.79877-1.26807-1.22638-1.9021-2.14777-3.17065-.5741,.00024-.86176,.00024-1.4386,.00024-.53705,.00024-.80615,.00024-1.34583,.00024-.08838,.46143-.13647,.69189-.23907,1.15332-1.70001,1.47998-2.59564,2.22021-4.44745,3.70068-.22137,.74463-.33698,1.1167-.57135,1.86133,.19177,.29834,.28699,.44727,.47607,.74561-1.01959,.80322-1.53619,1.20459-2.5155,2.00757,.06122-.50879,.09198-.76343,.15259-1.27222h-.10809c.06909-.21777,.10358-.32666,.1723-.54443,.02673-.22729,.03979-.34106,.06567-.56836-.20325-.34473-.30518-.51685-.51019-.86133,.12012-.39453,.17944-.5918,.29602-.98633-.48163-.78931-.72559-1.18384-1.23041-1.97314,.41388-1.57935,.60272-2.36914,.8869-3.94849-.57782-.78857-.87689-1.18286-1.5011-1.97144h-5.3844c-.3172-.39404-.47888-.59106-.80859-.98511h-3.57898c-.66925-.79028-1.01611-1.1853-1.7326-1.97559,.00226-.39404,.00018-.59106,.00018-.98511h-1.80243c0,.78906,.00604,1.18359-.01105,1.97266,.70129,.78931,1.0412,1.18408,1.69739,1.97314h1.7796c.64868,.78857,.96088,1.18286,1.56189,1.97144h.8797c-.05432,.39575-.08337,.59375-.14478,.9895-2.05634,1.9729-3.10205,2.95923-5.09424,4.93213h-2.48499c-.276-.39307-.4165-.58936-.70233-.98242,.09991-.79028,.14783-1.1853,.23553-1.97559-.59583-.78955-.90442-1.18457-1.5415-1.97412,.05981-.78931,.086-1.18384,.12732-1.97314-.66754-.78906-1.01172-1.18384-1.71643-1.9729h-1.78888c-.00684,.78906-.0152,1.18384-.03931,1.9729,.34369,.39355,.51349,.59033,.84851,.98364-.05444,1.18555-.09119,1.77832-.1748,2.96362,1.58197,1.97241,2.31097,2.9585,3.6543,4.93066h4.85809c-.07843,.39526-.11792,.59277-.19708,.98779-3.20032,3.15845-4.66205,4.73755-7.27533,7.896-.06927,.78857-.10071,1.18286-.15387,1.97144,.2605,.39404,.39008,.59106,.64917,.98486-.12128,1.97339-.12189,2.96021-.12189,4.93359-1.10132,1.57837-1.6546,2.36768-2.78632,3.94604v1.97412h-.71167c-.28534,.39404-.42859,.59106-.71722,.98511v1.97559c-1.15558,1.57837-1.74512,2.36768-2.96771,3.94604h-4.84186v-3.94604c-.68469-.79028-1.034-1.1853-1.74921-1.97559v-3.9458c-.35883-.39551-.54224-.59351-.9046-.98901,.00018-.78833,.00031-1.18213,.00079-1.97046,.72302-.78906,1.0871-1.18384,1.78052-1.9729-.00183-.39502-.00262-.59229-.00385-.98755-.69788-.78931-1.05438-1.18384-1.77576-1.97314v-.98486c-.71765-.78857-1.07593-1.18286-1.79242-1.97144-.00049-1.9751-.00098-2.96289-.00201-4.93799h-1.79688c-.3606-.39355-.54083-.59009-.90149-.9834h-2.69104c-.35681,.39331-.5351,.58984-.8916,.9834h-4.47821c-1.79755-1.9729-2.69928-2.95923-4.50708-4.93213-.01349-1.57764-.02002-2.3667-.03101-3.94434,.35559-.39453,.53363-.5918,.88971-.98657-.00232-.39502-.0033-.59253-.00537-.98755h-.89673c-.00452-.78931-.00641-1.18384-.00958-1.97314,1.0733-1.18433,1.61151-1.77661,2.69006-2.96094h.90503c.3598-.39502,.53979-.59253,.90009-.98755,.00073-.78857,0-1.18286,0-1.97144,.36163-.39307,.5423-.58936,.90393-.98242h4.5072c.35986-.39575,.53986-.59351,.8999-.98926h4.50989v1.97168c.36041,.39453,.54059,.5918,.90106,.98633h3.6048c.35992,.39404,.53503,.59106,.90021,.98511h.90112c-.01233-.78857-.00043-1.18286-.00043-1.97144h1.80383c.72137,.78857,1.06671,1.18286,1.8042,1.97144h3.60461c.7066-.78857,1.08099-1.18286,1.80188-1.97144v-1.97168h-4.5072c-.72101-.78906-1.08142-1.18384-1.80231-1.9729v-.98804h-.90118c-.36053,.39551-.54083,.59277-.90131,.98804h-.90253v-2.96069c-.72028-.78906-1.08051-1.18384-1.8009-1.9729h-2.70886v1.9729c.72247,.78906,1.08386,1.18359,1.8064,1.97266h.90247v1.97314h-1.80377c-.362-.39404-.54309-.59106-.90509-.98511v-.98804c-.71893-.78906-1.07819-1.18359-1.797-1.97266h-2.70624c-.7215,.78906-1.08215,1.18359-1.80365,1.97266v.98804c-.36005,.39404-.54004,.59106-.8999,.98511h-3.60602c-.36053-.39404-.54071-.59106-.90118-.98511v-2.96069c.36047-.39404,.54065-.59106,.90118-.98486h.90247c.36041,.3938,.54071,.59082,.90112,.98486h1.80243v-1.9729h-.89984v-.98486c.35992-.39526,.53992-.59277,.89984-.98804h1.80096c.7226-.78906,1.0838-1.18359,1.8064-1.97266h.89984c.36096-.39502,.5415-.59277,.90259-.98779h.90106v-1.97168h-2.70349v-1.97412c.35992-.39453,.53992-.5918,.89984-.98657h.90259c.36041-.39575,.54059-.59351,.90106-.9895v-.98364c.35834-.39575,.53754-.59351,.89594-.98901h.90509c.72162-.78931,1.08228-1.18384,1.80377-1.97314h8.11194c.36041,.39575,.54059,.59375,.90106,.98926v1.9729h.90002c.71979-.78906,1.07971-1.18384,1.79962-1.9729h.90515v1.9729h.89984c.7204-.78906,1.08057-1.18384,1.80109-1.9729h5.40961v-1.97266h1.80237c.36005,.39331,.54004,.58984,.90002,.9834v1.97314h1.80219v-1.97314c.72205-.78784,1.08301-1.18188,1.80499-1.96973h.90253c.35999-.39673,.53992-.59521,.8999-.99219h4.50977l.29083-.31543s.13037,.23901,.31641,.99194h1.88367c.71295,.78027,1.06934,1.17041,1.78223,1.95068h6.7016c.30573,.33472,.45862,.5022,.7644,.83691h3.224c.6261-.6853,.93896-1.02808,1.565-1.71313h3.16388c.32239,.35303,.48358,.5293,.80603,.88232h4.96576c.435,.47607,.65253,.71411,1.0874,1.19019h8.57623c.75439,.82568,1.13159,1.23853,1.88586,2.06445h4.63641v.67358h-3.13129c-.35193,.38525-.52789,.57788-.87988,.96313,.72778,.79663,1.09167,1.19507,1.81946,1.9917Z"/><path d="M295.5174,124.01807h-7.01569c-.47754,0-.76562,.23047-.8642,.69141l-8.3985,38.83594c-.0332,.11523-.0498,.22266-.0498,.32031,0,.3623,.23828,.54297,.7168,.54297h5.40918c.42773,0,.69141-.23828,.78998-.71484l1.38385-7.37305h8.99115l1.43274,7.37305c.09857,.47656,.3623,.71484,.79102,.71484h5.38464c.4776,0,.71594-.20508,.71594-.61621,0-.08203-.00781-.16406-.02441-.24707l-8.3985-38.83594c-.09857-.46094-.3877-.69141-.8642-.69141Zm-6.76862,26.45898l3.23633-17.63086,3.23541,17.63086h-6.47174Z"/><path d="M224.24689,164.40869h5.68109c2.3877,0,4.19922-.61621,5.43408-1.84961,1.23535-1.23242,1.85254-3.04102,1.85254-5.4248v-32.10449c0-.2793-.09863-.51758-.29639-.71484-.1972-.19727-.43652-.29688-.71631-.29688h-4.6684c-.28033,0-.51862,.09961-.71631,.29688-.19781,.19727-.29639,.43555-.29639,.71484v30.69922c0,1.34766-.67529,2.02148-2.02545,2.02148h-2.61865c-1.3501,0-2.02539-.67383-2.02539-2.02148v-30.69922c0-.2793-.09863-.51758-.29633-.71484-.19781-.19727-.43658-.29688-.71643-.29688h-4.86615c-.28021,0-.51849,.09961-.71631,.29688-.19769,.19727-.29639,.43555-.29639,.71484v32.10449c0,2.38379,.61768,4.19238,1.8526,5.4248,1.23529,1.2334,3.04639,1.84961,5.43457,1.84961Z"/><path d="M237.34991,13.40869l-8.3985,38.83691c-.0332,.11523-.04932,.22168-.04932,.32031,0,.3623,.23877,.54297,.71631,.54297h5.40967c.42822,0,.69189-.23828,.79053-.71484l1.3833-7.37305h8.99121l1.4317,7.37305c.09955,.47656,.36328,.71484,.79095,.71484h5.38483c.47852,0,.7168-.20605,.7168-.61621,0-.08301-.00793-.16504-.02539-.24707l-8.3985-38.83691c-.0976-.45996-.38672-.69043-.86334-.69043h-7.01556c-.47803,0-.76562,.23047-.86469,.69043Zm4.34705,8.1377l3.23645,17.63086h-6.47174l3.23529-17.63086Z"/><path d="M267.8963,164.40869h4.68262c.6709,0,1.0058-.33691,1.0058-1.01074v-38.36816c0-.67383-.33691-1.01172-1.01074-1.01172h-6.68256c-.59283,0-.96191,.29688-1.11041,.88867l-5.59662,25.15039-5.59772-25.15039c-.14838-.5918-.51855-.88867-1.11035-.88867h-6.68262c-.67383,0-1.01068,.33789-1.01068,1.01172v38.36816c0,.67383,.33685,1.01074,1.0127,1.01074h4.66888c.6748,0,1.0127-.33691,1.0127-1.01074v-22.73535h.3457l5.01471,22.83398c.1474,.6084,.51849,.91211,1.11127,.91211h2.46973c.59277,0,.96387-.30371,1.11139-.91211l5.01459-22.83398h.3457v22.73535c0,.67383,.33502,1.01074,1.00592,1.01074Z"/><path d="M487.78296,108.7583h5.01459c.24713,0,.44446-.07422,.59283-.22168,.14838-.14844,.22168-.3457,.22168-.5918v-38.78711c0-.52637-.27148-.78906-.81451-.78906h-5.26166c-.54303,0-.81543,.2627-.81543,.78906v21.3291h-.2959l-7.68256-21.47754c-.14752-.42676-.45325-.64062-.91412-.64062h-5.01373c-.54388,0-.81537,.2627-.81537,.78906v38.78711c0,.24609,.07422,.44336,.22272,.5918,.1474,.14746,.3457,.22168,.59265,.22168h5.2608c.54395,0,.81543-.27148,.81543-.81348v-21.40332h.24707l7.7558,21.55078c.1485,.44434,.44531,.66602,.88971,.66602Z"/><path d="M273.70776,13.72998V52.09814c0,.67383,.33691,1.01074,1.01276,1.01074h4.66888c.6748,0,1.0127-.33691,1.0127-1.01074V29.36279h.3457l5.01471,22.83398c.1474,.60742,.51849,.91211,1.11127,.91211h2.46973c.59277,0,.96387-.30469,1.11139-.91211l5.01459-22.83398h.3457v22.73535c0,.67383,.33502,1.01074,1.00592,1.01074h4.68256c.6709,0,1.0058-.33691,1.0058-1.01074V13.72998c0-.6748-.33685-1.01172-1.01068-1.01172h-6.68262c-.59277,0-.96185,.2959-1.11035,.8877l-5.59662,25.15137-5.59772-25.15137c-.14838-.5918-.51855-.8877-1.11041-.8877h-6.68256c-.67383,0-1.01074,.33691-1.01074,1.01172Z"/><path d="M216.95972,13.50732V52.29541c0,.54199,.27148,.81348,.815,.81348h5.26166c.24713,0,.44434-.07422,.59283-.22168,.14789-.14844,.22211-.3457,.22211-.5918V13.50732c0-.52539-.27142-.78906-.81494-.78906h-5.26166c-.54352,0-.815,.26367-.815,.78906Z"/><path d="M305.22827,108.14209c0-.08203-.00775-.16406-.02435-.24707l-8.3985-38.83594c-.09863-.45996-.38776-.69043-.86426-.69043h-7.01556c-.4776,0-.76569,.23047-.86432,.69043l-8.39838,38.83594c-.0332,.11523-.0498,.22266-.0498,.32031,0,.3623,.23822,.54297,.7168,.54297h5.40912c.4278,0,.69141-.23828,.7901-.71484l1.38379-7.37305h8.99121l1.43256,7.37305c.09863,.47656,.3623,.71484,.79102,.71484h5.38483c.47748,0,.71576-.20508,.71576-.61621Zm-16.05566-13.31543l3.23639-17.63086,3.23529,17.63086h-6.47168Z"/><path d="M261.71759,69.15771c0-.52637-.27148-.78906-.81549-.78906h-5.26068c-.54401,0-.81543,.2627-.81543,.78906v38.78711c0,.54199,.27142,.81348,.81543,.81348h18.10547c.54388,0,.81543-.27148,.81543-.81348v-5.05566c0-.52539-.27155-.78906-.81543-.78906h-12.0293v-32.94238Z"/><path d="M222.75616,8.01001c.46991,0,.77002-.17993,1.19-.59985l6.2099-6.81006c.24011-.30005,.06012-.6001-.29999-.6001h-5.96991c-.4801,0-.6601,.18018-.94995,.6001l-4.90015,6.81006c-.23999,.30005-.06,.59985,.30011,.59985h4.41998Z"/><path d="M236.34741,75.07568c.54498,0,.81787-.28809,.81787-.86328v-5.05469c0-.52637-.27148-.78906-.81488-.78906h-18.625c-.23053,0-.41602,.07031-.55573,.20898-.14008,.14062-.20996,.33301-.20996,.58008v38.78711c0,.24609,.06989,.44336,.20996,.5918,.13971,.14746,.3252,.22168,.55573,.22168h18.625c.5434,0,.81488-.27148,.81488-.81348v-5.05566c0-.29492-.05762-.50098-.17328-.61621-.11621-.11426-.33063-.17285-.64459-.17285h-12.69385v-10.20801h9.7041c.54541,0,.81885-.28711,.81885-.86328v-5.00488c0-.55859-.27344-.83887-.81885-.83887h-9.7041v-10.10938h12.69385Z"/><path d="M357.96271,95.36865h-5.2608c-.54388,0-.81543,.27148-.81543,.81348v5.30176c0,2.36719,.62604,4.17188,1.87701,5.41309,1.25189,1.24121,3.05463,1.86133,5.4101,1.86133h5.68073c2.3877,0,4.19916-.61621,5.43451-1.84961,1.23535-1.23242,1.8526-3.04102,1.8526-5.4248v-11.66309c0-.8877-.44446-1.51172-1.33405-1.87402l-12.0293-3.94531v-6.95312c0-.6416,.17682-1.13867,.53131-1.49219,.35352-.35352,.85248-.53027,1.49408-.53027h2.4209c1.35065,0,2.02545,.6748,2.02545,2.02246v3.94531c0,.52637,.27148,.78906,.81537,.78906h5.26172c.54297,0,.81451-.2627,.81451-.78906v-5.35156c0-2.38281-.61725-4.19141-1.8526-5.4248-1.23535-1.23242-3.04681-1.84863-5.43451-1.84863h-5.68073c-2.35547,0-4.1582,.62012-5.4101,1.86133-1.25098,1.24121-1.87701,3.04492-1.87701,5.41211v11.91016c0,.9541,.46094,1.57812,1.38281,1.87402l11.98053,3.9209v6.73145c0,1.34766-.6748,2.02148-2.02545,2.02148h-2.4209c-1.35059,0-2.02539-.67383-2.02539-2.02148v-3.89648c0-.54199-.27148-.81348-.81537-.81348Z"/><path d="M550.45679,69.05908l-8.39844,38.83594c-.0332,.11523-.0498,.22266-.0498,.32031,0,.3623,.23834,.54297,.7168,.54297h5.40912c.4278,0,.69153-.23828,.7901-.71484l1.38379-7.37305h8.99121l1.43262,7.37305c.09857,.47656,.3623,.71484,.79102,.71484h5.38477c.47754,0,.71582-.20508,.71582-.61621,0-.08203-.00781-.16406-.02441-.24707l-8.39838-38.83594c-.09869-.45996-.3877-.69043-.86432-.69043h-7.01562c-.4776,0-.76569,.23047-.86426,.69043Zm4.34772,8.13672l3.23529,17.63086h-6.47174l3.23645-17.63086Z"/><path d="M378.5838,12.71826h-12.1524c-.54388,0-.81543,.26367-.81543,.78906V52.29541c0,.54199,.27155,.81348,.81543,.81348h12.1524c2.3877,0,4.19922-.61621,5.43451-1.84961,1.23535-1.23242,1.8526-3.04102,1.8526-5.4248V20.04248c0-2.38379-.61725-4.2002-1.8526-5.4502-1.23529-1.24902-3.04681-1.87402-5.43451-1.87402Zm.59369,31.71094c0,1.34766-.67578,2.02148-2.02643,2.02148h-4.64349V19.37646h4.64349c1.35065,0,2.02643,.69043,2.02643,2.07129v22.98145Z"/><path d="M395.03491,70.22998c-1.25092,1.24121-1.87689,3.04492-1.87689,5.41211v11.91016c0,.9541,.46088,1.57812,1.38275,1.87402l11.98053,3.9209v6.73145c0,1.34766-.6748,2.02148-2.02539,2.02148h-2.4209c-1.35065,0-2.02545-.67383-2.02545-2.02148v-3.89648c0-.54199-.27148-.81348-.81537-.81348h-5.2608c-.54388,0-.81537,.27148-.81537,.81348v5.30176c0,2.36719,.62598,4.17188,1.87689,5.41309,1.25195,1.24121,3.05469,1.86133,5.41016,1.86133h5.68073c2.3877,0,4.19922-.61621,5.43451-1.84961,1.23541-1.23242,1.8526-3.04102,1.8526-5.4248v-11.66309c0-.8877-.4444-1.51172-1.33398-1.87402l-12.02936-3.94531v-6.95312c0-.6416,.17676-1.13867,.53125-1.49219,.35358-.35352,.8526-.53027,1.4942-.53027h2.4209c1.35059,0,2.02539,.6748,2.02539,2.02246v3.94531c0,.52637,.27136,.78906,.81537,.78906h5.26172c.54303,0,.81451-.2627,.81451-.78906v-5.35156c0-2.38281-.61719-4.19141-1.8526-5.4248-1.23529-1.23242-3.04681-1.84863-5.43451-1.84863h-5.68073c-2.35547,0-4.1582,.62012-5.41016,1.86133Z"/><path d="M463.95575,124.70947c-.09857-.46094-.3877-.69141-.8642-.69141h-7.01556c-.4776,0-.76569,.23047-.86432,.69141l-8.39838,38.83594c-.0332,.11523-.0498,.22266-.0498,.32031,0,.3623,.23816,.54297,.7168,.54297h5.40912c.4278,0,.69135-.23828,.7901-.71484l1.38379-7.37305h8.99121l1.43256,7.37305c.09863,.47656,.3623,.71484,.79102,.71484h5.38483c.47748,0,.71576-.20508,.71576-.61621,0-.08203-.00781-.16406-.02441-.24707l-8.3985-38.83594Zm-7.63275,25.76758l3.23639-17.63086,3.23529,17.63086h-6.47168Z"/><path d="M380.01929,68.36865c-.54388,0-.81537,.2627-.81537,.78906v38.78711c0,.54199,.27148,.81348,.81537,.81348h5.2608c.24701,0,.44531-.07422,.59271-.22168,.1485-.14844,.22272-.3457,.22272-.5918v-38.78711c0-.52637-.27155-.78906-.81543-.78906h-5.2608Z"/><path d="M464.14325,75.07568c.54504,0,.81842-.28809,.81842-.86328v-5.05469c0-.52637-.27252-.78906-.81537-.78906h-18.625c-.23053,0-.41602,.07031-.55573,.20898-.13959,.14062-.21002,.33301-.21002,.58008v38.78711c0,.24609,.07043,.44336,.21002,.5918,.13971,.14746,.3252,.22168,.55573,.22168h18.625c.54285,0,.81537-.27148,.81537-.81348v-5.05566c0-.29492-.05859-.50098-.17377-.61621-.11621-.11426-.33112-.17285-.64465-.17285h-12.6933v-10.20801h9.70312c.5459,0,.81927-.28711,.81927-.86328v-5.00488c0-.55859-.27338-.83887-.81927-.83887h-9.70312v-10.10938h12.6933Z"/><path d="M439.8855,124.01807h-5.26074c-.54395,0-.81543,.26367-.81543,.78906v38.78809c0,.54199,.27148,.81348,.81543,.81348h5.26074c.24707,0,.44525-.07422,.59277-.22168,.14838-.14844,.22272-.3457,.22272-.5918v-38.78809c0-.52539-.27148-.78906-.81549-.78906Z"/><path d="M423.58569,13.40869c-.09863-.45996-.3877-.69043-.86426-.69043h-7.01562c-.47754,0-.76562,.23047-.86426,.69043l-8.39844,38.83691c-.0332,.11523-.0498,.22168-.0498,.32031,0,.3623,.23828,.54297,.7168,.54297h5.40918c.42767,0,.69141-.23828,.7901-.71484l1.38373-7.37305h8.99121l1.43262,7.37305c.09863,.47656,.3623,.71484,.79102,.71484h5.38477c.47754,0,.71582-.20605,.71582-.61621,0-.08301-.00781-.16504-.02441-.24707l-8.39844-38.83691Zm-7.63281,25.76855l3.23633-17.63086,3.23535,17.63086h-6.47168Z"/><path d="M316.21759,13.01416c-.1983-.19727-.43658-.2959-.7168-.2959h-4.86633c-.28015,0-.51849,.09863-.71576,.2959-.19818,.19727-.29681,.43555-.29681,.71582V45.83447c0,2.38379,.61713,4.19238,1.85248,5.4248,1.23535,1.2334,3.04694,1.84961,5.43463,1.84961h5.6806c2.3877,0,4.19922-.61621,5.43457-1.84961,1.23529-1.23242,1.85254-3.04102,1.85254-5.4248V13.72998c0-.28027-.09863-.51855-.2959-.71582-.19824-.19727-.43652-.2959-.7168-.2959h-4.66791c-.28033,0-.51959,.09863-.7168,.2959-.19733,.19727-.2959,.43555-.2959,.71582v30.69922c0,1.34766-.67584,2.02148-2.02643,2.02148h-2.61816c-1.35052,0-2.02533-.67383-2.02533-2.02148V13.72998c0-.28027-.09869-.51855-.2959-.71582Z"/><path d="M426.77124,143.59717v-12.30469c0-2.38281-.61816-4.19141-1.85449-5.4248-1.2373-1.23242-3.0498-1.84961-5.44043-1.84961h-12.71191c-.54388,0-.81641,.26367-.81641,.78906v38.78809c0,.24609,.07422,.44336,.22272,.5918,.1474,.14746,.3457,.22168,.59277,.22168h5.26068c.24713,0,.44531-.07422,.59283-.22168,.14838-.14844,.2226-.3457,.2226-.5918v-12.72363h3.4834l3.38379,12.82227c.09863,.47656,.3877,.71484,.86719,.71484h5.28027c.62793,0,.86719-.30371,.71973-.91211l-3.49609-13.2168c2.46191-1.06836,3.69336-3.2959,3.69336-6.68262Zm-6.8916-1.40527c0,1.34766-.67578,2.02148-2.02539,2.02148h-5.01465v-13.53711h5.01465c1.34961,0,2.02539,.67383,2.02539,2.02148v9.49414Z"/><path d="M346.20001,164.18701c.14838-.14844,.2226-.3457,.2226-.5918v-38.78809c0-.52539-.27155-.78906-.81543-.78906h-5.26068c-.54401,0-.81549,.26367-.81549,.78906v38.78809c0,.54199,.27148,.81348,.81549,.81348h5.26068c.24713,0,.44531-.07422,.59283-.22168Z"/><path d="M311.67072,164.40869h5.26068c.54401,0,.81549-.27148,.81549-.81348v-21.40332h.24701l7.75592,21.55078c.14838,.44434,.44525,.66602,.88959,.66602h5.01471c.24695,0,.44427-.07422,.59277-.22168,.14838-.14844,.22162-.3457,.22162-.5918v-38.78809c0-.52539-.27155-.78906-.81439-.78906h-5.26172c-.54303,0-.81549,.26367-.81549,.78906v21.33008h-.2959l-7.68262-21.47754c-.1474-.42773-.45312-.6416-.914-.6416h-5.01367c-.54401,0-.81555,.26367-.81555,.78906v38.78809c0,.24609,.07434,.44336,.22272,.5918,.14752,.14746,.3457,.22168,.59283,.22168Z"/><path d="M437.8924,68.36865h-18.6026c-.54297,0-.81445,.2627-.81445,.78906v5.05469c0,.24609,.07422,.44336,.22168,.5918,.14746,.14746,.34473,.22168,.59082,.22168h5.85742v32.91895c0,.54199,.27246,.81348,.81836,.81348h5.28027c.52832,0,.79297-.27148,.79297-.81348v-32.91895h5.85742c.54102,0,.81146-.27148,.81146-.81348v-5.05469c0-.52637-.27136-.78906-.81335-.78906Z"/><path d="M202.61011,12.71826h-12.15332c-.5434,0-.81488,.26367-.81488,.78906V52.29541c0,.54199,.27148,.81348,.81488,.81348h12.15332c2.3877,0,4.19928-.61621,5.43408-1.84961,1.23541-1.23242,1.8526-3.04102,1.8526-5.4248V20.04248c0-2.38379-.61719-4.2002-1.8526-5.4502-1.2348-1.24902-3.04639-1.87402-5.43408-1.87402Zm.59277,31.71094c0,1.34766-.67529,2.02148-2.02539,2.02148h-4.64398V19.37646h4.64398c1.3501,0,2.02539,.69043,2.02539,2.07129v22.98145Z"/><path d="M189.64191,107.94482c0,.54199,.27148,.81348,.81488,.81348h12.15332c2.3877,0,4.19928-.61621,5.43408-1.84961,1.23541-1.23242,1.8526-3.04102,1.8526-5.4248v-25.79199c0-2.38379-.61719-4.2002-1.8526-5.44922-1.2348-1.24902-3.04639-1.87402-5.43408-1.87402h-12.15332c-.5434,0-.81488,.2627-.81488,.78906v38.78711Zm6.8916-32.91895h4.64398c1.3501,0,2.02539,.69043,2.02539,2.07129v22.98145c0,1.34766-.67529,2.02148-2.02539,2.02148h-4.64398v-27.07422Z"/><path d="M360.03589,164.40869h5.28027c.52832,0,.79303-.27148,.79303-.81348v-32.91895h5.85742c.54095,0,.81146-.27148,.81146-.81348v-5.05566c0-.52539-.27148-.78906-.81348-.78906h-18.60254c-.54297,0-.81445,.26367-.81445,.78906v5.05566c0,.24609,.07428,.44336,.22168,.5918,.14752,.14746,.34473,.22168,.59082,.22168h5.85748v32.91895c0,.54199,.2724,.81348,.8183,.81348Z"/><path d="M503.0564,70.21729c-1.25,1.2334-1.875,3.04199-1.875,5.4248v25.8418c0,2.38379,.625,4.19238,1.875,5.4248,1.25,1.2334,3.06738,1.84961,5.45215,1.84961h5.6748c2.3515,0,4.15234-.62012,5.40332-1.86133,1.24902-1.24121,1.875-3.0459,1.875-5.41309v-5.44922c0-.24707-.07422-.44434-.22272-.5918-.14838-.14746-.3457-.22168-.59265-.22168h-5.06354c-.54401,0-.81537,.27148-.81537,.81348v4.04395c0,1.34766-.6778,2.02148-2.0332,2.02148h-2.62799c-1.35541,0-2.0332-.67383-2.0332-2.02148v-23.03027c0-1.34766,.6778-2.02246,2.0332-2.02246h2.62799c1.35541,0,2.0332,.6748,2.0332,2.02246v4.04395c0,.52637,.27136,.78906,.81537,.78906h5.06354c.54285,0,.81537-.2627,.81537-.78906v-5.4502c0-2.36719-.62598-4.1709-1.875-5.41211-1.25098-1.24121-3.05182-1.86133-5.40332-1.86133h-5.6748c-2.38477,0-4.20215,.61621-5.45215,1.84863Z"/><path d="M529.36395,108.7583h5.2608c.24713,0,.44531-.07422,.59283-.22168,.14838-.14844,.2226-.3457,.2226-.5918v-38.78711c0-.52637-.27148-.78906-.81543-.78906h-5.2608c-.54388,0-.81537,.2627-.81537,.78906v38.78711c0,.54199,.27148,.81348,.81537,.81348Z"/><path d="M330.3504,69.05908l-8.3985,38.83594c-.0332,.11523-.0498,.22266-.0498,.32031,0,.3623,.23828,.54297,.7168,.54297h5.40918c.42773,0,.69141-.23828,.79004-.71484l1.38379-7.37305h8.99121l1.43268,7.37305c.09857,.47656,.3623,.71484,.79102,.71484h5.3847c.4776,0,.71588-.20508,.71588-.61621,0-.08203-.00793-.16406-.02448-.24707l-8.39844-38.83594c-.09857-.45996-.3877-.69043-.86432-.69043h-7.01556c-.47754,0-.76562,.23047-.8642,.69043Zm4.3476,8.13672l3.23541,17.63086h-6.47174l3.23633-17.63086Z"/><path d="M189.64191,163.59521c0,.54199,.28809,.81348,.86469,.81348h5.21191c.24707,0,.4444-.07422,.59277-.22168,.14801-.14844,.22223-.3457,.22223-.5918v-16.05273h6.47168v16.05273c0,.24609,.07422,.44336,.2226,.5918,.14801,.14746,.3457,.22168,.59283,.22168h5.21185c.57623,0,.86432-.27148,.86432-.81348v-38.78809c0-.52539-.28809-.78906-.86432-.78906h-5.21185c-.54352,0-.81543,.26367-.81543,.78906v16.07812h-6.47168v-16.07812c0-.52539-.27155-.78906-.815-.78906h-5.21191c-.5766,0-.86469,.26367-.86469,.78906v38.78809Z"/><path d="M380.7049,163.69385l1.38367-7.37305h8.99133l1.43262,7.37305c.09857,.47656,.3623,.71484,.79095,.71484h5.38483c.47748,0,.71582-.20508,.71582-.61621,0-.08203-.00781-.16406-.02441-.24707l-8.3985-38.83594c-.09863-.46094-.3877-.69141-.8642-.69141h-7.01569c-.47754,0-.76562,.23047-.86426,.69141l-8.3985,38.83594c-.03314,.11523-.04974,.22266-.04974,.32031,0,.3623,.23828,.54297,.7168,.54297h5.40918c.4278,0,.69141-.23828,.7901-.71484Zm5.87982-30.84766l3.23535,17.63086h-6.47168l3.23633-17.63086Z"/><path d="M444.62866,12.71826h-5.2608c-.54388,0-.81537,.26367-.81537,.78906V52.29541c0,.54199,.27148,.81348,.81537,.81348h18.10553c.54401,0,.81537-.27148,.81537-.81348v-5.05566c0-.52539-.27136-.78906-.81537-.78906h-12.0293V13.50732c0-.52539-.27155-.78906-.81543-.78906Z"/><path d="M399.00946,12.71826h-5.26068c-.54388,0-.81537,.26367-.81537,.78906V52.29541c0,.54199,.27148,.81348,.81537,.81348h5.26068c.24713,0,.44543-.07422,.59283-.22168,.1485-.14844,.22272-.3457,.22272-.5918V13.50732c0-.52539-.27155-.78906-.81555-.78906Z"/><path d="M336.93921,13.50732V52.29541c0,.24609,.07428,.44336,.22266,.5918,.14752,.14746,.3457,.22168,.59283,.22168h5.26068c.54401,0,.81543-.27148,.81543-.81348V30.89209h.24707l7.75592,21.55078c.14838,.44434,.44531,.66602,.88959,.66602h5.01471c.24701,0,.44427-.07422,.59271-.22168,.1485-.14844,.22168-.3457,.22168-.5918V13.50732c0-.52539-.27148-.78906-.81439-.78906h-5.26178c-.54291,0-.81543,.26367-.81543,.78906v21.33008h-.2959l-7.68262-21.47754c-.14746-.42773-.45306-.6416-.91406-.6416h-5.01361c-.54401,0-.81549,.26367-.81549,.78906Z"/></svg>