<svg xmlns="http://www.w3.org/2000/svg" viewBox="0 0 612.92167 175.96963"><defs><style>.cls-1{fill:none;}.cls-2{fill:#3cb4dc;}</style></defs><g id="russian"><path class="cls-1" d="M148.7,83.80143c-.38721-1.21143-.57568-1.81641-.96655-3.02576-.91846.00061-1.36963.00085-2.261.00134-.21826.403-.32763.60437-.5459,1.00733-.97363.00073-1.45214.001-2.39746.00146.12451.40674.186.61011.30786,1.01685.29078,0,.43677-.00025.73023-.00037.21387.71594.31836,1.0741.52759,1.79089-.15064.2793-.22559.41895-.37476.69825-.36645.26977-.54785.40478-.90649.6748.70508-.00024,1.063-.00037,1.79175-.00073-.11915.219-.17847.32861-.29639.54785.37988-.00024.57129-.00024.95874-.00049.14453-.26257.217-.39392.363-.65637.49218-.34973.74145-.52454,1.24487-.874.22925-.00013.34424-.00013.57617-.00013.16284.52735.24487.79126.41162,1.31934.095.30151.14307.45239.24.75415.25781,0,.38745,0,.64893-.00024-.28369-.86231-.42041-1.293-.69092-2.15381C148.31622,84.46146,148.44415,84.24137,148.7,83.80143Z"/><path class="cls-1" d="M66.73175,65.893c.0022.395.00317.59253.00537.98755-.356.39477-.53418.59192-.88965.98657.011,1.57776.01758,2.36658.031,3.94434,1.80786,1.9729,2.70947,2.95922,4.50708,4.93212h4.47827c.35645-.39343.53467-.59008.8916-.98352h2.69092c.3606.39344.54077.59009.90161.98352h1.79688c.001,1.97522.00146,2.96277.00195,4.93811.71655.78846,1.07471,1.18274,1.79248,1.97132v.98486c.72119.78919,1.07788,1.18384,1.77563,1.97315.00122.39514.0022.59253.00391.98767-.69336.78918-1.05762,1.18371-1.78052,1.97278-.00049.7882-.00049,1.18212-.001,1.97045.36255.39551.54589.59351.90478.989v3.9458c.71509.79028,1.06445,1.18542,1.749,1.97558v3.946h4.84205c1.22265-1.57837,1.812-2.36768,2.96777-3.946V96.47672c.28857-.394.43188-.59107.717-.98511h.71191V93.51749c1.1316-1.57837,1.68482-2.36768,2.78614-3.946,0-1.97339.00049-2.96009.12207-4.9336-.25928-.39392-.38892-.59082-.64942-.98486.05323-.78858.08472-1.18286.15406-1.97132a89.01893,89.01893,0,0,1,7.27514-7.89611c.07935-.395.11866-.59253.19727-.98767H99.857c-1.34326-1.97229-2.07226-2.95838-3.65429-4.93079.08349-1.1853.12036-1.77808.1748-2.96362-.335-.39344-.50488-.59021-.84839-.98365.02393-.78918.03223-1.18383.03907-1.9729h1.78906c.70459.78907,1.04883,1.18372,1.71631,1.9729-.04126.78931-.06739,1.18384-.1272,1.97315.637.78967.94556,1.18457,1.5415,1.97412-.08764.79028-.13574,1.1853-.23559,1.97559.28589.39306.42627.58947.70239.98242h2.48486c1.99219-1.9729,3.03785-2.95923,5.09424-4.93213.06128-.39575.09058-.59375.14478-.9895h-.87964c-.60108-.78858-.91333-1.18287-1.562-1.97132h-1.77954c-.65625-.7893-.9961-1.184-1.69727-1.97326.01709-.78894.011-1.1836.011-1.97266h1.80249c0,.394.002.59106-.00025.98511.71656.79028,1.06324,1.1853,1.73267,1.97558h3.57886c.32983.39405.49145.59107.80859.98523h5.38452c.624.78845.92334,1.18274,1.501,1.97132-.28418,1.57946-.4729,2.36914-.88672,3.94848.50464.78931.74853,1.18384,1.23022,1.97315-.11645.39453-.17578.59179-.29589.98633.20483.34448.30688.51672.51.8612-.02588.22742-.03882.34119-.06543.56848-.06885.21778-.10328.32666-.17237.54444h.10791c-.06054.50891-.09131.76342-.15234,1.27221.979-.803,1.4956-1.20434,2.51538-2.00757-.18921-.29821-.28442-.44726-.47607-.7456.23437-.74463.34985-1.11682.57128-1.86145,1.85181-1.48035,2.74732-2.22046,4.44751-3.70056.10254-.46131.15064-.692.239-1.15332.53979-.00012.80884-.00012,1.34594-.00025.57667,0,.86426,0,1.43848-.00024.92139,1.26855,1.34912,1.90271,2.14795,3.17065-.14477.53028-.22095.79554-.37866,1.32581.37085-.30994.55517-.465.92212-.7749.20141.32873.30029.49328.49414.8219-.27442,1.2771-.43286,1.9154-.76416,3.1925-.20484.59131-.30957.88684-.52027,1.47839.36426.70728.5398,1.0608.87964,1.76832-.16992.45642-.25488.68457-.42431,1.14123.29077.61438.43188.92151.70727,1.536.24878-.65991.375-.98974.62769-1.64966.2915-.762.43847-1.14282.72851-1.90454-.39746-.84155-.60473-1.26233-1.04052-2.10376.27124-.76416.40429-1.146.65942-1.90991.20654-.61841.30664-.92773.49805-1.54614.7102,1.22546,1.03735,1.83813,1.647,3.06323.59839-.00024.89673-.00037,1.49268-.00073.36206-.29163.54321-.4375.90478-.72913.2273-.60827.33814-.91247.55078-1.52087-.69653-1.3252-1.075-1.9878-1.91089-3.31348.957-.82739,1.42774-1.24121,2.34571-2.0686.96118,0,1.44116-.00012,2.40087-.00025,1.73414-1.55139,2.56885-2.3269,4.11377-3.87878a17.33839,17.33839,0,0,0,.08252-1.782c-.93237-1.02063-1.39843-1.53089-2.33081-2.55152.40064-.4386.60083-.65783,1.00171-1.09643h-1.47656c-.553-.60535-.82935-.908-1.38232-1.51319.71826-.786,1.07714-1.1792,1.79541-1.96521.41015.44861.615.6731,1.0249,1.12183h1.36767c.46436.50818.69654.76221,1.16089,1.27051v1.44861c.36182.39611.54273.59411.90479.99047h1.5896V56.06705c-.72681-.79529-1.09009-1.19287-1.81641-1.98828.5249-.57471.7876-.86206,1.31275-1.43677.72656-.79541,1.08984-1.19324,1.81665-1.98865V47.89359c-.46875-.51306-.70313-.76965-1.17188-1.28272-.67163-.73523-1.00757-1.10266-1.67895-1.83789h-3.18628V43.591c.93042-1.01844,1.39575-1.52759,2.32617-2.546h3.84033v-.84851h3.64453v2.78344c1.19214,1.30493,1.78809,1.95752,2.98023,3.26245V44.06888c-.53687-.58777-.80518-.88147-1.34229-1.46936V40.87516h3.97559l-1.81958-1.9917c.352-.38526.52807-.57788.87988-.96314h3.13135v-.67358H156.0108c-.75415-.82581-1.13159-1.23865-1.886-2.06446h-8.57618c-.43481-.47607-.65234-.71423-1.0874-1.1903h-4.96582c-.32226-.35291-.4834-.5293-.80591-.88233H135.5257l-1.565,1.71326h-3.22412c-.30566-.33484-.45874-.5022-.7644-.83691h-6.70142c-.71313-.78028-1.06933-1.17041-1.78222-1.95069H119.6048a4.844,4.844,0,0,0-.31641-.99182c-.11645.1261-.17456.18933-.29077.31531h-4.50977c-.3601.397-.54.59546-.8999.99219h-.90259l-1.80493,1.96972v1.97315h-1.80224V34.32071c-.36011-.39343-.54-.59009-.90015-.9834h-1.80225V35.31h-5.40967c-.72045.78918-1.08056,1.18384-1.801,1.9729h-.8999V35.31h-.905c-.72.78918-1.07984,1.18384-1.79981,1.9729h-.8999V35.31c-.36035-.39563-.54077-.59351-.90112-.98926H85.64752c-.72143.78931-1.08227,1.18384-1.804,1.97315h-.905c-.3584.39563-.5376.59338-.89575.989v.98377c-.3606.39587-.54078.59362-.90137.98938h-.90235c-.35986.39465-.54.59191-.8999.98657v1.97424h2.70362v1.97144h-.90137c-.36084.39514-.54151.59277-.90235.98791h-.8999c-.72265.78919-1.08374,1.1836-1.80639,1.97278h-1.801c-.35986.39514-.54.59277-.8999.98791v.98487h.8999v1.9729H73.9295c-.36059-.394-.54077-.59107-.90136-.98486h-.90235c-.36059.39379-.54077.59082-.90136.98486v2.96069c.36059.394.54077.59107.90136.98523h3.606c.35986-.39416.54-.59119.8999-.98523v-.988c.72144-.78894,1.08228-1.18359,1.80371-1.97265h2.70606c.719.78906,1.07812,1.18371,1.79712,1.97265v.988c.36206.394.54321.59107.905.98523h1.804V53.06729h-.90259c-.72241-.78894-1.084-1.18359-1.80639-1.97265v-1.9729h2.709c.72046.78906,1.08057,1.18371,1.80078,1.9729v2.96069h.90259c.36035-.39514.54077-.59265.90137-.988h.90112v.988c.721.78906,1.0813,1.18372,1.80225,1.9729H96.463v1.97168c-.721.78858-1.09546,1.18286-1.802,1.97144H91.05646c-.73755-.78858-1.083-1.18286-1.8042-1.97144h-1.804c0,.78858-.012,1.18286.00049,1.97144h-.90112c-.36524-.394-.54029-.59107-.90015-.98511H82.04279c-.3606-.39453-.54078-.5918-.90137-.98633V56.02823H76.63165c-.35986.39575-.54.59351-.8999.98926H71.22443c-.36133.39294-.54224.58948-.90381.98242,0,.78858.00073,1.18286,0,1.97144-.36035.395-.54029.59253-.89991.98755h-.90527c-1.07861,1.18432-1.6167,1.77661-2.68994,2.96093.00317.78931.00513,1.18384.00952,1.97315Z"/><path class="cls-1" d="M7.22906,42.76249h3.60743c.36059-.39637.54052-.59461.90112-.99085h3.60718c.72094.79041,1.08154,1.18555,1.80249,1.97583v1.9729c.35937.39526.53906.5929.89843.988v2.95935c-.71972.78967-1.07983,1.18445-1.7998,1.97424v.98645c-.7207.7898-1.081,1.18469-1.80225,1.97425v2.958c.36036.39624.54078.59449.90113.99085,0,1.972-.0022,2.95813-.00074,4.9303.72193.78918,1.08326,1.18371,1.80689,1.9729.35913-.395.53857-.59253.89746-.98755-.3606-.39417-.54077-.59107-.90088-.98535-.00146-1.18482-.00171-1.7771-.00073-2.96192h.89844c-.00049.78894-.00049,1.1836.00048,1.97266,1.08448,1.18481,1.62745,1.77734,2.7168,2.96216.00147.39306.00244.5896.00415.98242-.36011.39526-.54.59277-.90039.988.00171.39563.00269.59351.00464.98926.72607.78858,1.0896,1.18286,1.81787,1.97132h.908c.36279.39611.54419.59436.90772.9906h3.63061c.00415.39282.0061.58935.01025.9823h2.71582c.73584.78906,1.10425,1.18371,1.84205,1.9729.00561.39514.0083.59265.01367.98791.36865.3938.553.59082.92163.98474H35.359c.01855,1.18445.02783,1.77649.04467,2.96082-.71337.78979-1.0708,1.18457-1.78759,1.97412.0188,1.5791.0271,2.36865.03857,3.94751.73291.79016,1.09888,1.1853,1.82935,1.97559.00171.39282.00244.58935.00342.9823.73217.791,1.09692,1.18652,1.83813,1.97741.0061.39282.00977.58936.01855.98206.74634.78869,1.12232,1.18274,1.87916,1.97143h1.81567c.13574,3.55286.272,5.3291.52734,8.882.396.394.594.59107.99024.98511.08716,1.18432.13159,1.77661.21631,2.96069.78979.78931,1.18408,1.18384,1.967,1.9729.10791,1.57959.15844,2.36939.23755,3.94873.38427.39331.57568.59009.95581.98352.052,1.18543.07251,1.77808.09643,2.9635.74194.78931,1.105,1.184,1.82129,1.97327h2.65869c-.00732-1.97473-.03711-2.962-.12207-4.93677h-.88135c-.3706-.39343-.55712-.59021-.93212-.98352-.01954-.39453-.03-.59192-.052-.98657.33374-.39453.49951-.5918.83008-.98657-.04712-.79016-.07275-1.1853-.12573-1.97559.65527-.78906.98047-1.18359,1.63013-1.9729h1.75341c.97217-1.18408,1.4563-1.77637,2.43042-2.96069-.12548-1.97339-.18994-2.96008-.30029-4.93359.32935-.394.49463-.59107.82593-.98511h1.76538c.66675-.78919,1.00244-1.1836,1.67871-1.9729-.0874-2.3667-.12085-3.55017-.13354-5.91687,1.06079-1.18445,1.59692-1.77674,2.65893-2.96118-.00342-.78956-.00537-1.18433-.01074-1.97376h-.887c-.71875-.78931-1.07886-1.18408-1.801-1.97327H54.37921c-.72388-.78918-1.08667-1.18371-1.814-1.97277-.00562-.39527-.00879-.59278-.01465-.988-.72925-.78858-1.09473-1.18286-1.82691-1.97144H48.93146c-.7334-.78967-1.10108-1.18445-1.83716-1.97412H42.58893c-.36841-.39526-.55249-.59277-.92066-.98791-.00756-.39405-.01123-.591-.01855-.985H38.93439c-.35474.394-.53223.59094-.88721.985H33.51984c-.01783-1.18225-.02662-1.7732-.04371-2.9552-.36889-.39624-.553-.59449-.92138-.9906H31.65c-.01025-.78846-.01513-1.18274-.02417-1.97132-.36621-.39575-.54931-.59363-.915-.98926h-.906c-.71363.79065-1.07031,1.18616-1.78467,1.97693H26.20782c-.7312-.79077-1.09594-1.18628-1.82446-1.97693.71777-.78833,1.07617-1.18237,1.79346-1.97045-.00513-.78919-.00708-1.18372-.01074-1.9729.71923-.79017,1.07885-1.18531,1.79907-1.97547h6.30859c.00342.79016.00586,1.1853.01148,1.97547.36255.39428.54419.59118.90747.98535h.90576c-.011-1.18433-.01538-1.77661-.02051-2.96082,1.43506-1.57825,2.1582-2.36743,3.6001-3.94568v-.98657c1.082-1.18359,1.623-1.77563,2.70508-2.95935h1.80224v-.98633c1.4419-1.579,2.1626-2.36841,3.6045-3.94726h3.60229v.98657c.36206.39453.543.5918.905.9862h2.69971v-.9862c-.72119-.79028-1.08155-1.18543-1.80249-1.976v-.9834c.36206-.39514.54321-.59278.905-.988v-.98511c-.36182-.395-.543-.59253-.905-.98779V41.77164H51.39215c-.36011.39624-.54.59448-.8999.99085h-.8999V40.78678H45.98761v3.94848H44.18536c-.72094.78919-1.08154,1.18384-1.80224,1.97315h-.89991V44.73526H38.77545l-.90112-.98779V41.77164c.72168-.78857,1.08227-1.18286,1.80371-1.97144H45.088v-.98474c.35986-.39587.5398-.59362.89966-.98938h.8999c.36084-.39343.54151-.59008.90235-.98352h3.60229v.98352c-.36011.39576-.54.59351-.8999.98938v.98474h1.80493c.35889-.39379.53833-.59082.89722-.98474h2.70752v-.98938c-.72095-.78857-1.0813-1.18286-1.80249-1.97143h-.905c-.721-.78858-1.0813-1.18286-1.80225-1.97144H46.88751c-.35986.395-.54.59253-.8999.98767v1.97168H44.18536v-.98791c.36084-.39356.54151-.59033.90259-.98377v-.98767H42.38312v2.95935c-.36011.39344-.54.59009-.89991.98352H37.87433v-.98352H39.678v-.98791c-.36084-.39356-.5415-.59033-.90259-.98377H36.97321v-1.9757H32.46735v.988c.36157.395.54223.59253.9038.98767v2.9552h-.9038c-.721-.78857-1.08155-1.18286-1.80249-1.97143H26.15778c-.36158.39526-.54224.59277-.90381.98791H20.75323c-.36084-.39514-.5415-.59265-.90234-.98791H14.44366c-.72094.78857-1.08154,1.18286-1.80224,1.97143H10.83649c-.36036.39576-.54078.59351-.90113.98938v.98474H7.22906c-.36035.39466-.54077.59205-.90112.98658v.98486C6.68829,42.16788,6.86871,42.36612,7.22906,42.76249Z"/><path class="cls-1" d="M153.117,52.706v-.835l-.92529-1.01319h-1.1665v1.744a3.82627,3.82627,0,0,0,1.28857.81409l-.12207,1.20495V55.745c-.439.48022-.6582.72034-1.09717,1.20056a6.55236,6.55236,0,0,0-1.18652.15308l-.68384.798-.49975.85938a11.48868,11.48868,0,0,0,.7893.98461c.20435-.22338.3064-.3352.5105-.55859v-.63013h2.00244c.49854-.54565.74756-.81836,1.2461-1.364.36718-.4021.551-.60327.91845-1.00537v-1.632a12.743,12.743,0,0,0-1.50586-1.22766S153.117,52.97354,153.117,52.706Z"/><path class="cls-1" d="M131.76935,84.40335c-.40772.00037-.61182.00037-1.02149.00061-.08691.25928-.12939.3888-.21338.64808.10791.25.16114.375.26758.625.95117-.00037,1.42285-.00061,2.36865-.001.10474.27722.15674.41589.25977.69324.39941-.00013.59888-.00013.999-.00037.11182-.29614.16871-.44421.28443-.74036-.39014.00025-.58472.00037-.97388.00049-.18945-.51611-.28564-.77417-.48144-1.29028C132.6629,84.36466,132.36554,84.3776,131.76935,84.40335Z"/><path class="cls-1" d="M135.31476,82.89225c.45752-.00037.68628-.00049,1.14551-.00074.2705-.6184.4082-.92749.68627-1.54565.92139-.74024,1.39283-1.11011,2.34864-1.85-.18408-.5321-.27857-.79834-.47388-1.33032.57715-.44812.86816-.67224,1.45264-1.12048-.1919-.51294-.291-.76929-.49585-1.282-1.86988,1.44653-2.8003,2.16992-4.59229,3.61743-.49365.00024-.74048.00049-1.23462.00085-.11914.28845-.17822.43274-.29589.72132.17651.44348.26293.66528.43261,1.10876-.2771.67261-.41382,1.00891-.67944,1.68176C134.29083,82.89273,134.63165,82.89273,135.31476,82.89225Z"/><path class="cls-1" d="M142.28961,81.786c.0957,0,.14331,0,.2395-.00024-.03589-.11621-.05371-.17432-.08984-.29053Z"/><path class="cls-1" d="M130.37653,79.9921c-.2085-.46143-.3147-.692-.53125-1.15344-.34913-.74378-.52881-1.1156-.9004-1.85926-.30468-.60986-.46093-.91479-.782-1.52465-.19238.6687-.28979,1.00293-.48242,1.67187.34985.67749.52,1.01611.85205,1.69373-.11914.337-.17822.50549-.29492.8424.24731.50537.3689.75794.60791,1.26319.59814,1.264.88354,1.89624,1.43628,3.16137.17016-.00024.25513-.00024.4248-.00036.17115-.50562.26-.75842.44141-1.264.2915-.25562.43872-.38355.73584-.63916-.08814-.21338-.13257-.31982-.22192-.53308-.2002.17126-.29981.25671-.49756.428-.18164-.42591-.27368-.63892-.46094-1.06482.1499-.40894.22607-.61328.37964-1.02222C130.80109,79.99173,130.65973,79.992,130.37653,79.9921Z"/><path class="cls-1" d="M143.28082,89.068c-.47241.33813-.70825.50805-1.177.84875-.615,1.07178-.9375,1.61341-1.60767,2.70423-.488.00073-.72607.001-1.19311.00183-.11792-.88562-.1875-1.326-.36646-2.201.208-.3927.31055-.58838.51172-.97852l.63135-.00024c.22192-.41968.32642-.62915.53-1.05835h-.85181c-.12817-.43714-.19214-.65576-.321-1.09278-1.61743,1.32776-2.36621,1.97681-3.83985,3.28931-.53295.00073-.79638.001-1.31982.00171-.80371.75391-1.19287,1.13293-1.94141,1.89343-.10791.28772-.16235.43189-.2727.72034-.42188.43384-.62793.65112-1.03027,1.08606-.85572.00159-1.27759.0022-2.1399.00378-.41357.46338-.61474.69556-1.00708,1.15967-.53418,2.156-.825,3.24085-1.43725,5.40747-.30371.44263-.45069.66382-.73658,1.10571-.17358.66846-.262,1.00269-.44067,1.67066.15112.00183.22485.00281.37012.00464.32348-.51514.49145-.7732.84228-1.28955.38282.00366.56739.00561.94019.00927.282-.3789.42749-.5686.72778-.948.40576.00305.60938.00463,1.03345.00756.25488-.28955.38525-.43457.65161-.72436.24194.00134.36523.00195.61816.00342-.08862.774-.15039,1.16174-.29931,1.93725.20263.002.30713.00269.523.0044-.57129.8999-.86182,1.34985-1.4502,2.24719-.11816.44788-.18115.672-.312,1.11926.41455.00574.64111.00855,1.1499.01441.593-.479.89942-.71888,1.53052-1.19971.28.00244.42651.00366.73315.0061,2.74268-1.98193,4.29248-2.98388,7.5315-4.985.88013-1.17432,1.30859-1.76111,2.13647-2.92859-.09057-.5398-.13159-.80908-.21191-1.3457.48828-.71082.727-1.06519,1.19287-1.77027-.56641.00073-.84082.0011-1.37549.002.85694-1.31324,1.26709-1.96534,2.04248-3.2522C143.50616,89.94962,143.43439,89.6547,143.28082,89.068Z"/><path class="cls-2" d="M35.71515,115.98429l48.08813,48.08056,48.08789-48.08056c22.21631-22.08326,35.46314-41.05493,35.46314-62.73951,0-25.84667-20.07959-45.9248-45.9336-45.9248a49.63233,49.63233,0,0,0-37.61743,17.5459A49.63233,49.63233,0,0,0,46.18585,7.32C20.33185,7.32.25226,27.39811.25226,53.24478.25226,74.92936,13.49908,93.901,35.71515,115.98429Zm107.26367-22.1919c-.46582.70508-.70459,1.05945-1.19287,1.77027.08032.53662.12134.8059.21191,1.3457-.82788,1.16748-1.25634,1.75427-2.13647,2.92859-3.239,2.0011-4.78882,3.00305-7.5315,4.985-.30664-.00244-.45312-.00366-.73315-.0061-.6311.48083-.9375.7207-1.53052,1.19971-.50879-.00586-.73535-.00867-1.1499-.01441.13086-.44726.19385-.67138.312-1.11926.58838-.89734.87891-1.34729,1.4502-2.24719-.21582-.00171-.32032-.00244-.523-.0044.14892-.77551.21069-1.16321.29931-1.93725-.25293-.00147-.37622-.00208-.61816-.00342-.26636.28979-.39673.43481-.65161.72436-.42407-.00293-.62769-.00451-1.03345-.00756-.30029.37939-.4458.56909-.72778.948-.3728-.00366-.55737-.00561-.94019-.00927-.35083.51635-.5188.77441-.84228,1.28955-.14527-.00183-.219-.00281-.37012-.00464.17871-.668.26709-1.0022.44067-1.67066.28589-.44189.43287-.66308.73658-1.10571.6123-2.16662.90307-3.25146,1.43725-5.40747.39234-.46411.59351-.69629,1.00708-1.15967.86231-.00158,1.28418-.00219,2.1399-.00378.40234-.43494.60839-.65222,1.03027-1.08606.11035-.28845.16479-.43262.2727-.72034.74854-.7605,1.1377-1.13952,1.94141-1.89343.52344-.00073.78687-.001,1.31982-.00171,1.47364-1.3125,2.22242-1.96155,3.83985-3.28931.1289.437.19287.65564.321,1.09278h.85181c-.20361.4292-.30811.63867-.53,1.05835l-.63135.00024c-.20117.39014-.30371.58582-.51172.97852.179.875.24854,1.31543.36646,2.201.467-.00086.70508-.0011,1.19311-.00183.67017-1.09082.99268-1.63245,1.60767-2.70423.46875-.3407.70459-.51062,1.177-.84875.15357.58667.22534.88159.365,1.47412-.77539,1.28686-1.18554,1.939-2.04248,3.2522C142.138,93.79349,142.41241,93.79312,142.97882,93.79239ZM131.16437,82.07865c.19775-.17127.29736-.25672.49756-.428.08935.21326.13378.3197.22192.53308-.29712.25561-.44434.38354-.73584.63916-.1814.50562-.27026.75842-.44141,1.264-.16967.00012-.25464.00012-.4248.00036-.55274-1.26513-.83814-1.89733-1.43628-3.16137-.239-.50525-.3606-.75782-.60791-1.26319.1167-.33691.17578-.50537.29492-.8424-.332-.67762-.5022-1.01624-.85205-1.69373.19263-.66894.29-1.00317.48242-1.67187.321.60986.4773.91479.782,1.52465.37159.74366.55127,1.11548.9004,1.85926.21655.46142.32275.692.53125,1.15344.2832-.00012.42456-.00037.70654-.00049-.15357.40894-.22974.61328-.37964,1.02222C130.89069,81.43973,130.98273,81.65274,131.16437,82.07865Zm2.69092-1.97595c.11767-.28858.17675-.43287.29589-.72132.49414-.00036.741-.00061,1.23462-.00085,1.792-1.44751,2.72241-2.1709,4.59229-3.61743.20483.51269.30395.769.49585,1.282-.58448.44824-.87549.67236-1.45264,1.12048.19531.532.2898.79822.47388,1.33032-.95581.73987-1.42725,1.10974-2.34864,1.85-.27807.61816-.41577.92725-.68627,1.54565-.45923.00025-.688.00037-1.14551.00074-.68311.00048-1.02393.00048-1.7063.001.26562-.67285.40234-1.00915.67944-1.68176C134.11822,80.768,134.0318,80.54618,133.85529,80.1027Zm-.11524,5.52636c.38916-.00012.58374-.00024.97388-.00049-.11572.29615-.17261.44422-.28443.74036-.40014.00024-.59961.00024-.999.00037-.103-.27735-.155-.416-.25977-.69324-.9458.00037-1.41748.00061-2.36865.001-.10644-.25-.15967-.375-.26758-.625.084-.25928.12647-.3888.21338-.64808.40967-.00024.61377-.00024,1.02149-.00061.59619-.02575.89355-.03869,1.48926-.06457C133.45441,84.85489,133.5506,85.113,133.74005,85.62906Zm14.36328,1.42676c-.09692-.30176-.145-.45264-.24-.75415-.16675-.52808-.24878-.792-.41162-1.31934-.23193,0-.34692,0-.57617.00013-.50342.34948-.75269.52429-1.24487.874-.146.26245-.21851.3938-.363.65637-.38745.00025-.57886.00025-.95874.00049.11792-.21924.17724-.32886.29639-.54785-.72876.00036-1.08667.00049-1.79175.00073.35864-.27.54-.405.90649-.6748.14917-.2793.22412-.41895.37476-.69825-.20923-.71679-.31372-1.075-.52759-1.79089-.29346.00012-.43945.00037-.73023.00037-.12182-.40674-.18335-.61011-.30786-1.01685-.09619.00024-.1438.00024-.2395.00024l.14966-.29077c.03613.11621.054.17432.08984.29053.94532-.00049,1.42383-.00073,2.39746-.00146.21827-.403.32764-.60437.5459-1.00733.89136-.00049,1.34253-.00073,2.261-.00134.39087,1.20935.57934,1.81433.96655,3.02576-.25586.43994-.38379.66-.63867,1.10034.27051.86084.40723,1.2915.69092,2.15381C148.49078,87.05582,148.36114,87.05582,148.10333,87.05582Zm6.08789-30.87329c-.36743.4021-.55127.60327-.91845,1.00537-.49854.54565-.74756.81836-1.2461,1.364h-2.00244V59.182c-.2041.22339-.30615.33521-.5105.55859a11.48868,11.48868,0,0,1-.7893-.98461l.49975-.85938.68384-.798a6.55236,6.55236,0,0,1,1.18652-.15308c.439-.48022.65821-.72034,1.09717-1.20056V54.62088l.12207-1.20495a3.82627,3.82627,0,0,1-1.28857-.81409v-1.744h1.1665L153.117,51.871v.835c0,.26757-.43164.61694-.43164.61694a12.743,12.743,0,0,1,1.50586,1.22766ZM68.51544,60.9589h.90527c.35962-.395.53956-.59253.89991-.98755.00073-.78858,0-1.18286,0-1.97144.36157-.39294.54248-.58948.90381-.98242h4.50732c.35986-.39575.54-.59351.8999-.98926h4.50977v1.97168c.36059.39453.54077.5918.90137.98633h3.60473c.35986.394.53491.59106.90015.98511h.90112c-.01245-.78858-.00049-1.18286-.00049-1.97144h1.804c.72119.78858,1.06665,1.18286,1.8042,1.97144H94.661c.70654-.78858,1.08105-1.18286,1.802-1.97144V56.02823H91.95563c-.721-.78918-1.0813-1.18384-1.80225-1.9729v-.988h-.90112c-.3606.39539-.541.5929-.90137.988H87.4483V51.09464c-.72021-.78919-1.08032-1.18384-1.80078-1.9729h-2.709v1.9729c.72241.78906,1.084,1.18371,1.80639,1.97265h.90259v1.97327h-1.804c-.36182-.39416-.543-.59119-.905-.98523v-.988c-.719-.78894-1.07813-1.18359-1.79712-1.97265H78.43536c-.72143.78906-1.08227,1.18371-1.80371,1.97265v.988c-.35986.394-.54.59107-.8999.98523h-3.606c-.36059-.39416-.54077-.59119-.90136-.98523V51.09464c.36059-.394.54077-.59107.90136-.98486h.90235c.36059.39379.54077.59082.90136.98486h1.80225v-1.9729h-.8999v-.98487c.35986-.39514.54-.59277.8999-.98791h1.801c.72265-.78918,1.08374-1.18359,1.80639-1.97278h.8999c.36084-.39514.54151-.59277.90235-.98791h.90137V42.21683H79.33917V40.24259c.35987-.39466.54-.59192.8999-.98657h.90235c.36059-.39576.54077-.59351.90137-.98938v-.98377c.35815-.39563.53735-.59338.89575-.989h.905c.72168-.78931,1.08252-1.18384,1.804-1.97315h8.11182c.36035.39575.54077.59363.90112.98926v1.9729h.8999c.72-.78906,1.07984-1.18372,1.79981-1.9729h.905v1.9729h.8999c.72046-.78906,1.08057-1.18372,1.801-1.9729h5.40967V33.33731H108.178c.36011.39331.54.59.90015.9834v1.97315h1.80224V34.32071l1.80493-1.96972h.90259c.35986-.39673.5398-.59522.8999-.99219h4.50977c.11621-.126.17432-.18921.29077-.31531a4.844,4.844,0,0,1,.31641.99182h1.88379c.71289.78028,1.06909,1.17041,1.78222,1.95069h6.70142c.30566.33471.45874.50207.7644.83691h3.22412l1.565-1.71326h3.16381c.32251.353.48365.52942.80591.88233h4.96582c.43506.47607.65259.71423,1.0874,1.1903h8.57618c.75439.82581,1.13183,1.23865,1.886,2.06446h4.63648v.67358h-3.13135c-.35181.38526-.52783.57788-.87988.96314l1.81958,1.9917H154.48v1.72436c.53711.58789.80542.88159,1.34229,1.46936v2.17346c-1.19214-1.30493-1.78809-1.95752-2.98023-3.26245V40.19645h-3.64453V41.045h-3.84033c-.93042,1.01843-1.39575,1.52758-2.32617,2.546v1.182h3.18628c.67138.73523,1.00732,1.10266,1.67895,1.83789.46875.51307.70313.76966,1.17188,1.28272v2.75976c-.72681.79541-1.09009,1.19324-1.81665,1.98865-.52515.57471-.78785.86206-1.31275,1.43677.72632.79541,1.0896,1.193,1.81641,1.98828v1.54211h-1.5896c-.36206-.39636-.543-.59436-.90479-.99047V55.17008c-.46435-.5083-.69653-.76233-1.16089-1.27051h-1.36767c-.40991-.44873-.61475-.67322-1.0249-1.12183-.71827.786-1.07715,1.1792-1.79541,1.96521.553.60523.82934.90784,1.38232,1.51319h1.47656c-.40088.4386-.60107.65783-1.00171,1.09643.93238,1.02063,1.39844,1.53089,2.33081,2.55152a17.33839,17.33839,0,0,1-.08252,1.782c-1.54492,1.55188-2.37963,2.32739-4.11377,3.87878-.95971.00013-1.43969.00025-2.40087.00025-.918.82739-1.38868,1.24121-2.34571,2.0686.83594,1.32568,1.21436,1.98828,1.91089,3.31348-.21264.6084-.32348.9126-.55078,1.52087-.36157.29163-.54272.4375-.90478.72913-.59595.00036-.89429.00049-1.49268.00073-.60962-1.2251-.93677-1.83777-1.647-3.06323-.19141.61841-.29151.92773-.49805,1.54614-.25513.76392-.38818,1.14575-.65942,1.90991.43579.84143.64306,1.26221,1.04052,2.10376-.29.76172-.437,1.14258-.72851,1.90454-.25269.65992-.37891.98975-.62769,1.64966-.27539-.6145-.4165-.92163-.70727-1.536.16943-.45666.25439-.68481.42431-1.14123-.33984-.70752-.51538-1.061-.87964-1.76832.2107-.59155.31543-.88708.52027-1.47839.3313-1.2771.48974-1.9154.76416-3.1925-.19385-.32862-.29273-.49317-.49414-.8219-.367.30993-.55127.465-.92212.7749.15771-.53027.23389-.79553.37866-1.32581-.79883-1.26794-1.22656-1.9021-2.14795-3.17065-.57422.00024-.86181.00024-1.43848.00024-.5371.00013-.80615.00013-1.34594.00025-.08838.4613-.13648.692-.239,1.15332-1.70019,1.4801-2.5957,2.22021-4.44751,3.70056-.22143.74463-.33691,1.11682-.57128,1.86145.19165.29834.28686.44739.47607.7456-1.01978.80323-1.53638,1.20459-2.51538,2.00757.061-.50879.0918-.7633.15234-1.27221h-.10791c.06909-.21778.10352-.32666.17237-.54444.02661-.22729.03955-.34106.06543-.56848-.20313-.34448-.30518-.51672-.51-.8612.12011-.39454.17944-.5918.29589-.98633-.48169-.78931-.72558-1.18384-1.23022-1.97315.41382-1.57934.60254-2.369.88672-3.94848-.57764-.78858-.877-1.18287-1.501-1.97132h-5.38452c-.31714-.39416-.47876-.59118-.80859-.98523H106.306c-.66943-.79028-1.01611-1.1853-1.73267-1.97558.0022-.394.00025-.59107.00025-.98511h-1.80249c0,.78906.0061,1.18372-.011,1.97266.70117.7893,1.041,1.184,1.69727,1.97326h1.77954c.64868.78845.96093,1.18274,1.562,1.97132h.87964c-.0542.39575-.0835.59375-.14478.9895-2.05639,1.9729-3.102,2.95923-5.09424,4.93213h-2.48486c-.27612-.39295-.4165-.58936-.70239-.98242.09985-.79029.14795-1.18531.23559-1.97559-.59594-.78955-.90454-1.18445-1.5415-1.97412.05981-.78931.08594-1.18384.1272-1.97315-.66748-.78918-1.01172-1.18383-1.71631-1.9729H95.56818c-.00684.78907-.01514,1.18372-.03907,1.9729.34351.39344.51343.59021.84839.98365-.05444,1.18554-.09131,1.77832-.1748,2.96362,1.582,1.97241,2.311,2.9585,3.65429,4.93079h4.85816c-.07861.39514-.11792.59265-.19727.98767a89.01893,89.01893,0,0,0-7.27514,7.89611c-.06934.78846-.10083,1.18274-.15406,1.97132.2605.394.39014.59094.64942.98486-.12158,1.97351-.12207,2.96021-.12207,4.9336-1.10132,1.57836-1.65454,2.36767-2.78614,3.946v1.97412H94.118c-.28516.394-.42847.59107-.717.98511V98.4523c-1.15576,1.57837-1.74512,2.36768-2.96777,3.946H85.59112v-3.946c-.68457-.79016-1.03393-1.1853-1.749-1.97558v-3.9458c-.35889-.39551-.54223-.59351-.90478-.989.00048-.78833.00048-1.18225.001-1.97045.7229-.78907,1.08716-1.1836,1.78052-1.97278-.00171-.39514-.00269-.59253-.00391-.98767-.69775-.78931-1.05444-1.184-1.77563-1.97315V83.653c-.71777-.78858-1.07593-1.18286-1.79248-1.97132-.00049-1.97534-.001-2.96289-.00195-4.93811H79.348c-.36084-.39343-.541-.59008-.90161-.98352H75.75543c-.35693.39344-.53515.59009-.8916.98352H70.38556c-1.79761-1.9729-2.69922-2.95922-4.50708-4.93212-.01343-1.57776-.02-2.36658-.031-3.94434.35547-.39465.53369-.5918.88965-.98657-.0022-.395-.00317-.59253-.00537-.98755H65.835c-.00439-.78931-.00635-1.18384-.00952-1.97315C66.89874,62.73551,67.43683,62.14322,68.51544,60.9589ZM7.22906,39.8002h2.7063v-.98474c.36035-.39587.54077-.59362.90113-.98938h1.80493c.7207-.78857,1.0813-1.18286,1.80224-1.97143h5.40723c.36084.39526.5415.59277.90234.98791H25.254c.36157-.39514.54223-.59265.90381-.98791h4.50708c.72094.78857,1.08154,1.18286,1.80249,1.97143h.9038v-2.9552c-.36157-.39514-.54223-.59265-.9038-.98767v-.988h4.50586v1.9757h1.80224c.36109.39344.54175.59021.90259.98377v.98791H37.87433v.98352h3.60888c.35987-.39343.5398-.59008.89991-.98352V33.88321H45.088v.98767c-.36108.39344-.54175.59021-.90259.98377v.98791h1.80225V34.87088c.35986-.39514.54-.59265.8999-.98767h4.50464c.721.78858,1.0813,1.18286,1.80225,1.97144h.905c.72119.78857,1.08154,1.18286,1.80249,1.97143v.98938H53.1944c-.35889.39392-.53833.59095-.89722.98474H50.49225v-.98474c.35986-.39587.53979-.59362.8999-.98938v-.98352H47.78986c-.36084.39344-.54151.59009-.90235.98352h-.8999c-.35986.39576-.5398.59351-.89966.98938v.98474H39.678c-.72144.78858-1.082,1.18287-1.80371,1.97144v1.97583l.90112.98779h2.70776v1.97315h.89991c.7207-.78931,1.0813-1.184,1.80224-1.97315h1.80225V40.78678h3.60474v1.97571h.8999c.35986-.39637.53979-.59461.8999-.99085H53.1944v1.97583c.36206.39526.54321.59277.905.98779v.98511c-.36182.39526-.543.5929-.905.988v.9834c.72094.79052,1.0813,1.18567,1.80249,1.976v.9862H52.29718c-.36206-.3944-.543-.59167-.905-.9862v-.98657H47.78986c-1.4419,1.57885-2.1626,2.36828-3.6045,3.94726v.98633H42.38312c-1.082,1.18372-1.623,1.77576-2.70508,2.95935v.98657c-1.4419,1.57825-2.165,2.36743-3.6001,3.94568.00513,1.18421.00952,1.77649.02051,2.96082h-.90576c-.36328-.39417-.54492-.59107-.90747-.98535-.00562-.79017-.00806-1.18531-.01148-1.97547H27.96515c-.72022.79016-1.07984,1.1853-1.79907,1.97547.00366.78918.00561,1.18371.01074,1.9729-.71729.78808-1.07569,1.18212-1.79346,1.97045.72852.79065,1.09326,1.18616,1.82446,1.97693h1.81226c.71436-.79077,1.071-1.18628,1.78467-1.97693h.906c.36573.39563.54883.59351.915.98926.009.78858.01392,1.18286.02417,1.97132h.90479c.36841.39611.55249.59436.92138.9906.01709,1.182.02588,1.773.04371,2.9552h4.52734c.355-.39405.53247-.591.88721-.985h2.71533c.00732.394.011.59094.01855.985.36817.39514.55225.59265.92066.98791H47.0943c.73608.78967,1.10376,1.18445,1.83716,1.97412h1.79223c.73218.78858,1.09766,1.18286,1.82691,1.97144.00586.39526.009.59277.01465.988.72729.78906,1.09008,1.18359,1.814,1.97277h4.45752c.72217.78919,1.08228,1.184,1.801,1.97327h.887c.00537.78943.00732,1.1842.01074,1.97376-1.062,1.18444-1.59814,1.77673-2.65893,2.96118.01269,2.3667.04614,3.55017.13354,5.91687-.67627.7893-1.012,1.18371-1.67871,1.9729H55.566c-.3313.394-.49658.59106-.82593.98511.11035,1.97351.17481,2.9602.30029,4.93359-.97412,1.18432-1.45825,1.77661-2.43042,2.96069H50.85651c-.64966.78931-.97486,1.18384-1.63013,1.9729.053.79029.07861,1.18543.12573,1.97559-.33057.39477-.49634.592-.83008.98657.022.39465.03247.592.052.98657.375.39331.56152.59009.93212.98352h.88135c.085,1.97473.11475,2.962.12207,4.93677H47.85089c-.71631-.78931-1.07935-1.184-1.82129-1.97327-.02392-1.18542-.04443-1.77807-.09643-2.9635-.38013-.39343-.57154-.59021-.95581-.98352-.07911-1.57934-.12964-2.36914-.23755-3.94873-.783-.78906-1.17725-1.18359-1.967-1.9729-.08472-1.18408-.12915-1.77637-.21631-2.96069-.39624-.394-.59424-.59107-.99024-.98511-.25537-3.55286-.3916-5.3291-.52734-8.882H39.22321c-.75684-.78869-1.13282-1.18274-1.87916-1.97143-.00878-.3927-.01245-.58924-.01855-.98206-.74121-.79089-1.106-1.1864-1.83813-1.97741-.001-.39295-.00171-.58948-.00342-.9823-.73047-.79029-1.09644-1.18543-1.82935-1.97559-.01147-1.57886-.01977-2.36841-.03857-3.94751.71679-.78955,1.07422-1.18433,1.78759-1.97412-.01684-1.18433-.02612-1.77637-.04467-2.96082H32.63849c-.36865-.39392-.553-.59094-.92163-.98474-.00537-.39526-.00806-.59277-.01367-.98791-.7378-.78919-1.10621-1.18384-1.84205-1.9729H27.14532c-.00415-.393-.0061-.58948-.01025-.9823H23.50446c-.36353-.39624-.54493-.59449-.90772-.9906h-.908c-.72827-.78846-1.0918-1.18274-1.81787-1.97132-.00195-.39575-.00293-.59363-.00464-.98926.36035-.39526.54028-.59277.90039-.988-.00171-.39282-.00268-.58936-.00415-.98242-1.08935-1.18482-1.63232-1.77735-2.7168-2.96216-.001-.78906-.001-1.18372-.00048-1.97266h-.89844c-.001,1.18482-.00073,1.7771.00073,2.96192.36011.39428.54028.59118.90088.98535-.35889.395-.53833.59253-.89746.98755-.72363-.78919-1.085-1.18372-1.80689-1.9729-.00146-1.97217.00074-2.95826.00074-4.9303-.36035-.39636-.54077-.59461-.90113-.99085v-2.958c.7212-.78956,1.08155-1.18445,1.80225-1.97425V51.642c.72-.78979,1.08008-1.18457,1.7998-1.97424V46.70841c-.35937-.39514-.53906-.59278-.89843-.988v-1.9729c-.72095-.79028-1.08155-1.18542-1.80249-1.97583H11.73761c-.3606.39624-.54053.59448-.90112.99085H7.22906c-.36035-.39637-.54077-.59461-.90112-.99085v-.98486C6.68829,40.39225,6.86871,40.19486,7.22906,39.8002Z"/><path class="cls-2" d="M548.97174,108.51h6.93359v-40.548h-9.26269L534.27252,97.08329h-.30469a44.5425,44.5425,0,0,0,.52637-6.85071V67.96207h-6.98828V108.51H536.824l12.425-29.42578h.36036a36.19193,36.19193,0,0,0-.6377,7.21082Z"/><path class="cls-2" d="M529.89069,64.4025v-18.249h-4.6045V12.26187H506.75983a126.62071,126.62071,0,0,1-7.32251,33.89161h-2.38453v18.249h7.322V52.80985h18.1936V64.4025Zm-12.14844-18.249H507.28693a111.66019,111.66019,0,0,0,3.61938-13.27039,132.99132,132.99132,0,0,0,2.23242-13.99231h4.60352Z"/><polygon class="cls-2" points="486.542 108.51 486.542 67.962 478.998 67.962 478.998 84.076 469.041 84.076 469.041 67.962 461.498 67.962 461.498 108.51 469.041 108.51 469.041 90.733 478.998 90.733 478.998 108.51 486.542 108.51"/><path class="cls-2" d="M254.01642,108.51h8.2373l7.68286-34.47375h.22144a64.78239,64.78239,0,0,0-.3877,6.98938V108.51h7.15552v-40.548h-11.76l-6.87768,31.86731h-.22193l-6.93359-31.86731h-11.593V108.51h6.98853V81.30289a56.437,56.437,0,0,0-.52613-7.32214h.30469Z"/><path class="cls-2" d="M472.50763,23.38407h.36059a36.19269,36.19269,0,0,0-.63769,7.21081v22.215h6.93359v-40.548h-9.26269L457.53131,41.38309h-.30469a44.54231,44.54231,0,0,0,.52637-6.85071V12.26187h-6.98828v40.548h9.31811Z"/><path class="cls-2" d="M472.05084,6.85367q2.48145-2.16357,3.03589-6.82226h-6.24a7.16173,7.16173,0,0,1-1.20605,3.60546,3.31215,3.31215,0,0,1-2.73145,1.10962,3.501,3.501,0,0,1-2.73242-.9707A6.983,6.983,0,0,1,460.99811.03141H454.8692q.44238,4.74205,2.80078,6.8645,2.35658,2.12109,7.07227,2.121Q469.56891,9.01688,472.05084,6.85367Z"/><polygon class="cls-2" points="552.605 18.78 552.605 12.262 534.328 12.262 534.328 52.81 552.605 52.81 552.605 46.209 541.871 46.209 541.871 34.977 551.828 34.977 551.828 28.431 541.871 28.431 541.871 18.78 552.605 18.78"/><polygon class="cls-2" points="189.895 108.51 197.383 108.51 197.383 74.48 208.005 74.48 208.005 67.962 189.895 67.962 189.895 108.51"/><path class="cls-2" d="M434.29083,108.51H441.834V93.8107h1.88648q6.15673,0,9.41528-3.45312,3.25891-3.45246,3.25879-9.91492,0-12.48047-11.81445-12.48059H434.29083ZM441.834,74.47977h1.83106a4.67253,4.67253,0,0,1,3.85449,1.53894,7.43548,7.43548,0,0,1,1.248,4.72949q0,3.46748-1.3584,4.99219a5.25647,5.25647,0,0,1-4.13281,1.52539H441.834Z"/><path class="cls-2" d="M235.43414,164.7648a12.36364,12.36364,0,0,0,10.78955-5.4082q3.77014-5.408,3.77124-15.47546,0-10.06806-3.74389-15.462a12.30361,12.30361,0,0,0-10.76123-5.39453q-7.1001,0-10.87207,5.36621-3.772,5.36719-3.77149,15.43469,0,10.15137,3.77149,15.5448A12.39729,12.39729,0,0,0,235.43414,164.7648Zm-5.13086-31.46472q1.74756-3.61982,5.18653-3.61914,6.76611,0,6.76709,14.2002,0,14.2-6.82276,14.20007-3.38379,0-5.13086-3.63367-1.74756-3.63281-1.74707-10.5664Q228.55621,136.92,230.30328,133.30008Z"/><rect class="cls-2" x="436.03693" y="12.26187" width="7.57251" height="40.54797"/><path class="cls-2" d="M232.13434,18.28055a6.78039,6.78039,0,0,1,3.07788.707,22.06121,22.06121,0,0,1,2.66211,1.56739l2.49609-6.12989a17.01312,17.01312,0,0,0-4.36792-2.13488,14.7497,14.7497,0,0,0-4.25708-.61023A12.06667,12.06667,0,0,0,221.22,17.1984q-3.78478,5.51954-3.78491,15.39258,0,9.8745,3.6748,15.32336a11.93338,11.93338,0,0,0,10.52442,5.4502,13.49046,13.49046,0,0,0,7.59961-1.96875V44.68387a13.4232,13.4232,0,0,1-6.73926,2.05164q-7.35058,0-7.34985-14.08875,0-6.76629,1.87231-10.5664Q228.88923,18.28054,232.13434,18.28055Z"/><path class="cls-2" d="M221.97,106.24918q2.7865-2.814,4.9502-9.60938l9.04126-28.67773h-7.627L223.92535,83.799l-.416,1.85743-.38892,1.88684H222.899a22.28024,22.28024,0,0,0-.80469-3.74427l-5.1582-15.83691h-7.9043l10.40039,28.23352q-1.80322,6.18585-5.13086,6.18555a11.23857,11.23857,0,0,1-4.1875-.80469v6.71191a13.37491,13.37491,0,0,0,4.88086.77625A9.41405,9.41405,0,0,0,221.97,106.24918Z"/><polygon class="cls-2" points="378.905 175.803 378.905 157.859 374.301 157.859 374.301 123.662 366.812 123.662 366.812 157.554 358.049 157.554 358.049 123.662 350.561 123.662 350.561 157.554 341.796 157.554 341.796 123.662 334.253 123.662 334.253 164.21 371.583 164.21 371.583 175.803 378.905 175.803"/><polygon class="cls-2" points="576.013 28.376 566.056 28.376 566.056 12.262 558.513 12.262 558.513 52.81 566.056 52.81 566.056 35.032 576.013 35.032 576.013 52.81 583.557 52.81 583.557 12.262 576.013 12.262 576.013 28.376"/><path class="cls-2" d="M210.80621,28.41727a10.68489,10.68489,0,0,0,1.52539-5.89368q0-5.35234-2.88379-7.80652-2.88573-2.45506-9.208-2.4552h-10.345v40.548h12.20337a10.598,10.598,0,0,0,8.084-3.12024q2.95459-3.11994,2.9541-8.63953a11.39892,11.39892,0,0,0-1.52539-6.2677,7.875,7.875,0,0,0-4.96509-3.21679v-.27723A6.15374,6.15374,0,0,0,210.80621,28.41727Zm-13.81152-9.6377h3.18945a4.81133,4.81133,0,0,1,3.49414,1.09571,4.94647,4.94647,0,0,1,1.10913,3.619,6.21778,6.21778,0,0,1-.9707,3.7998,3.9628,3.9628,0,0,1-3.35522,1.27539h-3.4668Zm7.30762,25.98731a4.21488,4.21488,0,0,1-3.50782,1.44238h-3.7998V34.86539h3.68823q4.7699,0,4.77051,5.43665A7.1096,7.1096,0,0,1,204.30231,44.76688Z"/><path class="cls-2" d="M404.86432,164.21024h6.93359V123.66239h-9.26269L390.1651,152.78348h-.30469a44.5422,44.5422,0,0,0,.52613-6.85071V123.66239h-6.988v40.54785h9.31811l12.42481-29.42578h.36059a36.19269,36.19269,0,0,0-.63769,7.21081Z"/><polygon class="cls-2" points="339.467 108.51 339.467 67.962 331.923 67.962 331.923 84.076 321.966 84.076 321.966 67.962 314.423 67.962 314.423 108.51 321.966 108.51 321.966 90.733 331.923 90.733 331.923 108.51 339.467 108.51"/><polygon class="cls-2" points="214.939 164.21 214.939 123.662 189.895 123.662 189.895 164.21 197.438 164.21 197.438 130.291 207.451 130.291 207.451 164.21 214.939 164.21"/><path class="cls-2" d="M541.65045,60.44657a3.50053,3.50053,0,0,1-2.73242-.97071,6.98248,6.98248,0,0,1-1.17871-3.74426h-6.12891q.44238,4.74189,2.80078,6.86438,2.35694,2.12109,7.072,2.12109,4.827,0,7.30884-2.16308,2.48145-2.16376,3.03614-6.82239H545.588a7.16078,7.16078,0,0,1-1.20605,3.60547A3.31247,3.31247,0,0,1,541.65045,60.44657Z"/><path class="cls-2" d="M286.13385,164.21024h7.15527V123.66239h-11.76l-6.87768,31.86718h-.22168l-6.93384-31.86718H255.90314v40.54785h6.98828V137.00309a56.47964,56.47964,0,0,0-.52613-7.32215H262.67l7.71,34.5293h8.23731l7.68237-34.47376h.22192a64.72108,64.72108,0,0,0-.38769,6.98938Z"/><path class="cls-2" d="M320.69049,12.26187h-6.98828v40.548h9.31811l12.42481-29.42578h.36059a36.19269,36.19269,0,0,0-.63769,7.21081v22.215h6.93359v-40.548h-9.26269L320.46881,41.38309h-.30469a44.54231,44.54231,0,0,0,.52637-6.85071Z"/><path class="cls-2" d="M600.19733,28.09879h-1.94141V12.26187h-7.543v40.548h9.65137q5.96191,0,9.208-3.38379,3.24462-3.384,3.24389-9.5127Q612.81622,28.09776,600.19733,28.09879Zm-.05469,18.166h-1.88672V34.69937h1.4978q2.96814,0,4.2024,1.27552a5.94032,5.94032,0,0,1,1.23339,4.2157Q605.18951,46.264,600.14264,46.2648Z"/><path class="cls-2" d="M346.62213,108.51h9.31836l12.4248-29.42578h.36036a36.19193,36.19193,0,0,0-.6377,7.21082V108.51h6.93359v-40.548h-9.26269L353.38873,97.08329H353.084a44.5425,44.5425,0,0,0,.52637-6.85071V67.96207h-6.98828Z"/><path class="cls-2" d="M356.79962,38.11051h1.887q6.15638,0,9.415-3.45313,3.25891-3.45245,3.25879-9.91491,0-12.48048-11.8147-12.4806H349.2569v40.548h7.54272Zm0-19.33094h1.8313a4.67224,4.67224,0,0,1,3.85449,1.53907,7.43489,7.43489,0,0,1,1.2478,4.72937q0,3.46746-1.35839,4.99219a5.25558,5.25558,0,0,1-4.13257,1.52539h-1.44263Z"/><path class="cls-2" d="M313.78424,164.7648a12.36307,12.36307,0,0,0,10.78906-5.4082q3.77014-5.408,3.77149-15.47546,0-10.06806-3.74414-15.462a12.30276,12.30276,0,0,0-10.76075-5.39453q-7.10008,0-10.87207,5.36621-3.772,5.36719-3.77148,15.43469,0,10.15137,3.77148,15.5448A12.39732,12.39732,0,0,0,313.78424,164.7648Zm-5.1311-31.46472q1.74792-3.61982,5.18676-3.61914,6.76612,0,6.76661,14.2002,0,14.2-6.82227,14.20007-3.38415,0-5.1311-3.63367-1.7472-3.63281-1.74683-10.5664Q306.90631,136.92,308.65314,133.30008Z"/><path class="cls-2" d="M418.1485,28.09879h-1.94141V12.26187h-7.543v40.548h9.65137q5.96191,0,9.208-3.38379,3.24462-3.384,3.24414-9.5127Q430.76764,28.09776,418.1485,28.09879Zm-.05469,18.166h-1.88672V34.69937h1.498q2.96741,0,4.20215,1.27552a5.93918,5.93918,0,0,1,1.2334,4.2157Q423.14069,46.264,418.09381,46.2648Z"/><path class="cls-2" d="M423.14069,108.51H430.713L420.64459,67.79618h-10.2334L400.37091,108.51h7.54419l2.3291-10.23437h10.56738Zm-11.39844-16.918q2.32909-10.23357,2.88476-13.10449.55335-2.87127.915-5.256.1377,1.16473.81836,4.61829.67786,3.45264.8728,4.3125l2.16333,9.42968Z"/><polygon class="cls-2" points="384.008 35.032 393.965 35.032 393.965 52.81 401.509 52.81 401.509 12.262 393.965 12.262 393.965 28.376 384.008 28.376 384.008 12.262 376.465 12.262 376.465 52.81 384.008 52.81 384.008 35.032"/><polygon class="cls-2" points="387.114 108.51 394.63 108.51 394.63 74.591 402.395 74.591 402.395 67.962 379.349 67.962 379.349 74.591 387.114 74.591 387.114 108.51"/><path class="cls-2" d="M299.39069,52.80985h7.155v-40.548H294.78619L287.908,44.12918h-.22144L280.753,12.26187H269.16022v40.548h6.98828V25.6027a56.44015,56.44015,0,0,0-.52637-7.32215h.30469l7.70972,34.5293h8.23754l7.68262-34.47376h.22144a64.84264,64.84264,0,0,0-.38745,6.98938Z"/><polygon class="cls-2" points="263.252 18.78 263.252 12.262 244.976 12.262 244.976 52.81 263.252 52.81 263.252 46.209 252.519 46.209 252.519 34.977 262.476 34.977 262.476 28.431 252.519 28.431 252.519 18.78 263.252 18.78"/><path class="cls-2" d="M303.27252,108.51h7.57227L300.77643,67.79618H290.543L280.503,108.51h7.54395l2.3291-10.23437h10.56738Zm-11.39844-16.918q2.32911-10.23357,2.88477-13.10449.55371-2.87127.915-5.256.1377,1.16473.81836,4.61829.67822,3.45264.873,4.3125l2.16285,9.42968Z"/><path class="cls-2" d="M517.82623,103.65641q3.7705-5.408,3.77149-15.47547,0-10.068-3.74439-15.462a12.30231,12.30231,0,0,0-10.7605-5.39454q-7.10008,0-10.87231,5.36622-3.7716,5.36718-3.77148,15.43469,0,10.15137,3.77148,15.5448a13.50365,13.50365,0,0,0,21.60571-.01367Zm-10.7893-1.27527q-3.38343,0-5.13062-3.63379-1.74792-3.63282-1.74707-10.56641,0-6.96111,1.74707-10.58105,1.74756-3.61982,5.18652-3.61914,6.76575,0,6.76661,14.20019Q513.85944,102.38114,507.03693,102.38114Z"/><path class="cls-2" d="M440.44685,151.121a1.28183,1.28183,0,0,0-.71289,1.22266v4.43262a.91456.91456,0,0,0,1.01855,1.019h5.50293v-2.08887a.91436.91436,0,0,1,1.01856-1.019h4.8916a.91435.91435,0,0,1,1.01855,1.019v7.79493a.91435.91435,0,0,1-1.01855,1.019H433.8238a.91435.91435,0,0,1-1.01855-1.019V148.47161c0-.96826.35644-1.376,1.32422-1.88525l12.126-6.52149v-7.54053a1.8517,1.8517,0,0,0-2.03808-2.03808H441.772a1.80807,1.80807,0,0,0-2.03808,2.03808v3.97413a.74993.74993,0,0,1-.81543.81494H433.6197a.72657.72657,0,0,1-.81445-.81494v-5.40088c0-4.78907,2.54687-7.33643,7.33594-7.33643h5.707c4.73828,0,7.33593,2.54736,7.33593,7.33643V143.122c0,.96777-.40722,1.37549-1.375,1.88477Z"/><path class="cls-2" d="M459.30134,131.09759c0-4.78907,2.54688-7.33643,7.33594-7.33643h5.707c4.78906,0,7.33594,2.54736,7.33594,7.33643v26.08593c0,4.78956-2.54688,7.33692-7.33594,7.33692h-5.707c-4.78906,0-7.33594-2.54736-7.33594-7.33692Zm11.76856,26.85058a1.80807,1.80807,0,0,0,2.03808-2.03808V132.37151a1.82921,1.82921,0,0,0-2.03808-2.03808h-2.95508a1.82963,1.82963,0,0,0-2.03809,2.03808v23.53858a1.80847,1.80847,0,0,0,2.03809,2.03808Z"/><path class="cls-2" d="M493.43806,151.121a1.28183,1.28183,0,0,0-.71289,1.22266v4.43262a.91456.91456,0,0,0,1.01855,1.019h5.50293v-2.08887a.91436.91436,0,0,1,1.01856-1.019h4.8916a.91435.91435,0,0,1,1.01855,1.019v7.79493a.91435.91435,0,0,1-1.01855,1.019H486.815a.91435.91435,0,0,1-1.01855-1.019V148.47161c0-.96826.35644-1.376,1.32422-1.88525l12.126-6.52149v-7.54053a1.8517,1.8517,0,0,0-2.03808-2.03808h-2.44531a1.80808,1.80808,0,0,0-2.03809,2.03808v3.97413a.74992.74992,0,0,1-.81543.81494h-5.29883a.72657.72657,0,0,1-.81445-.81494v-5.40088c0-4.78907,2.54687-7.33643,7.33594-7.33643h5.707c4.73828,0,7.33593,2.54736,7.33593,7.33643V143.122c0,.96777-.40722,1.37549-1.375,1.88477Z"/><path class="cls-2" d="M519.93415,151.121a1.28183,1.28183,0,0,0-.71289,1.22266v4.43262a.91456.91456,0,0,0,1.01856,1.019h5.50293v-2.08887a.91435.91435,0,0,1,1.01855-1.019h4.8916a.91436.91436,0,0,1,1.01856,1.019v7.79493a.91436.91436,0,0,1-1.01856,1.019H513.31111a.91436.91436,0,0,1-1.01856-1.019V148.47161c0-.96826.35645-1.376,1.32422-1.88525l12.126-6.52149v-7.54053a1.8517,1.8517,0,0,0-2.03809-2.03808h-2.44531a1.80808,1.80808,0,0,0-2.03809,2.03808v3.97413a.74992.74992,0,0,1-.81543.81494H513.107a.72657.72657,0,0,1-.81446-.81494v-5.40088c0-4.78907,2.54688-7.33643,7.33594-7.33643h5.707c4.73828,0,7.33594,2.54736,7.33594,7.33643V143.122c0,.96777-.40723,1.37549-1.375,1.88477Z"/></g></svg>