<svg xmlns="http://www.w3.org/2000/svg" viewBox="0 0 500.10556 156.76447"><defs><style>.cls-1{fill:none;}.cls-2{fill:#3cb4dc;}</style></defs><g id="english"><path class="cls-1" d="M148.51453,76.501c-.38721-1.21143-.57569-1.81641-.96656-3.02564l-2.26074.00123c-.21826.40307-.32764.60449-.54614,1.00732-.97339.00073-1.45191.001-2.39746.00146.12475.40674.18628.61011.30786,1.01685.29077,0,.43677-.00024.73022-.00024.21411.71582.31861,1.07421.52759,1.79077-.15039.27929-.22558.41894-.37475.69824-.36622.26977-.54761.40478-.9065.675.70532-.00049,1.063-.00049,1.79175-.001-.1189.21924-.17847.32861-.29639.54785.37989,0,.57154-.00024.95874-.00049.14453-.26245.21729-.39379.36328-.65625.492-.34985.74122-.52465,1.24463-.874.22925-.00024.34449-.00024.57617-.00024.16309.52759.24512.79126.41163,1.31933.09521.30152.14331.4524.24023.75415h.64893c-.28394-.8623-.42041-1.293-.69092-2.154C148.13074,77.16118,148.25867,76.941,148.51453,76.501Z"/><path class="cls-1" d="M144.276,26.69169h-4.96582c-.32227-.353-.48364-.52929-.80591-.88232h-3.16406c-.626.6853-.93872,1.02783-1.56494,1.71313h-3.22388c-.30591-.33471-.45874-.502-.76465-.83691h-6.70141l-1.78223-1.95068h-1.88379a4.81831,4.81831,0,0,0-.31641-.9917c-.11645.126-.17456.18921-.29077.31543h-4.50976c-.35987.39672-.5398.59521-.8999.99218h-.90235c-.72217.7876-1.083,1.18164-1.80517,1.96949v1.97314H108.8927V27.02031c-.35986-.39331-.54-.59009-.8999-.9834h-1.80249v1.9729h-5.40943c-.7207.78906-1.08081,1.18359-1.80127,1.97265H98.08V28.00981h-.90528c-.72.78906-1.07983,1.18359-1.79956,1.97265h-.8999V28.00981c-.3606-.39575-.54077-.59375-.90137-.9895H85.462c-.72144.7893-1.082,1.18383-1.80372,1.97314h-.90527c-.3584.39575-.5376.59351-.89575.989v.98389c-.3606.39575-.54077.59351-.90112.98926h-.90259c-.35986.39477-.5398.592-.89966.98657v1.97437H81.8573V36.888h-.90112l-.90259.988h-.89966l-1.80664,1.97266H75.54651c-.36011.395-.54.59277-.8999.98779v.98486h.8999v1.9729H73.744c-.36035-.3938-.54077-.59106-.90112-.98486h-.90259c-.36035.3938-.54053.59106-.90113.98486v2.9607c.3606.394.54078.5913.90113.98535h3.6062c.35986-.394.53979-.59131.8999-.98535v-.9878c.72144-.78906,1.082-1.18359,1.80371-1.9729h2.70606c.71875.78931,1.07812,1.18384,1.79687,1.9729v.9878c.36206.394.54321.5913.90527.98535H85.462V45.76713h-.90235c-.72265-.78906-1.084-1.18359-1.80664-1.9729v-1.9729h2.709c.72045.78906,1.08056,1.18384,1.801,1.9729v2.9607h.90234c.3606-.395.54078-.59253.90137-.9878h.90113v.9878c.72094.78906,1.08154,1.18383,1.80224,1.9729h4.50733v1.97192c-.72095.78857-1.09522,1.18262-1.80176,1.97119H90.871c-.73755-.78857-1.08276-1.18262-1.8042-1.97119H87.26306c0,.78857-.012,1.18262.00025,1.97119h-.90088c-.36524-.394-.54053-.59106-.90039-.98511H81.8573c-.3606-.39453-.54077-.59179-.90112-.98608V48.72783H76.44641c-.36011.39575-.54.5935-.8999.9895H71.03918c-.36157.39282-.54223.58935-.9038.98242,0,.78857.00048,1.18262,0,1.97119-.36036.395-.54053.59277-.90015.98779h-.905c-1.07861,1.18409-1.6167,1.77637-2.69019,2.9607.00318.7893.00513,1.18384.00977,1.97314h.89673c.002.39527.00293.59253.00537.98755-.3562.39478-.53418.592-.88965.98682.01074,1.57763.01733,2.36645.03076,3.94409,1.80786,1.9729,2.70948,2.95923,4.50733,4.93213h4.478c.35645-.39331.53492-.59009.89161-.9834h2.69091c.36084.39331.541.59009.90162.9834h1.79687c.001,1.97534.00146,2.96289.00195,4.93823.71656.78833,1.075,1.18262,1.79248,1.97119v.98486c.72144.78931,1.07788,1.18409,1.77588,1.97315.00122.39526.002.59253.00366.98779C83.84,81.08744,83.476,81.482,82.75281,82.271c-.00049.78833-.00049,1.18213-.00074,1.97046.36231.39575.5459.5935.90455.989v3.9458c.71533.79053,1.06469,1.18555,1.74926,1.97559v3.946h4.8418c1.22266-1.57837,1.81226-2.36743,2.96777-3.946V89.17631c.28858-.394.43189-.59106.71729-.98511h.71167V86.21708c1.13159-1.57837,1.68506-2.36743,2.78638-3.946,0-1.97339.00048-2.96.12182-4.9336-.259-.39379-.38867-.59082-.64917-.98486.05322-.78857.08447-1.18286.15381-1.97119a88.96948,88.96948,0,0,1,7.27539-7.89624c.0791-.395.11865-.59253.197-.98755H99.67151c-1.34326-1.97241-2.07227-2.95849-3.6543-4.93066.08374-1.18555.12061-1.77832.17481-2.96387-.335-.39331-.50464-.59009-.84839-.98364.02417-.78907.03247-1.18384.0393-1.9729h1.78882c.70484.78906,1.04907,1.18383,1.71656,1.9729-.04151.7893-.06763,1.18384-.12745,1.97314.63721.7898.9458,1.18457,1.54151,1.97437-.08765.79-.1355,1.18506-.23535,1.97534.28564.39307.42627.5896.70214.98266h2.48511c1.99219-1.97314,3.03784-2.95947,5.094-4.93237.06152-.39575.09057-.59375.145-.9895h-.87989c-.60083-.78857-.91308-1.18262-1.56176-1.97119h-1.77955c-.65625-.78931-.99609-1.18408-1.69751-1.97315.01709-.78906.011-1.18359.011-1.9729h1.80249c0,.39405.0022.59107-.00024.98511.71655.79028,1.06347,1.1853,1.73266,1.97559h3.57886c.32983.394.4917.59131.80884.98535h5.38428c.62426.78857.92334,1.18262,1.50122,1.97119-.28418,1.57959-.47315,2.36914-.887,3.94849.50464.7893.74878,1.18383,1.23023,1.97338-.11646.39429-.17578.59156-.2959.98609.20508.34448.30688.51684.51025.86133-.02588.22729-.03906.34106-.06567.56836-.0686.21777-.10327.3269-.17236.54443h.10815c-.06055.509-.09131.76343-.15259,1.27222.97925-.80274,1.49585-1.20435,2.51538-2.00757-.189-.2981-.28418-.44727-.47607-.74536.23437-.74463.3501-1.117.57153-1.86158,1.85181-1.48046,2.74732-2.22045,4.44727-3.70043.10278-.46143.15063-.69214.239-1.15357.5398,0,.80908,0,1.346-.00024h1.43872c.92139,1.26831,1.34888,1.90234,2.1477,3.17041-.14477.53027-.22094.79565-.37866,1.32592.37085-.30981.55518-.46508.92237-.7749.20117.32886.30029.49317.49389.82178-.27417,1.2771-.43286,1.91553-.76391,3.19263-.20484.59131-.30957.88672-.52051,1.47827.36426.70727.53979,1.06079.87964,1.76831-.16992.45654-.25489.68457-.42407,1.14136.29052.61425.43188.92163.707,1.53588.24878-.65991.375-.98974.62768-1.64965.29175-.762.43872-1.14283.72876-1.90454-.39746-.84156-.605-1.26221-1.04077-2.10376.27124-.76392.40454-1.146.65942-1.90992.20655-.61816.30689-.92773.49805-1.54589.71021,1.22534,1.03735,1.83789,1.64722,3.063.59814-.00024.89648-.00024,1.49243-.00048.36206-.29175.54321-.4375.90478-.72925.22754-.6084.33814-.9126.55079-1.52075-.69629-1.3252-1.07471-1.988-1.91065-3.31348.95679-.82764,1.42774-1.24121,2.3457-2.06885.96094,0,1.44092,0,2.40088-.00024,1.73389-1.55127,2.56885-2.32691,4.11377-3.87867a17.34148,17.34148,0,0,0,.08252-1.78222c-.93261-1.02051-1.39844-1.53076-2.33105-2.55127.40063-.43872.60107-.658,1.00171-1.09644H141.109c-.553-.60522-.82959-.908-1.38233-1.51318.718-.78613,1.07715-1.1792,1.79541-1.96533.40992.44873.61475.67309,1.02491,1.12182h1.36767l1.16065,1.27051V49.3184c.36206.396.543.59424.905.99048h1.58935V48.76664c-.72656-.79516-1.08984-1.19287-1.8164-1.98828.52514-.5747.78759-.86206,1.31274-1.43676.72656-.79541,1.08984-1.19312,1.81665-1.98853V40.5933c-.46875-.51318-.70313-.76977-1.17188-1.28271-.67163-.73535-1.00756-1.10278-1.679-1.83789h-3.186V36.29057c.93042-1.01831,1.39551-1.52759,2.32618-2.5459h3.84008V32.896h3.64454v2.78369c1.19213,1.30469,1.78833,1.95728,2.98022,3.26221V36.7686c-.53662-.58789-.80518-.88159-1.34228-1.46924V33.57475h3.97558c-.72778-.79663-1.0918-1.19482-1.81933-1.9917.3518-.38525.52783-.57764.87988-.96313H160.462v-.67359h-4.63648c-.75439-.82568-1.13159-1.23877-1.886-2.06445H145.3634C144.92834,27.4058,144.71106,27.16777,144.276,26.69169Z"/><path class="cls-1" d="M152.93176,45.40556v-.835c-.37036-.40527-.55542-.60791-.92553-1.01318H150.84v1.74414a3.827,3.827,0,0,0,1.28857.814l-.12231,1.20484v1.12426c-.43873.48023-.65821.72046-1.09693,1.20044a6.54273,6.54273,0,0,0-1.18652.15332l-.68408.79785-.49976.85938a11.54579,11.54579,0,0,0,.78931.98462c.20434-.22339.30639-.33521.51049-.5586v-.63012h2.00269c.49829-.54566.74756-.81836,1.24585-1.36377.36743-.40235.55127-.60352.9187-1.00562V47.25029a12.73654,12.73654,0,0,0-1.50586-1.22779S152.93176,45.67314,152.93176,45.40556Z"/><path class="cls-1" d="M131.58411,77.10307c-.40772.00024-.61182.00024-1.02149.00049-.08691.25928-.12964.38891-.21338.64819.10767.25.16114.375.26758.625.95093-.00049,1.42285-.00073,2.36865-.001.1045.2771.1565.41578.25977.69312.39917,0,.59863,0,.999-.00024.11182-.29615.16846-.4441.28418-.74048-.38989.00049-.58447.00049-.97363.00049-.1897-.51612-.28589-.77417-.48169-1.29C132.47742,77.06425,132.1803,77.07719,131.58411,77.10307Z"/><path class="cls-1" d="M142.10413,74.48564c.0957,0,.14355,0,.2395-.00025l-.0896-.29052C142.194,74.31108,142.16418,74.36943,142.10413,74.48564Z"/><path class="cls-1" d="M135.12927,75.59184c.45777-.00024.68628-.00049,1.14551-.00073.27051-.61841.40845-.92749.68628-1.54566.92139-.74023,1.39282-1.1101,2.34863-1.85009-.18384-.532-.27832-.7981-.47363-1.33008.57715-.44825.86792-.67237,1.45264-1.12061-.19214-.51294-.291-.769-.4961-1.282-1.86987,1.44653-2.80029,2.17017-4.592,3.61743-.4939.00049-.74048.00049-1.23486.001-.1189.28833-.178.43261-.2959.72119.17676.4436.26294.66528.43262,1.10889-.27686.6726-.41358,1.00878-.67945,1.68164C134.10559,75.59233,134.44641,75.59233,135.12927,75.59184Z"/><path class="cls-1" d="M61.33923,76.89872h-.887c-.71875-.7893-1.07886-1.18408-1.801-1.97314H54.19373c-.72388-.78931-1.08667-1.18384-1.81373-1.9729-.00585-.39526-.00878-.59277-.01489-.988-.72925-.78857-1.09472-1.18286-1.8269-1.97143h-1.792c-.73365-.78955-1.10108-1.18433-1.83716-1.97412H42.40344c-.36816-.39527-.55224-.59278-.92065-.9878-.00733-.394-.011-.59106-.01856-.98486H38.74915c-.355.3938-.53223.59082-.88721.98486H33.33435c-.01758-1.18237-.02661-1.77343-.0437-2.95532-.36865-.39624-.553-.59448-.92139-.99048h-.90478c-.01-.78857-.01514-1.18286-.02417-1.97143-.36621-.39576-.54908-.59351-.9148-.98926h-.90625c-.71338.79077-1.07031,1.18628-1.78442,1.977h-1.8125c-.7312-.79077-1.09595-1.18628-1.82446-1.977.71777-.78833,1.07617-1.18237,1.7937-1.97046-.00513-.78906-.00733-1.18359-.01075-1.9729.71924-.79028,1.07886-1.1853,1.79908-1.97534H34.0885c.00342.79.00562,1.18506.01148,1.97534.36254.39429.54394.59131.90722.98559h.906c-.01123-1.18457-.01563-1.77685-.02075-2.96093,1.435-1.57837,2.15844-2.36743,3.60034-3.9458v-.98658c1.082-1.18359,1.6228-1.77563,2.70483-2.95922h1.80225v-.98633c1.44189-1.5791,2.16284-2.36841,3.60473-3.94727h3.602v.98657c.36207.39429.54322.5918.90528.98609H54.8114v-.98609c-.721-.79028-1.08154-1.18554-1.80225-1.97583V39.408c.36207-.395.543-.59277.905-.988v-.9851c-.36206-.395-.543-.59253-.905-.98755V34.47123H51.20666c-.35986.39649-.53979.59449-.8999.99073h-.8999V33.48637H45.80237v3.94849H43.99988L42.19763,39.408h-.8999V37.43486H38.59l-.90088-.98755V34.47123c.72143-.78857,1.082-1.18286,1.80371-1.97119h5.40967v-.98486c.35986-.396.53979-.59375.8999-.9895H46.702c.36108-.39331.5415-.59009.90258-.9834h3.602v.9834c-.35986.39575-.53979.5935-.8999.9895V32.5h1.80518c.35888-.394.53808-.59106.89721-.98486h2.70728v-.9895c-.7207-.78833-1.0813-1.18286-1.80225-1.97144h-.905c-.72094-.78857-1.08154-1.18286-1.80249-1.97143H46.702l-.89966.98755v1.97192H43.99988v-.988c.36108-.39355.54175-.59033.90259-.98388v-.98755H42.19763v2.95947c-.35986.39331-.53979.59009-.8999.9834H37.68909v-.9834H39.4928v-.988c-.36109-.39355-.54175-.59033-.90283-.98388H36.78772V25.59477H32.28186v.988c.36157.395.54248.59253.90381.98755v2.95532h-.90381c-.721-.78833-1.0813-1.18286-1.80225-1.97144H25.97229l-.90381.988H20.568l-.90259-.988h-5.407c-.72094.78858-1.08154,1.18311-1.80249,1.97144H10.651c-.36035.39575-.54053.5935-.90112.9895V32.5H7.04358l-.90088.98633v.98486c.36035.39649.54053.59449.90088.99073H10.651c.3606-.39624.54077-.59424.90112-.99073h3.60743c.72094.79053,1.08129,1.18555,1.80249,1.97608V38.42c.35937.39527.53906.593.89843.988v2.95947c-.72.78955-1.07983,1.18433-1.7998,1.97413v.98657c-.72095.78979-1.0813,1.18457-1.80225,1.97412v2.958c.36035.39624.54053.59448.90113.991,0,1.97193-.00245,2.95826-.00074,4.93018.72168.78931,1.083,1.18384,1.80664,1.9729.35913-.395.53858-.59229.89771-.98731-.36084-.39428-.54077-.5913-.90112-.98559-.00147-1.18482-.00171-1.7771-.00074-2.96192H17.86c-.00048.78907-.00048,1.1836.00025,1.97291,1.08447,1.18457,1.62768,1.77709,2.717,2.96191.00146.39307.00244.5896.00391.98242-.35987.39526-.54.59277-.90015.988.00171.39575.00269.5935.00464.98926.72583.78857,1.08935,1.18286,1.81787,1.97143h.90771c.3628.396.54444.59424.90772.99048h3.63086c.0039.39282.0061.58936.01025.98242h2.71558c.73584.78906,1.10449,1.1836,1.84228,1.9729l.01343.9878c.36865.394.553.59082.92188.98486h2.72021c.0188,1.18432.02783,1.77637.04492,2.96069-.71338.7898-1.071,1.18482-1.78759,1.97437.01855,1.57885.02685,2.36841.03833,3.94726.73291.79029,1.09912,1.18555,1.82934,1.97559.00171.39307.00244.58935.00342.98242.73218.791,1.09692,1.18652,1.83838,1.97754.00586.39258.00976.58911.01855.98193.7461.78858,1.12207,1.18262,1.87891,1.97144h1.81592c.13574,3.55273.272,5.3291.52734,8.88183.396.39429.594.59107.99.98511.0874,1.18433.13159,1.77661.21631,2.9607.78979.7893,1.18408,1.18383,1.967,1.9729.10816,1.57959.15845,2.36938.23755,3.94873.38452.39355.57568.59008.95581.9834.052,1.18554.07251,1.77832.09644,2.96362.74194.7893,1.105,1.18408,1.82128,1.97339h2.6587c-.00708-1.97461-.03687-2.96216-.12207-4.937h-.88135c-.37036-.39332-.55689-.58985-.93189-.9834-.01977-.39453-.03027-.5918-.05224-.98633.33374-.39478.49951-.592.83008-.98682-.04712-.79-.07276-1.1853-.12574-1.97558.65528-.78907.98072-1.1836,1.63037-1.9729h1.75318c.97241-1.18409,1.45654-1.77637,2.43066-2.9607-.12549-1.97339-.19018-2.96-.30029-4.93359.32934-.394.49463-.59107.82568-.98511h1.76563c.6665-.78906,1.00219-1.18359,1.67871-1.9729-.08765-2.3667-.12085-3.55-.13379-5.91675,1.06079-1.18457,1.59717-1.77685,2.65918-2.96118C61.3468,78.08305,61.3446,77.68827,61.33923,76.89872Z"/><path class="cls-1" d="M143.09534,81.76762c-.47242.33814-.708.50806-1.17676.84888-.61524,1.07177-.9375,1.61352-1.60791,2.7041-.48779.00073-.72608.00122-1.19312.002-.11767-.88574-.1875-1.32593-.36645-2.20117.20825-.39282.31055-.58813.512-.97827.25073-.00025.37695-.00025.6311-.00049.22217-.41968.32666-.62891.53-1.05835-.3435.00025-.51367.00025-.8518.00025-.12793-.43726-.1919-.656-.3208-1.09278-1.61768,1.32764-2.36621,1.97656-3.84009,3.28906-.533.00074-.79639.001-1.31958.00171-.804.75391-1.19312,1.13306-1.94141,1.89356-.10791.2876-.1626.43188-.273.72046-.42163.43359-.62793.65088-1.03027,1.08593l-2.13965.00367c-.41382.46362-.61474.69555-1.00732,1.15991-.53418,2.15576-.82471,3.24072-1.437,5.40723-.30372.44287-.45069.66406-.73682,1.10571-.17334.66846-.26172,1.00268-.44068,1.67065.15113.002.22486.00293.37012.00464.32349-.51514.4917-.77319.84253-1.28955.38257.00366.56714.00562.93994.00928.28223-.37891.42774-.56861.72779-.948.406.00317.60937.00464,1.03344.00781.25489-.28979.38526-.43457.65161-.72461.24219.00147.36548.002.61817.00342-.08838.77417-.15039,1.16187-.29907,1.9375.20263.00171.30688.00244.5227.00415-.571.90015-.86157,1.34985-1.45,2.24732-.11816.44775-.18115.67187-.312,1.11914.41455.00586.64087.00879,1.1499.0144.59277-.479.89917-.71875,1.53027-1.19971.28028.00244.42652.00367.7334.00611,2.74243-1.98194,4.29248-2.98389,7.53125-4.98487.88037-1.17431,1.30884-1.76123,2.13648-2.92871-.09033-.53979-.13135-.80908-.21167-1.3457.488-.71069.7268-1.06494,1.19287-1.77-.56641.00049-.84107.001-1.37549.00171.85693-1.31323,1.26685-1.96509,2.04248-3.2522C143.32068,82.64921,143.2489,82.35429,143.09534,81.76762Z"/><path class="cls-1" d="M130.191,72.69169c-.2085-.46142-.31445-.69214-.531-1.15332-.34936-.74389-.52905-1.11572-.90039-1.85913-.30493-.61011-.46118-.915-.78222-1.5249-.19239.6687-.28955,1.00293-.48243,1.67187.34986.67749.52,1.01612.85206,1.69385-.11915.33692-.178.50537-.29493.84229.24732.50537.3689.75781.60791,1.26318.59839,1.26416.88355,1.89624,1.43628,3.16138.17017-.00025.25513-.00025.42481-.00025.17138-.50561.26-.75854.4414-1.26416.29175-.25561.439-.38354.73584-.63916-.08789-.21338-.13232-.31982-.22192-.533-.2002.17115-.29956.2566-.49731.428-.18165-.426-.27369-.63891-.46094-1.06494.1499-.40893.22583-.61328.37939-1.022C130.6156,72.69145,130.47424,72.69169,130.191,72.69169Z"/><path class="cls-2" d="M121.23523.01957A49.63293,49.63293,0,0,0,83.6178,17.56547,49.63213,49.63213,0,0,0,46.00061.01957C20.14661.01957.06677,20.0977.06677,45.94438c0,21.68457,13.24707,40.65625,35.46314,62.7395L83.6178,156.76445l48.08813-48.08057C153.922,86.60063,167.16907,67.629,167.16907,45.94438,167.16907,20.0977,147.08923.01957,121.23523.01957Zm-62.4104,87.731c-.67652.78931-1.01221,1.18384-1.67871,1.9729H55.38049c-.33105.394-.49634.59107-.82568.98511.11011,1.97363.1748,2.9602.30029,4.93359-.97412,1.18433-1.45825,1.77661-2.43066,2.9607H50.67126c-.64965.7893-.97509,1.18383-1.63037,1.9729.053.79028.07862,1.18554.12574,1.97558-.33057.39478-.49634.592-.83008.98682.022.39453.03247.5918.05224.98633.375.39355.56153.59008.93189.9834H50.202c.0852,1.97485.115,2.9624.12207,4.937H47.6654c-.7163-.78931-1.07934-1.18409-1.82128-1.97339-.02393-1.1853-.04444-1.77808-.09644-2.96362-.38013-.39332-.57129-.58985-.95581-.9834-.0791-1.57935-.12939-2.36914-.23755-3.94873-.783-.78907-1.17725-1.1836-1.967-1.9729-.08472-1.18409-.12891-1.77637-.21631-2.9607-.396-.394-.594-.59082-.99-.98511-.25537-3.55273-.3916-5.3291-.52734-8.88183H39.03772c-.75684-.78882-1.13281-1.18286-1.87891-1.97144-.00879-.39282-.01269-.58935-.01855-.98193-.74146-.791-1.1062-1.18652-1.83838-1.97754-.001-.39307-.00171-.58935-.00342-.98242-.73022-.79-1.09643-1.1853-1.82934-1.97559-.01148-1.57885-.01978-2.36841-.03833-3.94726.71655-.78955,1.07421-1.18457,1.78759-1.97437-.01709-1.18432-.02612-1.77637-.04492-2.96069H32.45325c-.3689-.394-.55323-.59082-.92188-.98486l-.01343-.9878c-.73779-.7893-1.10644-1.18384-1.84228-1.9729H26.96008c-.00415-.39306-.00635-.5896-.01025-.98242H23.319c-.36328-.39624-.54492-.59448-.90772-.99048h-.90771c-.72852-.78857-1.092-1.18286-1.81787-1.97143-.00195-.39576-.00293-.59351-.00464-.98926.36011-.39527.54028-.59278.90015-.988-.00147-.39282-.00245-.58935-.00391-.98242-1.08936-1.18482-1.63257-1.77734-2.717-2.96191-.00073-.78931-.00073-1.18384-.00025-1.97291H16.9613c-.001,1.18482-.00073,1.7771.00074,2.96192.36035.39429.54028.59131.90112.98559-.35913.395-.53858.59229-.89771.98731-.72363-.78906-1.085-1.18359-1.80664-1.9729-.00171-1.97192.00074-2.95825.00074-4.93018-.3606-.39648-.54078-.59472-.90113-.991v-2.958c.721-.78955,1.0813-1.18433,1.80225-1.97412V44.3416c.72-.7898,1.07983-1.18458,1.7998-1.97413V39.408c-.35937-.395-.53906-.59277-.89843-.988V36.44731c-.7212-.79053-1.08155-1.18555-1.80249-1.97608H11.55212c-.36035.39649-.54052.59449-.90112.99073H7.04358c-.36035-.39624-.54053-.59424-.90088-.99073v-.98486L7.04358,32.5h2.7063v-.98486c.36059-.396.54077-.59375.90112-.9895h1.80493c.721-.78833,1.08155-1.18286,1.80249-1.97144h5.407l.90259.988h4.50049l.90381-.988h4.50732c.72095.78858,1.0813,1.18311,1.80225,1.97144h.90381V27.57036c-.36133-.395-.54224-.59253-.90381-.98755v-.988h4.50586v1.97559H38.59c.36108.39355.54174.59033.90283.98388v.988H37.68909v.9834h3.60864c.36011-.39331.54-.59009.8999-.9834V26.58281h2.70484v.98755c-.36084.39355-.54151.59033-.90259.98388v.988h1.80249V27.57036l.89966-.98755h4.50463c.721.78857,1.08155,1.18286,1.80249,1.97143h.905c.72095.78858,1.08155,1.18311,1.80225,1.97144v.9895H53.00915c-.35913.3938-.53833.59082-.89721.98486H50.30676v-.98486c.36011-.396.54-.59375.8999-.9895v-.9834h-3.602c-.36108.39331-.5415.59009-.90258.9834h-.89966c-.36011.39575-.54.5935-.8999.9895V32.5H39.4928c-.72168.78833-1.08228,1.18262-1.80371,1.97119v1.97608l.90088.98755h2.70776V39.408h.8999l1.80225-1.97314h1.80249V33.48637h3.60449V35.462h.8999c.36011-.39624.54-.59424.8999-.99073h1.80249v1.97608c.36207.395.543.59253.905.98755V38.42c-.36206.39527-.543.593-.905.988v.98364c.72071.79029,1.0813,1.18555,1.80225,1.97583v.98609H52.11194c-.36206-.39429-.54321-.5918-.90528-.98609V41.3809h-3.602c-1.44189,1.57886-2.16284,2.36817-3.60473,3.94727v.98633H42.19763c-1.082,1.18359-1.6228,1.77563-2.70483,2.95922v.98658c-1.4419,1.57837-2.16529,2.36743-3.60034,3.9458.00512,1.18408.00952,1.77636.02075,2.96093h-.906c-.36328-.39428-.54468-.5913-.90722-.98559-.00586-.79028-.00806-1.1853-.01148-1.97534H27.77991c-.72022.79-1.07984,1.18506-1.79908,1.97534.00342.78931.00562,1.18384.01075,1.9729-.71753.78809-1.07593,1.18213-1.7937,1.97046.72851.79077,1.09326,1.18628,1.82446,1.977h1.8125c.71411-.79077,1.071-1.18628,1.78442-1.977h.90625c.36572.39575.54859.5935.9148.98926.009.78857.01416,1.18286.02417,1.97143h.90478c.36841.396.55274.59424.92139.99048.01709,1.18189.02612,1.773.0437,2.95532h4.52759c.355-.394.53222-.59106.88721-.98486h2.71508c.00757.3938.01123.59082.01856.98486.36841.395.55249.59253.92065.9878h4.50562c.73608.78979,1.10351,1.18457,1.83716,1.97412h1.792c.73218.78857,1.09765,1.18286,1.8269,1.97143.00611.39527.009.59278.01489.988.72706.78906,1.08985,1.18359,1.81373,1.9729h4.45751c.72217.78906,1.08228,1.18384,1.801,1.97314h.887c.00537.78955.00757,1.18433.011,1.97388-1.062,1.18433-1.59839,1.77661-2.65918,2.96118C58.704,84.20048,58.73718,85.38383,58.82483,87.75053Zm83.96875-1.2583c-.46607.70508-.70484,1.05933-1.19287,1.77.08032.53662.12134.80591.21167,1.3457-.82764,1.16748-1.25611,1.7544-2.13648,2.92871-3.23877,2.001-4.78882,3.00293-7.53125,4.98487-.30688-.00244-.45312-.00367-.7334-.00611-.6311.481-.9375.72071-1.53027,1.19971-.509-.00561-.73535-.00854-1.1499-.0144.13086-.44727.19385-.67139.312-1.11914.58838-.89747.87891-1.34717,1.45-2.24732-.21582-.00171-.32007-.00244-.5227-.00415.14868-.77563.21069-1.16333.29907-1.9375-.25269-.00146-.376-.00195-.61817-.00342-.26635.29-.39672.43482-.65161.72461-.42407-.00317-.62744-.00464-1.03344-.00781-.3.37939-.44556.56909-.72779.948-.3728-.00366-.55737-.00562-.93994-.00928-.35083.51636-.519.77441-.84253,1.28955-.14526-.00171-.219-.00268-.37012-.00464.179-.668.26734-1.00219.44068-1.67065.28613-.44165.4331-.66284.73682-1.10571.6123-2.16651.90283-3.25147,1.437-5.40723.39258-.46436.5935-.69629,1.00732-1.15991l2.13965-.00367c.40234-.43505.60864-.65234,1.03027-1.08593.11035-.28858.165-.43286.273-.72046.74829-.7605,1.13745-1.13965,1.94141-1.89356.52319-.00073.78662-.001,1.31958-.00171,1.47388-1.3125,2.22241-1.96142,3.84009-3.28906.1289.43677.19287.65552.3208,1.09278.33813,0,.5083,0,.8518-.00025-.20337.42944-.30786.63867-.53,1.05835-.25415.00024-.38037.00024-.6311.00049-.20141.39014-.30371.58545-.512.97827.17895.87524.24878,1.31543.36645,2.20117.467-.00073.70533-.00122,1.19312-.002.67041-1.09058.99267-1.63233,1.60791-2.7041.46875-.34082.70434-.51074,1.17676-.84888.15356.58667.22534.88159.36523,1.47412-.77563,1.28711-1.18555,1.939-2.04248,3.2522C141.95251,86.49321,142.22717,86.49272,142.79358,86.49223ZM130.97913,74.77836c.19775-.17138.29711-.25683.49731-.428.0896.21314.134.31958.22192.533-.29687.25562-.44409.38355-.73584.63916-.18139.50562-.27.75855-.4414,1.26416-.16968,0-.25464,0-.42481.00025-.55273-1.26514-.83789-1.89722-1.43628-3.16138-.239-.50537-.36059-.75781-.60791-1.26318.117-.33692.17578-.50537.29493-.84229-.332-.67773-.5022-1.01636-.85206-1.69385.19288-.66894.29-1.00317.48243-1.67187.321.60986.47729.91479.78222,1.5249.37134.74341.551,1.11524.90039,1.85913.21656.46118.32251.6919.531,1.15332.2832,0,.42456-.00024.70654-.00024-.15356.40869-.22949.613-.37939,1.022C130.70544,74.13945,130.79748,74.35234,130.97913,74.77836Zm2.69067-1.97607c.11792-.28858.177-.43286.2959-.72119.49438-.00049.741-.00049,1.23486-.001,1.79175-1.44726,2.72217-2.1709,4.592-3.61743.20508.51294.304.769.4961,1.282-.58472.44824-.87549.67236-1.45264,1.12061.19531.532.28979.79809.47363,1.33008-.95581.74-1.42724,1.10986-2.34863,1.85009-.27783.61817-.41577.92725-.68628,1.54566-.45923.00024-.68774.00049-1.14551.00073-.68286.00049-1.02368.00049-1.7063.001.26587-.67286.40259-1.009.67945-1.68164C133.93274,73.46757,133.84656,73.24589,133.6698,72.80229Zm-.115,5.52637c.38916,0,.58374,0,.97363-.00049-.11572.29638-.17236.44433-.28418.74048-.40039.00024-.59985.00024-.999.00024-.10327-.27734-.15527-.416-.25977-.69312-.9458.00025-1.41772.00049-2.36865.001-.10644-.25-.15991-.375-.26758-.625.08374-.25928.12647-.38891.21338-.64819.40967-.00025.61377-.00025,1.02149-.00049.59619-.02588.89331-.03882,1.489-.06445C133.26892,77.55449,133.36511,77.81254,133.55481,78.32866Zm14.36328,1.42675c-.09692-.30175-.145-.45263-.24023-.75415-.16651-.52807-.24854-.79174-.41163-1.31933-.23168,0-.34692,0-.57617.00024-.50341.34937-.75268.52417-1.24463.874-.146.26246-.21875.3938-.36328.65625-.3872.00025-.57885.00049-.95874.00049.11792-.21924.17749-.32861.29639-.54785-.72876.00049-1.08643.00049-1.79175.001.35889-.27027.54028-.40528.9065-.675.14917-.2793.22436-.419.37475-.69824-.209-.71656-.31348-1.075-.52759-1.79077-.29345,0-.43945.00024-.73022.00024-.12158-.40674-.18311-.61011-.30786-1.01685-.09595.00025-.1438.00025-.2395.00025.06-.11621.08984-.17456.1499-.29077l.0896.29052c.94555-.00048,1.42407-.00073,2.39746-.00146.2185-.40283.32788-.60425.54614-1.00732l2.26074-.00123c.39087,1.20923.57935,1.81421.96656,3.02564-.25586.43994-.38379.66016-.63843,1.10034.27051.86108.407,1.29175.69092,2.154ZM154.006,48.88212c-.36743.4021-.55127.60327-.9187,1.00562-.49829.54541-.74756.81811-1.24585,1.36377h-2.00269v.63012c-.2041.22339-.30615.33521-.51049.5586a11.54579,11.54579,0,0,1-.78931-.98462l.49976-.85938.68408-.79785a6.54273,6.54273,0,0,1,1.18652-.15332c.43872-.48.6582-.72021,1.09693-1.20044V47.32036l.12231-1.20484a3.827,3.827,0,0,1-1.28857-.814V43.55742h1.16626c.37011.40527.55517.60791.92553,1.01318v.835c0,.26758-.43164.61694-.43164.61694a12.73654,12.73654,0,0,1,1.50586,1.22779Zm1.81958-18.93579H160.462v.67359h-3.13135c-.352.38549-.52808.57788-.87988.96313.72753.79688,1.09155,1.19507,1.81933,1.9917h-3.97558v1.72461c.5371.58765.80566.88135,1.34228,1.46924v2.17334c-1.19189-1.30493-1.78809-1.95752-2.98022-3.26221V32.896h-3.64454v.84863H145.172c-.93067,1.01831-1.39576,1.52759-2.32618,2.5459V37.4727h3.186c.67139.73511,1.00732,1.10254,1.679,1.83789.46875.51294.70313.76953,1.17188,1.28271v2.75977c-.72681.79541-1.09009,1.19312-1.81665,1.98853-.52515.5747-.7876.86206-1.31274,1.43676.72656.79541,1.08984,1.19312,1.8164,1.98828v1.54224h-1.58935c-.36206-.39624-.543-.59448-.905-.99048V47.86967l-1.16065-1.27051H142.547c-.41016-.44873-.615-.67309-1.02491-1.12182-.71826.78613-1.07739,1.1792-1.79541,1.96533.55274.60522.82935.908,1.38233,1.51318h1.47632c-.40064.43848-.60108.65772-1.00171,1.09644.93261,1.02051,1.39844,1.53076,2.33105,2.55127a17.34148,17.34148,0,0,1-.08252,1.78222c-1.54492,1.55176-2.37988,2.3274-4.11377,3.87867-.96.00024-1.43994.00024-2.40088.00024-.918.82764-1.38891,1.24121-2.3457,2.06885.83594,1.32544,1.21436,1.98828,1.91065,3.31348-.21265.60815-.32325.91235-.55079,1.52075-.36157.29175-.54272.4375-.90478.72925-.596.00024-.89429.00024-1.49243.00048-.60987-1.22509-.937-1.83764-1.64722-3.063-.19116.61816-.2915.92773-.49805,1.54589-.25488.76392-.38818,1.146-.65942,1.90992.43579.84155.64331,1.2622,1.04077,2.10376-.29.76171-.437,1.14257-.72876,1.90454-.25268.65991-.3789.98974-.62768,1.64965-.27515-.61425-.41651-.92163-.707-1.53588.16918-.45679.25415-.68482.42407-1.14136-.33985-.70752-.51538-1.061-.87964-1.76831.21094-.59155.31567-.887.52051-1.47827.33105-1.2771.48974-1.91553.76391-3.19263-.1936-.32861-.29272-.49292-.49389-.82178-.36719.30982-.55152.46509-.92237.7749.15772-.53027.23389-.79565.37866-1.32592-.79882-1.26807-1.22631-1.9021-2.1477-3.17041h-1.43872c-.53687.00024-.80615.00024-1.346.00024-.08838.46143-.13623.69214-.239,1.15357-1.7,1.48-2.59546,2.22-4.44727,3.70043-.22143.74463-.33716,1.117-.57153,1.86158.19189.29809.28711.44726.47607.74536-1.01953.80322-1.53613,1.20483-2.51538,2.00757.06128-.50879.092-.76319.15259-1.27222h-.10815c.06909-.21753.10376-.32666.17236-.54443.02661-.2273.03979-.34107.06567-.56836-.20337-.34449-.30517-.51685-.51025-.86133.12012-.39453.17944-.5918.2959-.98609-.48145-.78955-.72559-1.18408-1.23023-1.97338.41382-1.57935.60279-2.3689.887-3.94849-.57788-.78857-.877-1.18262-1.50122-1.97119h-5.38428c-.31714-.394-.479-.59131-.80884-.98535h-3.57886c-.66919-.79029-1.01611-1.18531-1.73266-1.97559.00244-.394.00024-.59106.00024-.98511h-1.80249c0,.78931.0061,1.18384-.011,1.9729.70142.78907,1.04126,1.18384,1.69751,1.97315h1.77955c.64868.78857.96093,1.18262,1.56176,1.97119h.87989c-.05445.39575-.0835.59375-.145.9895-2.05616,1.9729-3.10181,2.95923-5.094,4.93237h-2.48511c-.27587-.39306-.4165-.58959-.70214-.98266.09985-.79028.1477-1.1853.23535-1.97534-.59571-.7898-.9043-1.18457-1.54151-1.97437.05982-.7893.08594-1.18384.12745-1.97314-.66749-.78907-1.01172-1.18384-1.71656-1.9729H95.38293c-.00683.78906-.01513,1.18383-.0393,1.9729.34375.39355.51343.59033.84839.98364-.0542,1.18555-.09107,1.77832-.17481,2.96387,1.582,1.97217,2.311,2.95825,3.6543,4.93066h4.85815c-.07837.395-.11792.59253-.197.98755a88.96948,88.96948,0,0,0-7.27539,7.89624c-.06934.78833-.10059,1.18262-.15381,1.97119.2605.394.39014.59107.64917.98486-.12134,1.97364-.12182,2.96021-.12182,4.9336-1.10132,1.57861-1.65479,2.36767-2.78638,3.946V88.1912h-.71167c-.2854.39405-.42871.59107-.71729.98511V91.1519c-1.15551,1.57861-1.74511,2.36767-2.96777,3.946h-4.8418v-3.946c-.68457-.79-1.03393-1.18506-1.74926-1.97559v-3.9458c-.35865-.39551-.54224-.59326-.90455-.989.00025-.78833.00025-1.18213.00074-1.97046.72314-.78906,1.08716-1.1836,1.78051-1.97266-.0017-.39526-.00244-.59253-.00366-.98779-.698-.78906-1.05444-1.18384-1.77588-1.97315v-.98486c-.71753-.78857-1.07592-1.18286-1.79248-1.97119-.00049-1.97534-.001-2.96289-.00195-4.93823H79.16248c-.3606-.39331-.54078-.59009-.90162-.9834H75.57c-.35669.39331-.53516.59009-.89161.9834h-4.478c-1.79785-1.9729-2.69947-2.95923-4.50733-4.93213-.01343-1.57764-.02-2.36646-.03076-3.94409.35547-.39478.53345-.592.88965-.98682-.00244-.395-.00342-.59228-.00537-.98755h-.89673c-.00464-.7893-.00659-1.18384-.00977-1.97314,1.07349-1.18433,1.61158-1.77661,2.69019-2.9607h.905c.35962-.395.53979-.59277.90015-.98779.00048-.78857,0-1.18262,0-1.97119.36157-.39307.54223-.5896.9038-.98242h4.50733c.35986-.396.53979-.59375.8999-.9895h4.50977v1.97192c.36035.39429.54052.59155.90112.98608H85.462c.35986.39405.53515.59107.90039.98511h.90088c-.01221-.78857-.00025-1.18262-.00025-1.97119h1.80371c.72144.78857,1.06665,1.18262,1.8042,1.97119h3.60474c.70654-.78857,1.08081-1.18262,1.80176-1.97119V48.72783H91.77014c-.7207-.78907-1.0813-1.18384-1.80224-1.9729v-.9878h-.90113c-.36059.39527-.54077.59278-.90137.9878h-.90234v-2.9607c-.72046-.78906-1.08057-1.18384-1.801-1.9729h-2.709v1.9729c.72266.78931,1.084,1.18384,1.80664,1.9729H85.462v1.97315H83.65832c-.36206-.394-.54321-.59131-.90527-.98535v-.9878c-.71875-.78906-1.07812-1.18359-1.79687-1.9729H78.25012c-.72168.78931-1.08227,1.18384-1.80371,1.9729v.9878c-.36011.394-.54.5913-.8999.98535h-3.6062c-.36035-.394-.54053-.59131-.90113-.98535v-2.9607c.3606-.3938.54078-.59106.90113-.98486h.90259c.36035.3938.54077.59106.90112.98486h1.80249v-1.9729h-.8999v-.98486c.35986-.395.53979-.59278.8999-.98779h1.80078L79.15393,37.876h.89966l.90259-.988h.90112V34.91655H79.15393V32.94218c.35986-.39453.5398-.5918.89966-.98657h.90259c.36035-.39575.54052-.59351.90112-.98926v-.98389c.35815-.3955.53735-.59326.89575-.989h.90527c.72168-.78931,1.08228-1.18384,1.80372-1.97314h8.11181c.3606.39575.54077.59375.90137.9895v1.97265h.8999c.71973-.78906,1.07959-1.18359,1.79956-1.97265H98.08v1.97265h.89965c.72046-.78906,1.08057-1.18359,1.80127-1.97265h5.40943v-1.9729h1.80249c.35986.39331.54.59009.8999.9834v1.97314H110.695V27.02031c.72216-.78785,1.083-1.18189,1.80517-1.96949h.90235c.3601-.397.54-.59546.8999-.99218h4.50976c.11621-.12622.17432-.18946.29077-.31543a4.81831,4.81831,0,0,1,.31641.9917h1.88379l1.78223,1.95068h6.70141c.30591.335.45874.5022.76465.83691h3.22388c.62622-.6853.939-1.02783,1.56494-1.71313h3.16406c.32227.353.48364.5293.80591.88232H144.276c.43506.47608.65234.71411,1.0874,1.19019h8.57617C154.694,28.70756,155.07117,29.12065,155.82556,29.94633Z"/><path class="cls-2" d="M269.0392,5.074H256.32728a.71033.71033,0,0,0-.8164.7893V44.65143a.76413.76413,0,0,0,.81542.81323H261.587a.76415.76415,0,0,0,.81543-.81323V31.92755h3.4834l3.38378,12.82251a.80436.80436,0,0,0,.86719.7146h5.28028q.94188,0,.71972-.91211l-3.49609-13.2168q3.69286-1.60364,3.69336-6.68261V12.34845a7.34108,7.34108,0,0,0-1.85449-5.4248A7.39111,7.39111,0,0,0,269.0392,5.074Zm.40332,18.17382a1.78865,1.78865,0,0,1-2.02539,2.02149h-5.01465V11.73224h5.01465a1.78882,1.78882,0,0,1,2.02539,2.02173Z"/><path class="cls-2" d="M499.24427,60.72467h-5.26172a.70945.70945,0,0,0-.81542.78906v21.3291h-.2959l-7.68262-21.47778a.88379.88379,0,0,0-.91406-.64038h-5.01367a.70907.70907,0,0,0-.81543.78906v38.78711a.7645.7645,0,0,0,.81543.81348h5.26074a.71989.71989,0,0,0,.81543-.81348V78.89752h.24707L493.34,100.44806a.872.872,0,0,0,.88965.66626h5.01464a.76309.76309,0,0,0,.81446-.81348V61.51373A.70875.70875,0,0,0,499.24427,60.72467Z"/><path class="cls-2" d="M463.97279,61.41486a.79681.79681,0,0,0-.86426-.69019h-7.01562a.79622.79622,0,0,0-.86426.69019L446.83021,100.251a1.16459,1.16459,0,0,0-.0498.32031q0,.54345.71679.543h5.40918a.76531.76531,0,0,0,.79-.71484l1.38379-7.373h8.99121l1.43262,7.373a.76557.76557,0,0,0,.791.71484h5.38477q.71631,0,.71582-.61646a1.25343,1.25343,0,0,0-.02441-.24682ZM456.34,87.18243l3.23632-17.63061,3.23536,17.63061Z"/><path class="cls-2" d="M439.39564,60.72467H434.1349a.70907.70907,0,0,0-.81543.78906v38.78711a.71988.71988,0,0,0,.81543.81348h5.26074a.76451.76451,0,0,0,.81543-.81348V61.51373A.70907.70907,0,0,0,439.39564,60.72467Z"/><path class="cls-2" d="M390.49134,61.41486a.7968.7968,0,0,0-.86425-.69019h-7.01563a.79622.79622,0,0,0-.86426.69019L373.34877,100.251a1.16425,1.16425,0,0,0-.04981.32031q0,.54345.7168.543h5.40918a.76532.76532,0,0,0,.79-.71484l1.38379-7.373H390.59l1.43261,7.373a.76559.76559,0,0,0,.791.71484h5.38477q.7163,0,.71582-.61646a1.25345,1.25345,0,0,0-.02442-.24682Zm-7.63281,25.76757,3.23633-17.63061,3.23535,17.63061Z"/><path class="cls-2" d="M339.90736,101.11432h5.26074a.7645.7645,0,0,0,.81543-.81348V61.51373a.70907.70907,0,0,0-.81543-.78906h-5.26074a.70907.70907,0,0,0-.81543.78906v38.78711A.71988.71988,0,0,0,339.90736,101.11432Z"/><path class="cls-2" d="M358.72767,100.30084a.72119.72119,0,0,0,.81836.81348h5.28027a.71036.71036,0,0,0,.793-.81348V67.38165h5.85743a.71821.71821,0,0,0,.81152-.81323V61.51373a.70843.70843,0,0,0-.81348-.78906H352.8722a.70875.70875,0,0,0-.81445.78906v5.05469a.76253.76253,0,0,0,.8125.81323h5.85742Z"/><path class="cls-2" d="M418.98744,60.72467H406.27552a.70977.70977,0,0,0-.8164.78906v38.78711a.7645.7645,0,0,0,.81543.81348h5.26074a.76451.76451,0,0,0,.81543-.81348V87.577h3.4834l3.38379,12.82251a.80454.80454,0,0,0,.86718.71484h5.28028q.94189,0,.71972-.91235L422.589,86.98517q3.69286-1.60218,3.69336-6.68262V67.99786a6.50428,6.50428,0,0,0-7.29492-7.27319Zm.40332,18.17285a1.78867,1.78867,0,0,1-2.02539,2.02124h-5.01465V67.38165h5.01465a1.78951,1.78951,0,0,1,2.02539,2.02271Z"/><path class="cls-2" d="M284.18763,45.46466H302.2931a.71971.71971,0,0,0,.81543-.81323V39.59576a.70962.70962,0,0,0-.81543-.7893H290.2638V5.86334a.70962.70962,0,0,0-.81542-.7893h-5.26075a.70962.70962,0,0,0-.81543.7893V44.65143A.71971.71971,0,0,0,284.18763,45.46466Z"/><path class="cls-2" d="M295.94252,61.41486a.79682.79682,0,0,0-.86426-.69019h-7.01563a.79621.79621,0,0,0-.86425.69019L278.79994,100.251a1.16425,1.16425,0,0,0-.04981.32031q0,.54345.7168.543h5.40918a.76532.76532,0,0,0,.79-.71484l1.38379-7.373h8.99121l1.43262,7.373a.76557.76557,0,0,0,.791.71484h5.38477q.71631,0,.71582-.61646a1.25345,1.25345,0,0,0-.02442-.24682ZM288.3097,87.18243,291.546,69.55182l3.23535,17.63061Z"/><path class="cls-2" d="M332.02943,61.51373a.70875.70875,0,0,0-.81445-.78906h-5.26172a.70945.70945,0,0,0-.81543.78906v21.3291h-.2959l-7.68262-21.47778a.88378.88378,0,0,0-.91406-.64038h-5.01367a.70907.70907,0,0,0-.81543.78906v38.78711a.7645.7645,0,0,0,.81543.81348h5.26074a.71988.71988,0,0,0,.81543-.81348V78.89752h.24707l7.75586,21.55054a.872.872,0,0,0,.88965.66626H331.215a.76308.76308,0,0,0,.81445-.81348Z"/><path class="cls-2" d="M310.02455,45.46466h12.15234a7.37285,7.37285,0,0,0,5.43457-1.84961,7.34249,7.34249,0,0,0,1.85254-5.4248v-25.792a7.4343,7.4343,0,0,0-1.85254-5.45019,7.31757,7.31757,0,0,0-5.43457-1.874H310.02455a.70962.70962,0,0,0-.81543.7893V44.65143A.71971.71971,0,0,0,310.02455,45.46466Zm6.07617-33.73242h4.64355a1.8114,1.8114,0,0,1,2.02637,2.07153V36.78522a1.78888,1.78888,0,0,1-2.02637,2.02124h-4.64355Z"/><path class="cls-2" d="M218.83314,44.50275l4.39453-38.36792V5.98737q0-.9126-.97363-.91333H217.4098a.94636.94636,0,0,0-1.07373.96191L214.2682,29.65924h-.27051L209.07386,5.962a1.04992,1.04992,0,0,0-1.11132-.88794H204.924a1.05025,1.05025,0,0,0-1.11133.88794l-4.99756,23.69726h-.2456L196.59974,6.036a.94432.94432,0,0,0-1.06982-.96191h-4.85156q-.97047,0-.97022.91333v.14746l4.18018,38.36792a.93945.93945,0,0,0,1.062.96191h5.063a1.044,1.044,0,0,0,1.11132-.863l5.31006-22.883,5.26075,22.834a1.05728,1.05728,0,0,0,1.11132.91211h4.96436A.93945.93945,0,0,0,218.83314,44.50275Z"/><path class="cls-2" d="M218.03871,60.72467a1.0111,1.0111,0,0,0-1.0127,1.0105V93.83966a6.50268,6.50268,0,0,0,7.28711,7.27466h5.68115a6.50259,6.50259,0,0,0,7.28662-7.27466V61.73517a1.01109,1.01109,0,0,0-1.01269-1.0105h-4.66846a1.01109,1.01109,0,0,0-1.01269,1.0105V92.43463a1.78865,1.78865,0,0,1-2.02539,2.02149H225.943a1.78865,1.78865,0,0,1-2.02539-2.02149V61.73517a1.01109,1.01109,0,0,0-1.01269-1.0105Z"/><path class="cls-2" d="M263.45814,116.37384H258.424a1.12632,1.12632,0,0,0-1.18457.78931l-5.65137,14.5-5.65136-14.5a1.10922,1.10922,0,0,0-1.15918-.78931h-5.0586a.92738.92738,0,0,0-.79.29712.65355.65355,0,0,0-.12353.39429,1.41314,1.41314,0,0,0,.09814.468l9.23926,22.46387V155.754a.89521.89521,0,0,0,1.01563,1.0105h4.85937a.8959.8959,0,0,0,1.0166-1.0105V139.99713l9.23828-22.46387a1.41537,1.41537,0,0,0,.09864-.468.65388.65388,0,0,0-.124-.39429A.92712.92712,0,0,0,263.45814,116.37384Z"/><path class="cls-2" d="M235.4889,45.46466h5.689a7.38207,7.38207,0,0,0,5.43945-1.84961,7.33948,7.33948,0,0,0,1.85547-5.4248V12.34845a7.34137,7.34137,0,0,0-1.85547-5.4248A7.38711,7.38711,0,0,0,241.17787,5.074h-5.689A7.39081,7.39081,0,0,0,230.048,6.92365a7.33924,7.33924,0,0,0-1.855,5.4248v25.8418a7.33735,7.33735,0,0,0,1.855,5.4248A7.38576,7.38576,0,0,0,235.4889,45.46466Zm-.602-31.8584a1.79256,1.79256,0,0,1,2.0332-2.02221h2.92383a1.79257,1.79257,0,0,1,2.03321,2.02221V36.93243a1.79243,1.79243,0,0,1-2.03321,2.02271h-2.92383a1.79243,1.79243,0,0,1-2.0332-2.02271Z"/><path class="cls-2" d="M231.39711,117.06525a.7972.7972,0,0,0-.86475-.69141h-7.01514a.79689.79689,0,0,0-.86474.69141L214.254,155.90143a1.16284,1.16284,0,0,0-.04932.32031q0,.54346.71631.54273h5.40967a.76525.76525,0,0,0,.79053-.7146l1.3833-7.37305h8.99121l1.43262,7.37305a.76553.76553,0,0,0,.79052.7146h5.38477q.71631,0,.7168-.61622a1.25455,1.25455,0,0,0-.0254-.24682Zm-7.63282,25.76782,3.23584-17.6311,3.23584,17.6311Z"/><path class="cls-2" d="M202.6764,116.37384H190.52308a.70947.70947,0,0,0-.81494.78931v38.78808a.71956.71956,0,0,0,.81494.81324H202.6764a6.5023,6.5023,0,0,0,7.28662-7.27442v-25.792a7.43063,7.43063,0,0,0-1.85254-5.44922A7.312,7.312,0,0,0,202.6764,116.37384Zm.59278,31.71118a1.78848,1.78848,0,0,1-2.02539,2.02124h-4.644V123.032h4.644a1.811,1.811,0,0,1,2.02539,2.07154Z"/><path class="cls-2" d="M272.1349,60.72467h-6.68262a1.04928,1.04928,0,0,0-1.11035.8877l-5.59668,25.15039-5.59766-25.15039a1.0499,1.0499,0,0,0-1.11035-.8877h-6.68261a.89321.89321,0,0,0-1.01075,1.0105v38.36841a.89408.89408,0,0,0,1.0127,1.01074h4.66894a.89447.89447,0,0,0,1.0127-1.01074V77.36823h.3457l5.01465,22.83374a1.05629,1.05629,0,0,0,1.11133.91235h2.46973a1.05628,1.05628,0,0,0,1.11132-.91235l5.01465-22.83374h.3457v22.73535a.8912.8912,0,0,0,1.00586,1.01074h4.68262a.89119.89119,0,0,0,1.00586-1.01074V61.73517A.8932.8932,0,0,0,272.1349,60.72467Z"/><path class="cls-2" d="M209.09877,60.72467h-5.21192a.70926.70926,0,0,0-.81543.78906V77.59064h-6.47168V61.51373a.70891.70891,0,0,0-.81494-.78906h-5.21191q-.865,0-.86475.78906v38.78711q0,.813.86475.81348h5.21191a.7638.7638,0,0,0,.81494-.81348v-16.053h6.47168v16.053a.76451.76451,0,0,0,.81543.81348h5.21192q.86425,0,.86425-.81348V61.51373Q209.963,60.72419,209.09877,60.72467Z"/><path class="cls-2" d="M292.63417,116.23248h-5.60059c-4.7002,0-7.2002,2.50025-7.2002,7.20044v5.3003a.71365.71365,0,0,0,.79981.8h5.20117a.73587.73587,0,0,0,.79981-.8v-3.90015a1.77429,1.77429,0,0,1,2-2.00025h2.40039a1.81708,1.81708,0,0,1,2,2.00025v7.40039l-11.90137,6.40039c-.94922.5-1.29981.90015-1.29981,1.8501v14.751a.89788.89788,0,0,0,1,1h18.001a.89747.89747,0,0,0,1-1v-7.65063a.89747.89747,0,0,0-1-1h-4.7998a.89747.89747,0,0,0-1,1v2.05029h-5.40039a.89754.89754,0,0,1-1-1.00024v-4.3501a1.25788,1.25788,0,0,1,.70019-1.20019l11.15039-6.00025c.9502-.5,1.34961-.90015,1.34961-1.8501V123.43292C299.83436,118.73273,297.28456,116.23248,292.63417,116.23248Z"/><path class="cls-2" d="M318.63417,116.23248h-5.60059c-4.7002,0-7.2002,2.50025-7.2002,7.20044v25.60157c0,4.70019,2.5,7.20043,7.2002,7.20043h5.60059c4.70019,0,7.20019-2.50024,7.20019-7.20043V123.43292C325.83436,118.73273,323.33436,116.23248,318.63417,116.23248Zm.75,31.552a1.77442,1.77442,0,0,1-2,2h-2.90039a1.77442,1.77442,0,0,1-2-2V124.68292a1.79525,1.79525,0,0,1,2-2h2.90039a1.79525,1.79525,0,0,1,2,2Z"/><path class="cls-2" d="M344.63417,116.23248h-5.60059c-4.7002,0-7.2002,2.50025-7.2002,7.20044v5.3003a.71365.71365,0,0,0,.79981.8h5.20117a.73587.73587,0,0,0,.79981-.8v-3.90015a1.77429,1.77429,0,0,1,2-2.00025h2.40039a1.81708,1.81708,0,0,1,2,2.00025v7.40039l-11.90137,6.40039c-.94922.5-1.29981.90015-1.29981,1.8501v14.751a.89788.89788,0,0,0,1,1h18.001a.89747.89747,0,0,0,1-1v-7.65063a.89747.89747,0,0,0-1-1h-4.7998a.89747.89747,0,0,0-1,1v2.05029h-5.40039a.89754.89754,0,0,1-1-1.00024v-4.3501a1.25788,1.25788,0,0,1,.70019-1.20019l11.15039-6.00025c.9502-.5,1.34961-.90015,1.34961-1.8501V123.43292C351.83436,118.73273,349.28456,116.23248,344.63417,116.23248Z"/><path class="cls-2" d="M370.63417,116.23248h-5.60059c-4.7002,0-7.2002,2.50025-7.2002,7.20044v5.3003a.71365.71365,0,0,0,.79981.8h5.20117a.73587.73587,0,0,0,.79981-.8v-3.90015a1.77429,1.77429,0,0,1,2-2.00025h2.40039a1.81708,1.81708,0,0,1,2,2.00025v7.40039l-11.90137,6.40039c-.94922.5-1.29981.90015-1.29981,1.8501v14.751a.89788.89788,0,0,0,1,1h18.001a.89747.89747,0,0,0,1-1v-7.65063a.89747.89747,0,0,0-1-1h-4.7998a.89747.89747,0,0,0-1,1v2.05029h-5.40039a.89754.89754,0,0,1-1-1.00024v-4.3501a1.25788,1.25788,0,0,1,.70019-1.20019l11.15039-6.00025c.9502-.5,1.34961-.90015,1.34961-1.8501V123.43292C377.83436,118.73273,375.28456,116.23248,370.63417,116.23248Z"/></g></svg>