<?xml version="1.0" encoding="UTF-8"?><svg id="english" xmlns="http://www.w3.org/2000/svg" viewBox="0 0 467.46375 156.74487"><defs><style>.cls-1{fill:none;}</style></defs><path class="cls-1" d="M225.84418,49.5614c-1.22748,0-2.17041,.42865-2.82959,1.28607-.6601,.85742-.9892,2.02051-.9892,3.49017,0,1.68463,.36029,2.80963,1.08099,3.37604,.72021,.56641,1.66364,.84961,2.82959,.84961h3.54254v-4.45514c0-3.03119-1.21191-4.54675-3.63434-4.54675Z"/><path class="cls-1" d="M201.3916,58.88458c1.28021,0,2.22559-.34473,2.83539-1.0332,.60938-.68951,.91412-1.90631,.91412-3.65143,0-3.09265-1.25-4.63855-3.74951-4.63855-2.5,0-3.74951,1.5459-3.74951,4.63855,0,1.74512,.31201,2.96191,.9375,3.65143,.62451,.68848,1.56201,1.0332,2.81201,1.0332Z"/><path class="cls-1" d="M242.10638,105.84937c-.7207-.45886-1.7251-.68842-3.01318-.68842-1.0434,0-1.96344,.09961-2.76068,.29883-.79791,.19922-1.33405,.375-1.60992,.52728,1.2569,.8584,2.30029,1.92194,3.12842,3.19244,.82819,1.27045,1.41016,2.56445,1.74805,3.88086,1.01221-.6123,1.86334-1.3623,2.55322-2.25098,.69043-.8877,1.03522-1.82129,1.03522-2.80078,0-.97955-.3609-1.69922-1.08112-2.15924Z"/><path class="cls-1" d="M211.62787,105.16095c-2.51508,0-3.77246,1.5459-3.77246,4.63861,0,1.74524,.31396,2.96191,.94287,3.65143,.62842,.68848,1.57184,1.0332,2.82959,1.0332,1.28815,0,2.23834-.34473,2.85254-1.0332,.61279-.68951,.91998-1.90619,.91998-3.65143,0-3.09271-1.25787-4.63861-3.77252-4.63861Z"/><path class="cls-1" d="M138.50238,50.24976c-.7207-.45898-1.7251-.68835-3.01318-.68835-1.0434,0-1.96338,.09955-2.76068,.29877-.79791,.19922-1.33405,.375-1.60992,.52728,1.2569,.8584,2.30029,1.92194,3.12842,3.19244,.82819,1.27051,1.41016,2.56445,1.74811,3.88086,1.01215-.6123,1.86328-1.3623,2.55316-2.25098,.69043-.8877,1.03522-1.82129,1.03522-2.80078s-.3609-1.69922-1.08112-2.15924Z"/><path class="cls-1" d="M82.21478,58.88458c1.28809,0,2.23828-.34473,2.85248-1.0332,.61285-.68951,.92004-1.90631,.92004-3.65143,0-3.09265-1.25781-4.63855-3.77252-4.63855-2.51508,0-3.77252,1.5459-3.77252,4.63855,0,1.74512,.31403,2.96191,.94293,3.65143,.62842,.68848,1.57178,1.0332,2.82959,1.0332Z"/><path d="M421.52997,0c-24.3172,0-37.61725,17.54596-37.61725,17.54596,0,0-13.30011-17.54596-37.61731-17.54596-25.85413,0-45.93384,20.07806-45.93384,45.9248,0,21.68457,13.24701,40.65619,35.46313,62.7395l48.08801,48.08057,48.08795-48.08057c22.21613-22.08331,35.46307-41.05493,35.46307-62.7395,0-25.84674-20.07965-45.9248-45.93378-45.9248Zm-62.41046,87.73096c-.67651,.78925-1.01202,1.18372-1.67883,1.9729h-1.76526c-.3313,.39404-.49652,.591-.82581,.98511,.11011,1.97351,.17456,2.96008,.30017,4.93359-.97406,1.18433-1.45819,1.77649-2.43048,2.96069h-1.7533c-.6496,.78925-.97504,1.18384-1.63031,1.9729,.0531,.79022,.07867,1.18542,.12579,1.97565-.33051,.39465-.4964,.59198-.83002,.98657,.02191,.39459,.03235,.59192,.052,.98651,.375,.39337,.56152,.59009,.93201,.98352h.88141c.08502,1.97467,.11481,2.9621,.12201,4.93677h-2.65869c-.71643-.78931-1.07922-1.18402-1.82129-1.97327-.02393-1.18542-.04443-1.77814-.09631-2.9635-.38019-.39343-.57153-.59015-.95593-.98352-.0791-1.57941-.12946-2.3692-.23749-3.94873-.78302-.78906-1.17719-1.18365-1.9671-1.9729-.08472-1.1842-.12897-1.77637-.21631-2.96069-.39606-.3941-.59406-.591-.99017-.98517-.25543-3.5528-.39142-5.3291-.52722-8.8819h-1.81586c-.75671-.78864-1.13281-1.1828-1.87891-1.97144-.00891-.39276-.0127-.58917-.01874-.98199-.74121-.79102-1.10608-1.18646-1.83807-1.97748-.0011-.39288-.00183-.58942-.00354-.9823-.73029-.79022-1.0965-1.18542-1.82935-1.97559-.01141-1.57892-.01971-2.36841-.03833-3.94745,.71661-.78955,1.07422-1.18439,1.7876-1.97418-.01709-1.18427-.02618-1.77637-.04492-2.96082h-2.7204c-.36865-.39386-.5531-.59088-.92157-.9848l-.01361-.98785c-.73779-.78925-1.10632-1.18384-1.84216-1.9729h-2.71564c-.00421-.39294-.00629-.58942-.01038-.9823h-3.63062c-.3634-.3963-.54498-.59442-.9079-.9906h-.90778c-.72833-.78851-1.09192-1.18274-1.81793-1.97131-.00177-.39569-.00281-.59363-.00458-.98932,.36017-.3952,.54028-.59277,.90039-.98798-.00171-.39288-.00262-.58942-.00409-.98242-1.08929-1.18488-1.63251-1.77728-2.7171-2.9621-.00061-.78918-.00073-1.18378-.00024-1.97278h-.89856c-.00092,1.18481-.00073,1.7771,.00079,2.96198,.36017,.39423,.54028,.59119,.901,.98541-.35901,.39502-.53851,.59253-.89752,.98749-.72369-.78918-1.08496-1.18372-1.80701-1.9729-.0014-1.97211,.00079-2.95819,.00079-4.9303-.36035-.39636-.54059-.5946-.901-.99091v-2.95789c.72095-.78967,1.08142-1.18451,1.80231-1.9743v-.98651c.71985-.78967,1.07983-1.18451,1.79974-1.97418v-2.95941c-.35944-.39508-.53912-.59277-.8985-.98792v-1.9729c-.72113-.79028-1.08142-1.18549-1.80255-1.97589h-3.60718c-.36047,.3963-.54071,.59454-.90112,.99084h-3.60748c-.36029-.3963-.54059-.59454-.901-.99084v-.98486c.36041-.39459,.54071-.59192,.901-.98651h2.7063v-.9848c.36053-.39581,.54083-.59369,.90118-.98938h1.80493c.72089-.78851,1.08142-1.1828,1.80237-1.97144h5.4071c.36102,.3952,.54144,.59271,.90253,.98792h4.50061c.36139-.3952,.54218-.59271,.90381-.98792h4.50708c.72101,.78864,1.08148,1.18292,1.80249,1.97144h.90381v-2.9552l-.90381-.98773v-.98798h4.5058v1.97571h1.80231c.36102,.39349,.5415,.59027,.90253,.98376v.98792h-1.80353v.98352h3.60858c.36005-.39343,.54004-.59015,.8999-.98352v-2.95941h2.7049v.98773c-.36096,.39349-.54156,.59027-.90259,.98376v.98792h1.80231v-1.97168c.35992-.39514,.53998-.59265,.8999-.98773h4.5047c.72089,.78864,1.0813,1.18292,1.80219,1.9715h.90521c.72101,.78864,1.08142,1.18292,1.80231,1.97144v.98938h-2.70752c-.35889,.39392-.53827,.59088-.89716,.9848h-1.80505v-.9848c.36005-.39581,.54004-.59369,.90002-.98938v-.98352h-3.60217c-.36102,.39337-.5415,.59009-.90253,.98352h-.8999c-.35992,.39569-.53979,.59357-.89972,.98938v.9848h-5.40985c-.72144,.78851-1.08215,1.1828-1.80353,1.97137v1.97589c.36041,.39514,.54059,.59265,.901,.98773h2.70758v1.97308h.8999c.72095-.78931,1.08142-1.1839,1.80231-1.97308h1.80231v-3.94849h3.6048v1.97571h.89978c.36005-.3963,.54004-.59454,.90002-.99084h1.80219v1.97589c.36212,.39514,.54309,.59265,.90521,.98773v.98517c-.36212,.39514-.54309,.59283-.90521,.98792v.98352c.72095,.79041,1.08142,1.18561,1.80231,1.97589v.98621h-2.69946c-.362-.39441-.54303-.59174-.90503-.98621v-.98657h-3.60217c-1.44189,1.57886-2.16284,2.36835-3.60474,3.94727v.98633h-1.80231c-1.08197,1.18365-1.62299,1.7757-2.70496,2.95935v.98651c-1.44183,1.57831-2.16504,2.36743-3.6001,3.94574,.00519,1.18427,.00946,1.77649,.02057,2.96088h-.90588c-.36334-.39423-.5448-.59119-.90729-.98541-.0058-.79016-.00812-1.1853-.01141-1.97546h-6.30872c-.72021,.79016-1.07977,1.1853-1.79901,1.97546,.00342,.78918,.00562,1.18372,.01074,1.9729-.71735,.78809-1.07593,1.18219-1.79352,1.9704,.72852,.79071,1.09332,1.18622,1.8244,1.97699h1.81238c.71429-.79077,1.07111-1.18628,1.78461-1.97699h.90613c.3656,.39569,.54858,.59363,.91479,.98932,.00916,.78857,.0141,1.1828,.02429,1.97131h.90479c.36823,.39618,.55249,.5943,.92139,.9906,.01691,1.18201,.02594,1.77301,.04364,2.9552h4.5274c.3551-.39404,.53247-.59094,.88715-.98492h2.71521c.00745,.39398,.01111,.59088,.01862,.98492,.36829,.39508,.55243,.59265,.92072,.98785h4.50549c.73602,.78973,1.10358,1.18451,1.83722,1.97424h1.79199c.73218,.78857,1.09766,1.1828,1.8269,1.97137,.0061,.3952,.00909,.59283,.01477,.98804,.72729,.78906,1.09003,1.18365,1.81378,1.97278h4.45764c.72211,.78918,1.08228,1.1839,1.80096,1.97321h.88702c.00519,.78949,.00739,1.18427,.0108,1.97382-1.06189,1.18445-1.59821,1.77667-2.65894,2.96118,.01276,2.3667,.04602,3.55017,.13354,5.91687Zm83.96869-1.25848c-.46582,.70508-.70465,1.05939-1.19275,1.7702,.08032,.53668,.12134,.80591,.21173,1.3457-.82782,1.16748-1.25629,1.75427-2.13641,2.92859-3.23889,2.0011-4.78888,3.00311-7.53137,4.98492-.30695-.00244-.45312-.0036-.73334-.00604-.6311,.48083-.9375,.7207-1.5304,1.19965-.50891-.00574-.73541-.00861-1.1499-.01434,.1308-.44727,.19385-.67139,.31201-1.11926,.5885-.89734,.87891-1.34723,1.45013-2.24719-.21594-.00171-.32025-.0025-.52295-.00433,.1488-.77557,.21082-1.16327,.29932-1.93738-.25287-.0014-.3761-.00201-.61823-.00342-.2663,.28992-.39667,.43481-.65167,.72449-.42401-.00299-.62738-.00458-1.03339-.00757-.30011,.37939-.44562,.56897-.72772,.94788-.37286-.00366-.5575-.00562-.94019-.00928-.35071,.51642-.5188,.77441-.84241,1.28961-.14508-.00183-.21887-.00281-.37012-.00464,.17902-.66791,.26733-1.0022,.44073-1.67065,.28601-.44183,.43311-.66302,.73676-1.10565,.61224-2.16669,.90295-3.25146,1.43713-5.40747,.3924-.46423,.59351-.69629,1.00702-1.15979,.86249-.00153,1.28436-.0022,2.13995-.00372,.40234-.435,.60852-.65228,1.03033-1.086,.11029-.28851,.16479-.43268,.27271-.7204,.74847-.7605,1.13757-1.13947,1.94147-1.89349,.52332-.00061,.78674-.00098,1.31964-.00171,1.47388-1.31238,2.22247-1.96149,3.8399-3.28918,.12885,.43689,.19287,.65558,.32104,1.09277,.33813,0,.50824,0,.85175-.00006-.20343,.42926-.30804,.63855-.53009,1.05835-.25415,.00012-.38031,.00012-.6311,.00031-.20123,.39014-.30371,.58575-.51184,.97845,.17889,.87506,.2486,1.31537,.36639,2.20105,.46704-.00079,.70532-.00116,1.19324-.00189,.67029-1.0907,.99268-1.63239,1.60767-2.70416,.46863-.3407,.70441-.51062,1.17694-.84882,.1535,.58667,.22516,.88159,.36505,1.47418-.77545,1.28693-1.18555,1.9389-2.04248,3.25214,.53461-.00085,.8092-.0011,1.37543-.00183Zm-11.81439-11.71381c.19788-.1712,.29724-.25677,.4975-.42798,.08948,.21332,.13385,.31976,.22186,.53296-.29688,.25574-.44421,.38361-.73578,.63934-.18152,.50562-.27008,.75836-.44141,1.26398l-.42493,.00031c-.55255-1.26508-.83807-1.89728-1.43616-3.16132-.23901-.50531-.3606-.75787-.60803-1.26318,.11682-.33698,.1759-.50537,.29498-.84241-.33209-.67761-.50226-1.0163-.85205-1.69379,.19281-.66882,.2901-1.00311,.48236-1.67181,.32111,.6098,.47742,.91479,.7821,1.52472,.37164,.74359,.55133,1.11548,.90039,1.85919,.21655,.46143,.32275,.69202,.53131,1.15338,.2832-.00006,.4245-.00031,.70654-.00037-.15363,.40881-.22986,.61316-.3797,1.02216,.18738,.4259,.27948,.63885,.461,1.06482Zm2.6908-1.97589c.1178-.28857,.177-.43292,.2959-.72137,.49426-.00043,.74109-.00055,1.2348-.00085,1.79187-1.44745,2.72217-2.17096,4.59216-3.61749,.20502,.51282,.30389,.7691,.49591,1.28204-.58459,.44818-.87543,.6723-1.45258,1.12048,.19537,.53198,.28967,.79822,.47369,1.33032-.95593,.73987-1.42731,1.1098-2.34851,1.84998-.27802,.6181-.41589,.92719-.6864,1.54559l-1.14551,.00073c-.68298,.00049-1.02368,.00055-1.70618,.0011,.26569-.67291,.4024-1.00922,.67938-1.68182-.16962-.44348-.25598-.66528-.43268-1.1087Zm-.11505,5.52631c.3891-.00012,.58374-.00018,.97375-.00043-.11572,.29614-.17255,.44409-.2843,.7403-.40021,.00024-.59991,.00024-.99915,.00031-.10309-.27728-.15497-.41589-.2597-.69318-.94568,.00043-1.4176,.00061-2.36859,.00098-.10638-.25-.15991-.375-.26758-.625,.08368-.25928,.1264-.38885,.21338-.64807,.40961-.00031,.61371-.00031,1.02148-.00061l1.48901-.06451c.1958,.51599,.29199,.77399,.48169,1.29022Zm14.36334,1.4267c-.09705-.3017-.14502-.45251-.24023-.75409-.16669-.52814-.24866-.79193-.41168-1.3194-.23169,.00006-.3468,.00006-.57611,.00018-.50348,.34949-.75269,.52429-1.24487,.87402-.14581,.26245-.21851,.3938-.36304,.65637-.38727,.00018-.57898,.00031-.9588,.00043,.11804-.21912,.17743-.32874,.29651-.54773-.72888,.00031-1.08661,.00043-1.79181,.00073,.3587-.27014,.54022-.40503,.90649-.67493,.14923-.2793,.2243-.41888,.37482-.69818-.20911-.71674-.31366-1.07489-.52759-1.79089-.29352,.00018-.43951,.00031-.73022,.00037-.1217-.4068-.18317-.61011-.30798-1.01678l-.23938,.00018,.14966-.29077c.03613,.11627,.05396,.17438,.08972,.29059,.94562-.00049,1.42401-.00079,2.39752-.00153,.21838-.40295,.32776-.60437,.54608-1.00726,.89117-.00061,1.34253-.00079,2.26093-.0014,.39069,1.20941,.57916,1.81439,.96637,3.0257-.25592,.44-.38367,.6601-.63849,1.1004,.27051,.8609,.40698,1.29156,.69092,2.15387-.26141,.00012-.39124,.00012-.6488,.00012Zm6.08777-30.87329c-.36749,.40216-.55121,.60327-.91858,1.00549-.49841,.54559-.74762,.8183-1.24603,1.36389h-2.0025v.63019c-.20404,.22339-.30615,.33514-.51038,.55859-.41821-.4577-.78937-.98468-.78937-.98468l.49976-.85931,.6839-.79797s.67413-.15314,1.18665-.15314c.43878-.48016,.65808-.72028,1.09686-1.20056v-1.12408l.12231-1.20502s-.82208-.30328-1.2887-.81403v-1.74396h1.16638c.37024,.40515,.5553,.60785,.92554,1.01306v.83502c0,.26752-.43164,.617-.43164,.617,0,0,1.07599,.75726,1.5058,1.2276v1.6319Zm4.26434-15.30731h-3.97552v1.72443c.53699,.58777,.80542,.88159,1.34229,1.4693v2.1734c-1.19208-1.30493-1.78821-1.9574-2.98041-3.26233v-2.78357h-3.64447v.84857h-3.84033l-2.32605,2.54608v1.18195h3.1861c.67157,.73517,1.00739,1.10266,1.67896,1.83789,.46875,.513,.70312,.76959,1.17194,1.28265v2.75983c-.72675,.79541-1.09003,1.19318-1.81659,1.98859-.52521,.57471-.78772,.86212-1.31281,1.43689,.7265,.79535,1.08978,1.19293,1.81641,1.98822v1.54211h-1.58942c-.362-.3963-.54303-.5943-.90491-.99048v-1.44861c-.46429-.50824-.69653-.76233-1.16083-1.27051h-1.36768c-.40997-.44879-.61499-.67322-1.0249-1.12189-.7182,.78607-1.07727,1.1792-1.79547,1.96527,.55298,.60522,.82947,.9079,1.38245,1.51318h1.47632c-.40057,.43854-.60101,.65784-1.00159,1.09644l2.33087,2.55151c0,.71289-.02118,1.06927-.08246,1.78198-1.54492,1.55176-2.37982,2.32739-4.11383,3.87878l-2.40088,.00031c-.91803,.82739-1.38879,1.24121-2.3457,2.0686,.83588,1.32562,1.21429,1.98828,1.91089,3.31348-.21271,.60834-.32349,.91254-.55078,1.52081-.36169,.29169-.54279,.4375-.90479,.72919l-1.49261,.00073c-.60992-1.22522-.93689-1.83783-1.64722-3.06323-.19122,.61841-.29138,.92773-.49792,1.54602-.25507,.76392-.38818,1.14587-.65948,1.90991,.43579,.84149,.64331,1.26221,1.04059,2.10376-.28998,.76184-.43689,1.1427-.7287,1.9046-.2525,.65985-.37885,.98975-.6275,1.6496-.27527-.61438-.41656-.92157-.70728-1.53595,.16937-.4566,.25439-.68481,.42419-1.1413-.33978-.7074-.51532-1.06104-.87952-1.76831,.21082-.59143,.31555-.88702,.52045-1.47833,.33105-1.2771,.48956-1.91547,.76385-3.1925-.19379-.32867-.2926-.4931-.49396-.8219-.367,.31-.55151,.46503-.92224,.7749,.15784-.53027,.23401-.79547,.3786-1.32581-.79877-1.26801-1.22638-1.9021-2.14777-3.17059-.5741,.00012-.86169,.00012-1.4386,.00024-.53699,.00006-.80609,.00006-1.34583,.00018-.08838,.4613-.1366,.69202-.23907,1.15338-1.70013,1.47998-2.59564,2.22009-4.44751,3.7005-.22131,.74463-.33691,1.11688-.57129,1.86151,.19177,.29828,.28699,.44733,.47607,.74548-1.01971,.80322-1.53619,1.20471-2.51556,2.00769,.06116-.50885,.0921-.76337,.15265-1.27228h-.10809c.06909-.21771,.10364-.32672,.1723-.54437,.02661-.22742,.03979-.34113,.06573-.56854-.20331-.34448-.30524-.51678-.51019-.86127,.12006-.39453,.17938-.59174,.2959-.98621-.48151-.78931-.72552-1.1839-1.23035-1.97321,.41394-1.57941,.60272-2.36902,.8869-3.94843-.57776-.78857-.87689-1.18286-1.5011-1.97137h-5.3844c-.3172-.3941-.47888-.59113-.80865-.98523h-3.57898c-.66919-.79028-1.01611-1.1853-1.73254-1.97559,.0022-.39398,.00018-.59106,.00018-.98511h-1.80237c0,.78912,.00598,1.18372-.01117,1.97272,.70129,.78931,1.0412,1.1839,1.69751,1.97321h1.77954c.64868,.78851,.96088,1.1828,1.56189,1.97137h.87964c-.0542,.39569-.08331,.59363-.14484,.98944-2.05621,1.9729-3.10193,2.95929-5.09412,4.93219h-2.48505c-.27594-.39301-.41644-.58942-.70227-.98248,.09991-.79022,.14777-1.1853,.23553-1.97552-.59583-.78967-.90436-1.18451-1.5415-1.97418,.05981-.78931,.08594-1.1839,.12732-1.97321-.66748-.78912-1.01172-1.18372-1.71637-1.97284h-1.78888c-.0069,.78912-.01526,1.18372-.03937,1.97284,.34369,.39349,.51349,.59027,.84851,.98376-.05444,1.18542-.09119,1.7782-.17474,2.96362,1.58185,1.97229,2.31091,2.95837,3.65424,4.93073h4.85803c-.07837,.39508-.11786,.59259-.19702,.98767-3.20032,3.15839-4.66205,4.73761-7.27533,7.89612-.06927,.78845-.10071,1.1828-.15387,1.97137,.26044,.39392,.39008,.59088,.64917,.9848-.12128,1.97351-.12189,2.96021-.12189,4.93359-1.10132,1.57843-1.65454,2.36761-2.78632,3.94598v1.97412h-.71167c-.28528,.3941-.42865,.59119-.71716,.98523v1.97559c-1.1557,1.57837-1.74518,2.36761-2.96771,3.94598h-4.84192v-3.94598c-.68469-.79022-1.034-1.1853-1.74921-1.97559v-3.94592c-.35876-.39551-.54218-.59338-.9046-.98901,.00024-.78821,.00031-1.18219,.00079-1.9704,.72302-.78906,1.08704-1.18372,1.78052-1.97278-.00177-.39508-.00262-.59253-.00391-.98761-.69788-.78931-1.05426-1.18402-1.7757-1.97321v-.9848c-.71759-.78857-1.07587-1.18292-1.79242-1.97137-.00049-1.97534-.00098-2.96289-.00195-4.93811h-1.79694c-.3606-.39343-.54089-.59003-.90161-.98352h-2.69086c-.35693,.39349-.5351,.59009-.8916,.98352h-4.47821c-1.79773-1.9729-2.69928-2.95929-4.5072-4.93219-.01343-1.5777-.0199-2.36652-.03088-3.94421,.35547-.39471,.53357-.59192,.88971-.98663-.00232-.39508-.00336-.59247-.00543-.98755h-.89667c-.00452-.78931-.00653-1.1839-.00964-1.97321,1.0733-1.18433,1.61139-1.77649,2.69012-2.96082h.90497c.3598-.39502,.53979-.59259,.90015-.98761,.00067-.78857,0-1.1828,0-1.97137,.36157-.39301,.5423-.58954,.90387-.98242h4.5072c.35992-.39581,.53992-.59357,.8999-.98938h4.50989v1.9718c.36041,.39447,.54059,.59167,.901,.98627h3.60492c.35986,.39404,.53497,.59113,.90009,.98511h.90125c-.01233-.78857-.00043-1.1828-.00043-1.97137h1.80383c.72137,.78857,1.06665,1.1828,1.80408,1.97137h3.60468c.7066-.78857,1.08093-1.1828,1.80188-1.97137v-1.9718h-4.50726c-.72095-.78912-1.08136-1.18372-1.80225-1.97284v-.98798h-.90112c-.36053,.39532-.54083,.59277-.90131,.98798h-.90253v-2.96069c-.7204-.78918-1.08063-1.18378-1.8009-1.9729h-2.70898v1.9729c.7226,.78912,1.08386,1.18372,1.80646,1.97272h.90253v1.97321h-1.80383l-.90515-.98523v-.98798c-.71881-.789-1.07812-1.18359-1.79694-1.97272h-2.70618c-.7215,.78912-1.08221,1.18372-1.80371,1.97272v.98798c-.35999,.3941-.53998,.59113-.8999,.98523h-3.60602c-.36047-.3941-.54065-.59113-.90118-.98523v-2.96069c.36053-.39398,.54071-.591,.90118-.98486h.90253c.36041,.39386,.54059,.59088,.90112,.98486h1.80237v-1.9729h-.89978v-.9848c.35986-.3952,.53986-.59277,.89978-.98798h1.80103l1.8064-1.97272h.89966c.36115-.3952,.54163-.59277,.90271-.98798h.901v-1.97144h-2.70337v-1.97424c.35986-.39465,.53979-.59192,.89966-.98651h.90271c.36041-.39581,.54059-.59363,.901-.98944v-.98376c.3584-.39563,.5376-.59338,.89594-.98901h.90515c.7215-.78931,1.08234-1.1839,1.80383-1.97321h8.11182c.36047,.39581,.54071,.59369,.90112,.98938v1.97284h.89996c.71985-.78912,1.07977-1.18372,1.79962-1.97284h.90521v1.97284h.89984c.7204-.78912,1.08063-1.18372,1.80109-1.97284h5.40961v-1.97278h1.80243c.35999,.39343,.53986,.59003,.89996,.9834v1.97321h1.80219v-1.97321c.72205-.78778,1.08301-1.18182,1.80505-1.9696h.90247c.35999-.39679,.53992-.59528,.89978-.99219h4.50983l.29089-.31543s.13043,.23895,.31641,.99182h1.88373c.71289,.78033,1.06927,1.17053,1.78217,1.95081h6.70154c.30579,.33472,.45868,.50201,.76447,.83679h3.224c.62598-.6853,.93903-1.02789,1.565-1.7132h3.16388c.32245,.35303,.48352,.52942,.80603,.88232h4.96582c.43488,.47607,.65247,.71417,1.0874,1.19031h8.57617c.75439,.82574,1.13159,1.23865,1.88593,2.06445h4.63635v.67365h-3.13129c-.35199,.38525-.52789,.57788-.87988,.96307,.72778,.79669,1.09167,1.19513,1.81952,1.9917Z"/><path d="M165.11224,32.8905h5.52551c.25325,0,.45886,.20561,.45886,.45886v30.3139c0,.25201-.2046,.4566-.4566,.4566h-5.52539c-.25329,0-.45892-.20564-.45892-.45892v-30.3139c0-.25197,.20457-.45654,.45654-.45654Z"/><path d="M147.77039,88.49005h5.52545c.25197,0,.45654,.20457,.45654,.45654v30.31396c0,.25335-.20569,.45905-.45905,.45905h-5.52539c-.25194,0-.45648-.20454-.45648-.45648v-30.31415c0-.25329,.20564-.45892,.45892-.45892Z"/><path d="M277.14008,88.49005h-5.61279c-.30707,0-.46039,.15332-.46039,.45892v22.7793c0,.91901-.17682,1.55469-.52893,1.90631-.35297,.35248-.91296,.52832-1.67908,.52832h-2.62207c-1.10455,0-1.9483-.21393-2.53033-.64355-.58301-.42865-.90527-1.0401-.96631-1.83698v-22.7334c0-.3056-.15381-.45892-.45996-.45892h-5.61279c-.30713,0-.46045,.15332-.46045,.45892v21.03418c0,.67395-.01556,1.27051-.0459,1.79102-.03076,.52148-.11469,.95709-.25287,1.30859-.13818,.3526-.3609,.62024-.66699,.80371-.30725,.18359-.72119,.27643-1.24225,.27643h-7.52197c-.35303,0-.69769-.01562-1.0351-.0459,.52142-.3681,1.05029-.80371,1.5874-1.30963,.53607-.50482,1.01898-1.07117,1.44922-1.69922,.4292-.62689,.77386-1.30859,1.0351-2.04388,.26025-.73438,.39105-1.51556,.39105-2.3418,0-1.0108-.20697-1.95221-.62097-2.82422-.41412-.87311-1.06653-1.63086-1.95563-2.2735-.88965-.64349-2.01709-1.14056-3.38135-1.4931-1.36523-.35156-2.9834-.5274-4.85352-.5274-1.28851,0-2.5766,.09961-3.86469,.29791-1.28815,.19922-2.44635,.45905-3.47375,.78119-1.02777,.32135-1.86316,.67395-2.50726,1.05573-.64398,.38379-.96582,.77338-.96582,1.17188v2.98431c0,.46002,.0459,.82043,.1377,1.08014,.09235,.25977,.26031,.48145,.50635,.6651,1.13428,.79675,2.17725,1.70795,3.12848,2.7334,.9502,1.02527,1.64008,2.18158,2.07031,3.4668-.55231,.15417-1.1275,.24597-1.72565,.27631-.59814,.03027-1.15765,.0459-1.6792,.0459h-6.07178c-.79779,0-1.45752-.2373-1.97852-.71191-.52197-.47461-.81299-1.21783-.87396-2.22754,0-.18359,.00726-.375,.02289-.57428,.0152-.19922,.02301-.40521,.02301-.62012,0-3.49017-.92242-6.10059-2.7666-7.83008-1.84479-1.72937-4.31891-2.59473-7.42389-2.59473-3.25873,0-5.76361,.81946-7.51611,2.45715-1.75293,1.63757-2.62842,3.98816-2.62842,7.04877v.91888c-.06152,1.59283-.37598,2.67975-.94287,3.2608-.56781,.58203-1.2041,.87305-1.90961,.87305h-1.33405l-.02386,.00208-.02203-.00208h-1.05804c-1.07422,0-1.90924-.22266-2.50732-.66602-.59821-.44342-.92828-1.04883-.98932-1.81451v-22.7334c0-.3056-.15228-.45892-.45648-.45892h-5.52789c-.30469,0-.45648,.15332-.45648,.45892v29.48438c0,1.86725-.44482,3.24512-1.33453,4.13385-.88959,.8877-2.11621,1.33197-3.68018,1.33197-.64404,0-1.28125-.10046-1.90912-.29877-.62939-.19922-1.19629-.52832-1.7027-.9873-.5058-.45905-.9126-1.05664-1.21918-1.79102-.3067-.73541-.46002-1.6377-.46002-2.71002,0-1.34656,.18408-2.5556,.55231-3.62787,.3681-1.07129,.76611-2.03613,1.19629-2.89349,.06097-.12213,.08392-.23743,.06879-.34485-.01556-.10638-.1001-.19037-.25287-.25189l-4.96881-1.60748c-.33789-.09167-.56781-.04578-.68988,.1377-.7984,1.37799-1.41956,2.85553-1.86334,4.4317-.44531,1.57709-.66748,3.1308-.66748,4.66113,0,1.92969,.31348,3.58984,.94092,4.9834,.62799,1.39258,1.4776,2.52539,2.5484,3.3985,1.07129,.87299,2.31927,1.51556,3.74268,1.92865,1.42328,.41315,2.9306,.62012,4.52289,.62012,1.62158,0,3.14502-.20697,4.56842-.62012,1.42328-.41309,2.65521-1.05566,3.69629-1.92865,1.04102-.87311,1.8598-1.9903,2.45648-3.3526,.59619-1.3623,.89551-3.00781,.89551-4.9375v-.41315c.58203,.61334,1.24219,1.00305,1.97803,1.1709,.73639,.16901,1.59479,.25305,2.57666,.25305l.02112-.0022,.02478,.0022c.4599,0,.98145-.0235,1.56445-.06946,.58209-.0459,1.17285-.15228,1.771-.32129,.59821-.16791,1.1734-.41986,1.7251-.75775,.55231-.33594,.99658-.78033,1.33447-1.33203,.92139,1.04199,2.06641,1.76849,3.43408,2.18158,1.36725,.41412,2.86523,.62012,4.49414,.62012,1.65918,0,3.18799-.2226,4.58649-.66602,1.39789-.4433,2.55811-1.2168,3.48041-2.31927,.37109,.61328,.8028,1.0957,1.29736,1.44727,.49463,.35254,1.01813,.62012,1.57031,.80371,.55182,.18359,1.11914,.29779,1.70209,.34369,.51105,.04034,1.00623,.05591,1.4942,.06085,.03973,.00159,.07404,.00861,.11523,.00861h6.94678c.88959,0,1.90143-.09875,3.03662-.29895,1.13428-.19818,2.2085-.57416,3.2207-1.125,.88916,.55084,1.83209,.92682,2.8291,1.125,.99658,.2002,2.04736,.29895,3.15137,.29895h11.45563c1.50238,0,2.69141-.16125,3.56537-.48254,.87402-.32129,1.5415-.92566,2.00153-1.81335,.58197,.97949,1.30322,1.60736,2.16211,1.88275,.82397,.2644,1.79358,.39844,2.90106,.40894,.03094,.00049,.05743,.00421,.08911,.00421h4.96869c1.93225,0,3.3125-.46686,4.14075-1.40045,.82806-.93359,1.24219-2.39545,1.24219-4.38678v-24.9834c0-.3056-.15381-.45892-.46002-.45892Zm-62.65967,24.96094c-.6142,.68848-1.56439,1.0332-2.85254,1.0332-1.25775,0-2.20117-.34473-2.82959-1.0332-.62891-.68951-.94287-1.90619-.94287-3.65143,0-3.09271,1.25739-4.63861,3.77246-4.63861,2.51465,0,3.77252,1.5459,3.77252,4.63861,0,1.74524-.30719,2.96191-.91998,3.65143Zm27.67188-2.6416c-.68988,.88867-1.54102,1.63867-2.55322,2.25098-.33789-1.31641-.91986-2.61041-1.74805-3.88086-.82812-1.27051-1.87152-2.33405-3.12842-3.19244,.27588-.15228,.81201-.32806,1.60992-.52728,.79724-.19922,1.71729-.29883,2.76068-.29883,1.28809,0,2.29248,.22955,3.01318,.68842,.72021,.46002,1.08112,1.17969,1.08112,2.15924,0,.97949-.34479,1.91309-1.03522,2.80078Z"/><path d="M158.67572,32.8905h-5.61273c-.30719,0-.46051,.15326-.46051,.45886v22.7793c0,.91901-.17676,1.55469-.52881,1.90631-.35297,.35248-.91309,.52832-1.6792,.52832h-7.52148c-.35297,0-.69769-.01562-1.0351-.0459,.52142-.36823,1.05017-.80371,1.5874-1.30963,.53607-.50476,1.01898-1.07129,1.44922-1.69916,.4292-.62695,.77386-1.30865,1.0351-2.04395,.26025-.73438,.39111-1.51569,.39111-2.3418,0-1.0108-.20703-1.95221-.62103-2.82416-.41412-.87311-1.06647-1.63092-1.95563-2.27356-.88965-.64349-2.01709-1.14056-3.38135-1.49304-1.36523-.35162-2.9834-.5274-4.85352-.5274-1.28864,0-2.5766,.09955-3.86469,.29785-1.28815,.19922-2.44635,.45892-3.47369,.78125-1.02783,.32129-1.86322,.67377-2.50732,1.05566-.64398,.38379-.96582,.77344-.96582,1.17194v2.98425c0,.46002,.0459,.82031,.1377,1.08014,.09235,.25977,.26019,.48151,.50635,.66498,1.13428,.79688,2.17725,1.70813,3.12848,2.7334,.9502,1.02539,1.64008,2.1817,2.07031,3.4668-.55231,.1543-1.1275,.24609-1.72565,.27643-.59814,.03027-1.15765,.0459-1.6792,.0459h-4.83057l-.02191,.0022-.0235-.0022h-1.24219c-.76709,0-1.32709-.17584-1.6792-.52832-.35303-.35162-.5293-.9873-.5293-1.90631v-22.7793c0-.3056-.15228-.45886-.45648-.45886h-5.52783c-.30469,0-.4566,.15326-.4566,.45886v24.9834c0,1.99121,.41071,3.45319,1.23291,4.38684,.82233,.93359,2.19238,1.40027,4.11182,1.40027h4.54688l.02332-.00171,.02209,.00171h6.94678c.88959,0,1.90143-.09857,3.03662-.29877,1.13428-.19824,2.2085-.57422,3.2207-1.125,.88922,.55078,1.83209,.92676,2.8291,1.125,.99658,.2002,2.04736,.29877,3.15137,.29877h12.2832c1.93213,0,3.3125-.46667,4.14062-1.40027,.82812-.93365,1.24219-2.39563,1.24219-4.38684v-24.9834c0-.3056-.15381-.45886-.45996-.45886Zm-20.12744,22.31927c-.68988,.88867-1.54102,1.63867-2.55316,2.25098-.33795-1.31641-.91992-2.61035-1.74811-3.88086-.82812-1.27051-1.87152-2.33405-3.12842-3.19244,.27588-.15228,.81201-.32806,1.60992-.52728,.7973-.19922,1.71729-.29877,2.76068-.29877,1.28809,0,2.29248,.22937,3.01318,.68835,.72021,.46002,1.08112,1.17975,1.08112,2.15924s-.34479,1.91309-1.03522,2.80078Z"/><path d="M141.33148,88.49005h-5.61279c-.30713,0-.46039,.15332-.46039,.45892v22.7793c0,.91901-.17682,1.55469-.52881,1.90631-.35309,.35248-.91309,.52832-1.6792,.52832h-4.18658v-18.73834c0-.3056-.15381-.45886-.46039-.45886h-5.61285c-.30658,0-.45996,.15326-.45996,.45886v18.73834h-7.31494c-.30707,0-.45996,.15326-.45996,.45898v4.63867c0,.3056,.15289,.45905,.45996,.45905h21.39313c1.93213,0,3.3125-.46686,4.14062-1.40045,.82806-.93359,1.24219-2.39545,1.24219-4.38678v-24.9834c0-.3056-.15381-.45892-.46002-.45892Z"/><path d="M255.20996,64.11847l.03125,.0014h4.96869c1.93219,0,3.3125-.46667,4.14056-1.40027,.82825-.93365,1.24225-2.39563,1.24225-4.38684v-24.9834c0-.3056-.15381-.45886-.4599-.45886h-5.61279c-.30713,0-.46051,.15326-.46051,.45886v22.7793c0,.91901-.1767,1.55469-.52881,1.90631-.35303,.35248-.91309,.52832-1.6792,.52832h-1.61029l-.01355,.00287c-.01117,0-.02057-.00287-.03186-.00287h-1.05811c-1.07428,0-1.90918-.2226-2.50739-.66602-.59814-.44342-.92822-1.04883-.9892-1.81451v-10.83881c0-.30566-.1524-.45898-.4566-.45898h-5.52783c-.30469,0-.45648,.15332-.45648,.45898v9.55273c0,1.37787-.12311,2.35059-.36823,2.91699-.24561,.56641-.85889,.84961-1.84027,.84961h-2.85211c-.01727,0-.03137,.00397-.0484,.00439-.0152-.00043-.02802-.00439-.0434-.00439h-3.12842v-4.27155c0-1.95898-.26947-3.60535-.80707-4.9375-.5376-1.33099-1.26813-2.3877-2.19049-3.16888-.9223-.78027-1.99854-1.33887-3.22754-1.67578-1.22998-.33691-2.521-.50488-3.87347-.50488-1.29114,0-2.54401,.18359-3.75781,.55078-1.2149,.36719-2.29108,.96387-3.22858,1.79102-.9375,.82617-1.69092,1.91406-2.25922,3.2608-.56891,1.3476-.8526,3.00085-.8526,4.9599,0,3.49017,.80518,5.95508,2.4151,7.39447,1.61029,1.43951,3.91791,2.1582,6.92432,2.1582h4.4165c0,.7959-.0918,1.44629-.27594,1.95221-.18408,.50488-.44531,.89551-.78217,1.1709-.33789,.27539-.75934,.4668-1.2652,.57422-.50635,.10651-1.08099,.16016-1.7251,.16016h-5.29102c-.30713,0-.4599,.15332-.4599,.4599v4.63873c0,.30566,.15277,.45898,.4599,.45898h6.7168c3.10699,0,5.39459-.70508,6.8623-2.1123,1.46729-1.40918,2.20117-3.5528,2.20117-6.42969v-.87311h3.12842c.01752,0,.03162-.00342,.04883-.0036,.01508,.00018,.02765,.0036,.04297,.0036h4.73828c1.67682,0,2.99414-.13757,3.95312-.41302,.95898-.27539,1.68311-.90338,2.17041-1.88287,.5791,.97949,1.29889,1.60748,2.15771,1.88287,.8584,.27545,1.87054,.41302,3.03668,.41302l.01416-.0014Zm-25.73145-5.55518h-3.54254c-1.16595,0-2.10938-.2832-2.82959-.84961-.7207-.56641-1.08099-1.69141-1.08099-3.37604,0-1.46967,.3291-2.63275,.9892-3.49017,.65918-.85742,1.60211-1.28607,2.82959-1.28607,2.42242,0,3.63434,1.51556,3.63434,4.54675v4.45514Z"/><path d="M271.57214,32.8905h5.52545c.25201,0,.4566,.2046,.4566,.4566v30.3139c0,.25325-.20561,.45886-.45886,.45886h-5.52557c-.25197,0-.45654-.20457-.45654-.45654v-30.3139c0-.25329,.20564-.45892,.45892-.45892Z"/><path d="M44.71771,100.38458h-5.61279c-.30664,0-.4599,.15332-.4599,.45898v10.8847c0,.91901-.17682,1.55469-.52881,1.90631-.35315,.35248-.91315,.52832-1.67975,.52832h-1.60986c-.01532,0-.02722,.00879-.0423,.0094-.0329-.00134-.0614-.0094-.0954-.0094h-5.42871c-.89008,0-1.74121-.09283-2.55322-.27643-.81299-.18347-1.6333-.41992-2.46136-.71191-.82819-.28998-1.67242-.61908-2.53033-.9873-.85938-.36719-1.7793-.73425-2.76068-1.1015-.27588-.0918-.46002,.01562-.55182,.32135l-1.47217,4.54675c-.09229,.27539,0,.45905,.27588,.55084,1.56403,.58197,2.89062,1.0791,3.97949,1.49219,1.08844,.41406,1.97021,.79688,2.64551,1.14838,.67432,.3526,1.16498,.7041,1.47223,1.0567,.30609,.3515,.4599,.75781,.4599,1.2168,0,.27539-.06982,.54291-.20752,.80371-.13818,.25983-.37689,.48242-.71478,.66602-.33844,.18359-.815,.3291-1.42975,.43646-.61517,.10651-1.38379,.16022-2.30615,.16022h-7.74701c-.79944,0-1.60651-.07617-2.4209-.22949-.81549-.15332-1.5459-.42871-2.19141-.82617-.64563-.39844-1.17578-.94922-1.59088-1.65332-.41553-.70508-.6225-1.5918-.6225-2.66412,0-1.01068,.18408-2.02051,.55219-3.03119,.36816-1.0108,.8125-1.9444,1.33447-2.80182,.15283-.24408,.10693-.4433-.13818-.59668l-4.67188-2.34167c-.30463-.18463-.5332-.13873-.68604,.13757-.76117,1.16412-1.43896,2.56451-2.03271,4.20221s-.89056,3.31439-.89056,5.02832c0,1.5918,.24512,3.03125,.73627,4.31738,.49023,1.28607,1.24902,2.37988,2.27679,3.28418,1.0274,.90228,2.33063,1.59961,3.91071,2.08881,1.57965,.4903,3.45801,.73541,5.63574,.73541h10.25977c3.34283,0,5.78912-.62793,7.33789-1.88281,1.54834-1.25592,2.32324-2.84772,2.32324-4.77637,0-.61334-.0918-1.164-.27582-1.65332-.18408-.49023-.35309-.85742-.50592-1.10248h2.99023c.01648,0,.02991-.00391,.04608-.00433,.03168,.00061,.05902,.00433,.09161,.00433h4.96881c1.93207,0,3.3125-.46686,4.14056-1.40045,.82812-.93359,1.24219-2.39545,1.24219-4.38678v-13.08881c0-.30566-.1543-.45898-.46045-.45898Z"/><path d="M189.6601,58.63165c-.414,.29102-.84418,.58203-1.28864,.87305-.44476,.29095-.85876,.6582-1.24207,1.10156-.38379,.44434-.69781,.99609-.94293,1.65332-.24609,.65918-.36816,1.50879-.36816,2.54877v8.72662h6.5332v-7.76172c0-.55078,.07666-.9873,.23047-1.30859s.3457-.59766,.57672-.82721c.22992-.22949,.46869-.43646,.71429-.62006,.24609-.18359,.47607-.44342,.69189-.78033,.86084,.7959,1.86719,1.3623,3.02051,1.69934,1.15283,.33685,2.4209,.50476,3.80469,.50476,1.44482,0,2.79004-.16791,4.03522-.50476,1.24512-.33704,2.3208-.89563,3.22803-1.67682,.90717-.78033,1.62207-1.81348,2.14447-3.09961,.52252-1.28607,.78418-2.8623,.78418-4.73047,0-2.02051-.27686-3.6972-.83008-5.02936-.55371-1.33099-1.29883-2.39447-2.23633-3.19135-.9375-.7959-2.02148-1.3623-3.25098-1.69922-1.22998-.33691-2.521-.50488-3.87299-.50488-1.35309,0-2.6441,.16797-3.87311,.50488-1.22998,.33691-2.3139,.90332-3.2514,1.69922-.9375,.79688-1.68268,1.86035-2.23639,3.19135-.55371,1.33215-.82959,3.00885-.82959,5.02936v.96484c0,.3056,.0152,.59662,.0459,.87201-.06152,.58209-.23779,1.04889-.52881,1.40039-.29199,.3526-.64398,.67395-1.05811,.9649Zm11.73151-9.07025c2.49951,0,3.74951,1.5459,3.74951,4.63855,0,1.74512-.30475,2.96191-.91412,3.65143-.6098,.68848-1.55518,1.0332-2.83539,1.0332-1.25,0-2.1875-.34473-2.81201-1.0332-.62549-.68951-.9375-1.90631-.9375-3.65143,0-3.09265,1.24951-4.63855,3.74951-4.63855Z"/><path d="M51.11469,76.70386h4.64795c.25332,0,.45898,.20566,.45898,.45898v4.50012c0,.25383-.20607,.4599-.4599,.4599h-4.64801c-.25335,0-.45905-.20569-.45905-.45905v-4.49994c0-.25389,.20613-.46002,.46002-.46002Z"/><path d="M17.89545,132.30347h4.64807c.25383,0,.4599,.20607,.4599,.4599v4.50012c0,.25332-.20566,.45898-.45898,.45898h-4.64795c-.25389,0-.46002-.20613-.46002-.46002v-4.5c0-.25332,.20566-.45898,.45898-.45898Z"/><path d="M39.05902,90.32697h5.70514c.25383,0,.4599,.20607,.4599,.4599v4.5c0,.25332-.20566,.45898-.45898,.45898h-5.70605c-.25386,0-.45996-.2061-.45996-.45996v-4.49896c0-.25386,.2061-.45996,.45996-.45996Z"/><path d="M67.90741,64.11987c.4599,0,.98096-.02338,1.56378-.06927,.58197-.0459,1.17279-.15234,1.771-.32135,.59808-.16785,1.17328-.41986,1.72498-.75775,.55231-.33594,.99664-.78033,1.33453-1.33203,.92139,1.04199,2.06641,1.76849,3.43408,2.18164,1.36719,.41406,2.86523,.62006,4.49414,.62006,1.65918,0,3.18799-.2226,4.58649-.66602,1.39789-.4433,2.55811-1.2168,3.48041-2.31927,.37109,.61328,.8028,1.0957,1.29736,1.44733,.49463,.35248,1.01813,.62006,1.57031,.80365,.55182,.18365,1.1192,.29785,1.70221,.34375,.39929,.03149,.78229,.03748,1.16766,.04761,.13763,.0141,.28442,.02167,.44214,.02167h4.96881c1.93207,0,3.3125-.46667,4.14056-1.40027,.82812-.93365,1.24219-2.39563,1.24219-4.38684v-24.9834c0-.3056-.15375-.45886-.45996-.45886h-5.61279c-.30713,0-.46045,.15326-.46045,.45886v22.7793c0,.91901-.17676,1.55469-.52875,1.90631-.35315,.35248-.91315,.52832-1.6792,.52832h-2.85211c-.79779,0-1.45752-.2373-1.97852-.71191-.52197-.47461-.81299-1.21777-.87402-2.22748,0-.18365,.00732-.375,.02295-.57434,.0152-.19916,.02295-.40521,.02295-.62006,0-3.49023-.92236-6.10065-2.7666-7.83014-1.84467-1.72949-4.31885-2.59467-7.42377-2.59467-3.25879,0-5.76373,.81927-7.51617,2.45697-1.75293,1.6377-2.62842,3.98828-2.62842,7.04889v.91895c-.06152,1.59277-.37604,2.67969-.94281,3.26074-.56787,.58203-1.2041,.87305-1.90973,.87305h-6.76215c-.8902,0-1.74121-.09283-2.55322-.27643-.81299-.18359-1.6333-.41986-2.46149-.71191-.82812-.28998-1.6723-.61908-2.53021-.9873-.85938-.36719-1.7793-.73438-2.7608-1.10144-.27588-.09186-.4599,.01556-.5517,.32117l-1.47223,4.54688c-.09229,.27545,0,.45905,.27594,.55084,1.5639,.58197,2.89056,1.0791,3.97949,1.49219,1.08832,.41412,1.97021,.79688,2.64551,1.14838,.67426,.3526,1.16498,.7041,1.47211,1.0567,.30615,.3515,.45996,.75781,.45996,1.2168,0,.27545-.06976,.54291-.20746,.80371-.13824,.2597-.37701,.48242-.7149,.66602-.33832,.18359-.81494,.3291-1.42975,.43652-.61517,.10645-1.38367,.16016-2.30609,.16016h-7.74707c-.79932,0-1.60638-.07617-2.4209-.22949-.81543-.15332-1.5459-.42871-2.19141-.82617-.64551-.39844-1.17578-.94922-1.59082-1.65332-.41547-.70508-.62256-1.5918-.62256-2.66412,0-1.01068,.18408-2.02045,.55225-3.03119,.36823-1.0108,.8125-1.9444,1.33453-2.80176,.15277-.24414,.10687-.4433-.13818-.59674l-4.67194-2.3418c-.30469-.18451-.5332-.13861-.68597,.1377-.76129,1.16412-1.43903,2.56451-2.03271,4.20221-.59381,1.6377-.89069,3.31439-.89069,5.02832,0,1.5918,.24512,3.03131,.73639,4.31738,.49017,1.28607,1.24902,2.37988,2.27679,3.28418,1.0274,.90234,2.33063,1.59961,3.91071,2.08881,1.57953,.4903,3.45801,.73541,5.63568,.73541h10.25983c3.34271,0,5.789-.62787,7.33789-1.88281,1.54828-1.25586,2.32318-2.84766,2.32318-4.77637,0-.61334-.0918-1.16412-.27588-1.65332-.18408-.49017-.35303-.85742-.5058-1.1026h2.99042Zm14.30737-14.55847c2.51471,0,3.77252,1.5459,3.77252,4.63855,0,1.74512-.30719,2.96191-.92004,3.65143-.6142,.68848-1.56439,1.0332-2.85248,1.0332-1.25781,0-2.20117-.34473-2.82959-1.0332-.62891-.68951-.94293-1.90631-.94293-3.65143,0-3.09265,1.25745-4.63855,3.77252-4.63855Z"/><path d="M241.3017,68.11505h4.60162c.25332,0,.45898,.20566,.45898,.45898v4.50092c0,.25389-.20613,.46002-.46002,.46002h-4.60059c-.25383,0-.4599-.20607-.4599-.4599v-4.50012c0-.25383,.20607-.4599,.4599-.4599Z"/><path d="M248.38672,68.11505h4.64789c.25332,0,.45898,.20566,.45898,.45898v4.50104c0,.25383-.20607,.4599-.4599,.4599h-4.64709c-.25383,0-.4599-.20607-.4599-.4599v-4.5c0-.25389,.20613-.46002,.46002-.46002Z"/><path d="M10.81049,132.30347h4.60156c.25386,0,.45996,.2061,.45996,.45996v4.49908c0,.25386-.2061,.45996-.45996,.45996h-4.60065c-.25383,0-.4599-.20607-.4599-.4599v-4.50012c0-.25332,.20566-.45898,.45898-.45898Z"/><path d="M104.75488,90.32697h5.70612c.25383,0,.4599,.20607,.4599,.4599v4.5c0,.25332-.20566,.45898-.45898,.45898h-5.70599c-.25389,0-.46002-.20613-.46002-.46002v-4.49988c0-.25332,.20566-.45898,.45898-.45898Z"/><path d="M130.61182,129.96075h-4.60065c-.33789-.21387-.65186-.52051-.94336-.91797-.2915-.39844-.43701-.87299-.43701-1.42383,0-.61328,.18408-1.1026,.55231-1.46979,.3681-.36707,.8432-.55072,1.42621-.55072,.79688,0,1.51807,.3515,2.16205,1.0556,.15344,.15332,.30621,.1377,.46002-.0459l1.38043-1.42377c.12207-.12213,.13818-.25983,.0459-.41309-.39893-.52051-.95905-.95703-1.6792-1.30865-.7207-.35248-1.57233-.52826-2.55322-.52826-.8902,0-1.64899,.12988-2.2774,.39056-.62891,.25983-1.14313,.6123-1.5415,1.05573-.39886,.44427-.69769,.94141-.89697,1.49323-.19971,.55066-.29883,1.10248-.29883,1.65326,0,.4892,.06104,.93359,.18408,1.33203,.12213,.39746,.27594,.76471,.46002,1.10156h-1.70221c-.18408,0-.27637,.10742-.27637,.3222v2.06641c0,.21393,.09229,.32129,.27637,.32129h10.25934c.18408,0,.27588-.10736,.27588-.32129v-2.06641c0-.21478-.0918-.3222-.27588-.3222Z"/><path d="M110.41449,100.38458h-5.61279c-.30658,0-.4599,.15332-.4599,.45898v10.8847c0,.91901-.17682,1.55469-.52881,1.90631-.35309,.35248-.91309,.52832-1.67969,.52832h-1.60992c-.01471,0-.02618,.00854-.04071,.00897-.03345-.00128-.0625-.00897-.09698-.00897h-1.05811c-1.07416,0-1.90967-.22266-2.50726-.66602-.59821-.44342-.92822-1.04883-.98932-1.81451v-10.83881c0-.30566-.15381-.45898-.4599-.45898h-5.61279c-.30719,0-.46051,.15332-.46051,.45898v10.01172c0,.61328-.01562,1.12598-.0459,1.53906-.0307,.41302-.12299,.75092-.27588,1.01074-.15381,.25977-.38385,.45221-.69043,.57318-.30658,.12311-.75189,.18463-1.33398,.18463-.79779,0-1.51123-.16113-2.1391-.48242-.62891-.32129-.94342-1.00293-.94342-2.04401v-7.48633c0-.30554-.15381-.45898-.45996-.45898h-5.61273c-.30719,0-.46002,.15344-.46002,.45898v6.75201c0,.6123-.02295,1.125-.06927,1.53809-.0459,.41302-.146,.7431-.29889,.9873-.15381,.24512-.40674,.42975-.75934,.55072-.35297,.12311-.8208,.18463-1.40326,.18463-.73584,0-1.41058-.16803-2.02393-.5058-.61426-.336-.92041-.9942-.92041-1.97473v-7.53223c0-.30554-.15375-.45898-.45996-.45898h-5.61279c-.30713,0-.4599,.15344-.4599,.45898v6.88971c0,1.1933-.12311,2.01361-.36823,2.45703-.24561,.44336-.81299,.66602-1.70209,.66602h-3.08258l-.02271,.0022-.02271-.0022h-1.24225c-.76697,0-1.32709-.17584-1.6792-.52832-.35297-.35162-.52917-.9873-.52917-1.90631v-22.7793c0-.3056-.1524-.45892-.4566-.45892h-5.52777c-.30475,0-.4566,.15332-.4566,.45892v24.9834c0,1.99133,.41071,3.45319,1.23291,4.38678,.82227,.93359,2.19238,1.40045,4.11188,1.40045h4.54681l.02368-.00183,.02173,.00183h5.521c1.56396,0,2.77539-.16125,3.63428-.48254,.8584-.32129,1.5025-.97156,1.93207-1.95209,.3985,.73529,.98151,1.3252,1.74866,1.76849,.76605,.4444,1.74799,.66614,2.94427,.66614h1.79449c1.50238,0,2.69141-.16803,3.56543-.50494,.87396-.33691,1.52539-.97949,1.95508-1.92969,.39838,.73529,.97357,1.3252,1.72546,1.76849,.75104,.4444,1.72516,.66614,2.92145,.66614h2.53027c1.07318,0,2.02441-.16125,2.85254-.48254,.82819-.32129,1.45605-.92566,1.88629-1.81335,.58197,.97949,1.30316,1.60736,2.16205,1.88275,.85846,.27539,1.87061,.41315,3.03662,.41315,.01538,0,.02802-.00421,.04321-.00446,.03271,.00073,.06091,.00446,.09448,.00446h4.96881c1.93213,0,3.3125-.46686,4.14062-1.40045,.82806-.93359,1.24219-2.39545,1.24219-4.38678v-13.08881c0-.30566-.1543-.45898-.46051-.45898Z"/><path d="M44.02881,76.70386h4.60242c.25335,0,.45905,.20569,.45905,.45905v4.50006c0,.25383-.20607,.4599-.4599,.4599h-4.60065c-.25386,0-.45996-.2061-.45996-.45996v-4.5c0-.25335,.20569-.45905,.45905-.45905Z"/></svg>