<svg xmlns="http://www.w3.org/2000/svg" viewBox="0 0 469.24561 156.74487"><defs><style>.cls-1{fill:none;}.cls-2{fill:#3cb4dc;}</style></defs><g id="arabic"><path class="cls-1" d="M363.416,76.87909h-.887c-.71875-.78931-1.07885-1.184-1.801-1.97321h-4.45752c-.72388-.78912-1.08643-1.18371-1.814-1.97277-.00561-.39521-.00854-.59284-.01465-.988-.72924-.78858-1.09472-1.1828-1.8269-1.97138h-1.792c-.73364-.78973-1.10132-1.18451-1.83716-1.97424h-4.50562c-.3684-.39514-.55249-.59277-.92065-.98785-.00757-.39405-.01123-.591-.01855-.98493h-2.71534c-.35449.394-.532.59088-.8872.98493h-4.52735c-.01758-1.18219-.02661-1.7732-.04345-2.9552-.36914-.3963-.55323-.59442-.92139-.9906h-.905c-.01-.78852-.01489-1.18274-.02417-1.97132-.36621-.39569-.54932-.59363-.9148-.98932h-.906c-.71362.79071-1.07031,1.18622-1.78467,1.977h-1.8125c-.731-.79077-1.096-1.18628-1.82446-1.977.71777-.7882,1.07641-1.18231,1.7937-1.97039-.00513-.78919-.00732-1.18372-.01074-1.9729.71924-.79017,1.07861-1.18531,1.79883-1.97547h6.30883c.00318.79016.00562,1.1853.01148,1.97547.3623.39422.54394.59118.90722.98541h.90577c-.011-1.18439-.01538-1.77661-.02051-2.96088,1.43506-1.57831,2.1582-2.36743,3.6001-3.94574v-.98651c1.082-1.18365,1.623-1.7757,2.70507-2.95935h1.80225v-.98633c1.44189-1.57892,2.16284-2.36841,3.60474-3.94726h3.60229v.98657c.36182.39453.543.5918.90479.9862h2.6997v-.9862c-.72094-.79028-1.08154-1.18549-1.80249-1.97589v-.98352c.36206-.39508.54322-.59278.90528-.98792v-.98517c-.36206-.39508-.54322-.59259-.90528-.98773V34.45166h-1.802c-.36011.3963-.54.59454-.90015.99084h-.89965V33.4668h-3.605v3.94848h-1.80225c-.721.78919-1.08154,1.18378-1.80225,1.97309h-.8999V37.41528H340.667c-.36059-.39508-.54077-.59259-.90112-.98773V34.45166c.72143-.78857,1.082-1.18286,1.80347-1.97137h5.40991v-.98481c.35986-.39581.53979-.59369.89966-.98938h.8999c.36108-.39343.5415-.59015.90259-.98352h3.60229v.98352c-.36011.39569-.54.59357-.90015.98938v.98481h1.80494l.89721-.98481h2.70752V30.5061c-.72094-.78851-1.0813-1.1828-1.80224-1.97143h-.90528c-.72094-.78858-1.0813-1.18286-1.802-1.9715h-4.50488c-.35986.39508-.54.59259-.8999.98773v1.97168h-1.80225v-.98791c.36084-.3935.5415-.59027.90259-.98377v-.98773h-2.70484v2.95941c-.35986.39337-.54.59009-.8999.98352h-3.60864v-.98352h1.80347v-.98791c-.36084-.3935-.54151-.59027-.90235-.98377H338.8645V25.5752h-4.50561v.988c.36132.39508.542.59259.90381.98773v2.9552h-.90381c-.72119-.78851-1.08155-1.1828-1.80274-1.97143h-4.50708l-.90381.98791h-4.50048l-.90259-.98791h-5.407c-.721.78863-1.08155,1.18292-1.8025,1.97143h-1.80493c-.36035.39569-.54077.59357-.90112.98938v.98481h-2.7063c-.36035.39459-.54053.59191-.90112.98651v.98486c.36059.3963.54077.59454.90112.99084h3.60742c.3606-.3963.54077-.59454.90113-.99084h3.60717c.7212.79041,1.08155,1.18561,1.80249,1.97589v1.9729c.35938.39514.53907.59284.89844.98792v2.95941c-.71972.78967-1.07983,1.18451-1.79956,1.97418v.98651c-.721.7898-1.0813,1.18463-1.80224,1.97431v2.95788c.36035.3963.54052.59455.90087.99091,0,1.9721-.00219,2.95819-.00073,4.9303.72193.78918,1.08325,1.18371,1.80713,1.9729.35889-.395.53833-.59247.89746-.98749-.36084-.39423-.541-.59119-.90112-.98541-.00147-1.18488-.00171-1.77717-.00073-2.962h.89843c-.00048.789-.00024,1.18359.00025,1.97278,1.08471,1.18481,1.62793,1.77722,2.717,2.9621.00171.393.00244.58953.00415.98242-.36011.3952-.54.59277-.90039.988.002.39569.00293.59363.00464.98932.72607.78858,1.0896,1.1828,1.81787,1.97132h.908c.36279.39618.54443.5943.908.9906h3.63037c.00415.39288.00634.58935.0105.9823h2.71557c.73584.78906,1.10449,1.18365,1.84229,1.9729.00537.39508.008.59271.01367.98785.36841.39392.55273.59094.92139.9848h2.72045c.0188,1.18445.02784,1.77655.04493,2.96082-.71338.78979-1.071,1.18463-1.7876,1.97418.01855,1.579.02685,2.36853.03833,3.94745.73291.79016,1.09912,1.18536,1.82934,1.97559.00171.39288.00245.58941.00342.98229.73218.791,1.09693,1.18653,1.83814,1.97748.0061.39283.00976.58924.0188.982.74609.78863,1.12207,1.1828,1.8789,1.97143h1.81592c.13574,3.5528.27173,5.3291.5271,8.8819.396.39417.59424.59106.99023.98517.08741,1.18432.1316,1.77655.21631,2.96069.7898.78925,1.18408,1.18384,1.967,1.9729.10816,1.57953.15845,2.36933.23755,3.94873.38428.39337.57569.59009.95581.98352.052,1.18537.07251,1.77808.09644,2.9635.74219.78925,1.105,1.184,1.82129,1.97327h2.65869c-.00733-1.97467-.03711-2.9621-.12207-4.93677h-.88135c-.3706-.39343-.55713-.59015-.93213-.98352-.01953-.39459-.03-.59192-.05176-.98651.3335-.39459.49952-.59192.82984-.98657-.04712-.79022-.07251-1.18543-.12573-1.97565.65527-.78906.98071-1.18365,1.63037-1.9729h1.75317c.97241-1.18414,1.4563-1.77637,2.43042-2.96069-.12549-1.97345-.18994-2.96008-.3-4.9336.32935-.3941.49439-.59106.82569-.9851h1.76538c.66674-.78919,1.00244-1.18366,1.67871-1.9729-.08741-2.3667-.12061-3.55017-.1333-5.91687,1.06054-1.18451,1.59692-1.77674,2.65869-2.96118C363.42334,78.06335,363.42139,77.66858,363.416,76.87909Z"/><path class="cls-1" d="M444.18091,74.46606l.2395-.00018c-.03589-.11621-.05371-.17432-.08984-.29059Z"/><path class="cls-1" d="M437.20605,75.5722l1.14551-.00073c.27051-.61841.40845-.92749.68653-1.54559.92114-.74017,1.39257-1.11011,2.34838-1.85-.18408-.5321-.27832-.79834-.47387-1.33032.57739-.44818.86816-.6723,1.45263-1.12048-.19189-.51294-.29077-.76923-.49585-1.282-1.86987,1.44654-2.80029,2.17005-4.592,3.61756-.49365.00024-.74072.00036-1.23486.00079-.1189.28845-.17822.4328-.2959.72138.17676.44342.26319.66522.43262,1.1087-.27686.67261-.41358,1.00891-.6792,1.68182C436.18237,75.57275,436.523,75.57269,437.20605,75.5722Z"/><path class="cls-1" d="M433.66089,77.08337c-.408.00031-.61206.00031-1.02149.00061-.08715.25922-.12963.3888-.21337.64808.10766.25.16113.375.26757.625.95093-.00037,1.42286-.00055,2.36841-.001.105.27728.15674.41589.25977.69318.39941-.00007.59912-.00007.999-.00031.11182-.29614.1687-.44415.28442-.7403-.38989.00025-.58471.00031-.97363.00043-.1897-.51617-.28589-.77423-.48169-1.29022Z"/><path class="cls-1" d="M432.26807,72.67206c-.20874-.46137-.315-.692-.5315-1.15338-.34887-.74372-.52881-1.1156-.90039-1.8592-.30469-.60992-.46094-.91491-.782-1.52471-.19238.6687-.28955,1.003-.48242,1.67181.34985.67749.52,1.01617.85205,1.69379-.11914.337-.17822.50543-.29492.8424.24731.50531.36889.75794.60791,1.26319.59814,1.264.88354,1.89624,1.43628,3.16131l.4248-.0003c.17139-.50562.26-.75836.44141-1.264.29174-.25574.439-.38361.73584-.63928-.08814-.21326-.13233-.3197-.22193-.533-.20019.1712-.29956.25677-.49756.428-.18139-.426-.27343-.63892-.46093-1.06476.1499-.40906.22607-.6134.37964-1.02222C432.69238,72.67175,432.55127,72.672,432.26807,72.67206Z"/><path class="cls-1" d="M450.59131,76.48138c-.38721-1.2113-.57569-1.81628-.96631-3.02569-.91846.00061-1.36987.00079-2.261.0014-.2185.4029-.32788.60431-.54614,1.00727-.97363.00073-1.4519.001-2.39746.00152.12476.40668.18628.61.30786,1.01679.29077-.00007.43677-.00019.73023-.00037.21386.716.3186,1.07416.52758,1.79089-.15039.27932-.22558.41889-.37475.69818-.36621.2699-.54785.40479-.9065.67493.70533-.0003,1.063-.00043,1.79175-.00073-.11914.219-.17846.32861-.29638.54773.37988-.00012.57153-.00025.95874-.00043.14453-.26257.21728-.39392.363-.65637.49219-.34973.74146-.52454,1.24488-.874.22924-.00013.34448-.00013.57617-.00019.16284.52747.24487.79126.41162,1.3194.09521.30157.14331.45239.24023.75409.25757,0,.38745,0,.64868-.00012-.28369-.86231-.42041-1.293-.69091-2.15387C450.20752,77.14148,450.33545,76.92139,450.59131,76.48138Z"/><path class="cls-1" d="M445.17212,81.748c-.47241.33819-.70825.50811-1.177.84881-.61475,1.07178-.93726,1.61347-1.60742,2.70416-.488.00074-.72632.0011-1.19336.0019-.11768-.88568-.1875-1.326-.36646-2.201.20825-.3927.31079-.58832.512-.97846.25074-.00018.377-.00018.63086-.00024.22217-.4198.32691-.62915.53028-1.05841-.34351.00006-.51368.00006-.85181.00006-.12817-.4372-.19214-.65589-.32105-1.09278-1.61743,1.3277-2.366,1.97681-3.83984,3.28919-.533.00073-.79639.0011-1.31958.00171-.80395.754-1.19311,1.133-1.94165,1.89349-.10791.28772-.16235.43189-.27246.7204-.42188.43372-.62817.651-1.03052,1.086-.85547.00152-1.27734.0022-2.13989.00372-.41357.4635-.61475.69562-1.00708,1.15979-.53418,2.156-.825,3.24079-1.437,5.40747-.30371.44263-.45093.66382-.73682,1.10565-.17334.66846-.26172,1.00275-.44067,1.67066.15112.00183.2251.00281.37011.00464.32349-.5152.4917-.7732.84229-1.28961.38281.00372.56738.00561.94019.00927.28222-.3789.42773-.56848.72778-.94787.406.003.60937.00457,1.03345.00757.25488-.28968.38525-.43458.65161-.72449.24218.0014.36523.002.61816.00342-.08838.7741-.15039,1.1618-.29931,1.93737.20263.00183.30712.00263.52294.00434-.57128.9-.86157,1.34985-1.45019,2.24719-.11817.44788-.18115.672-.312,1.11926.41455.00574.64111.00861,1.1499.01435.593-.47895.89941-.71882,1.53052-1.19959.28027.00238.42651.00354.7334.006,2.74243-1.98181,4.29248-2.98382,7.53125-4.98492.88012-1.17432,1.30859-1.76111,2.13647-2.92859-.09033-.5398-.13135-.809-.21167-1.3457.488-.71082.72681-1.06513,1.19263-1.77021-.56616.00074-.84082.001-1.37549.00183.85693-1.31323,1.26709-1.96521,2.04248-3.25213C445.39746,82.62958,445.32568,82.33466,445.17212,81.748Z"/><path class="cls-1" d="M455.0083,45.386v-.835c-.37012-.40521-.55518-.60791-.92529-1.01306H452.9165v1.744a3.82809,3.82809,0,0,0,1.28882.814l-.12231,1.205V48.425c-.439.48028-.65821.7204-1.09693,1.20062a6.55655,6.55655,0,0,0-1.18676.15308l-.68384.798-.49976.85931a11.44944,11.44944,0,0,0,.78955.98468l.51026-.55859v-.63019H453.918c.49853-.54559.74756-.8183,1.24609-1.36389.36743-.40222.551-.60327.91846-1.00549v-1.6319a12.74536,12.74536,0,0,0-1.50562-1.2276S455.0083,45.6535,455.0083,45.386Z"/><path class="cls-1" d="M446.35278,26.672H441.387c-.32251-.35291-.48364-.5293-.80591-.88233H437.417c-.626.68531-.939,1.0279-1.56494,1.7132h-3.22412c-.30566-.33478-.4585-.50208-.7644-.83679h-6.70142c-.71289-.78028-1.06934-1.17047-1.78223-1.95081h-1.88379a4.84373,4.84373,0,0,0-.3164-.99176c-.11621.12616-.17456.18927-.29077.31537h-4.51c-.35987.39691-.53955.5954-.89966.99219h-.90259c-.72192.78784-1.083,1.18182-1.80493,1.9696v1.97321h-1.80225V27.00067c-.3601-.39337-.53979-.59-.8999-.9834h-1.80249v1.97278h-5.40967c-.72046.78912-1.08056,1.18372-1.801,1.97284h-.89966V27.99005h-.90528c-.72.78912-1.07983,1.18372-1.7998,1.97284h-.8999V27.99005c-.36035-.39569-.54053-.59357-.90113-.98938h-8.11181c-.72144.78931-1.08228,1.1839-1.80371,1.97321h-.90528c-.35815.39563-.53735.59338-.89575.989v.98377c-.36059.39581-.54077.59362-.90112.98944h-.90259c-.36011.39459-.54.59185-.8999.98651v1.97424h2.70361v1.97144H383.033c-.36108.3952-.54175.59277-.90259.988h-.8999c-.72266.78913-1.08374,1.1836-1.8064,1.97272h-1.801l-.89966.988v.9848h.89966v1.9729H375.8208c-.36059-.394-.54077-.591-.90112-.98487h-.90259c-.36035.39386-.54053.59089-.90112.98487v2.96069c.36059.39411.54077.59113.90112.98523h3.606c.35986-.3941.54-.59112.8999-.98523v-.988c.72168-.789,1.08227-1.1836,1.80371-1.97272h2.7063c.71875.78912,1.07812,1.18371,1.79687,1.97272v.988c.36206.39411.54322.59113.90528.98523h1.80371v-1.9732h-.90259c-.72241-.789-1.08374-1.1836-1.8064-1.97272v-1.9729h2.709c.72046.78912,1.08056,1.18371,1.801,1.9729v2.96069h.90235c.36059-.39514.54077-.59265.90136-.988h.90113v.988c.72094.78913,1.0813,1.18372,1.80224,1.97284h4.50733V50.68c-.72095.78858-1.09522,1.1828-1.802,1.97138h-3.6045c-.73754-.78858-1.08276-1.1828-1.8042-1.97138h-1.80371c0,.78858-.012,1.1828.00025,1.97138H388.439c-.36523-.394-.54028-.59107-.90014-.98511h-3.60474c-.36059-.39459-.54077-.5918-.90112-.98627v-1.9718h-4.51c-.35986.39581-.54.59357-.8999.98938H373.116c-.36158.39288-.54224.58942-.90406.98242,0,.78858.001,1.1828,0,1.97138-.3601.395-.54.59259-.8999.98761h-.905c-1.07886,1.18432-1.61694,1.77649-2.69018,2.96081.00317.78931.00512,1.1839.00976,1.97321h.89649c.00219.39508.00317.59247.00537.98761-.356.39465-.53418.59186-.88965.98657.01123,1.5777.01758,2.36652.031,3.94421,1.80786,1.9729,2.70947,2.95929,4.50708,4.93219h4.47827c.35644-.39343.53466-.59.8916-.98352h2.69092c.36059.3935.541.59009.90161.98352h1.79687c.001,1.97522.00147,2.96277.002,4.93811.71655.78852,1.075,1.1828,1.79248,1.97138v.9848c.72143.78919,1.07763,1.1839,1.77563,1.97321.00122.39508.0022.59253.00391.98761-.69361.78912-1.05738,1.18371-1.78052,1.97277-.00049.78821-.00049,1.18219-.00073,1.9704.3623.39563.54565.59351.90454.989V89.1568c.71533.79028,1.06445,1.18536,1.74927,1.97559v3.946h4.84179c1.22266-1.57837,1.812-2.36762,2.96778-3.946V89.1568c.28857-.394.43188-.59113.71728-.98523h.71167V86.19751c1.13159-1.57843,1.68506-2.36761,2.78613-3.946,0-1.97338.00074-2.96008.12207-4.93359-.25927-.39392-.38867-.59088-.64917-.9848.053-.78858.08448-1.18286.15381-1.97138a88.98525,88.98525,0,0,1,7.27539-7.89611c.07911-.39508.11866-.59259.197-.98767h-4.85816c-1.34326-1.97236-2.07226-2.95844-3.6543-4.93073.08374-1.18542.12037-1.7782.17481-2.96362-.335-.3935-.50464-.59027-.84839-.98377.02393-.78912.03247-1.18371.03931-1.97284h1.78882c.70458.78913,1.04882,1.18372,1.7163,1.97284-.04126.78931-.06738,1.1839-.12719,1.97321.637.78967.94555,1.18451,1.5415,1.97418-.08789.79022-.1355,1.1853-.2356,1.97553.28589.39306.42627.58947.70215.98248h2.48535c1.99219-1.9729,3.03785-2.95929,5.094-4.93219.06152-.39581.09057-.59369.14477-.98944h-.87963c-.60083-.78858-.91309-1.18286-1.56177-1.97138h-1.77979c-.65625-.7893-.99609-1.1839-1.69726-1.9732.01709-.789.01123-1.1836.01123-1.97272h1.80224c0,.394.002.59113-.00024.98511.71655.79028,1.06348,1.1853,1.73267,1.97558h3.57885c.32984.39411.49146.59113.80884.98523h5.38428c.62427.78852.92334,1.1828,1.501,1.97138-.28417,1.5794-.4729,2.369-.88671,3.94842.50488.78931.74878,1.1839,1.23022,1.97321-.11645.39447-.17578.59167-.2959.9862.20508.34449.30689.51679.51026.86127-.02588.22742-.03907.34113-.06568.56854-.06885.21765-.10327.32666-.17236.54438h.10815c-.06079.50891-.09155.76342-.15283,1.27227.97949-.803,1.49585-1.20446,2.51563-2.00769-.189-.29815-.28418-.4472-.47608-.74548.23438-.74463.3501-1.11688.57129-1.86151,1.85181-1.48041,2.74732-2.22046,4.44751-3.7005.10254-.46137.15088-.69208.23926-1.15338.53955-.00012.80859-.00012,1.3457-.00019.57691-.00012.8645-.00012,1.43848-.00024.92139,1.26849,1.34912,1.90265,2.14795,3.17059-.14453.53034-.22071.79554-.37866,1.32581.37085-.30988.55517-.46491.92211-.7749.20142.32879.3003.49322.49415.8219-.27442,1.277-.43287,1.9154-.76392,3.1925-.20483.59131-.30957.8869-.52051,1.47833.36426.70728.5398,1.06092.87964,1.76831-.16992.45649-.25488.6847-.42432,1.1413.29078.61438.43213.92157.70728,1.53595.24878-.65985.375-.98975.62768-1.6496.29175-.7619.43848-1.14276.72852-1.9046-.39722-.84155-.60474-1.26227-1.04053-2.10376.27124-.764.4043-1.146.65943-1.90991.20654-.61829.30688-.92761.498-1.546.71021,1.2254,1.03736,1.838,1.64722,3.06323l1.49243-.00073c.36206-.29169.54322-.4375.905-.72919.22705-.60828.33789-.91247.55078-1.52081-.69677-1.3252-1.07519-1.98786-1.91113-3.31348.957-.82739,1.42773-1.24121,2.3457-2.0686l2.40088-.00031c1.73413-1.55139,2.56909-2.327,4.114-3.87878a17.3401,17.3401,0,0,0,.08227-1.782c-.93213-1.02063-1.39844-1.531-2.33081-2.55152.40064-.4386.60107-.6579,1.00171-1.09643h-1.47632c-.553-.60529-.82959-.908-1.38257-1.51319.71826-.78607,1.0774-1.1792,1.79541-1.96527.41016.44867.615.6731,1.02491,1.12189h1.36767c.46436.50818.69678.76227,1.16089,1.27051v1.44861c.36206.39618.543.59417.905.99047h1.58935V48.74707c-.72656-.79529-1.08984-1.19287-1.8164-1.98822.52514-.57477.7876-.86218,1.31274-1.43689.72656-.79541,1.08985-1.19318,1.81665-1.98859V40.57361c-.46875-.51312-.70312-.76972-1.17187-1.28272-.67163-.73523-1.00733-1.10272-1.6792-1.83789h-3.186V36.27106c.93067-1.0185,1.39576-1.52765,2.32618-2.54608h3.84033V32.8764h3.64453V35.66c1.19214,1.30493,1.78833,1.9574,2.98047,3.26233V36.7489c-.53711-.58771-.80542-.88153-1.34229-1.4693V33.55518h3.97534c-.72778-.79657-1.09155-1.195-1.81958-1.9917.35205-.3852.52808-.57782.87989-.96308h3.13134v-.67364h-4.63623c-.75439-.82581-1.13159-1.23865-1.886-2.06446h-8.57617C447.00537,27.38617,446.7876,27.14807,446.35278,26.672Z"/><path class="cls-2" d="M423.312,0a49.63228,49.63228,0,0,0-37.61743,17.546A49.63209,49.63209,0,0,0,348.07739,0c-25.85425,0-45.93384,20.07806-45.93384,45.9248,0,21.68458,13.24707,40.65619,35.46314,62.73951l48.08789,48.08056,48.08813-48.08056c22.21607-22.08332,35.4629-41.05493,35.4629-62.73951C469.24561,20.07806,449.166,0,423.312,0ZM360.90137,87.731c-.67627.78924-1.012,1.18371-1.67871,1.9729h-1.76538c-.3313.394-.49634.591-.82569.9851.11011,1.97352.17456,2.96015.3,4.9336-.97412,1.18432-1.458,1.77655-2.43042,2.96069h-1.75317c-.64966.78925-.9751,1.18384-1.63037,1.9729.05322.79022.07861,1.18543.12573,1.97565-.33032.39465-.49634.592-.82984.98657.02173.39459.03223.59192.05176.98651.375.39337.56153.59009.93213.98352h.88135c.085,1.97467.11474,2.9621.12207,4.93677h-2.65869c-.71631-.78931-1.0791-1.184-1.82129-1.97327-.02393-1.18542-.04444-1.77813-.09644-2.9635-.38012-.39343-.57153-.59015-.95581-.98352-.0791-1.5794-.12939-2.3692-.23755-3.94873-.783-.78906-1.17724-1.18365-1.967-1.9729-.08471-1.18414-.1289-1.77637-.21631-2.96069-.396-.39411-.59423-.591-.99023-.98517-.25537-3.5528-.39136-5.3291-.5271-8.8819H341.1145c-.75683-.78863-1.13281-1.1828-1.8789-1.97143-.009-.39276-.0127-.58917-.0188-.982-.74121-.79095-1.106-1.18646-1.83814-1.97748-.001-.39288-.00171-.58941-.00342-.98229-.73022-.79023-1.09643-1.18543-1.82934-1.97559-.01148-1.57892-.01978-2.36841-.03833-3.94745.71655-.78955,1.07422-1.18439,1.7876-1.97418-.01709-1.18427-.02613-1.77637-.04493-2.96082h-2.72045c-.36866-.39386-.553-.59088-.92139-.9848-.00562-.39514-.0083-.59277-.01367-.98785-.7378-.78925-1.10645-1.18384-1.84229-1.9729h-2.71557c-.00416-.39295-.00635-.58942-.0105-.9823H325.396c-.36353-.3963-.54517-.59442-.908-.9906h-.908c-.72827-.78852-1.0918-1.18274-1.81787-1.97132-.00171-.39569-.00269-.59363-.00464-.98932.36035-.3952.54028-.59277.90039-.988-.00171-.39289-.00244-.58942-.00415-.98242-1.08911-1.18488-1.63233-1.77729-2.717-2.9621-.00049-.78919-.00073-1.18378-.00025-1.97278h-.89843c-.001,1.18481-.00074,1.7771.00073,2.962.36011.39422.54028.59118.90112.98541-.35913.395-.53857.59253-.89746.98749-.72388-.78919-1.0852-1.18372-1.80713-1.9729-.00146-1.97211.00073-2.9582.00073-4.9303-.36035-.39636-.54052-.59461-.90087-.99091V47.28278c.72094-.78968,1.08129-1.18451,1.80224-1.97431V44.322c.71973-.78967,1.07984-1.18451,1.79956-1.97418V39.38837c-.35937-.39508-.53906-.59278-.89844-.98792v-1.9729c-.72094-.79028-1.08129-1.18548-1.80249-1.97589h-3.60717c-.36036.3963-.54053.59454-.90113.99084h-3.60742c-.36035-.3963-.54053-.59454-.90112-.99084V33.4668c.36059-.3946.54077-.59192.90112-.98651h2.7063v-.98481c.36035-.39581.54077-.59369.90112-.98938h1.80493c.721-.78851,1.08155-1.1828,1.8025-1.97143h5.407l.90259.98791h4.50048l.90381-.98791h4.50708c.72119.78863,1.08155,1.18292,1.80274,1.97143h.90381V27.5509c-.36182-.39514-.54249-.59265-.90381-.98773v-.988h4.50561v1.9757H340.667c.36084.3935.54151.59027.90235.98377v.98791h-1.80347v.98352h3.60864c.35987-.39343.54-.59015.8999-.98352V26.56317h2.70484v.98773c-.36109.3935-.54175.59027-.90259.98377v.98791h1.80225V27.5509c.35986-.39514.54-.59265.8999-.98773h4.50488c.7207.78864,1.08106,1.18292,1.802,1.9715h.90528c.72094.78863,1.0813,1.18292,1.80224,1.97143v.98938h-2.70752l-.89721.98481h-1.80494v-.98481c.36011-.39581.54-.59369.90015-.98938v-.98352H349.6814c-.36109.39337-.54151.59009-.90259.98352h-.8999c-.35987.39569-.5398.59357-.89966.98938v.98481h-5.40991c-.72144.78851-1.082,1.1828-1.80347,1.97137v1.97589c.36035.39514.54053.59265.90112.98773h2.70752v1.97309h.8999c.72071-.78931,1.0813-1.1839,1.80225-1.97309h1.80225V33.4668h3.605v1.9757h.89965c.36011-.3963.54-.59454.90015-.99084h1.802v1.97589c.36206.39514.54322.59265.90528.98773v.98517c-.36206.39514-.54322.59284-.90528.98792v.98352c.721.7904,1.08155,1.18561,1.80249,1.97589v.9862h-2.6997c-.36182-.3944-.543-.59167-.90479-.9862v-.98657H349.6814c-1.4419,1.57885-2.16285,2.36834-3.60474,3.94726v.98633h-1.80225c-1.082,1.18365-1.623,1.7757-2.70507,2.95935v.98651c-1.4419,1.57831-2.165,2.36743-3.6001,3.94574.00513,1.18427.00952,1.77649.02051,2.96088H337.084c-.36328-.39423-.54492-.59119-.90722-.98541-.00586-.79017-.0083-1.18531-.01148-1.97547h-6.30883c-.72022.79016-1.07959,1.1853-1.79883,1.97547.00342.78918.00561,1.18371.01074,1.9729-.71729.78808-1.07593,1.18219-1.7937,1.97039.72851.79071,1.0935,1.18622,1.82446,1.977h1.8125c.71436-.79077,1.071-1.18628,1.78467-1.977h.906c.36548.39569.54859.59363.9148.98932.00928.78858.01416,1.1828.02417,1.97132h.905c.36816.39618.55225.5943.92139.9906.01684,1.182.02587,1.773.04345,2.9552h4.52735c.35522-.39405.53271-.591.8872-.98493H343.541c.00732.394.011.59088.01855.98493.36816.39508.55225.59271.92065.98785h4.50562c.73584.78973,1.10352,1.18451,1.83716,1.97424h1.792c.73218.78858,1.09766,1.1828,1.8269,1.97138.00611.3952.009.59283.01465.988.72754.78906,1.09009,1.18365,1.814,1.97277H360.728c.72217.78919,1.08227,1.1839,1.801,1.97321h.887c.00537.78949.00732,1.18426.01074,1.97382-1.06177,1.18444-1.59815,1.77667-2.65869,2.96118C360.78076,84.18079,360.814,85.36426,360.90137,87.731Zm83.96875-1.25849c-.46582.70508-.70459,1.05939-1.19263,1.77021.08032.53668.12134.8059.21167,1.3457-.82788,1.16748-1.25635,1.75427-2.13647,2.92859-3.23877,2.0011-4.78882,3.00311-7.53125,4.98492-.30689-.00244-.45313-.0036-.7334-.006-.63111.48077-.9375.72064-1.53052,1.19959-.50879-.00574-.73535-.00861-1.1499-.01435.13086-.44726.19384-.67138.312-1.11926.58862-.89734.87891-1.34723,1.45019-2.24719-.21582-.00171-.32031-.00251-.52294-.00434.14892-.77557.21093-1.16327.29931-1.93737-.25293-.00141-.376-.002-.61816-.00342-.26636.28991-.39673.43481-.65161.72449-.42408-.003-.62745-.00458-1.03345-.00757-.3.37939-.44556.569-.72778.94787-.37281-.00366-.55738-.00555-.94019-.00927-.35059.51641-.5188.77441-.84229,1.28961-.145-.00183-.219-.00281-.37011-.00464.17895-.66791.26733-1.0022.44067-1.67066.28589-.44183.43311-.663.73682-1.10565.61206-2.16668.90283-3.25146,1.437-5.40747.39233-.46417.59351-.69629,1.00708-1.15979.86255-.00152,1.28442-.0022,2.13989-.00372.40235-.435.60864-.65228,1.03052-1.086.11011-.28851.16455-.43268.27246-.7204.74854-.7605,1.1377-1.13946,1.94165-1.89349.52319-.00061.78662-.001,1.31958-.00171,1.47388-1.31238,2.22241-1.96149,3.83984-3.28919.12891.43689.19288.65558.32105,1.09278.33813,0,.5083,0,.85181-.00006-.20337.42926-.30811.63861-.53028,1.05841-.2539.00006-.38012.00006-.63086.00024-.20117.39014-.30371.58576-.512.97846.179.87506.24878,1.31537.36646,2.201.467-.0008.70532-.00116,1.19336-.0019.67016-1.09069.99267-1.63238,1.60742-2.70416.46875-.3407.70459-.51062,1.177-.84881.15356.58667.22534.88159.365,1.47418-.77539,1.28692-1.18555,1.9389-2.04248,3.25213C444.0293,86.47351,444.304,86.47321,444.87012,86.47247Zm-11.81446-11.7138c.198-.17121.29737-.25678.49756-.428.0896.21332.13379.31976.22193.533-.29688.25567-.4441.38354-.73584.63928-.1814.50562-.27.75836-.44141,1.264l-.4248.0003c-.55274-1.26507-.83814-1.89727-1.43628-3.16131-.239-.50525-.3606-.75788-.60791-1.26319.1167-.337.17578-.50537.29492-.8424-.332-.67762-.5022-1.0163-.85205-1.69379.19287-.66882.29-1.00311.48242-1.67181.321.6098.47729.91479.782,1.52471.37158.7436.55152,1.11548.90039,1.8592.21655.46142.32276.692.5315,1.15338.2832-.00006.42431-.00031.7063-.00037-.15357.40882-.22974.61316-.37964,1.02222C432.78223,74.11975,432.87427,74.3327,433.05566,74.75867Zm2.69092-1.97589c.11768-.28858.177-.43293.2959-.72138.49414-.00043.74121-.00055,1.23486-.00079,1.79175-1.44751,2.72217-2.171,4.592-3.61756.20508.51282.304.76911.49585,1.282-.58447.44818-.87524.6723-1.45263,1.12048.19555.532.28979.79822.47387,1.33032-.95581.73987-1.42724,1.10981-2.34838,1.85-.27808.6181-.416.92718-.68653,1.54559l-1.14551.00073c-.6831.00049-1.02368.00055-1.70605.0011.26562-.67291.40234-1.00921.6792-1.68182C436.00977,73.448,435.92334,73.2262,435.74658,72.78278Zm-.115,5.5263c.38892-.00012.58374-.00018.97363-.00043-.11572.29615-.1726.44416-.28442.7403-.3999.00024-.59961.00024-.999.00031-.103-.27729-.15479-.4159-.25977-.69318-.94555.00043-1.41748.00061-2.36841.001-.10644-.25-.15991-.375-.26757-.625.08374-.25928.12622-.38886.21337-.64808.40943-.0003.61353-.0003,1.02149-.00061l1.489-.06451C435.3457,77.53485,435.44189,77.79291,435.63159,78.30908Zm14.36328,1.4267c-.09692-.3017-.145-.45252-.24023-.75409-.16675-.52814-.24878-.79193-.41162-1.3194-.23169.00006-.34693.00006-.57617.00019-.50342.34948-.75269.52429-1.24488.874-.14575.26245-.2185.3938-.363.65637-.38721.00018-.57886.00031-.95874.00043.11792-.21912.17724-.32874.29638-.54773-.72876.0003-1.08642.00043-1.79175.00073.35865-.27014.54029-.405.9065-.67493.14917-.27929.22436-.41886.37475-.69818-.209-.71673-.31372-1.07489-.52758-1.79089-.29346.00018-.43946.0003-.73023.00037-.12158-.4068-.1831-.61011-.30786-1.01679l-.2395.00018.14966-.29077c.03613.11627.05395.17438.08984.29059.94556-.00049,1.42383-.00079,2.39746-.00152.21826-.403.32764-.60437.54614-1.00727.89112-.00061,1.34253-.00079,2.261-.0014.39062,1.20941.5791,1.81439.96631,3.02569-.25586.44-.38379.6601-.63867,1.10041.2705.8609.40722,1.29156.69091,2.15387C450.38232,79.73578,450.25244,79.73578,449.99487,79.73578Zm6.08765-30.87329c-.36743.40222-.551.60327-.91846,1.00549-.49853.54559-.74756.8183-1.24609,1.36389h-2.00244v.63019l-.51026.55859a11.44944,11.44944,0,0,1-.78955-.98468l.49976-.85931.68384-.798a6.55655,6.55655,0,0,1,1.18676-.15308c.43872-.48022.658-.72034,1.09693-1.20062V47.3009l.12231-1.205a3.82809,3.82809,0,0,1-1.28882-.814v-1.744H454.083c.37011.40515.55517.60785.92529,1.01306v.835c0,.26751-.4314.617-.4314.617a12.74536,12.74536,0,0,1,1.50562,1.2276Zm1.81982-18.93573h4.63623v.67364h-3.13134c-.35181.38526-.52784.57788-.87989.96308.728.79669,1.0918,1.19513,1.81958,1.9917h-3.97534V35.2796c.53687.58777.80518.88159,1.34229,1.4693v2.1734c-1.19214-1.30493-1.78833-1.9574-2.98047-3.26233V32.8764h-3.64453V33.725h-3.84033c-.93042,1.01843-1.39551,1.52758-2.32618,2.54608V37.453h3.186c.67187.73517,1.00757,1.10266,1.6792,1.83789.46875.513.70312.7696,1.17187,1.28272v2.75976c-.7268.79541-1.09009,1.19318-1.81665,1.98859-.52514.57471-.7876.86212-1.31274,1.43689.72656.79535,1.08984,1.19293,1.8164,1.98822v1.54211h-1.58935c-.36206-.3963-.543-.59429-.905-.99047V47.8501c-.46411-.50824-.69653-.76233-1.16089-1.27051h-1.36767c-.40992-.44879-.61475-.67322-1.02491-1.12189-.718.78607-1.07715,1.1792-1.79541,1.96527.553.60523.82959.9079,1.38257,1.51319h1.47632c-.40064.43853-.60107.65783-1.00171,1.09643.93237,1.02057,1.39868,1.53089,2.33081,2.55152a17.3401,17.3401,0,0,1-.08227,1.782c-1.54493,1.55182-2.37989,2.32739-4.114,3.87878l-2.40088.00031c-.918.82739-1.38867,1.24121-2.3457,2.0686.83594,1.32562,1.21436,1.98828,1.91113,3.31348-.21289.60834-.32373.91253-.55078,1.52081-.36181.29169-.543.4375-.905.72919l-1.49243.00073c-.60986-1.22522-.937-1.83783-1.64722-3.06323-.19116.61841-.2915.92773-.498,1.546-.25513.76391-.38819,1.14587-.65943,1.90991.43579.84149.64331,1.26221,1.04053,2.10376-.29.76184-.43677,1.1427-.72852,1.9046-.25268.65985-.3789.98975-.62768,1.6496-.27515-.61438-.4165-.92157-.70728-1.53595.16944-.4566.2544-.68481.42432-1.1413-.33984-.70739-.51538-1.061-.87964-1.76831.21094-.59143.31568-.887.52051-1.47833.33105-1.2771.4895-1.91547.76392-3.1925-.19385-.32868-.29273-.49311-.49415-.8219-.36694.31-.55126.465-.92211.7749.158-.53027.23413-.79547.37866-1.32581-.79883-1.26794-1.22656-1.9021-2.14795-3.17059-.574.00012-.86157.00012-1.43848.00024-.53711.00007-.80615.00007-1.3457.00019-.08838.4613-.13672.692-.23926,1.15338-1.70019,1.48-2.5957,2.22009-4.44751,3.7005-.22119.74463-.33691,1.11688-.57129,1.86151.1919.29828.28711.44733.47608.74548-1.01978.80323-1.53614,1.20472-2.51563,2.00769.06128-.50885.092-.76336.15283-1.27227H419.79c.06909-.21772.10351-.32673.17236-.54438.02661-.22741.0398-.34112.06568-.56854-.20337-.34448-.30518-.51678-.51026-.86127.12012-.39453.17945-.59173.2959-.9862-.48144-.78931-.72534-1.1839-1.23022-1.97321.41381-1.5794.60254-2.369.88671-3.94842-.57763-.78858-.8767-1.18286-1.501-1.97138H412.585c-.31738-.3941-.479-.59112-.80884-.98523h-3.57885c-.66919-.79028-1.01612-1.1853-1.73267-1.97558.0022-.394.00024-.59107.00024-.98511H404.6626c0,.78912.00586,1.18372-.01123,1.97272.70117.7893,1.041,1.1839,1.69726,1.9732h1.77979c.64868.78852.96094,1.1828,1.56177,1.97138h.87963c-.0542.39575-.08325.59363-.14477.98944-2.05615,1.9729-3.10181,2.95929-5.094,4.93219H402.8457c-.27588-.393-.41626-.58942-.70215-.98248.1001-.79023.14771-1.18531.2356-1.97553-.59595-.78967-.90454-1.18451-1.5415-1.97418.05981-.78931.08593-1.1839.12719-1.97321-.66748-.78912-1.01172-1.18371-1.7163-1.97284h-1.78882c-.00684.78913-.01538,1.18372-.03931,1.97284.34375.3935.51343.59027.84839.98377-.05444,1.18542-.09107,1.7782-.17481,2.96362,1.582,1.97229,2.311,2.95837,3.6543,4.93073h4.85816c-.07837.39508-.11792.59259-.197.98767a88.98525,88.98525,0,0,0-7.27539,7.89611c-.06933.78852-.10083,1.1828-.15381,1.97138.2605.39392.3899.59088.64917.9848-.12133,1.97351-.12207,2.96021-.12207,4.93359-1.10107,1.57844-1.65454,2.36762-2.78613,3.946v1.97406h-.71167c-.2854.3941-.42871.59119-.71728.98523v1.97559c-1.15577,1.57836-1.74512,2.36761-2.96778,3.946h-4.84179v-3.946c-.68482-.79023-1.03394-1.18531-1.74927-1.97559V85.21088c-.35889-.39551-.54224-.59339-.90454-.989.00024-.78821.00024-1.18219.00073-1.9704.72314-.78906,1.08691-1.18365,1.78052-1.97277-.00171-.39508-.00269-.59253-.00391-.98761-.698-.78931-1.0542-1.184-1.77563-1.97321v-.9848c-.71753-.78858-1.07593-1.18286-1.79248-1.97138-.00049-1.97534-.001-2.96289-.002-4.93811h-1.79687c-.3606-.39343-.541-.59-.90161-.98352h-2.69092c-.35694.3935-.53516.59009-.8916.98352h-4.47827c-1.79761-1.9729-2.69922-2.95929-4.50708-4.93219-.01343-1.57769-.01978-2.36651-.031-3.94421.35547-.39471.53369-.59192.88965-.98657-.0022-.39514-.00318-.59253-.00537-.98761h-.89649c-.00464-.78931-.00659-1.1839-.00976-1.97321,1.07324-1.18432,1.61132-1.77649,2.69018-2.96081h.905c.35987-.395.5398-.59259.8999-.98761.001-.78858,0-1.1828,0-1.97138.36182-.393.54248-.58954.90406-.98242h4.50708c.35986-.39581.54-.59357.8999-.98938h4.51V50.68c.36035.39447.54053.59168.90112.98627h3.60474c.35986.394.53491.59113.90014.98511h.90113c-.01221-.78858-.00025-1.1828-.00025-1.97138h1.80371c.72144.78858,1.06666,1.1828,1.8042,1.97138h3.6045c.70678-.78858,1.08105-1.1828,1.802-1.97138v-1.9718h-4.50733c-.72094-.78912-1.0813-1.18371-1.80224-1.97284v-.988h-.90113c-.36059.39532-.54077.59283-.90136.988h-.90235V43.77466c-.72046-.78919-1.08056-1.18378-1.801-1.9729h-2.709v1.9729c.72266.78912,1.084,1.18371,1.8064,1.97272h.90259v1.9732h-1.80371c-.36206-.3941-.54322-.59112-.90528-.98523v-.988c-.71875-.789-1.07812-1.1836-1.79687-1.97272h-2.7063c-.72144.78912-1.082,1.18371-1.80371,1.97272v.988c-.35986.39411-.54.59113-.8999.98523h-3.606c-.36035-.3941-.54053-.59112-.90112-.98523V43.77466c.36059-.394.54077-.591.90112-.98487h.90259c.36035.39386.54053.59089.90112.98487h1.80225v-1.9729h-.89966V40.817l.89966-.988h1.801c.72266-.78912,1.08374-1.18359,1.8064-1.97272h.8999c.36084-.3952.54151-.59277.90259-.988h.90112V34.89685h-2.70361V32.92261c.35986-.39466.53979-.59192.8999-.98651h.90259c.36035-.39582.54053-.59363.90112-.98944v-.98377c.3584-.39563.5376-.59338.89575-.989h.90528c.72143-.78931,1.08227-1.1839,1.80371-1.97321h8.11181c.3606.39581.54078.59369.90113.98938v1.97284h.8999c.72-.78912,1.07983-1.18372,1.7998-1.97284h.90528v1.97284h.89966c.72046-.78912,1.08056-1.18372,1.801-1.97284h5.40967V26.01727h1.80249c.36011.39344.5398.59.8999.9834v1.97321h1.80225V27.00067c.72192-.78778,1.083-1.18176,1.80493-1.9696h.90259c.36011-.39679.53979-.59528.89966-.99219h4.51c.11621-.1261.17456-.18921.29077-.31537a4.84373,4.84373,0,0,1,.3164.99176h1.88379c.71289.78034,1.06934,1.17053,1.78223,1.95081h6.70142c.3059.33471.45874.502.7644.83679h3.22412c.626-.6853.939-1.02789,1.56494-1.7132h3.16406c.32227.353.4834.52942.80591.88233h4.96582c.43482.47607.65259.71417,1.08741,1.1903h8.57617C456.77075,28.68811,457.148,29.101,457.90234,29.92676Z"/><path class="cls-2" d="M256.99194,36.28247l.03125.00153h4.96851q2.89855,0,4.14087-1.40039a6.48827,6.48827,0,0,0,1.24194-4.38672V5.51349a.40635.40635,0,0,0-.45972-.459H261.302a.40655.40655,0,0,0-.46069.459v22.7793a2.67511,2.67511,0,0,1-.52881,1.90618,2.2986,2.2986,0,0,1-1.6792.52839h-1.61011l-.01342.00293c-.01123,0-.02076-.00293-.032-.00293h-1.0581a4.13928,4.13928,0,0,1-2.50757-.666,2.3927,2.3927,0,0,1-.989-1.81451V17.408a.405.405,0,0,0-.45679-.459h-5.52759a.40464.40464,0,0,0-.45654.459v9.55279a8.10081,8.10081,0,0,1-.36817,2.91706q-.3684.84951-1.84033.84955h-2.85205c-.01733,0-.03149.004-.04858.00439-.01514-.00037-.02784-.00439-.04322-.00439H222.70142V26.45587a13.244,13.244,0,0,0-.80713-4.9375,7.96319,7.96319,0,0,0-2.19068-3.169,8.339,8.339,0,0,0-3.22729-1.67566,14.59278,14.59278,0,0,0-3.87354-.505,12.90613,12.90613,0,0,0-3.75781.55084,8.56487,8.56487,0,0,0-3.22876,1.791,8.84118,8.84118,0,0,0-2.259,3.26074,12.76494,12.76494,0,0,0-.85254,4.96q0,5.23536,2.415,7.39453,2.41553,2.15928,6.92431,2.15821h4.41651a5.79969,5.79969,0,0,1-.27588,1.95221,2.63714,2.63714,0,0,1-.78223,1.17089,2.92972,2.92972,0,0,1-1.26538.57416,8.42115,8.42115,0,0,1-1.7251.1601h-5.291a.40635.40635,0,0,0-.45972.46V45.24a.406.406,0,0,0,.45972.45892h6.717q4.6604,0,6.86206-2.1123,2.2013-2.11368,2.20142-6.42957V36.284h18.12841c.01734,0,.0315-.00342.04859-.00373.01538.00031.02783.00373.04321.00373h4.73828a14.92662,14.92662,0,0,0,3.95313-.41309,3.42756,3.42756,0,0,0,2.17016-1.88281,3.94546,3.94546,0,0,0,2.15772,1.88281,9.97635,9.97635,0,0,0,3.03686.41309ZM216.2605,30.72736H212.718a4.44533,4.44533,0,0,1-2.82959-.84955q-1.08106-.84962-1.08106-3.376a5.58288,5.58288,0,0,1,.98926-3.4903,3.35638,3.35638,0,0,1,2.82959-1.28607q3.63354,0,3.63428,4.54688Z"/><path class="cls-2" d="M144.67554,34.88361a6.48952,6.48952,0,0,0,1.24218-4.38672V5.51349a.40649.40649,0,0,0-.4602-.459H139.845a.40628.40628,0,0,0-.46045.459v22.7793a2.67741,2.67741,0,0,1-.52881,1.90618,2.299,2.299,0,0,1-1.6792.52839H129.655q-.52955,0-1.03516-.0459a14.70283,14.70283,0,0,0,1.58741-1.30957,10.39011,10.39011,0,0,0,1.44921-1.69922,8.82786,8.82786,0,0,0,1.03492-2.044,6.95537,6.95537,0,0,0,.39111-2.34179,6.5,6.5,0,0,0-.62085-2.82416,5.9639,5.9639,0,0,0-1.95557-2.27344,9.99219,9.99219,0,0,0-3.38159-1.49316,19.64134,19.64134,0,0,0-4.85351-.52735,25.3754,25.3754,0,0,0-3.86451.29779,23.8279,23.8279,0,0,0-3.47387.78131,11.99551,11.99551,0,0,0-2.50708,1.05561q-.96607.57568-.96582,1.17193v2.98438a3.36187,3.36187,0,0,0,.13769,1.08008,1.41225,1.41225,0,0,0,.50611.665,19.70911,19.70911,0,0,1,3.12866,2.73339,9.48392,9.48392,0,0,1,2.07031,3.4668,7.876,7.876,0,0,1-1.72559.27637q-.89757.04532-1.67919.0459h-4.83057l-.02222.00219-.02319-.00219H107.7793a2.29626,2.29626,0,0,1-1.6792-.52839,2.67257,2.67257,0,0,1-.5293-1.90618V5.51349a.40461.40461,0,0,0-.4563-.459H99.58667a.40459.40459,0,0,0-.45654.459v24.9834a6.52065,6.52065,0,0,0,1.23291,4.38672q1.23339,1.40039,4.11157,1.40039h4.54712l.02319-.00171.02222.00171h6.94678a17.67726,17.67726,0,0,0,3.03662-.29883,10.46523,10.46523,0,0,0,3.22046-1.125,8.481,8.481,0,0,0,2.8291,1.125,15.98481,15.98481,0,0,0,3.15161.29883h12.2832Q143.43275,36.284,144.67554,34.88361ZM125.33032,27.3739a9.26474,9.26474,0,0,1-2.55322,2.25086,13.0359,13.0359,0,0,0-1.74829-3.8808,11.30727,11.30727,0,0,0-3.12818-3.19239,7.71846,7.71846,0,0,1,1.60987-.5274,11.44565,11.44565,0,0,1,2.7605-.29877,5.59344,5.59344,0,0,1,3.01342.68848,2.37788,2.37788,0,0,1,1.08106,2.15918A4.497,4.497,0,0,1,125.33032,27.3739Z"/><path class="cls-2" d="M30.15747,43.81616a5.89082,5.89082,0,0,0,2.32324-4.7763,4.66719,4.66719,0,0,0-.27588-1.65339A6.53518,6.53518,0,0,0,31.699,36.284h2.99048q.68958,0,1.56372-.06934a9.16059,9.16059,0,0,0,1.771-.32129,6.8168,6.8168,0,0,0,1.72485-.75781,3.95089,3.95089,0,0,0,1.33448-1.33209,7.309,7.309,0,0,0,3.43432,2.1817,15.45125,15.45125,0,0,0,4.4939.62012,15.11321,15.11321,0,0,0,4.58667-.666,7.32851,7.32851,0,0,0,3.48022-2.3194,4.76344,4.76344,0,0,0,1.29761,1.44733,5.901,5.901,0,0,0,1.57031.80371,7.1476,7.1476,0,0,0,1.70215.34375c.39917.03149.78223.03742,1.16773.04761a4.34608,4.34608,0,0,0,.44189.02173h24.969q2.8982,0,4.14063-1.40039a6.48952,6.48952,0,0,0,1.24219-4.38672V5.51349a.4065.4065,0,0,0-.46021-.459H87.53711a.40631.40631,0,0,0-.46021.459v22.7793a2.67746,2.67746,0,0,1-.5288,1.90618,2.299,2.299,0,0,1-1.6792.52839H62.0166a2.82577,2.82577,0,0,1-1.97827-.71186,3.14109,3.14109,0,0,1-.874-2.2276q0-.27538.0227-.57422c.01538-.19921.0232-.40527.0232-.62011q0-5.23545-2.76661-7.83008a10.41582,10.41582,0,0,0-7.42382-2.59473q-4.88818,0-7.51636,2.457-2.629,2.45655-2.62842,7.04877v.919a4.99466,4.99466,0,0,1-.94263,3.26074,2.61124,2.61124,0,0,1-1.90966.873H29.2605a11.5452,11.5452,0,0,1-2.55322-.27637,21.93178,21.93178,0,0,1-2.46167-.71192q-1.24184-.43515-2.53-.9873-1.28907-.55079-2.76075-1.10156-.41418-.1377-.55175.32129l-1.47217,4.54687a.38459.38459,0,0,0,.27588.55078q2.34558.873,3.97949,1.49225a25.60526,25.60526,0,0,1,2.64551,1.14838,5.07073,5.07073,0,0,1,1.47192,1.05658,1.7989,1.7989,0,0,1,.46021,1.21679,1.61262,1.61262,0,0,1-.92261,1.46985,4.80643,4.80643,0,0,1-1.42969.43647,13.86378,13.86378,0,0,1-2.30591.16009H13.3584a13.057,13.057,0,0,1-2.4209-.22949A6.38887,6.38887,0,0,1,8.74634,38.994,4.70932,4.70932,0,0,1,7.15552,37.3407a5.17679,5.17679,0,0,1-.62281-2.66413,8.79745,8.79745,0,0,1,.5525-3.03131,15.7104,15.7104,0,0,1,1.33447-2.80169.38286.38286,0,0,0-.13819-.59668l-4.67187-2.3418q-.457-.27695-.686.1377A20.33809,20.33809,0,0,0,.89087,30.24487,14.6499,14.6499,0,0,0,0,35.27325,12.01717,12.01717,0,0,0,.73657,39.5907a8.19721,8.19721,0,0,0,2.27686,3.28406,10.579,10.579,0,0,0,3.91064,2.08892,19.12218,19.12218,0,0,0,5.63574.73529H22.81958Q27.83337,45.699,30.15747,43.81616ZM48.99683,21.7254q3.772,0,3.77246,4.63867a5.548,5.548,0,0,1-.92017,3.65143,3.63219,3.63219,0,0,1-2.85229,1.03321,3.64334,3.64334,0,0,1-2.82959-1.03321,5.44371,5.44371,0,0,1-.94312-3.65143Q45.22412,21.72492,48.99683,21.7254Z"/><path class="cls-2" d="M10.812,48.868h4.60132a.459.459,0,0,1,.459.459v4.50092a.459.459,0,0,1-.459.459H10.81067a.45886.45886,0,0,1-.45886-.45886V49.32819A.46021.46021,0,0,1,10.812,48.868Z"/><path class="cls-2" d="M243.0835,40.27905h4.60187a.45892.45892,0,0,1,.45892.45892v4.50208a.45892.45892,0,0,1-.45892.45892H243.0838a.46.46,0,0,1-.46-.46V40.73877A.45972.45972,0,0,1,243.0835,40.27905Z"/><path class="cls-2" d="M176.44214,30.79565q-.62109.43653-1.28882.87311a5.9616,5.9616,0,0,0-1.24194,1.1015,5.37585,5.37585,0,0,0-.94287,1.65345,7.39968,7.39968,0,0,0-.36841,2.54876V45.699h6.5332V37.93726a3.07427,3.07427,0,0,1,.23071-1.3086,2.94713,2.94713,0,0,1,.57666-.82709,6.626,6.626,0,0,1,.71436-.62011,2.92486,2.92486,0,0,0,.69189-.78028,7.46721,7.46721,0,0,0,3.02051,1.69922,13.52761,13.52761,0,0,0,3.80469.50489,15.4104,15.4104,0,0,0,4.03516-.50489,8.11893,8.11893,0,0,0,3.228-1.67669,7.93928,7.93928,0,0,0,2.14453-3.09974,12.5936,12.5936,0,0,0,.78418-4.7304,13.19467,13.19467,0,0,0-.83007-5.0293,8.25612,8.25612,0,0,0-2.23633-3.19141,8.37527,8.37527,0,0,0-3.251-1.69915,15.1059,15.1059,0,0,0-7.74609,0,8.37209,8.37209,0,0,0-3.25147,1.69915,8.25645,8.25645,0,0,0-2.23657,3.19141,13.18565,13.18565,0,0,0-.82959,5.0293v.96484a7.92807,7.92807,0,0,0,.0459.87207A2.56522,2.56522,0,0,1,177.5,29.83087,5.36857,5.36857,0,0,1,176.44214,30.79565Zm11.73144-9.07025q3.74928,0,3.74952,4.63867a5.57157,5.57157,0,0,1-.91407,3.65143,4.37514,4.37514,0,0,1-5.64746,0,5.4657,5.4657,0,0,1-.9375-3.65143Q184.42407,21.72492,188.17358,21.7254Z"/><path class="cls-2" d="M273.35181,5.0545h5.52533a.459.459,0,0,1,.459.459v30.3139a.45654.45654,0,0,1-.45654.45654H273.354a.459.459,0,0,1-.459-.459V5.51129A.45679.45679,0,0,1,273.35181,5.0545Z"/><path class="cls-2" d="M151.89429,5.0545h5.52509a.459.459,0,0,1,.459.459V35.8277a.4563.4563,0,0,1-.4563.4563H151.8938a.4563.4563,0,0,1-.4563-.4563V5.51129A.45679.45679,0,0,1,151.89429,5.0545Z"/><path class="cls-2" d="M17.89551,48.868h4.64771a.46021.46021,0,0,1,.46021.46021v4.499a.45972.45972,0,0,1-.45972.45972H17.89551a.459.459,0,0,1-.459-.459V49.327A.459.459,0,0,1,17.89551,48.868Z"/><path class="cls-2" d="M250.1687,40.27905h4.64673a.46021.46021,0,0,1,.46021.46021V45.239a.46.46,0,0,1-.46.46h-4.64722a.46.46,0,0,1-.46-.46V40.73926A.46021.46021,0,0,1,250.1687,40.27905Z"/><path class="cls-2" d="M142.3313,94.48315a6.48791,6.48791,0,0,0,1.24219-4.38665V65.1131a.40647.40647,0,0,0-.46-.45905h-5.6128a.40642.40642,0,0,0-.46045.45905V87.8924a2.6766,2.6766,0,0,1-.52881,1.90631,2.2999,2.2999,0,0,1-1.67919.52826h-4.18677V71.58868a.4065.4065,0,0,0-.46021-.459h-5.61279a.4064.4064,0,0,0-.46021.459V90.327h-7.31469a.40625.40625,0,0,0-.46021.459v4.63855a.40625.40625,0,0,0,.46021.45905h21.39306Q141.08887,95.88361,142.3313,94.48315Z"/><path class="cls-2" d="M36.51709,95.87927c.03174.00073.05884.00434.09131.00434h4.969q2.8982,0,4.14063-1.40046a6.48919,6.48919,0,0,0,1.24219-4.38665V77.00757a.40681.40681,0,0,0-.4607-.45886H40.88672a.40611.40611,0,0,0-.45972.45886V87.8924a2.6778,2.6778,0,0,1-.52881,1.90631,2.30042,2.30042,0,0,1-1.67968.52826H36.6084c-.01514,0-.0271.00878-.042.00939-.03321-.0014-.06153-.00939-.09571-.00939H31.04224A11.54694,11.54694,0,0,1,28.489,90.0506a21.91608,21.91608,0,0,1-2.46142-.71192q-1.24255-.435-2.53028-.9873-1.28905-.55079-2.76074-1.10162-.41382-.1377-.55176.32135L18.7124,92.118a.38458.38458,0,0,0,.27613.55078q2.34594.873,3.97949,1.49225a25.56815,25.56815,0,0,1,2.64551,1.14838A5.08259,5.08259,0,0,1,27.08569,96.366a1.801,1.801,0,0,1,.45972,1.21679,1.612,1.612,0,0,1-.92212,1.46979,4.80908,4.80908,0,0,1-1.42969.43652,13.87539,13.87539,0,0,1-2.30639.1601H15.14038a13.06629,13.06629,0,0,1-2.4209-.22937,6.3921,6.3921,0,0,1-2.1914-.82623A4.71421,4.71421,0,0,1,8.937,96.94031a5.1793,5.1793,0,0,1-.62231-2.66413,8.80874,8.80874,0,0,1,.552-3.03131,15.71109,15.71109,0,0,1,1.33472-2.80169.38312.38312,0,0,0-.13819-.59668L5.39111,85.5047q-.45666-.27694-.68579.1377a20.33425,20.33425,0,0,0-2.03271,4.2022A14.643,14.643,0,0,0,1.782,94.87286a12.02265,12.02265,0,0,0,.73633,4.31745,8.19654,8.19654,0,0,0,2.27661,3.28406,10.58231,10.58231,0,0,0,3.91089,2.08892,19.12245,19.12245,0,0,0,5.6355.73542h10.26q5.01415,0,7.33789-1.88294a5.89129,5.89129,0,0,0,2.323-4.7763,4.67162,4.67162,0,0,0-.27564-1.65326,6.53327,6.53327,0,0,0-.50586-1.1026h2.99C36.4873,95.88361,36.50073,95.8797,36.51709,95.87927Z"/><path class="cls-2" d="M149.5498,64.65405h5.52557a.459.459,0,0,1,.459.459v30.314a.45654.45654,0,0,1-.45654.45654h-5.52533a.459.459,0,0,1-.459-.459V65.11035A.4563.4563,0,0,1,149.5498,64.65405Z"/><path class="cls-2" d="M19.67822,108.46759h4.64746a.45972.45972,0,0,1,.45972.45972v4.49921a.46.46,0,0,1-.46.46H19.67749a.459.459,0,0,1-.459-.459v-4.50018A.45972.45972,0,0,1,19.67822,108.46759Z"/><path class="cls-2" d="M12.59351,108.46759h4.60138a.45892.45892,0,0,1,.45892.45892v4.50024a.45972.45972,0,0,1-.45972.45972H12.593a.45972.45972,0,0,1-.45972-.45972v-4.499A.46021.46021,0,0,1,12.59351,108.46759Z"/><path class="cls-2" d="M40.84009,66.491h5.7063a.45972.45972,0,0,1,.45972.45972V71.451a.459.459,0,0,1-.459.459H40.84131a.46021.46021,0,0,1-.46021-.46021V66.95A.459.459,0,0,1,40.84009,66.491Z"/><path class="cls-2" d="M121.85791,106.44708v2.06641q0,.3208.27661.32129H132.3938q.27612,0,.27588-.32129v-2.06641q0-.32217-.27588-.32232h-4.60059a3.54288,3.54288,0,0,1-.9436-.91785,2.34563,2.34563,0,0,1-.437-1.42395,1.98257,1.98257,0,0,1,.55249-1.46967,1.9315,1.9315,0,0,1,1.426-.55084,2.881,2.881,0,0,1,2.16211,1.05573c.15357.15332.3064.13769.46021-.0459l1.38037-1.42377a.30663.30663,0,0,0,.0459-.41315,4.61667,4.61667,0,0,0-1.6792-1.30859,5.75245,5.75245,0,0,0-2.55322-.52826,5.93447,5.93447,0,0,0-2.27735.39056,4.17662,4.17662,0,0,0-1.5415,1.05573,4.51177,4.51177,0,0,0-.89722,1.4931,4.82325,4.82325,0,0,0-.29858,1.65326,4.49743,4.49743,0,0,0,.18408,1.33209,5.90928,5.90928,0,0,0,.46,1.10151h-1.70215Q121.8584,106.12476,121.85791,106.44708Z"/><path class="cls-2" d="M278.92212,64.65405h-5.61279a.40642.40642,0,0,0-.46045.45905V87.8924a2.67665,2.67665,0,0,1-.52881,1.90631,2.29993,2.29993,0,0,1-1.6792.52826H268.0188a4.21667,4.21667,0,0,1-2.53027-.64356,2.38348,2.38348,0,0,1-.96631-1.83691V65.1131a.40654.40654,0,0,0-.46021-.45905h-5.61279a.40635.40635,0,0,0-.46021.45905V86.14728q0,1.01075-.04589,1.791a4.30466,4.30466,0,0,1-.25293,1.3086,1.57882,1.57882,0,0,1-.667.80371,2.41219,2.41219,0,0,1-1.24218.27637h-7.522q-.52953,0-1.03515-.0459a14.68564,14.68564,0,0,0,1.5874-1.30957,10.39317,10.39317,0,0,0,1.44922-1.69922,8.82783,8.82783,0,0,0,1.03491-2.044,6.95539,6.95539,0,0,0,.39111-2.3418,6.50025,6.50025,0,0,0-.62085-2.82421,5.9638,5.9638,0,0,0-1.95556-2.27338,9.99231,9.99231,0,0,0-3.38159-1.49323,19.64211,19.64211,0,0,0-4.85352-.52728,25.37763,25.37763,0,0,0-3.8645.29779,23.84344,23.84344,0,0,0-3.47388.78131,11.9969,11.9969,0,0,0-2.50732,1.05573q-.9657.5755-.96558,1.17175v2.98444a3.36155,3.36155,0,0,0,.1377,1.08008,1.4137,1.4137,0,0,0,.5061.665,19.71722,19.71722,0,0,1,3.12866,2.7334,9.48463,9.48463,0,0,1,2.07031,3.4668,7.87588,7.87588,0,0,1-1.72558.27637q-.89759.0455-1.6792.0459h-6.07178a2.82572,2.82572,0,0,1-1.97851-.71192,3.14171,3.14171,0,0,1-.874-2.2276q0-.27538.02271-.57416c.01538-.19922.02319-.40533.02319-.62011q0-5.23527-2.7666-7.83008a10.41645,10.41645,0,0,0-7.42407-2.59473q-4.88782,0-7.51612,2.457-2.629,2.45655-2.62817,7.04877v.919a4.994,4.994,0,0,1-.94312,3.26068,2.61058,2.61058,0,0,1-1.90942.87311h-1.334l-.02393.00213-.022-.00213H197.9978a4.13846,4.13846,0,0,1-2.50732-.666,2.39148,2.39148,0,0,1-.98926-1.81451V65.1131a.40483.40483,0,0,0-.45654-.45905H188.5166a.40446.40446,0,0,0-.4563.45905V94.59747a5.63222,5.63222,0,0,1-1.33447,4.13379,4.97984,4.97984,0,0,1-3.68042,1.332,6.31226,6.31226,0,0,1-1.90894-.29882,4.55959,4.55959,0,0,1-1.70263-.98731,4.94524,4.94524,0,0,1-1.21924-1.79095,7.04372,7.04372,0,0,1-.46-2.71,11.13111,11.13111,0,0,1,.55224-3.62793,23.45187,23.45187,0,0,1,1.19629-2.89355A.58676.58676,0,0,0,179.572,87.41q-.02343-.15975-.25293-.252l-4.969-1.60736q-.50683-.1377-.6897.13769a19.13988,19.13988,0,0,0-1.86328,4.43158,17.09939,17.09939,0,0,0-.66748,4.6612,12.06878,12.06878,0,0,0,.94067,4.9834,9.15215,9.15215,0,0,0,2.54859,3.39843,10.46688,10.46688,0,0,0,3.74267,1.92865,16.14724,16.14724,0,0,0,4.523.62012,16.32187,16.32187,0,0,0,4.56836-.62012,10.01588,10.01588,0,0,0,3.69629-1.92865,9.00781,9.00781,0,0,0,2.45654-3.35254,12.27673,12.27673,0,0,0,.89551-4.9375v-.41308a3.89825,3.89825,0,0,0,1.97778,1.1709,11.62294,11.62294,0,0,0,2.57691.25293l.021-.0022.02491.0022q.68957,0,1.56421-.06934a9.15408,9.15408,0,0,0,1.771-.32129,6.81877,6.81877,0,0,0,1.7251-.75781,3.95232,3.95232,0,0,0,1.33472-1.332,7.309,7.309,0,0,0,3.43408,2.18158,15.44716,15.44716,0,0,0,4.49389.62012,15.10717,15.10717,0,0,0,4.58667-.666,7.32961,7.32961,0,0,0,3.48023-2.31928,4.76744,4.76744,0,0,0,1.29761,1.44721,5.90244,5.90244,0,0,0,1.57031.80365,7.14577,7.14577,0,0,0,1.7019.34381c.51123.04028,1.00635.05591,1.49439.06079.03979.00165.074.00855.115.00855h6.947a17.67005,17.67005,0,0,0,3.03638-.29883,10.46607,10.46607,0,0,0,3.2207-1.125,8.48251,8.48251,0,0,0,2.8291,1.125,15.98488,15.98488,0,0,0,3.15161.29883h11.45557a10.63775,10.63775,0,0,0,3.56543-.48243,3.61422,3.61422,0,0,0,2.00146-1.81347,3.96163,3.96163,0,0,0,2.16211,1.88275,9.84938,9.84938,0,0,0,2.90113.409c.03076.00054.05737.00415.08911.00415h4.9685q2.89857,0,4.14087-1.40046a6.48786,6.48786,0,0,0,1.24219-4.38665V65.1131A.40647.40647,0,0,0,278.92212,64.65405Zm-62.65991,24.961a4.42236,4.42236,0,0,1-5.68189,0,5.44348,5.44348,0,0,1-.94311-3.65137q0-4.63916,3.7727-4.63873,3.77161,0,3.77246,4.63873A5.54767,5.54767,0,0,1,216.26221,89.61505Zm27.67212-2.64154a9.26493,9.26493,0,0,1-2.55323,2.25086,13.03511,13.03511,0,0,0-1.74829-3.8808,11.30659,11.30659,0,0,0-3.12817-3.19239,7.71672,7.71672,0,0,1,1.60986-.52728,11.43911,11.43911,0,0,1,2.7605-.299,5.59338,5.59338,0,0,1,3.01343.68854,2.37839,2.37839,0,0,1,1.08105,2.15918A4.49721,4.49721,0,0,1,243.93433,86.97351Z"/><path class="cls-2" d="M106.53687,66.491h5.7063a.45972.45972,0,0,1,.45972.45972V71.451a.459.459,0,0,1-.459.459h-5.70605a.46.46,0,0,1-.46-.46V66.95A.459.459,0,0,1,106.53687,66.491Z"/><path class="cls-2" d="M57.36548,95.88361h4.54663l.02393-.00171.02148.00171h5.521a10.77841,10.77841,0,0,0,3.63452-.48243A3.40926,3.40926,0,0,0,73.04492,93.449a4.49957,4.49957,0,0,0,1.74878,1.76862,5.8133,5.8133,0,0,0,2.94434.666h1.79443a10.18128,10.18128,0,0,0,3.56543-.505A3.49716,3.49716,0,0,0,85.053,93.449a4.54008,4.54008,0,0,0,1.72534,1.76862,5.68534,5.68534,0,0,0,2.92139.666h2.53051a7.84781,7.84781,0,0,0,2.8523-.48243A3.461,3.461,0,0,0,96.969,93.58771a3.96163,3.96163,0,0,0,2.16211,1.88275,9.97389,9.97389,0,0,0,3.03662.41315c.01539,0,.02808-.00415.04322-.00446.03271.00085.06079.00446.09448.00446h4.96875q2.8982,0,4.14062-1.40046A6.48786,6.48786,0,0,0,112.657,90.0965V77.00757a.40673.40673,0,0,0-.46045-.45886h-5.613a.40611.40611,0,0,0-.45972.45886V87.8924a2.67665,2.67665,0,0,1-.52881,1.90631,2.30044,2.30044,0,0,1-1.67969.52826h-1.60986c-.01465,0-.02612.00854-.04077.009-.03345-.00134-.0625-.009-.09693-.009h-1.0581a4.137,4.137,0,0,1-2.50733-.666A2.3915,2.3915,0,0,1,97.613,87.8465V77.00757a.40638.40638,0,0,0-.46-.45886h-5.6128a.40624.40624,0,0,0-.46045.45886V87.01941q0,.91974-.04589,1.539a2.32462,2.32462,0,0,1-.27613,1.01074,1.35211,1.35211,0,0,1-.69018.57325,3.7407,3.7407,0,0,1-1.33423.18457,4.63156,4.63156,0,0,1-2.13892-.48237,2.07211,2.07211,0,0,1-.94336-2.044V80.31427a.40652.40652,0,0,0-.4602-.459H79.57837a.406.406,0,0,0-.46.459v6.75189a14.23024,14.23024,0,0,1-.06934,1.53815,2.34785,2.34785,0,0,1-.29907.98724,1.38374,1.38374,0,0,1-.75928.55085,4.36708,4.36708,0,0,1-1.40332.18457,4.12378,4.12378,0,0,1-2.02368-.50586,2.0431,2.0431,0,0,1-.92041-1.97461V80.31427a.40652.40652,0,0,0-.4602-.459h-5.6128a.406.406,0,0,0-.45971.459v6.88959a5.63257,5.63257,0,0,1-.36817,2.45715q-.3684.66495-1.70215.666H61.95752l-.02246.00219-.023-.00219H60.66992a2.29722,2.29722,0,0,1-1.6792-.52826,2.67308,2.67308,0,0,1-.52905-1.90631V65.1131a.40483.40483,0,0,0-.45654-.45905H52.47729a.4048.4048,0,0,0-.45678.45905V90.0965a6.52167,6.52167,0,0,0,1.23291,4.38665Q54.48719,95.88364,57.36548,95.88361Z"/><path class="cls-2" d="M188.17358,124.90079l7.79761-.4387c.38982.926.8774,1.852.92628,2.09574.92567,2.14431,1.9491,2.97283,4.38577,2.97283,2.6322,0,3.80165-1.36468,4.24035-4.62987l5.99454-.34124a12.30451,12.30451,0,0,1,.04888,1.41324c0,6.82337-4.14259,11.06341-8.82164,11.06341a5.76228,5.76228,0,0,1-2.8265-.58472c1.36437,4.28862,2.38841,12.33032,2.38841,20.12823h-7.35952C194.94776,144.49287,192.99805,134.74556,188.17358,124.90079Z"/><path class="cls-2" d="M214.54076,141.27625c0-4.28893,2.77761-6.92051,6.677-6.92051,3.801,0,6.62815,2.63158,6.62815,6.92051,0,4.24-2.82711,6.77449-6.62815,6.77449h-.04888C217.31837,148.05074,214.54076,145.46773,214.54076,141.27625Z"/><path class="cls-2" d="M230.81968,124.90079l7.79761-.4387c.38982.926.8774,1.852.92628,2.09574.92567,2.14431,1.94909,2.97283,4.38577,2.97283,2.6322,0,3.80165-1.36468,4.24035-4.62987l5.99454-.34124a12.30451,12.30451,0,0,1,.04888,1.41324c0,6.82337-4.14259,11.06341-8.82164,11.06341a5.76228,5.76228,0,0,1-2.8265-.58472c1.36437,4.28862,2.38841,12.33032,2.38841,20.12823h-7.35952C237.59386,144.49287,235.64415,134.74556,230.81968,124.90079Z"/><path class="cls-2" d="M255.77361,124.90079l7.79822-.4387c.38982.926.87679,1.852.92567,2.09574.92628,2.14431,1.9497,2.97283,4.38638,2.97283,2.63158,0,3.80165-1.36468,4.24035-4.62987l5.99454-.34124a12.30451,12.30451,0,0,1,.04888,1.41324c0,6.82337-4.1432,11.06341-8.82164,11.06341a5.76078,5.76078,0,0,1-2.8265-.58472c1.36437,4.28862,2.3878,12.33032,2.3878,20.12823h-7.35952C262.54779,144.49287,260.59869,134.74556,255.77361,124.90079Z"/></g></svg>