<svg xmlns="http://www.w3.org/2000/svg" viewBox="0 0 608.23831 163.83198"><defs><style>.cls-1{fill:none;}.cls-2{fill:#3cb4dc;}</style></defs><g id="french"><path class="cls-1" d="M130.2211,79.8018c-.20874-.46143-.31469-.69189-.53125-1.15332-.34936-.74365-.52905-1.11572-.90039-1.85938-.30493-.60986-.46118-.91479-.78222-1.52465-.19239.6687-.28955,1.00317-.48243,1.67187.34986.67749.52,1.01611.85206,1.69385-.11915.33691-.178.50537-.29493.84228.24756.50538.3689.75806.60791,1.26319.59839,1.26391.88355,1.89624,1.43628,3.16137.17017,0,.25513-.00024.42481-.00048.17138-.50537.26-.7583.4414-1.26392.29175-.25561.439-.38354.73584-.63916-.08789-.21313-.13232-.31982-.22192-.533-.2002.17114-.29956.25684-.49731.42774-.18165-.42579-.27369-.63868-.46094-1.0647.1499-.40894.22583-.61328.37939-1.02222C130.64566,79.80156,130.50431,79.8018,130.2211,79.8018Z"/><path class="cls-1" d="M135.15909,82.702c.45777-.00025.68628-.00049,1.14551-.00074.27051-.6184.40845-.92749.68628-1.54565.92139-.74023,1.39282-1.11011,2.34863-1.84985-.18384-.53223-.27832-.79834-.47363-1.33057.57715-.448.86792-.67212,1.45264-1.12036-.19214-.51294-.291-.76929-.4961-1.282-1.86987,1.44653-2.80029,2.16992-4.592,3.61743-.4939.00024-.74048.00049-1.23486.00073-.1189.28857-.178.43286-.2959.72144.17676.4436.26318.66528.43262,1.10864-.27686.67285-.41358,1.009-.67945,1.68188C134.13541,82.70243,134.47623,82.70243,135.15909,82.702Z"/><path class="cls-1" d="M143.12516,88.87773c-.47242.33813-.708.508-1.17676.84887-.61524,1.07178-.9375,1.61329-1.60791,2.70411-.48779.00073-.72608.001-1.19312.00195-.11767-.88574-.1875-1.32617-.36645-2.20117.20825-.39258.31054-.58838.512-.97852.25073,0,.37695,0,.6311-.00024.22217-.41968.32666-.62915.53-1.05835h-.8518c-.12793-.437-.1919-.65576-.3208-1.09278-1.61768,1.32764-2.36621,1.97681-3.84009,3.28931-.533.00073-.79639.001-1.31958.00171-.804.75391-1.19287,1.13281-1.94141,1.89356-.10791.28759-.1626.43188-.273.72021-.42163.43384-.62793.65112-1.03027,1.08594-.85547.00171-1.27734.00244-2.13965.0039-.41382.46338-.61475.69556-1.00732,1.15967-.53418,2.156-.82471,3.241-1.437,5.40772-.30371.44238-.45068.66357-.73681,1.10547-.17334.66845-.26172,1.00292-.44068,1.67065.15113.00171.22486.00269.37012.00464.32349-.51514.4917-.7732.84253-1.28955.38257.00366.56714.00561.93994.00927.28223-.3789.42774-.5686.72779-.948.406.00317.60937.00464,1.03344.00757.25489-.28956.38526-.43458.65161-.72437.24219.00122.36548.002.61817.00342-.08838.77417-.15039,1.16186-.29907,1.93725.20263.002.30688.00269.5227.0044-.571.8999-.86157,1.34985-1.45,2.24707-.11816.448-.18115.67212-.312,1.11938.41455.00562.64087.00855,1.1499.01441.59277-.479.89917-.71875,1.53027-1.19971.28028.00244.42652.00366.7334.0061,2.74243-1.98193,4.29248-2.98388,7.53125-4.9851.88037-1.17408,1.30884-1.761,2.13648-2.92847-.09033-.5398-.13135-.80884-.21167-1.3457.488-.7107.7268-1.06519,1.19287-1.77027-.56641.00074-.84107.001-1.37549.002.85693-1.31324,1.26685-1.96534,2.04248-3.2522C143.3505,89.75932,143.279,89.4644,143.12516,88.87773Z"/><path class="cls-1" d="M66.57633,65.70268c.002.395.00293.59253.00537.98755-.3562.39477-.53418.592-.88965.98657.01074,1.57764.01733,2.3667.03076,3.94434,1.80786,1.9729,2.70948,2.95922,4.50733,4.93212h4.478c.35645-.39331.53492-.58984.89161-.98339h2.69091l.90161.98339h1.79688c.001,1.9751.00146,2.9629.0022,4.938.71631.78858,1.0747,1.18286,1.79223,1.97144v.98486c.72144.78931,1.07788,1.18384,1.77588,1.97315.00122.39526.002.59253.00366.98755-.69335.7893-1.05737,1.18383-1.78051,1.9729-.00049.78833-.00049,1.18237-.00074,1.97045.36231.39551.5459.59351.90455.989v3.9458c.71533.79028,1.06469,1.18555,1.74926,1.97559v3.946h4.8418c1.22266-1.57837,1.81226-2.36768,2.96777-3.946V96.28642c.28858-.3938.43189-.59107.71729-.98511h.71167V93.32719c1.13159-1.57837,1.68506-2.36768,2.78638-3.946,0-1.97339.00048-2.96021.12182-4.9336-.259-.3938-.38867-.59082-.64917-.98486.05322-.78858.08447-1.18286.15381-1.97144a89.039,89.039,0,0,1,7.27539-7.896c.0791-.395.11865-.59253.197-.9878H99.70133c-1.34326-1.97216-2.07227-2.95825-3.6543-4.93066.08374-1.1853.12061-1.77808.17481-2.96338-.335-.39355-.50464-.59033-.84839-.98389.02417-.78906.03247-1.18383.0393-1.9729h1.78882c.70484.78907,1.04907,1.18384,1.71655,1.9729-.0415.78931-.06762,1.18384-.12744,1.97315.63721.78955.9458,1.18457,1.54151,1.97412-.08765.79028-.1355,1.1853-.23535,1.97559.28564.39306.42627.58935.70214.98242h2.48511c1.99219-1.9729,3.03784-2.95923,5.094-4.93213.06152-.39575.09057-.59375.145-.98926h-.87989c-.60083-.78882-.91308-1.1831-1.56177-1.97168h-1.77954c-.65625-.78906-.99609-1.18384-1.69751-1.97314.01709-.78907.011-1.1836.011-1.97266h1.80249c0,.394.0022.59107-.00024.98511.71655.79028,1.06347,1.1853,1.73266,1.97558h3.5791c.32959.39429.49146.59107.8086.98511h5.38428c.62426.78858.92334,1.18286,1.50122,1.97168-.28418,1.57935-.47315,2.3689-.887,3.94824.50464.78931.74878,1.18384,1.23047,1.97315-.1167.39453-.176.59179-.29614.98633.20508.34448.30688.5166.51025.86132-.02588.2273-.03906.34107-.06567.56836-.0686.21778-.10327.32666-.17236.54444h.10815c-.06055.50879-.09131.76342-.15259,1.27221.97925-.803,1.49585-1.20434,2.51538-2.00756-.189-.29834-.28418-.44727-.47607-.74561.23437-.74463.3501-1.1167.57153-1.86133,1.85181-1.48047,2.74732-2.2207,4.44727-3.70068.10278-.46143.15063-.6919.23926-1.15332.53955,0,.80883,0,1.3457-.00025.5769,0,.8645,0,1.43872-.00024.92139,1.26855,1.34888,1.90283,2.1477,3.17065-.14453.53028-.22094.79566-.37866,1.32593.37085-.31006.55518-.46484.92237-.7749.20117.32861.30029.49316.49389.82178-.27417,1.2771-.43286,1.91552-.76391,3.19262-.20484.59107-.30957.887-.52051,1.47828.36426.70727.53979,1.06079.87964,1.76831-.16992.45629-.25489.68457-.42408,1.14135.29053.61426.43189.92139.707,1.53589.24878-.65991.375-.98974.62768-1.64966.29175-.76172.43872-1.14282.72876-1.90454-.39746-.84155-.605-1.26245-1.04077-2.10376.27124-.76416.40454-1.146.65942-1.90991.20655-.61841.30689-.92749.49805-1.54614.71021,1.22558,1.03735,1.83813,1.64722,3.06323.59814-.00024.89648-.00024,1.49243-.00073.36206-.29151.54321-.4375.90478-.729.22754-.60839.33838-.91259.55079-1.521-.69629-1.3252-1.07471-1.98779-1.91065-3.31348.95679-.82739,1.42774-1.24121,2.3457-2.0686.96119,0,1.44092-.00025,2.40088-.00025,1.73389-1.55127,2.56885-2.3269,4.11377-3.8789a17.33217,17.33217,0,0,0,.08252-1.78174c-.93262-1.02075-1.39844-1.531-2.33105-2.55176.40063-.43847.60107-.65771,1.00171-1.09619h-1.47632c-.553-.60547-.82959-.9082-1.38233-1.51318.718-.78614,1.07715-1.1792,1.79541-1.96534.40992.44874.61475.6731,1.02491,1.12183h1.36767c.46436.50806.69629.76221,1.16065,1.27051v1.44848c.36206.39625.543.59424.905.99073h1.58935V55.87675c-.72656-.79516-1.08984-1.19287-1.8164-1.98828.52514-.57471.78759-.86206,1.31274-1.43677.72656-.79541,1.08984-1.19336,1.81665-1.98877V47.70317c-.46875-.51294-.70313-.76953-1.17188-1.28272-.67163-.7351-1.00756-1.10254-1.679-1.83789h-3.186V43.40092c.93042-1.01855,1.39551-1.52783,2.32618-2.54639h3.84008v-.84838h3.64454v2.78344L155.6669,46.052V43.87846c-.53686-.58765-.80542-.88135-1.34253-1.46924V40.68486H158.3c-.72778-.79663-1.0918-1.19507-1.81934-1.9917.35181-.38526.52784-.57788.87989-.96314h3.13135v-.67358h-4.63648c-.75439-.82568-1.13159-1.23853-1.886-2.06445h-8.57617c-.43506-.47608-.65234-.71412-1.0874-1.19019H139.34c-.32227-.353-.48364-.5293-.80591-.88232H135.37c-.626.685-.93872,1.02783-1.56494,1.71313h-3.22388c-.30591-.33472-.45874-.5022-.7644-.83691h-6.70166L121.33292,31.845h-1.88379a4.82635,4.82635,0,0,0-.31641-.99194c-.11645.12622-.17456.18945-.29077.31543h-4.50976c-.35987.397-.5398.59546-.8999.99219h-.90235c-.72217.78784-1.083,1.18188-1.80517,1.96972v1.97315h-1.80225V34.13041c-.35986-.39355-.54-.59008-.8999-.9834h-1.80249v1.97266H100.8107c-.7207.78906-1.08081,1.18384-1.80127,1.9729h-.89965v-1.9729H97.2045c-.72.78906-1.07983,1.18384-1.79956,1.9729H94.505v-1.9729c-.3606-.39551-.54077-.5935-.90137-.98926H85.49186c-.72144.78931-1.082,1.18384-1.80372,1.97315h-.90527c-.3584.39551-.5376.5935-.89575.989v.98389c-.3606.39575-.54077.5935-.90112.98926h-.90259c-.35987.39477-.5398.592-.89966.98657v1.97412h2.70337v1.97168H80.986c-.36109.395-.54151.59277-.90259.98779h-.89966l-1.80664,1.97266H75.57633c-.35987.39526-.54.593-.8999.98828v.98462h.8999v1.9729H73.77384c-.36035-.394-.54077-.59082-.90113-.98486h-.90258c-.36035.394-.54053.59082-.90113.98486V53.865c.3606.39429.54078.59107.90113.98511h3.6062c.35986-.394.53979-.59082.8999-.98511v-.988c.72144-.78907,1.082-1.1836,1.80371-1.97266H80.986L82.78287,52.877v.988c.36206.39429.54321.59107.90527.98511h1.80372V52.877h-.90235l-1.80664-1.97266v-1.9729h2.709c.72045.78906,1.08056,1.18384,1.801,1.9729V53.865h.90234c.3606-.39526.54078-.59253.90137-.988h.90112v.988c.721.78907,1.08155,1.18384,1.80249,1.9729h4.50709v1.97168c-.72095.78858-1.09522,1.18286-1.80176,1.97144H90.90079c-.73755-.78858-1.08276-1.18286-1.8042-1.97144H87.29288c0,.78858-.012,1.18286.00024,1.97144h-.90087c-.36524-.394-.54053-.59107-.90039-.98511H81.88712c-.3606-.39453-.54077-.5918-.90112-.98633V55.83793H76.47623c-.36011.39575-.54.59351-.8999.98926H71.069c-.36157.39307-.54223.58936-.9038.98242,0,.78858.00048,1.18286,0,1.97144-.36036.395-.54053.59253-.90015.98755H68.36c-1.07861,1.18432-1.6167,1.77661-2.69019,2.96093.00318.78931.00513,1.18384.00977,1.97315Z"/><path class="cls-1" d="M152.96158,52.51567v-.835c-.37012-.40528-.55542-.60791-.92554-1.01319h-1.16625v1.74414a3.82239,3.82239,0,0,0,1.28857.814l-.12232,1.20508v1.124c-.43872.48022-.6582.72021-1.09692,1.20068a6.562,6.562,0,0,0-1.18652.15284l-.68408.79809-.49976.85938a11.50181,11.50181,0,0,0,.78931.98462c.20434-.22339.30639-.33521.51049-.5586v-.63013h2.00269c.49829-.54565.74756-.81835,1.24585-1.364l.9187-1.00537V54.36039a12.73611,12.73611,0,0,0-1.50586-1.22778S152.96158,52.78325,152.96158,52.51567Z"/><path class="cls-1" d="M131.61393,84.21293c-.40772.00049-.61182.00049-1.02149.00074-.08691.25927-.12964.38891-.21338.64819.10767.25.16114.375.26758.625.95093-.00049,1.42285-.00073,2.36865-.001.1045.27735.1565.41577.25977.69312.39917-.00025.59863-.00025.999-.00025.11182-.29638.16846-.44433.28418-.74023-.38989,0-.58447.00024-.97363.00024-.1897-.51611-.28589-.77417-.48169-1.29028C132.50724,84.17436,132.21012,84.1873,131.61393,84.21293Z"/><path class="cls-1" d="M142.134,81.59575c.0957,0,.14355,0,.2395-.00025l-.0896-.29053C142.22379,81.42143,142.194,81.47953,142.134,81.59575Z"/><path class="cls-1" d="M148.54435,83.61113c-.38721-1.21143-.57569-1.81641-.96656-3.02564l-2.26074.00122c-.21826.40308-.32764.60425-.54614,1.00733-.97339.00073-1.45191.001-2.39746.00146.12475.40674.18628.61011.30786,1.01685.29077,0,.43677-.00025.73022-.00049.21411.71606.31861,1.07422.52759,1.791-.15039.2793-.22558.419-.37475.69825-.36622.26977-.54761.40478-.9065.6748.70532-.00024,1.063-.00049,1.792-.00073-.11914.219-.17871.32861-.29663.54785.37989-.00024.57154-.00024.95874-.00049.14453-.26245.21729-.3938.36328-.65649.492-.34961.74121-.52442,1.24463-.874h.57617c.16309.52735.24512.79126.41163,1.31934.09521.30176.14331.45239.24023.75415.25757,0,.38745,0,.64893-.00024-.28394-.86231-.42041-1.293-.69092-2.15381C148.16056,84.271,148.28849,84.05107,148.54435,83.61113Z"/><path class="cls-1" d="M37.18863,90.91386c.7461.78857,1.12207,1.18262,1.87891,1.97144h1.81592c.13574,3.55273.272,5.3291.52734,8.88183l.99.98511c.0874,1.18433.13159,1.77661.21631,2.96069.78979.78931,1.18408,1.18384,1.967,1.9729.10815,1.57959.15845,2.36939.23755,3.94873.38452.39331.57568.59009.95581.98365.052,1.1853.07251,1.77783.09644,2.96338.74194.7893,1.105,1.18408,1.82128,1.97314h2.6587c-.00708-1.97461-.03687-2.96191-.12207-4.93652H49.3505c-.37036-.39356-.55689-.59034-.93189-.98365-.01977-.39453-.03027-.59179-.05224-.98657.33374-.39453.49951-.5918.83008-.98657-.04712-.79028-.07276-1.1853-.12574-1.97559.65528-.78906.98072-1.18359,1.63037-1.9729h1.75318c.97241-1.18408,1.45654-1.77636,2.43066-2.96069-.12549-1.97339-.19018-2.96021-.30029-4.93359.32934-.39405.49463-.59107.82568-.98511h1.76563c.6665-.78906,1.00219-1.1836,1.67871-1.9729-.08765-2.3667-.12085-3.55-.13355-5.91675C59.78165,87.75932,60.318,87.167,61.38,85.98246c-.00342-.7893-.00562-1.18408-.011-1.97363h-.887c-.71875-.78931-1.07886-1.18408-1.801-1.97314H54.22354c-.72387-.78907-1.08667-1.18384-1.81372-1.9729-.00586-.39527-.00878-.59278-.01489-.988-.72925-.78857-1.09473-1.18286-1.8269-1.97144H48.776c-.73365-.78955-1.10108-1.18432-1.83716-1.97412H42.43326c-.36816-.39526-.55224-.59277-.92065-.988-.00733-.3938-.011-.59082-.01856-.98487H38.779c-.355.39405-.53222.59107-.8872.98487H33.36417c-.01758-1.18213-.02661-1.77295-.0437-2.95508-.36865-.39624-.553-.59448-.92139-.99073H31.4943c-.01-.78833-.0149-1.18261-.02417-1.97119-.36621-.39575-.54908-.59375-.9148-.98925h-.90625c-.71338.79052-1.07031,1.186-1.78442,1.97705h-1.8125c-.731-.791-1.096-1.18653-1.82446-1.97705.71777-.78809,1.07617-1.18238,1.7937-1.97046-.00513-.78931-.00733-1.1836-.01075-1.9729.71924-.79,1.07886-1.18531,1.79908-1.97559h6.30859c.00342.79028.00562,1.18555.01147,1.97559.36255.39428.544.5913.90723.98535h.906c-.01123-1.18433-.01563-1.77637-.02075-2.96094,1.435-1.57812,2.15844-2.36719,3.60034-3.94556v-.98657c1.082-1.18359,1.6228-1.77563,2.70483-2.95947H44.0297V52.438c1.44189-1.57861,2.16284-2.36816,3.60473-3.94727h3.602v.98682c.36206.39453.54322.5918.90528.98609h2.69946v-.98609c-.721-.79053-1.08154-1.18555-1.80225-1.97607v-.9834c.36207-.395.543-.59277.905-.98779V44.545c-.36206-.395-.543-.59253-.905-.98779V41.58134H51.23648c-.35986.39624-.53979.59448-.8999.991h-.8999V40.59648H45.83219V44.545H44.0297c-.72095.78907-1.0813,1.18384-1.80225,1.97315h-.8999V44.545H38.61979c-.36036-.395-.54053-.59253-.90088-.98779V41.58134c.72143-.78857,1.082-1.18286,1.80371-1.97143h5.40967V38.625c.35986-.39575.53979-.5935.8999-.98926h.89966c.36108-.39355.5415-.59008.90258-.98339h3.602v.98339c-.35986.39576-.53979.59351-.8999.98926v.98487h1.80518c.35888-.3938.53808-.59082.89721-.98487h2.70728v-.98926c-.7207-.78857-1.0813-1.18286-1.80225-1.97143h-.905c-.72094-.78858-1.08154-1.18286-1.80249-1.97144H46.73185c-.35987.395-.5398.59253-.89966.9878v1.97168H44.0297v-.988c.36108-.39356.54175-.59033.90259-.98364v-.9878H42.22745v2.95948c-.35986.39331-.53979.58984-.8999.98339H37.71891v-.98339h1.80371v-.988c-.36109-.39356-.54175-.59033-.90283-.98364H36.81754V32.70488H32.31168v.988c.36157.395.54248.59253.90381.9878v2.95507h-.90381c-.721-.78857-1.0813-1.18286-1.80225-1.97143H26.00211l-.90381.988H20.59781l-.90259-.988h-5.407c-.721.78857-1.08154,1.18286-1.80249,1.97143H10.68082c-.36035.39576-.54053.59351-.90112.98926v.98487H7.0734c-.36035.39453-.54053.592-.90088.98657v.98486c.36035.39624.54053.59448.90088.991h3.60742c.3606-.39649.54077-.59473.90112-.991h3.60743c.72094.79053,1.08129,1.18555,1.80249,1.97583v1.97315c.35937.395.53906.59277.89843.98779v2.95947c-.72.78955-1.07983,1.18433-1.7998,1.97412V52.438c-.72095.79-1.0813,1.18482-1.80225,1.97437v2.958c.36035.39624.54053.59449.90113.991,0,1.97192-.0022,2.958-.00074,4.93018.72168.7893,1.083,1.18359,1.80664,1.9729.35913-.395.53858-.59253.89771-.98755-.36084-.394-.54077-.59107-.90112-.98535-.00147-1.18482-.00171-1.7771-.00074-2.96192h.89868c-.00048.78906-.00048,1.1836.00025,1.97266,1.08447,1.18481,1.62768,1.77734,2.717,2.96216.00146.39306.00244.5896.00391.98242-.35987.39526-.54.59277-.90015.988.00171.3955.00269.5935.00464.98925.72607.78858,1.08935,1.18286,1.81787,1.97119h.90771c.3628.39625.54444.59449.90772.99073h3.63086c.0039.39282.0061.58935.01025.98242h2.71558c.73608.78906,1.10449,1.18359,1.84228,1.97266l.01343.988c.36865.3938.553.59082.92188.98487h2.72021c.0188,1.18432.02783,1.77636.04492,2.96069-.71338.78979-1.071,1.18457-1.78759,1.97412.01879,1.5791.02685,2.36865.03833,3.94751.73291.79028,1.09912,1.1853,1.82934,1.97559.00171.39282.00244.58935.00342.98217.73218.791,1.09717,1.18653,1.83838,1.97754C37.17594,90.32451,37.17984,90.521,37.18863,90.91386Z"/><path class="cls-2" d="M83.64762,163.87455,131.73575,115.794c22.21607-22.08325,35.46314-41.05493,35.46314-62.7395,0-25.84668-20.07984-45.92481-45.93384-45.92481A49.63274,49.63274,0,0,0,83.64762,24.67582,49.63194,49.63194,0,0,0,46.03043,7.12968c-25.854,0-45.93384,20.07813-45.93384,45.92481,0,21.68457,13.24707,40.65625,35.46314,62.7395ZM142.8234,93.60209c-.46607.70508-.70484,1.05957-1.19287,1.77027.08032.53686.12134.8059.21167,1.3457-.82764,1.16748-1.25611,1.75439-2.13648,2.92847-3.23877,2.00122-4.78882,3.00317-7.53125,4.9851-.30688-.00244-.45312-.00366-.7334-.0061-.6311.481-.9375.7207-1.53027,1.19971-.509-.00586-.73535-.00879-1.1499-.01441.13086-.44726.19385-.67138.312-1.11938.58838-.89722.87891-1.34717,1.45-2.24707-.21582-.00171-.32007-.00244-.5227-.0044.14868-.77539.21069-1.16308.29907-1.93725-.25269-.00147-.376-.0022-.61817-.00342-.26635.28979-.39672.43481-.65161.72437-.42407-.00293-.62744-.0044-1.03344-.00757-.3.37939-.44556.56909-.72779.948-.3728-.00366-.55737-.00561-.93994-.00927-.35083.51635-.519.77441-.84253,1.28955-.14526-.00195-.219-.00293-.37012-.00464.179-.66773.26734-1.0022.44068-1.67065.28613-.4419.4331-.66309.73681-1.10547.61231-2.16675.90284-3.25171,1.437-5.40772.39257-.46411.5935-.69629,1.00732-1.15967.86231-.00146,1.28418-.00219,2.13965-.0039.40234-.43482.60864-.6521,1.03027-1.08594.11035-.28833.165-.43262.273-.72021.74854-.76075,1.13745-1.13965,1.94141-1.89356.52319-.00073.78662-.001,1.31958-.00171,1.47388-1.3125,2.22241-1.96167,3.84009-3.28931.1289.437.19287.65577.3208,1.09278h.8518c-.20337.4292-.30786.63867-.53,1.05835-.25415.00024-.38037.00024-.6311.00024-.20142.39014-.30371.58594-.512.97852.17895.875.24878,1.31543.36645,2.20117.467-.001.70533-.00122,1.19312-.00195.67041-1.09082.99267-1.63233,1.60791-2.70411.46875-.34082.70434-.51074,1.17676-.84887.1538.58667.22534.88159.36523,1.47412-.77563,1.28686-1.18555,1.939-2.04248,3.2522C141.98233,93.60307,142.257,93.60283,142.8234,93.60209ZM131.009,81.88823c.19775-.1709.29711-.2566.49731-.42774.0896.21314.134.31983.22192.533-.29687.25562-.44409.38355-.73584.63916-.18139.50562-.27.75855-.4414,1.26392-.16968.00024-.25464.00048-.42481.00048-.55273-1.26513-.83789-1.89746-1.43628-3.16137-.239-.50513-.36035-.75781-.60791-1.26319.117-.33691.17578-.50537.29493-.84228-.332-.67774-.5022-1.01636-.85206-1.69385.19288-.6687.29-1.00317.48243-1.67187.321.60986.47729.91479.78222,1.52465.37134.74366.551,1.11573.90039,1.85938.21656.46143.32251.69189.53125,1.15332.28321,0,.42456-.00024.7063-.00049-.15356.40894-.22949.61328-.37939,1.02222C130.73526,81.24955,130.8273,81.46244,131.009,81.88823Zm2.69067-1.97583c.11792-.28858.177-.43287.2959-.72144.49438-.00024.741-.00049,1.23486-.00073,1.79175-1.44751,2.72217-2.1709,4.592-3.61743.20508.51269.304.769.4961,1.282-.58472.44824-.87549.67236-1.45264,1.12036.19531.53223.28979.79834.47363,1.33057-.95581.73974-1.42724,1.10962-2.34863,1.84985-.27783.61816-.41577.92725-.68628,1.54565-.45923.00025-.68774.00049-1.14551.00074-.68286.00048-1.02368.00048-1.7063.001.26587-.67285.40259-1.009.67945-1.68188C133.9628,80.57768,133.87638,80.356,133.69962,79.9124Zm-.115,5.52636c.38916,0,.58374-.00024.97363-.00024-.11572.2959-.17236.44385-.28418.74023-.40039,0-.59985,0-.999.00025-.10327-.27735-.15527-.41577-.25977-.69312-.9458.00025-1.41772.00049-2.36865.001-.10644-.25-.15991-.375-.26758-.625.08374-.25928.12647-.38892.21338-.64819.40967-.00025.61377-.00025,1.02149-.00074.59619-.02563.89331-.03857,1.489-.06445C133.29874,84.66459,133.39493,84.92265,133.58463,85.43876Zm14.36328,1.42676c-.09692-.30176-.145-.45239-.24023-.75415-.16651-.52808-.24854-.792-.41163-1.31934h-.57617c-.50342.34961-.75268.52442-1.24463.874-.146.26269-.21875.394-.36328.65649-.3872.00025-.57885.00025-.95874.00049.11792-.21924.17749-.32886.29663-.54785-.729.00024-1.08667.00049-1.792.00073.35889-.27.54028-.405.9065-.6748.14917-.2793.22436-.41895.37475-.69825-.209-.71679-.31348-1.07495-.52759-1.791-.29345.00024-.43945.00049-.73022.00049-.12158-.40674-.18311-.61011-.30786-1.01685-.09595.00025-.1438.00025-.2395.00025.06-.11622.08984-.17432.1499-.29078l.0896.29053c.94555-.00049,1.42407-.00073,2.39746-.00146.2185-.40308.32788-.60425.54614-1.00733l2.26074-.00122c.39087,1.20923.57935,1.81421.96656,3.02564-.25586.43994-.38379.65991-.63843,1.10034.27051.86084.407,1.2915.69092,2.15381C148.33536,86.86552,148.20548,86.86552,147.94791,86.86552Zm6.08789-30.87329-.9187,1.00537c-.49829.54566-.74756.81836-1.24585,1.364h-2.00269v.63013c-.2041.22339-.30615.33521-.51049.5586a11.50181,11.50181,0,0,1-.78931-.98462l.49976-.85938.68408-.79809a6.562,6.562,0,0,1,1.18652-.15284c.43872-.48047.6582-.72046,1.09692-1.20068v-1.124l.12232-1.20508a3.82239,3.82239,0,0,1-1.28857-.814V50.66752H152.036c.37012.40528.55542.60791.92554,1.01319v.835c0,.26758-.43164.61694-.43164.61694a12.73611,12.73611,0,0,1,1.50586,1.22778ZM68.36,60.7686h.905c.35962-.395.53979-.59253.90015-.98755.00048-.78858,0-1.18286,0-1.97144.36157-.39306.54223-.58935.9038-.98242h4.50733c.35986-.39575.53979-.59351.8999-.98926H80.986v1.97168c.36035.39453.54052.5918.90112.98633h3.60474c.35986.394.53515.59107.90039.98511h.90087c-.0122-.78858-.00024-1.18286-.00024-1.97144h1.80371c.72144.78858,1.06665,1.18286,1.8042,1.97144h3.60474c.70654-.78858,1.08081-1.18286,1.80176-1.97144V55.83793H91.8002c-.72094-.78906-1.08154-1.18383-1.80249-1.9729v-.988h-.90112c-.36059.3955-.54077.59277-.90137.988h-.90234V50.90434c-.72046-.78906-1.08057-1.18384-1.801-1.9729h-2.709v1.9729L84.58951,52.877h.90235v1.97314H83.68814c-.36206-.394-.54321-.59082-.90527-.98511v-.988L80.986,50.90434H78.27994c-.72168.78906-1.08227,1.18359-1.80371,1.97266v.988c-.36011.39429-.54.59107-.8999.98511h-3.6062c-.36035-.394-.54053-.59082-.90113-.98511V50.90434c.3606-.394.54078-.59082.90113-.98486h.90258c.36036.394.54078.59082.90113.98486h1.80249v-1.9729h-.8999v-.98462c.35986-.39526.54-.593.8999-.98828h1.80078l1.80664-1.97266h.89966c.36108-.395.5415-.59277.90259-.98779h.90112V42.02641H79.18375V40.05229c.35986-.39453.53979-.5918.89966-.98657H80.986c.36035-.39576.54052-.59351.90112-.98926v-.98389c.35815-.39551.53735-.5935.89575-.989h.90527c.72168-.78931,1.08228-1.18384,1.80372-1.97315h8.11181c.3606.39576.54077.59375.90137.98926v1.9729h.8999c.71973-.78906,1.07959-1.18384,1.79956-1.9729h.90528v1.9729h.89965c.72046-.78906,1.08057-1.18384,1.80127-1.9729h5.40943V33.147h1.80249c.35986.39332.54.58985.8999.9834v1.97315h1.80225V34.13041c.72216-.78784,1.083-1.18188,1.80517-1.96972h.90235c.3601-.39673.54-.59522.8999-.99219H118.842c.11621-.126.17432-.18921.29077-.31543a4.82635,4.82635,0,0,1,.31641.99194h1.88379l1.78223,1.95069h6.70166c.30566.33471.45849.50219.7644.83691h3.22388c.62622-.6853.939-1.02808,1.56494-1.71313h3.16406c.32227.353.48364.52929.80591.88232h4.96582c.43506.47607.65234.71411,1.0874,1.19019h8.57617c.7544.82592,1.1316,1.23877,1.886,2.06445h4.63648V37.73h-3.13135c-.352.38526-.52808.57788-.87989.96314.72754.79663,1.09156,1.19507,1.81934,1.9917h-3.97559v1.72436c.53711.58789.80567.88159,1.34253,1.46924V46.052l-2.98046-3.26245V40.00615H149.0419v.84838h-3.84008c-.93067,1.01856-1.39576,1.52784-2.32618,2.54639v1.18164h3.186c.67139.73535,1.00732,1.10279,1.679,1.83789.46875.51319.70313.76978,1.17188,1.28272v2.75976c-.72681.79541-1.09009,1.19336-1.81665,1.98877-.52515.57471-.7876.86206-1.31274,1.43677.72656.79541,1.08984,1.19312,1.8164,1.98828V57.419h-1.58935c-.36206-.39649-.543-.59448-.905-.99073V54.97978c-.46436-.5083-.69629-.76245-1.16065-1.27051h-1.36767c-.41016-.44873-.615-.67309-1.02491-1.12183-.71826.78614-1.07739,1.1792-1.79541,1.96534.55274.605.82935.90771,1.38233,1.51318h1.47632c-.40064.43848-.60108.65772-1.00171,1.09619.93261,1.02075,1.39843,1.531,2.33105,2.55176a17.33217,17.33217,0,0,1-.08252,1.78174c-1.54492,1.552-2.37988,2.32763-4.11377,3.8789-.96,0-1.43969.00025-2.40088.00025-.918.82739-1.38891,1.24121-2.3457,2.0686.83594,1.32569,1.21436,1.98828,1.91065,3.31348-.21241.6084-.32325.9126-.55079,1.521-.36157.29151-.54272.4375-.90478.729-.596.00049-.89429.00049-1.49243.00073-.60987-1.2251-.937-1.83765-1.64722-3.06323-.19116.61865-.2915.92773-.49805,1.54614-.25488.76392-.38818,1.14575-.65942,1.90991.43579.84131.64331,1.26221,1.04077,2.10376-.29.76172-.437,1.14282-.72876,1.90454-.25268.65992-.3789.98975-.62768,1.64966-.27515-.6145-.41651-.92163-.707-1.53589.16919-.45678.25416-.68506.42408-1.14135-.33985-.70752-.51538-1.061-.87964-1.76831.21094-.59131.31567-.88721.52051-1.47828.33105-1.2771.48974-1.91552.76391-3.19262-.1936-.32862-.29272-.49317-.49389-.82178-.36719.31006-.55152.46484-.92237.7749.15772-.53027.23413-.79565.37866-1.32593-.79882-1.26782-1.22631-1.9021-2.1477-3.17065-.57422.00024-.86182.00024-1.43872.00024-.53687.00025-.80615.00025-1.3457.00025-.08863.46142-.13648.69189-.23926,1.15332-1.7,1.48-2.59546,2.22021-4.44727,3.70068-.22143.74463-.33716,1.1167-.57153,1.86133.19189.29834.28711.44727.47607.74561-1.01953.80322-1.53613,1.20459-2.51538,2.00756.06128-.50879.092-.76342.15259-1.27221h-.10815c.06909-.21778.10376-.32666.17236-.54444.02661-.22729.03979-.34106.06567-.56836-.20337-.34472-.30517-.51684-.51025-.86132.12012-.39454.17944-.5918.29614-.98633-.48169-.78931-.72583-1.18384-1.23047-1.97315.41382-1.57934.60279-2.36889.887-3.94824-.57788-.78882-.877-1.1831-1.50122-1.97168H110.538c-.31714-.394-.479-.59082-.8086-.98511h-3.5791c-.66919-.79028-1.01611-1.1853-1.73266-1.97558.00244-.394.00024-.59107.00024-.98511h-1.80249c0,.78906.0061,1.18359-.011,1.97266.70142.7893,1.04126,1.18408,1.69751,1.97314h1.77954c.64869.78858.96094,1.18286,1.56177,1.97168h.87989c-.05445.39551-.0835.59351-.145.98926-2.05616,1.9729-3.10181,2.95923-5.094,4.93213H100.799c-.27587-.39307-.4165-.58936-.70214-.98242.09985-.79029.1477-1.18531.23535-1.97559-.59571-.78955-.9043-1.18457-1.54151-1.97412.05982-.78931.08594-1.18384.12744-1.97315-.66748-.78906-1.01171-1.18383-1.71655-1.9729H95.41275c-.00683.78907-.01513,1.18384-.0393,1.9729.34375.39356.51342.59034.84839.98389-.0542,1.1853-.09107,1.77808-.17481,2.96338,1.582,1.97241,2.311,2.9585,3.6543,4.93066h4.85815c-.07837.39527-.11792.59278-.197.9878a89.039,89.039,0,0,0-7.27539,7.896c-.06934.78858-.10059,1.18286-.15381,1.97144.2605.394.39014.59106.64917.98486-.12134,1.97339-.12182,2.96021-.12182,4.9336-1.10132,1.57836-1.65479,2.36767-2.78638,3.946v1.97412h-.71167c-.2854.394-.42871.59131-.71729.98511V98.262c-1.15551,1.57836-1.74511,2.36767-2.96777,3.946H85.4357V98.262c-.68457-.79-1.03393-1.18531-1.74926-1.97559v-3.9458c-.35865-.39551-.54224-.59351-.90455-.989.00025-.78808.00025-1.18212.00074-1.97045.72314-.78907,1.08716-1.1836,1.78051-1.9729-.0017-.395-.00244-.59229-.00366-.98755-.698-.78931-1.05444-1.18384-1.77588-1.97315v-.98486c-.71753-.78858-1.07592-1.18286-1.79223-1.97144-.00074-1.97509-.00122-2.96289-.0022-4.938H79.19229l-.90161-.98339H75.59977c-.35669.39355-.53516.59008-.89161.98339h-4.478c-1.79785-1.9729-2.69947-2.95922-4.50733-4.93212-.01343-1.57764-.02-2.3667-.03076-3.94434.35547-.39453.53345-.5918.88965-.98657-.00244-.395-.00342-.59253-.00537-.98755H65.6796c-.00464-.78931-.00659-1.18384-.00977-1.97315C66.74332,62.54521,67.28141,61.95292,68.36,60.7686ZM35.32828,86.972c-.73022-.79029-1.09643-1.18531-1.82934-1.97559-.01148-1.57886-.01954-2.36841-.03833-3.94751.71655-.78955,1.07421-1.18433,1.78759-1.97412-.01709-1.18433-.02612-1.77637-.04492-2.96069H32.48307c-.3689-.394-.55323-.59107-.92188-.98487l-.01343-.988c-.73779-.78907-1.1062-1.1836-1.84228-1.97266H26.9899c-.00415-.39307-.00635-.5896-.01025-.98242H23.34879c-.36328-.39624-.54492-.59448-.90772-.99073h-.90771c-.72852-.78833-1.0918-1.18261-1.81787-1.97119-.002-.39575-.00293-.59375-.00464-.98925.36011-.39527.54028-.59278.90015-.988-.00147-.39282-.00245-.58936-.00391-.98242-1.08936-1.18482-1.63257-1.77735-2.717-2.96216-.00073-.78906-.00073-1.1836-.00025-1.97266h-.89868c-.001,1.18482-.00073,1.7771.00074,2.96192.36035.39428.54028.5913.90112.98535-.35913.395-.53858.59253-.89771.98755-.72363-.78931-1.085-1.1836-1.80664-1.9729-.00146-1.97217.00074-2.95826.00074-4.93018-.3606-.39648-.54078-.59473-.90113-.991v-2.958c.721-.78955,1.0813-1.18433,1.80225-1.97437V51.4517c.72-.78979,1.07983-1.18457,1.7998-1.97412V46.51811c-.35937-.395-.53906-.59277-.89843-.98779V43.55717c-.7212-.79028-1.08155-1.1853-1.80249-1.97583H11.58194c-.36035.39624-.54052.59448-.90112.991H7.0734c-.36035-.39649-.54053-.59473-.90088-.991v-.98486c.36035-.39453.54053-.592.90088-.98657H9.7797V38.625c.36059-.39575.54077-.5935.90112-.98926h1.80493c.721-.78857,1.08154-1.18286,1.80249-1.97143h5.407l.90259.988H25.0983l.90381-.988h4.50732c.721.78857,1.0813,1.18286,1.80225,1.97143h.90381V34.68071c-.36133-.39527-.54224-.59278-.90381-.9878v-.988h4.50586v1.97583h1.80225c.36108.39331.54174.59008.90283.98364v.988H37.71891v.98339h3.60864c.36011-.39355.54-.59008.8999-.98339V33.69291h2.70484v.9878c-.36084.39331-.54151.59008-.90259.98364v.988h1.80249V34.68071c.35986-.39527.53979-.59278.89966-.9878h4.50463c.721.78858,1.08155,1.18286,1.80249,1.97144h.905c.72095.78857,1.08155,1.18286,1.80225,1.97143V38.625H53.039c-.35913.39405-.53833.59107-.89721.98487H50.33658V38.625c.36011-.39575.54-.5935.8999-.98926v-.98339h-3.602c-.36108.39331-.5415.58984-.90258.98339h-.89966c-.36011.39576-.54.59351-.8999.98926v.98487H39.52262c-.72168.78857-1.08228,1.18286-1.80371,1.97143v1.97583c.36035.39526.54052.59277.90088.98779h2.70776v1.97315h.8999c.721-.78931,1.0813-1.18408,1.80225-1.97315h1.80249V40.59648h3.60449v1.97583h.8999c.36011-.39649.54-.59473.8999-.991H53.039v1.97583c.36207.39526.543.59277.905.98779v.98536c-.36206.395-.543.59277-.905.98779v.9834c.72071.79052,1.0813,1.18554,1.80225,1.97607v.98609H52.14176c-.36206-.39429-.54322-.59156-.90528-.98609v-.98682h-3.602c-1.44189,1.57911-2.16284,2.36866-3.60473,3.94727v.98633H42.22745c-1.082,1.18384-1.6228,1.77588-2.70483,2.95947v.98657c-1.4419,1.57837-2.16529,2.36744-3.60034,3.94556.00512,1.18457.00952,1.77661.02075,2.96094h-.906c-.36328-.394-.54468-.59107-.90723-.98535-.00585-.79-.008-1.18531-.01147-1.97559H27.80973c-.72022.79028-1.07984,1.18555-1.79908,1.97559.00342.7893.00562,1.18359.01075,1.9729-.71753.78808-1.07593,1.18237-1.7937,1.97046.72851.79052,1.0935,1.186,1.82446,1.97705h1.8125c.71411-.791,1.071-1.18653,1.78442-1.97705h.90625c.36572.3955.54859.5935.9148.98925.00927.78858.01416,1.18286.02417,1.97119h.90478c.36841.39625.55274.59449.92139.99073.01709,1.18213.02612,1.77295.0437,2.95508h4.52759c.355-.3938.53222-.59082.8872-.98487h2.71509c.00757.39405.01123.59107.01856.98487.36841.39526.55249.59277.92065.988h4.50562c.73608.7898,1.10351,1.18457,1.83716,1.97412h1.792c.73217.78858,1.09765,1.18287,1.8269,1.97144.00611.39526.009.59277.01489.988.727.78906,1.08985,1.18383,1.81372,1.9729h4.45752c.72217.78906,1.08228,1.18383,1.801,1.97314h.887c.00537.78955.00757,1.18433.011,1.97363-1.062,1.18457-1.59839,1.77686-2.65894,2.96143.0127,2.3667.0459,3.55.13355,5.91675-.67652.7893-1.01221,1.18384-1.67871,1.9729H55.41031c-.33105.394-.49634.59106-.82568.98511.11011,1.97338.1748,2.9602.30029,4.93359-.97412,1.18433-1.45825,1.77661-2.43066,2.96069H50.70108c-.64965.78931-.97509,1.18384-1.63037,1.9729.053.79029.07862,1.18531.12574,1.97559-.33057.39477-.49634.592-.83008.98657.022.39478.03247.592.05224.98657.375.39331.56153.59009.93189.98365h.88135c.0852,1.97461.115,2.96191.12207,4.93652h-2.6587c-.7163-.78906-1.07934-1.18384-1.82128-1.97314-.02393-1.18555-.04444-1.77808-.09644-2.96338-.38013-.39356-.57129-.59034-.95581-.98365-.0791-1.57934-.1294-2.36914-.23755-3.94873-.783-.78906-1.17725-1.18359-1.967-1.9729-.08472-1.18408-.12891-1.77636-.21631-2.96069l-.99-.98511c-.25537-3.55273-.3916-5.3291-.52734-8.88183H39.06754c-.75684-.78882-1.13281-1.18287-1.87891-1.97144-.00879-.39282-.01269-.58935-.01855-.98218-.74121-.791-1.1062-1.18652-1.83838-1.97754C35.33072,87.56132,35.33,87.36479,35.32828,86.972Z"/><path class="cls-2" d="M497.53166,123.87213h-5.60058c-4.7002,0-7.2002,2.5-7.2002,7.2002v5.30029a.71383.71383,0,0,0,.79981.80029h5.20117a.736.736,0,0,0,.7998-.80029v-3.8999a1.77437,1.77437,0,0,1,2-2.00049h2.40039a1.81715,1.81715,0,0,1,2,2.00049v7.40039l-11.90136,6.40039c-.94922.5-1.29981.8999-1.29981,1.8501v14.751a.89788.89788,0,0,0,1,1h18.001a.89747.89747,0,0,0,1-1v-7.65088a.89747.89747,0,0,0-1-1h-4.79981a.89747.89747,0,0,0-1,1v2.0503h-5.40039a.89747.89747,0,0,1-1-1v-4.3501a1.25747,1.25747,0,0,1,.7002-1.2002l11.15039-6.00048c.95019-.5,1.34961-.89991,1.34961-1.8501V131.07233C504.73186,126.37213,502.18205,123.87213,497.53166,123.87213Z"/><path class="cls-2" d="M523.53166,123.87213h-5.60058c-4.7002,0-7.2002,2.5-7.2002,7.2002v25.60156c0,4.70019,2.5,7.20068,7.2002,7.20068h5.60058c4.7002,0,7.2002-2.50049,7.2002-7.20068V131.07233C530.73186,126.37213,528.23186,123.87213,523.53166,123.87213Zm.75,31.55176a1.77441,1.77441,0,0,1-2,2h-2.90039a1.77442,1.77442,0,0,1-2-2V132.32233a1.79536,1.79536,0,0,1,2-2h2.90039a1.79535,1.79535,0,0,1,2,2Z"/><path class="cls-2" d="M549.53166,123.87213h-5.60058c-4.7002,0-7.2002,2.5-7.2002,7.2002v5.30029a.71383.71383,0,0,0,.79981.80029h5.20117a.736.736,0,0,0,.7998-.80029v-3.8999a1.77437,1.77437,0,0,1,2-2.00049h2.40039a1.81715,1.81715,0,0,1,2,2.00049v7.40039l-11.90136,6.40039c-.94922.5-1.29981.8999-1.29981,1.8501v14.751a.89788.89788,0,0,0,1,1h18.001a.89747.89747,0,0,0,1-1v-7.65088a.89747.89747,0,0,0-1-1h-4.79981a.89747.89747,0,0,0-1,1v2.0503h-5.40039a.89747.89747,0,0,1-1-1v-4.3501a1.25747,1.25747,0,0,1,.7002-1.2002l11.15039-6.00048c.95019-.5,1.34961-.89991,1.34961-1.8501V131.07233C556.73186,126.37213,554.18205,123.87213,549.53166,123.87213Z"/><path class="cls-2" d="M575.53166,123.87213h-5.60058c-4.7002,0-7.2002,2.5-7.2002,7.2002v5.30029a.71383.71383,0,0,0,.79981.80029h5.20117a.736.736,0,0,0,.7998-.80029v-3.8999a1.77437,1.77437,0,0,1,2-2.00049h2.40039a1.81715,1.81715,0,0,1,2,2.00049v7.40039l-11.90136,6.40039c-.94922.5-1.29981.8999-1.29981,1.8501v14.751a.89788.89788,0,0,0,1,1h18.001a.89747.89747,0,0,0,1-1v-7.65088a.89747.89747,0,0,0-1-1h-4.79981a.89747.89747,0,0,0-1,1v2.0503h-5.40039a.89747.89747,0,0,1-1-1v-4.3501a1.25747,1.25747,0,0,1,.7002-1.2002l11.15039-6.00048c.95019-.5,1.34961-.89991,1.34961-1.8501V131.07233C582.73186,126.37213,580.18205,123.87213,575.53166,123.87213Z"/><path class="cls-2" d="M277.89128,101.56647H265.862V68.62311a.70945.70945,0,0,0-.81543-.78906h-5.26074a.70946.70946,0,0,0-.81543.78906v38.78808a.71988.71988,0,0,0,.81543.81348h18.10547a.71988.71988,0,0,0,.81543-.81348v-5.05566A.70945.70945,0,0,0,277.89128,101.56647Z"/><path class="cls-2" d="M481.41667,12.18463H476.155a.70945.70945,0,0,0-.81543.78906V34.3028h-.2959L467.361,12.82526a.88373.88373,0,0,0-.91407-.64063h-5.01367a.70907.70907,0,0,0-.81543.78906V51.7608a.76451.76451,0,0,0,.81543.81348H466.694a.71988.71988,0,0,0,.81542-.81348V30.35748h.24708l7.75585,21.55078a.87206.87206,0,0,0,.88965.666h5.01465a.76308.76308,0,0,0,.81445-.81348V12.97369A.70875.70875,0,0,0,481.41667,12.18463Z"/><path class="cls-2" d="M251.66081,52.57428h5.68067a7.37288,7.37288,0,0,0,5.43457-1.84961,7.34288,7.34288,0,0,0,1.85254-5.4248V13.19537a1.01027,1.01027,0,0,0-1.0127-1.01074h-4.668a1.01025,1.01025,0,0,0-1.01269,1.01074V43.89459a1.78935,1.78935,0,0,1-2.02637,2.02246h-2.61817a1.78866,1.78866,0,0,1-2.02539-2.02246V13.19537a1.01025,1.01025,0,0,0-1.01269-1.01074H245.3864a1.01194,1.01194,0,0,0-1.0127,1.01074v32.1045a7.34288,7.34288,0,0,0,1.85254,5.4248A7.37287,7.37287,0,0,0,251.66081,52.57428Z"/><path class="cls-2" d="M230.03972,12.18463h-5.688a7.38949,7.38949,0,0,0-5.44092,1.84863,7.34081,7.34081,0,0,0-1.855,5.42481v25.8418a7.33774,7.33774,0,0,0,1.855,5.4248,7.38576,7.38576,0,0,0,5.44092,1.84961h5.688a7.38576,7.38576,0,0,0,5.44092-1.84961,7.33774,7.33774,0,0,0,1.855-5.4248V19.45807a7.34081,7.34081,0,0,0-1.855-5.42481A7.38949,7.38949,0,0,0,230.03972,12.18463Zm.70068,31.8584a1.79179,1.79179,0,0,1-2.03271,2.02148h-2.92481a1.792,1.792,0,0,1-2.0332-2.02148V20.71588a1.792,1.792,0,0,1,2.0332-2.02148h2.92481a1.7918,1.7918,0,0,1,2.03271,2.02148Z"/><path class="cls-2" d="M272.50652,52.57428h5.26074a.76451.76451,0,0,0,.81543-.81348V39.03717h3.4834l3.38378,12.82227a.80455.80455,0,0,0,.86719.71484h5.28028q.9419,0,.71972-.91211L288.821,38.44537q3.69286-1.60254,3.69336-6.68261V19.45807a7.34265,7.34265,0,0,0-1.85449-5.42481,7.38979,7.38979,0,0,0-5.44043-1.84863H272.50749a.70977.70977,0,0,0-.8164.78906V51.7608a.7645.7645,0,0,0,.81543.81348Zm6.07617-33.73242h5.01465a1.78944,1.78944,0,0,1,2.02539,2.02246v9.49316a1.78875,1.78875,0,0,1-2.02539,2.02149h-5.01465Z"/><path class="cls-2" d="M300.36784,52.57428h5.26075a.71988.71988,0,0,0,.81543-.81348V30.35748h.24707l7.75585,21.55078a.87206.87206,0,0,0,.88965.666h5.01465a.76307.76307,0,0,0,.81445-.81348V12.97369a.70875.70875,0,0,0-.81445-.78906h-5.26172a.70945.70945,0,0,0-.81543.78906V34.3028h-.2959l-7.68261-21.47754a.88372.88372,0,0,0-.91406-.64063h-5.01368a.70907.70907,0,0,0-.81543.78906V51.7608a.76451.76451,0,0,0,.81543.81348Z"/><path class="cls-2" d="M280.46159,79.36237a.43079.43079,0,0,0,.4043.18457h2.25488a.68127.68127,0,0,0,.61328-.37012l2.69727-4.14258a2.34278,2.34278,0,0,0,.36816-1.25684V68.84576a.8914.8914,0,0,0-1.00586-1.01171h-4.585a.8911.8911,0,0,0-1.00488,1.01171v4.63575a.8908.8908,0,0,0,1.00488,1.01074h1.27539l-2.01074,4.43848A.42773.42773,0,0,0,280.46159,79.36237Z"/><path class="cls-2" d="M389.45085,124.17584a.79682.79682,0,0,0-.86426-.6914H381.571a.79624.79624,0,0,0-.86426.6914l-8.39844,38.83594a1.166,1.166,0,0,0-.0498.32031q0,.54347.7168.543h5.40917a.76531.76531,0,0,0,.79-.71484l1.38379-7.37305h8.99121l1.43262,7.37305a.76558.76558,0,0,0,.791.71484h5.38476q.71631,0,.71582-.61621a1.25406,1.25406,0,0,0-.02441-.24707ZM381.818,149.94342l3.23633-17.63086,3.23535,17.63086Z"/><path class="cls-2" d="M370.9489,123.48444H352.34636a.70913.70913,0,0,0-.81445.78906v5.05566a.76289.76289,0,0,0,.8125.81348h5.85742v32.91894a.72118.72118,0,0,0,.81836.81348h5.28027a.71036.71036,0,0,0,.793-.81348V130.14264h5.85742a.71829.71829,0,0,0,.81152-.81348V124.2735A.70881.70881,0,0,0,370.9489,123.48444Z"/><path class="cls-2" d="M410.4948,123.48444h-5.26075a.70946.70946,0,0,0-.81543.78906v38.78808a.71988.71988,0,0,0,.81543.81348h5.26075a.76451.76451,0,0,0,.81543-.81348V124.2735A.70946.70946,0,0,0,410.4948,123.48444Z"/><path class="cls-2" d="M353.20964,75.15826a7.4343,7.4343,0,0,0-1.85254-5.45019,7.31757,7.31757,0,0,0-5.43457-1.874H333.77019a.70945.70945,0,0,0-.81543.78906v38.78808a.71988.71988,0,0,0,.81543.81348h12.15234a6.50237,6.50237,0,0,0,7.28711-7.27441ZM346.51628,99.545a1.78905,1.78905,0,0,1-2.02637,2.02149h-4.64355V74.49225h4.64355a1.81132,1.81132,0,0,1,2.02637,2.07129Z"/><path class="cls-2" d="M236.298,123.48444h-4.66846a1.01274,1.01274,0,0,0-1.01269,1.01171v30.69922a1.78855,1.78855,0,0,1-2.02539,2.02149h-2.61866a1.78855,1.78855,0,0,1-2.02539-2.02149V124.49615a1.01274,1.01274,0,0,0-1.01269-1.01171h-4.86621a1.01276,1.01276,0,0,0-1.0127,1.01171v32.1045a6.50237,6.50237,0,0,0,7.28711,7.27441h5.68115a6.50228,6.50228,0,0,0,7.28662-7.27441v-32.1045a1.01274,1.01274,0,0,0-1.01269-1.01171Z"/><path class="cls-2" d="M345.14714,123.48444H339.8864a.70945.70945,0,0,0-.81543.78906v38.78808a.71988.71988,0,0,0,.81543.81348h5.26074a.76451.76451,0,0,0,.81543-.81348V124.2735A.70945.70945,0,0,0,345.14714,123.48444Z"/><path class="cls-2" d="M217.82146,108.22467h18.625a.71973.71973,0,0,0,.81494-.81348v-5.05566a.86152.86152,0,0,0-.17334-.61621.92067.92067,0,0,0-.64453-.17285H223.74968v-10.208h9.7041q.81812,0,.81885-.86328V85.48932a.7325.7325,0,0,0-.81885-.83789h-9.7041V74.54108h12.69385q.81738,0,.81787-.86231V68.62311a.7093.7093,0,0,0-.81494-.78906h-18.625a.75192.75192,0,0,0-.55567.21.78144.78144,0,0,0-.21.5791v38.78808a.82668.82668,0,0,0,.21.5918A.73036.73036,0,0,0,217.82146,108.22467Z"/><path class="cls-2" d="M272.11394,123.48444h-6.68262a1.05007,1.05007,0,0,0-1.11035.88867l-5.59668,25.15039-5.59766-25.15039a1.0507,1.0507,0,0,0-1.11035-.88867h-6.68262a.89407.89407,0,0,0-1.01074,1.01171v38.36817a.894.894,0,0,0,1.0127,1.01074h4.66894a.89437.89437,0,0,0,1.0127-1.01074V140.129h.3457l5.01465,22.834a1.05607,1.05607,0,0,0,1.11133.91211h2.46972A1.05607,1.05607,0,0,0,261.07,162.963l5.01465-22.834h.3457v22.73535a.89109.89109,0,0,0,1.00586,1.01074h4.68262a.89109.89109,0,0,0,1.00586-1.01074V124.49615A.89406.89406,0,0,0,272.11394,123.48444Z"/><path class="cls-2" d="M295.92253,124.17584a.79682.79682,0,0,0-.86426-.6914h-7.01562a.79624.79624,0,0,0-.86426.6914L278.78,163.01178a1.166,1.166,0,0,0-.0498.32031q0,.54347.71679.543h5.40918a.76531.76531,0,0,0,.79-.71484l1.38379-7.37305h8.99121l1.43262,7.37305a.76558.76558,0,0,0,.791.71484h5.38476q.71631,0,.71582-.61621a1.25406,1.25406,0,0,0-.02441-.24707Zm-7.63281,25.76758,3.23633-17.63086,3.23535,17.63086Z"/><path class="cls-2" d="M517.42741,52.57428h5.26075a.76451.76451,0,0,0,.81543-.81348V12.97369a.70907.70907,0,0,0-.81543-.78906h-5.26075a.70907.70907,0,0,0-.81543.78906V51.7608A.71988.71988,0,0,0,517.42741,52.57428Z"/><path class="cls-2" d="M502.26237,12.18463H490.11a.70907.70907,0,0,0-.81543.78906V51.7608a.71988.71988,0,0,0,.81543.81348h12.15234a7.37285,7.37285,0,0,0,5.43457-1.84961,7.34284,7.34284,0,0,0,1.85254-5.4248v-25.792a7.43027,7.43027,0,0,0-1.85254-5.44922A7.31757,7.31757,0,0,0,502.26237,12.18463Zm.59375,31.71a1.78934,1.78934,0,0,1-2.02636,2.02246H496.1862V18.84186h4.64356a1.81132,1.81132,0,0,1,2.02636,2.07129Z"/><path class="cls-2" d="M538.37175,44.48639H547.363l1.43262,7.373a.76557.76557,0,0,0,.791.71484h5.38477q.71631,0,.71582-.61621a1.25406,1.25406,0,0,0-.02441-.24707l-8.39844-38.83594a.79682.79682,0,0,0-.86426-.69043h-7.01563a.79622.79622,0,0,0-.86425.69043L530.12175,51.711a1.167,1.167,0,0,0-.04981.32129q0,.542.7168.542h5.40918a.76531.76531,0,0,0,.79-.71484Zm4.49609-23.47461,3.23535,17.63086h-6.47167Z"/><path class="cls-2" d="M466.6364,123.48444h-18.625a.75192.75192,0,0,0-.55567.21.78341.78341,0,0,0-.21.5791v38.78808a.82882.82882,0,0,0,.21.5918.73036.73036,0,0,0,.55567.22168h18.625a.72027.72027,0,0,0,.81543-.81348v-5.05566a.86371.86371,0,0,0-.17383-.61621.92151.92151,0,0,0-.64453-.17285H453.94011v-10.208h9.70312q.81885,0,.81934-.86328v-5.00488a.733.733,0,0,0-.81934-.83887h-9.70312V130.19147h12.69336q.81738,0,.81836-.86231V124.2735A.70984.70984,0,0,0,466.6364,123.48444Z"/><path class="cls-2" d="M360.4821,68.044a.78335.78335,0,0,0-.21.5791v38.78808a.82877.82877,0,0,0,.21.5918.73036.73036,0,0,0,.55567.22168h18.625a.72027.72027,0,0,0,.81542-.81348v-5.05566a.86371.86371,0,0,0-.17382-.61621.92151.92151,0,0,0-.64453-.17285H366.96648v-10.208h9.70312q.81885,0,.81934-.86328V85.48932a.73264.73264,0,0,0-.81934-.83789h-9.70312V74.54108h12.69336q.81738,0,.81835-.86231V68.62311a.70984.70984,0,0,0-.81542-.78906h-18.625A.75192.75192,0,0,0,360.4821,68.044Z"/><path class="cls-2" d="M318.99968,68.62311v38.78808a.71988.71988,0,0,0,.81543.81348h5.26074a.76451.76451,0,0,0,.81543-.81348V68.62311a.70945.70945,0,0,0-.81543-.78906h-5.26074A.70945.70945,0,0,0,318.99968,68.62311Z"/><path class="cls-2" d="M581.152,52.57428a.71988.71988,0,0,0,.81543-.81348V46.70612a.70907.70907,0,0,0-.81543-.78907H569.12273V12.97369a.70907.70907,0,0,0-.81543-.78906h-5.26075a.70907.70907,0,0,0-.81543.78906V51.7608a.71988.71988,0,0,0,.81543.81348Z"/><path class="cls-2" d="M453.58073,45.29987V19.45807a7.343,7.343,0,0,0-1.85546-5.42481,7.38825,7.38825,0,0,0-5.44043-1.84863h-5.68848a7.39224,7.39224,0,0,0-5.44141,1.84863,7.34261,7.34261,0,0,0-1.85449,5.42481v25.8418a7.33954,7.33954,0,0,0,1.85449,5.4248,7.38852,7.38852,0,0,0,5.44141,1.84961h5.68848a7.38453,7.38453,0,0,0,5.44043-1.84961A7.33991,7.33991,0,0,0,453.58073,45.29987ZM446.985,44.043a1.792,1.792,0,0,1-2.0332,2.02148H442.027A1.79125,1.79125,0,0,1,439.9948,44.043V20.71588A1.79125,1.79125,0,0,1,442.027,18.6944h2.92481a1.792,1.792,0,0,1,2.0332,2.02148Z"/><path class="cls-2" d="M328.99382,52.57428h18.625a.72027.72027,0,0,0,.81543-.81348V46.70612a.86483.86483,0,0,0-.17383-.61719.92193.92193,0,0,0-.64453-.17188H334.92253v-10.209h9.70313q.81884,0,.81933-.86328V29.8399a.73334.73334,0,0,0-.81933-.83886h-9.70313V18.89166h12.69336q.81738,0,.81836-.86328V12.97369a.70945.70945,0,0,0-.81543-.78906h-18.625a.75511.75511,0,0,0-.55566.209.78572.78572,0,0,0-.21.58007V51.7608a.82878.82878,0,0,0,.21.5918A.73032.73032,0,0,0,328.99382,52.57428Z"/><path class="cls-2" d="M331.194,123.48444H325.9323a.70984.70984,0,0,0-.81543.78906v21.33008h-.2959L317.13835,124.126a.88346.88346,0,0,0-.91406-.6416h-5.01367a.70945.70945,0,0,0-.81543.78906v38.78808a.7645.7645,0,0,0,.81543.81348h5.26074a.71988.71988,0,0,0,.81543-.81348V141.65826h.24707l7.75586,21.55079a.87205.87205,0,0,0,.88965.666H331.194a.76308.76308,0,0,0,.81445-.81348V124.2735A.70914.70914,0,0,0,331.194,123.48444Z"/><path class="cls-2" d="M335.18767,8.09064h4.41992a1.57761,1.57761,0,0,0,1.2-.59009L347.01775.69073c.23974-.3.05981-.60009-.3-.60009h-5.97c-.48,0-.66016.17993-.96.60009l-4.90015,6.80982C334.64763,7.79059,334.82756,8.09064,335.18767,8.09064Z"/><path class="cls-2" d="M356.238,52.57428h18.625a.72027.72027,0,0,0,.81543-.81348V46.70612a.86483.86483,0,0,0-.17383-.61719.92193.92193,0,0,0-.64453-.17188H362.16667v-10.209h9.70313q.81883,0,.81933-.86328V29.8399a.73334.73334,0,0,0-.81933-.83886h-9.70313V18.89166H374.86q.81738,0,.81836-.86328V12.97369a.70945.70945,0,0,0-.81543-.78906H356.238a.75511.75511,0,0,0-.55566.209.78572.78572,0,0,0-.21.58007V51.7608a.82877.82877,0,0,0,.21.5918A.73032.73032,0,0,0,356.238,52.57428Z"/><path class="cls-2" d="M607.405,18.89166q.81738,0,.81836-.86328V12.97369a.70945.70945,0,0,0-.81543-.78906h-18.625a.75512.75512,0,0,0-.55566.209.78572.78572,0,0,0-.21.58007V51.7608a.82877.82877,0,0,0,.21.5918.73034.73034,0,0,0,.55566.22168h18.625a.72027.72027,0,0,0,.81543-.81348V46.70612a.86483.86483,0,0,0-.17383-.61719.92193.92193,0,0,0-.64453-.17188H594.71159v-10.209h9.70313q.81885,0,.81933-.86328V29.8399a.73333.73333,0,0,0-.81933-.83886h-9.70313V18.89166Z"/><path class="cls-2" d="M419.49382,51.56354a.89109.89109,0,0,0,1.00586,1.01074h4.68262a.8911.8911,0,0,0,1.00586-1.01074V13.19537a.89338.89338,0,0,0-1.01075-1.01074H418.4948a1.04929,1.04929,0,0,0-1.11036.8877l-5.59667,25.15136-5.59766-25.15136a1.04992,1.04992,0,0,0-1.11035-.8877h-6.68262a.89338.89338,0,0,0-1.01074,1.01074V51.56354a.894.894,0,0,0,1.01269,1.01074H403.068a.89437.89437,0,0,0,1.01269-1.01074V28.82819h.34571l5.01465,22.834a1.05607,1.05607,0,0,0,1.11132.91211h2.46973a1.05608,1.05608,0,0,0,1.11133-.91211l5.01465-22.834h.3457Z"/><path class="cls-2" d="M313.97331,107.60846a1.25406,1.25406,0,0,0-.02441-.24707l-8.39844-38.83691a.7968.7968,0,0,0-.86426-.69043h-7.01562a.79622.79622,0,0,0-.86426.69043l-8.39844,38.83691a1.166,1.166,0,0,0-.0498.32031q0,.54346.71679.543h5.40918a.76531.76531,0,0,0,.79-.71484l1.38379-7.373h8.99121l1.43262,7.373a.76558.76558,0,0,0,.791.71484h5.38476Q313.9738,108.22467,313.97331,107.60846ZM297.91765,94.293,301.154,76.66217,304.38933,94.293Z"/><path class="cls-2" d="M209.12859,123.48444h-5.21192a.70965.70965,0,0,0-.81543.78906v16.07812h-6.47168V124.2735a.70929.70929,0,0,0-.81494-.78906h-5.21191q-.865,0-.86475.78906v38.78808q0,.813.86475.81348h5.21191a.7638.7638,0,0,0,.81494-.81348V147.00885h6.47168v16.05273a.76451.76451,0,0,0,.81543.81348h5.21192q.86425,0,.86425-.81348V124.2735Q209.99284,123.48541,209.12859,123.48444Z"/><path class="cls-2" d="M202.70622,67.83405H190.5529a.70929.70929,0,0,0-.81494.78906v38.78808a.71973.71973,0,0,0,.81494.81348h12.15332a6.50229,6.50229,0,0,0,7.28662-7.27441v-25.792a7.43426,7.43426,0,0,0-1.85254-5.45019A7.31559,7.31559,0,0,0,202.70622,67.83405ZM203.299,99.545a1.78855,1.78855,0,0,1-2.02539,2.02149h-4.644V74.49225h4.644a1.81084,1.81084,0,0,1,2.02539,2.07129Z"/><path class="cls-2" d="M209.1779,12.18463h-5.26123a.70926.70926,0,0,0-.81543.78906v30.9209a1.78885,1.78885,0,0,1-2.02539,2.02246h-2.61816a1.789,1.789,0,0,1-2.02588-2.02246V40.04791a.7638.7638,0,0,0-.81494-.81347h-5.064a.71973.71973,0,0,0-.81494.81347v5.252a7.34489,7.34489,0,0,0,1.85254,5.4248,7.3721,7.3721,0,0,0,5.43457,1.84961h5.68115a7.36068,7.36068,0,0,0,5.40967-1.86133,7.29846,7.29846,0,0,0,1.87695-5.41308V12.97369A.70891.70891,0,0,0,209.1779,12.18463Z"/><path class="cls-2" d="M432.91277,123.48444H420.20085a.71017.71017,0,0,0-.81641.78906v38.78808a.76451.76451,0,0,0,.81543.81348h5.26075a.76451.76451,0,0,0,.81543-.81348V150.338h3.48339l3.38379,12.82227a.80455.80455,0,0,0,.86719.71484h5.28027q.94189,0,.71973-.91211l-3.49609-13.2168q3.69287-1.60253,3.69336-6.68261V130.75885a6.50584,6.50584,0,0,0-7.29492-7.27441Zm.40332,18.17382a1.78875,1.78875,0,0,1-2.0254,2.02149h-5.01464V130.14264h5.01464a1.78875,1.78875,0,0,1,2.0254,2.02148Z"/></g></svg>