<svg xmlns="http://www.w3.org/2000/svg" viewBox="0 0 590.73822 164.40869"><defs><style>.cls-1{fill:none;}.cls-2{fill:#3cb4dc;}</style></defs><g id="spanish"><path class="cls-1" d="M142.28961,82.13037c.0957,0,.14331,0,.2395-.00024-.03589-.11621-.05371-.17432-.08984-.29053Z"/><path class="cls-1" d="M131.76935,84.74756c-.40772.00049-.61182.00049-1.02149.00073-.08691.25928-.12939.38892-.21338.64819.10791.25.16114.375.26758.625.95117-.00048,1.42285-.00073,2.36865-.001.10474.2771.15674.41577.25977.69311.39941-.00024.59888-.00024.999-.00024.11182-.29639.16871-.44434.28443-.74048-.39014.00024-.58472.00024-.97388.00049-.18945-.51611-.28564-.77417-.48144-1.29028C132.6629,84.709,132.36554,84.72192,131.76935,84.74756Z"/><path class="cls-1" d="M130.37653,80.33643c-.2085-.46143-.3147-.6919-.53125-1.15332-.34913-.7439-.52881-1.11573-.9004-1.85938-.30468-.60986-.46093-.91479-.782-1.52466-.19238.6687-.28979,1.00293-.48242,1.67188.34985.67749.52,1.01611.85205,1.6936-.11914.33716-.17822.50562-.29492.84253.24731.50537.3689.75806.60791,1.26318.59814,1.26392.88354,1.89624,1.43628,3.16138.17016-.00024.25513-.00024.4248-.00049.17115-.50537.26-.7583.44141-1.26391.2915-.25562.43872-.38355.73584-.63916-.08814-.21338-.13257-.31983-.22192-.533-.2002.17114-.29981.25659-.49756.42773-.18164-.42578-.27368-.63867-.46094-1.0647.1499-.40893.22607-.61328.37964-1.02221C130.80109,80.33594,130.65973,80.33643,130.37653,80.33643Z"/><path class="cls-1" d="M135.31476,83.23657c.45752-.00024.68628-.00049,1.14551-.00073.2705-.61841.4082-.92749.68627-1.54565.92139-.74024,1.39283-1.11011,2.34864-1.84986-.18408-.53222-.27857-.79834-.47388-1.33056.57715-.448.86816-.67212,1.45264-1.12037-.1919-.51294-.291-.76928-.49585-1.282-1.86988,1.44654-2.8003,2.16992-4.59229,3.61743-.49365.00025-.74048.00049-1.23462.00074-.11914.28857-.17822.43286-.29589.72143.17651.4436.26293.66528.43261,1.10864-.2771.67286-.41382,1.009-.67944,1.68189C134.29083,83.23706,134.63165,83.23706,135.31476,83.23657Z"/><path class="cls-1" d="M143.28082,89.41235c-.47241.33814-.70825.50806-1.177.84888-.615,1.07178-.9375,1.61328-1.60767,2.7041-.488.00073-.72607.001-1.19311.002-.11792-.88575-.1875-1.32618-.36646-2.20118.208-.39257.31055-.58838.51172-.97851.25074,0,.3772,0,.63135-.00025.22192-.41967.32642-.62915.53-1.05835h-.85181c-.12817-.437-.19214-.65576-.321-1.09277-1.61743,1.32764-2.36621,1.97681-3.83985,3.28931-.53295.00073-.79638.001-1.31982.00171-.80371.7539-1.19287,1.13281-1.94141,1.89355-.10791.2876-.16235.43164-.2727.72022-.42188.43383-.62793.65112-1.03027,1.08593-.85572.00171-1.27759.00244-2.1399.00391-.41357.46338-.61474.69556-1.00708,1.15967-.53418,2.156-.825,3.24072-1.43725,5.40747-.30371.44262-.45069.66382-.73658,1.10571-.17358.66846-.262,1.00269-.44067,1.67066.15112.0017.22485.00268.37012.00463.32348-.51513.49145-.77319.84228-1.28955.38282.00367.56739.00562.94019.00928.282-.37891.42749-.5686.72778-.948.40576.00318.60938.00464,1.03345.00757.25488-.28955.38525-.43457.65161-.72436.24194.00122.36523.00195.61816.00341-.08862.77417-.15039,1.16187-.29931,1.93726.20263.002.30713.00268.523.00439-.57129.89991-.86182,1.34986-1.4502,2.24707-.11816.448-.18115.67212-.312,1.11939.41455.00561.64111.00854,1.1499.0144.593-.479.89942-.71875,1.53052-1.1997.28.00244.42651.00366.73315.0061,2.74268-1.98193,4.29248-2.98389,7.5315-4.98511.88013-1.17431,1.30859-1.761,2.13647-2.92846-.09057-.5398-.13159-.80909-.21191-1.34571.48828-.71069.727-1.06518,1.19287-1.77026-.56641.00073-.84082.001-1.37549.002.85694-1.31323,1.26709-1.96533,2.04248-3.2522C143.50616,90.294,143.43439,89.999,143.28082,89.41235Z"/><path class="cls-1" d="M148.7,84.14575c-.38721-1.21142-.57568-1.8164-.96655-3.02563l-2.261.00122c-.21826.40307-.32763.60425-.5459,1.00732-.97363.00073-1.45214.001-2.39746.00147.12451.40674.186.6101.30786,1.01684.29078,0,.43677-.00024.73023-.00049.21387.71607.31836,1.07422.52759,1.791-.15064.2793-.22559.41895-.37476.69824-.36645.26978-.54785.40479-.90649.67481.70508-.00025,1.063-.00049,1.79175-.00074-.11915.219-.17847.32862-.29639.54786.37988-.00025.57129-.00025.95874-.00049.14453-.26245.217-.3938.363-.6565.49218-.34961.74145-.52441,1.24487-.874h.57617c.16284.52734.24487.79126.41162,1.31934.095.30151.14307.45239.24.75415.25781,0,.38745,0,.64893-.00025-.28369-.8623-.42041-1.293-.69092-2.15381C148.31622,84.80566,148.44415,84.58569,148.7,84.14575Z"/><path class="cls-1" d="M153.117,53.05029v-.835l-.92529-1.01318h-1.1665v1.74414a3.82491,3.82491,0,0,0,1.28857.814l-.12207,1.20508v1.124c-.439.48022-.6582.72021-1.09717,1.20068a6.56243,6.56243,0,0,0-1.18652.15283l-.68384.7981-.49975.85937a11.488,11.488,0,0,0,.7893.98462c.20435-.22339.3064-.3352.5105-.55859v-.63013h2.00244c.49854-.54565.74756-.81836,1.2461-1.364.36718-.4021.551-.60327.91845-1.00537V54.895a12.73527,12.73527,0,0,0-1.50586-1.22778S153.117,53.31787,153.117,53.05029Z"/><path class="cls-1" d="M37.34405,91.44824c.74634.78882,1.12232,1.18286,1.87916,1.97168h1.81567c.13574,3.55274.272,5.3291.52734,8.88184.396.394.594.59106.99024.98511.08716,1.18432.13159,1.77661.21631,2.96069.78979.78906,1.18408,1.18384,1.967,1.9729.10791,1.57959.15844,2.36938.23755,3.94873.38427.39331.57568.59009.95581.98364.052,1.1853.07251,1.77808.09643,2.96338.74194.78931,1.105,1.18408,1.82129,1.97315h2.65869c-.00732-1.97461-.03711-2.96192-.12207-4.93653h-.88135c-.3706-.39355-.55712-.59033-.93212-.98364-.01954-.39453-.03-.592-.052-.98657.33374-.39453.49951-.5918.83008-.98658-.04712-.79028-.07275-1.1853-.12573-1.97558.65527-.78906.98047-1.18384,1.63013-1.9729h1.75341c.97217-1.18408,1.4563-1.77637,2.43042-2.96069-.12548-1.97339-.18994-2.96021-.30029-4.9336.32935-.394.49463-.59106.82593-.98511h1.76538c.66675-.78906,1.00244-1.18359,1.67871-1.9729-.0874-2.3667-.12085-3.55-.13354-5.91674,1.06079-1.18457,1.59692-1.77686,2.65893-2.96143-.00342-.78955-.00537-1.18408-.01074-1.97363h-.887c-.71875-.78931-1.07886-1.18408-1.801-1.97315H54.37921c-.72388-.7893-1.08667-1.18384-1.814-1.9729-.00562-.39526-.00879-.59277-.01465-.988-.72925-.78858-1.09473-1.18287-1.82691-1.97144H48.93146c-.7334-.7898-1.10108-1.18433-1.83716-1.97412H42.58893c-.36841-.39527-.55249-.59278-.92066-.988-.00756-.394-.01123-.59082-.01855-.98486H38.93439c-.35474.394-.53223.59082-.88721.98486H33.51984c-.01783-1.18213-.02662-1.773-.04371-2.95508-.36889-.39624-.553-.59448-.92138-.99072H31.65c-.01025-.78833-.01513-1.18262-.02417-1.97119-.36621-.39575-.54931-.59375-.915-.98926h-.906c-.71363.79053-1.07031,1.186-1.78467,1.977H26.20782c-.7312-.791-1.09594-1.18652-1.82446-1.977.71777-.78833,1.07617-1.18237,1.79346-1.97046-.00513-.7893-.00708-1.18384-.01074-1.9729.71923-.79,1.07885-1.1853,1.79907-1.97558h6.30859c.00342.79028.00586,1.18554.01148,1.97558.36255.39429.54419.59131.90747.98535h.90576c-.011-1.18432-.01538-1.77661-.02051-2.96093,1.43506-1.57813,2.1582-2.36719,3.6001-3.94556v-.98657c1.082-1.1836,1.623-1.77564,2.70508-2.95948h1.80224v-.98632c1.4419-1.57886,2.1626-2.36817,3.6045-3.94727h3.60229v.98682c.36206.39453.543.59179.905.98608h2.69971v-.98608c-.72119-.79053-1.08155-1.18555-1.80249-1.97608v-.9834c.36206-.395.54321-.59277.905-.988v-.98511c-.36182-.395-.543-.59253-.905-.98779V42.116H51.39215c-.36011.39624-.54.59448-.8999.991h-.8999V41.1311H45.98761v3.94849H44.18536c-.72094.78906-1.08154,1.18384-1.80224,1.97314h-.89991V45.07959H38.77545l-.90112-.98779V42.116c.72168-.78858,1.08227-1.18286,1.80371-1.97144H45.088v-.98486c.35986-.39575.5398-.59351.89966-.98926h.8999c.36084-.39355.54151-.59009.90235-.9834h3.60229v.9834c-.36011.39575-.54.59351-.8999.98926v.98486h1.80493c.35889-.3938.53833-.59082.89722-.98486h2.70752v-.98926c-.72095-.78857-1.0813-1.18286-1.80249-1.97144h-.905c-.721-.78857-1.0813-1.18286-1.80225-1.97143H46.88751c-.35986.395-.54.59253-.8999.98779V37.187H44.18536v-.988c.36084-.39355.54151-.59033.90259-.98364v-.98779H42.38312V37.187c-.36011.39331-.54.58985-.89991.9834H37.87433V37.187H39.678v-.988c-.36084-.39355-.5415-.59033-.90259-.98364H36.97321V33.2395H32.46735v.988c.36157.395.54223.59253.9038.98779v2.95508h-.9038c-.721-.78857-1.08155-1.18286-1.80249-1.97144H26.15778l-.90381.988H20.75323c-.36084-.39526-.5415-.59277-.90234-.988H14.44366c-.72094.78858-1.08154,1.18287-1.80224,1.97144H10.83649c-.36036.39575-.54078.59351-.90113.98926v.98486H7.22906l-.90112.98657V42.116c.36035.39624.54077.59448.90112.991h3.60743c.36059-.39648.54052-.59472.90112-.991h3.60718l1.80249,1.97583v1.9729c.35937.39526.53906.593.89843.988v2.95948c-.71972.78955-1.07983,1.18432-1.7998,1.97412v.98633c-.7207.79-1.081,1.18481-1.80225,1.97436v2.958c.36036.39624.54078.59448.90113.991,0,1.97192-.0022,2.958-.00074,4.93017.72193.78906,1.08326,1.1836,1.80689,1.9729.35913-.395.53857-.59253.89746-.98755-.3606-.394-.54077-.59106-.90088-.98535-.00146-1.18481-.00171-1.7771-.00073-2.96191h.89844c-.00049.78906-.00049,1.18359.00048,1.97265,1.08448,1.18482,1.62745,1.77735,2.7168,2.96216.00147.39307.00244.5896.00415.98242-.36011.39527-.54.59278-.90039.988.00171.39551.00269.59351.00464.98926.72607.78857,1.0896,1.18286,1.81787,1.97119h.908c.36279.39624.54419.59448.90772.99072h3.63061c.00415.39283.0061.58936.01025.98242h2.71582c.73584.78907,1.10425,1.1836,1.84205,1.97266.00561.39526.0083.59277.01367.988.36865.3938.553.59082.92163.98462H35.359c.01855,1.18457.02783,1.77661.04467,2.96094-.71337.78979-1.0708,1.18457-1.78759,1.97412.0188,1.5791.0271,2.36865.03857,3.94751.73291.79028,1.09888,1.1853,1.82935,1.97558.00171.39282.00244.58936.00342.98218.73217.791,1.09692,1.18652,1.83813,1.97754C37.3316,90.85913,37.33527,91.05566,37.34405,91.44824Z"/><path class="cls-1" d="M66.73175,66.2373c.0022.395.00317.59253.00537.98755-.356.39478-.53418.592-.88965.98658.011,1.57763.01758,2.36669.031,3.94433,1.80786,1.9729,2.70947,2.95923,4.50708,4.93213h4.47827c.35645-.39355.53467-.59009.8916-.9834h2.69092l.90161.9834h1.79688c.001,1.9751.00146,2.96289.00195,4.938.71655.78857,1.07471,1.18286,1.79248,1.97143v.98487c.72119.7893,1.07788,1.18384,1.77563,1.97314.00122.39527.0022.59253.00391.98755-.69336.78931-1.05762,1.18384-1.78052,1.9729-.00049.78833-.00049,1.18213-.001,1.97046.36255.39551.54589.59351.90478.989V96.821c.71509.79029,1.06445,1.18531,1.749,1.97559v3.946h4.84205c1.22265-1.57837,1.812-2.36768,2.96777-3.946V96.821c.28857-.394.43188-.59106.717-.9851h.71191V93.86182c1.1316-1.57837,1.68482-2.36768,2.78614-3.946,0-1.97339.00049-2.9602.12207-4.93359-.25928-.3938-.38892-.59082-.64942-.98487.05323-.78857.08472-1.18286.15406-1.97143a89.03486,89.03486,0,0,1,7.27514-7.896c.07935-.395.11866-.59253.19727-.98779H99.857c-1.34326-1.97217-2.07226-2.95825-3.65429-4.93066.08349-1.18531.12036-1.77808.1748-2.96363-.335-.39331-.50488-.59009-.84839-.98364.02393-.78906.03223-1.18384.03907-1.9729h1.78906c.70459.78906,1.04883,1.18384,1.71631,1.9729-.04126.78931-.06739,1.18384-.1272,1.97314.637.78956.94556,1.18458,1.5415,1.97413-.08764.79028-.13574,1.1853-.23559,1.97558.28589.39307.42627.58936.70239.98242h2.48486c1.99219-1.9729,3.03785-2.95922,5.09424-4.93213.06128-.39575.09058-.59375.14478-.9895h-.87964c-.60108-.78857-.91333-1.18286-1.562-1.97143h-1.77954c-.65625-.78907-.9961-1.18384-1.69727-1.97315.01709-.78906.011-1.18359.011-1.97265h1.80249c0,.394.002.59106-.00025.9851.71656.79029,1.06324,1.18531,1.73267,1.97559h3.57886c.32983.394.49145.59106.80859.98511h5.38452c.624.78857.92334,1.18286,1.501,1.97143-.28418,1.57935-.4729,2.36914-.88672,3.94849.50464.78931.74853,1.18384,1.23022,1.97314-.11645.39453-.17578.5918-.29589.98633.20483.34448.30688.5166.51.86133-.02588.22729-.03882.34106-.06543.56836-.06885.21777-.10328.32666-.17237.54443h.10791c-.06054.50879-.09131.76343-.15234,1.27222.979-.803,1.4956-1.20435,2.51538-2.00757-.18921-.29834-.28442-.44726-.47607-.7456.23437-.74463.34985-1.1167.57128-1.86133,1.85181-1.48047,2.74732-2.22071,4.44751-3.70069.10254-.46142.15064-.69189.239-1.15332.53979,0,.80884,0,1.34594-.00024.57667,0,.86426,0,1.43848-.00024.92139,1.26855,1.34912,1.90283,2.14795,3.17065-.14477.53027-.22095.79565-.37866,1.32593.37085-.31006.55517-.46509.92212-.7749.20141.32861.30029.49316.49414.82177-.27442,1.2771-.43286,1.91553-.76416,3.19239-.20484.5913-.30957.887-.52027,1.47851.36426.70728.5398,1.06079.87964,1.76831-.16992.4563-.25488.68457-.42431,1.14136.29077.61426.43188.92139.70727,1.53589.24878-.65991.375-.98975.62769-1.64966.2915-.762.43847-1.14282.72851-1.90454-.39746-.84155-.60473-1.26245-1.04052-2.10376.27124-.76416.40429-1.146.65942-1.90991.20654-.61841.30664-.92774.49805-1.54615.7102,1.22559,1.03735,1.83814,1.647,3.06324.59839-.00025.89673-.00025,1.49268-.00074.36206-.2915.54321-.4375.90478-.729.2273-.6084.33814-.9126.55078-1.521-.69653-1.32519-1.075-1.98779-1.91089-3.31347.957-.8274,1.42774-1.24121,2.34571-2.06861.96118,0,1.44116-.00024,2.40087-.00024,1.73414-1.55127,2.56885-2.3269,4.11377-3.87891a17.33185,17.33185,0,0,0,.08252-1.78173l-2.33081-2.55176c.40064-.43848.60083-.65772,1.00171-1.09619h-1.47656c-.553-.60547-.82935-.90821-1.38232-1.51319.71826-.78613,1.07714-1.1792,1.79541-1.96533.41015.44873.615.6731,1.0249,1.12183h1.36767c.46436.50805.69654.7622,1.16089,1.2705v1.44849c.36182.39624.54273.59424.90479.99072h1.5896V56.41138c-.72681-.79517-1.09009-1.19287-1.81641-1.98828.5249-.57471.7876-.86206,1.31275-1.43677.72656-.79541,1.08984-1.19336,1.81665-1.98877V48.23779c-.46875-.51294-.70313-.76953-1.17188-1.28271-.67163-.73511-1.00757-1.10254-1.67895-1.83789h-3.18628V43.9353c.93042-1.01831,1.39575-1.52759,2.32617-2.54614h3.84033v-.84839h3.64453v2.78345c1.19214,1.30493,1.78809,1.95752,2.98023,3.26245V44.41309c-.53687-.58765-.80518-.88135-1.34229-1.46924V41.21948h3.97559l-1.81958-1.9917c.352-.38525.52807-.57788.87988-.96313h3.13135v-.67359H156.0108c-.75415-.82592-1.13159-1.23852-1.886-2.06445h-8.57618c-.43481-.47607-.65234-.71411-1.0874-1.19018h-4.96582c-.32226-.353-.4834-.5293-.80591-.88233H135.5257c-.626.68506-.939,1.02783-1.565,1.71314h-3.22412c-.30566-.33472-.45874-.5022-.7644-.83692h-6.70142c-.71313-.78027-1.06933-1.17041-1.78222-1.95068H119.6048a4.848,4.848,0,0,0-.31641-.99194c-.11645.12622-.17456.18945-.29077.31542h-4.50977c-.3601.397-.54.59546-.8999.99219h-.90259L110.88043,34.665v1.97314h-1.80224V34.665c-.36011-.39356-.54-.59009-.90015-.9834h-1.80225V35.6543h-5.40967c-.72045.78906-1.08056,1.18383-1.801,1.9729h-.8999V35.6543h-.905c-.72.78906-1.07984,1.18383-1.79981,1.9729h-.8999V35.6543c-.36035-.39551-.54077-.59351-.90112-.98926H85.64752c-.72143.78931-1.08227,1.18384-1.804,1.97314h-.905c-.3584.39551-.5376.59327-.89575.989v.98364c-.3606.396-.54078.59375-.90137.9895h-.90235c-.35986.39478-.54.592-.8999.98657V42.561h2.70362v1.97167h-.90137l-.90235.9878h-.8999c-.72265.78906-1.08374,1.18359-1.80639,1.97265h-1.801c-.35986.39527-.54.59278-.8999.988v.98486h.8999V51.439H73.9295c-.36059-.394-.54077-.59106-.90136-.98486h-.90235c-.36059.3938-.54077.59082-.90136.98486v2.9607c.36059.394.54077.59106.90136.98511h3.606c.35986-.394.54-.59107.8999-.98511v-.988c.72144-.78906,1.08228-1.18359,1.80371-1.97266h2.70606c.719.78907,1.07812,1.1836,1.79712,1.97266v.988c.36206.394.54321.59106.905.98511h1.804V53.41162h-.90259c-.72241-.78906-1.084-1.18359-1.80639-1.97266v-1.9729h2.709c.72046.78907,1.08057,1.18384,1.80078,1.9729v2.9607h.90259c.36035-.39527.54077-.59253.90137-.988h.90112v.988c.721.78906,1.0813,1.18384,1.80225,1.9729H96.463v1.97168c-.721.78857-1.09546,1.18286-1.802,1.97143H91.05646c-.73755-.78857-1.083-1.18286-1.8042-1.97143h-1.804c0,.78857-.012,1.18286.00049,1.97143h-.90112c-.36524-.394-.54029-.59106-.90015-.9851H82.04279c-.3606-.39453-.54078-.5918-.90137-.98633V56.37256H76.63165c-.35986.39575-.54.5935-.8999.98926H71.22443c-.36133.39306-.54224.58935-.90381.98242,0,.78857.00073,1.18286,0,1.97143-.36035.395-.54029.59253-.89991.98755h-.90527c-1.07861,1.18433-1.6167,1.77661-2.68994,2.96094.00317.78931.00513,1.18384.00952,1.97314Z"/><path class="cls-2" d="M121.42076,7.66433A49.63231,49.63231,0,0,0,83.80333,25.21022,49.63235,49.63235,0,0,0,46.18589,7.66433C20.33189,7.66433.2523,27.74245.2523,53.58913c0,21.68457,13.24683,40.65625,35.46289,62.7395L83.80333,164.4092l48.08789-48.08057c22.2163-22.08325,35.46313-41.05493,35.46313-62.7395C167.35435,27.74245,147.27476,7.66433,121.42076,7.66433Zm-62.41065,87.731c-.67627.78931-1.012,1.18384-1.67871,1.9729H55.566c-.3313.39405-.49658.59107-.82593.98511.11035,1.97339.17481,2.96021.3003,4.93359-.97412,1.18433-1.45826,1.77662-2.43042,2.9607H50.85655c-.64966.78906-.97486,1.18384-1.63013,1.9729.053.79028.07861,1.1853.12573,1.97558-.33056.39478-.49633.592-.83007.98658.022.39453.03247.592.052.98657.375.39331.56152.59009.93213.98364h.88134c.085,1.97461.11475,2.96191.12207,4.93652H47.85093c-.71631-.78906-1.07934-1.18383-1.82129-1.97314-.02392-1.1853-.04443-1.77808-.09643-2.96338-.38013-.39355-.57153-.59033-.95581-.98364-.0791-1.57935-.12964-2.36914-.23755-3.94873-.783-.78906-1.17725-1.18384-1.967-1.9729-.08472-1.18408-.12915-1.77637-.21631-2.9607-.39624-.394-.59424-.59106-.99023-.9851-.25538-3.55274-.39161-5.32911-.52735-8.88184H39.22325c-.75684-.78882-1.13281-1.18286-1.87915-1.97168-.00879-.39258-.01245-.58911-.01856-.98193-.74121-.791-1.10595-1.18653-1.83813-1.97754-.001-.39282-.00171-.58936-.00342-.98218-.73047-.79028-1.09644-1.1853-1.82935-1.97559-.01147-1.57885-.01977-2.3684-.03857-3.94751.7168-.78955,1.07422-1.18432,1.7876-1.97412-.01685-1.18432-.02613-1.77636-.04468-2.96093H32.63853c-.36865-.3938-.553-.59082-.92163-.98462-.00537-.39527-.00806-.59278-.01367-.988-.73779-.78906-1.1062-1.18359-1.842-1.97266H27.14537c-.00415-.39306-.00611-.5896-.01026-.98242H23.5045c-.36353-.39624-.54492-.59448-.90772-.99072h-.908c-.72827-.78833-1.09179-1.18262-1.81787-1.97119-.002-.39575-.00293-.59375-.00464-.98926.36036-.39526.54029-.59277.90039-.988-.0017-.39282-.00268-.58935-.00415-.98242-1.08935-1.18481-1.63232-1.77734-2.71679-2.96216-.001-.78906-.001-1.18359-.00049-1.97265h-.89844c-.001,1.18481-.00073,1.7771.00073,2.96191.36011.39429.54029.59131.90088.98535-.35888.395-.53833.59253-.89746.98755-.72363-.78931-1.085-1.18384-1.80688-1.9729-.00147-1.97217.00073-2.95825.00073-4.93018-.36035-.39648-.54077-.59472-.90112-.991V54.947c.72119-.78955,1.08154-1.18433,1.80224-1.97437v-.98632c.72-.7898,1.08008-1.18457,1.79981-1.97412V47.05275c-.35938-.395-.53907-.59277-.89844-.988v-1.9729L15.34483,42.116H11.73765c-.36059.39624-.54053.59448-.90112.991H7.22911c-.36035-.39648-.54077-.59472-.90113-.991v-.98487l.90113-.98657h2.7063v-.98486c.36035-.39576.54077-.59351.90112-.98926h1.80493c.7207-.78858,1.0813-1.18286,1.80225-1.97144h5.40722c.36084.39527.54151.59278.90235.988H25.254l.90381-.988H30.6649c.721.78858,1.08154,1.18286,1.80249,1.97144h.90381V35.21535c-.36158-.39526-.54224-.59277-.90381-.98779v-.988h4.50586v1.97583h1.80224c.36109.39331.54175.59009.90259.98364v.988H37.87437v.9834h3.60889c.35986-.39356.53979-.59009.8999-.9834V34.22756H45.088v.98779c-.36108.39331-.54174.59009-.90258.98364v.988h1.80224V35.21535c.35987-.39526.54-.59277.8999-.98779h4.50464c.721.78857,1.0813,1.18286,1.80225,1.97143h.905c.72119.78858,1.08154,1.18286,1.80249,1.97144v.98926H53.19444c-.35889.394-.53833.59106-.89722.98486H50.49229v-.98486c.35986-.39576.5398-.59351.8999-.98926V37.187H47.7899c-.36084.39331-.54151.58984-.90235.9834h-.8999c-.35986.39575-.53979.5935-.89966.98926v.98486H39.67808c-.72143.78857-1.082,1.18286-1.80371,1.97144v1.97583l.90112.98779h2.70777v1.97314h.8999c.7207-.7893,1.0813-1.18408,1.80225-1.97314h1.80224V41.13112h3.60474V43.107h.8999c.35986-.39648.5398-.59472.8999-.991h1.80225v1.97583c.36206.39526.54321.59277.905.98779v.98511c-.36182.39526-.543.593-.905.988v.9834c.721.79053,1.0813,1.18555,1.80249,1.97608v.98608H52.29722c-.36206-.39429-.543-.59155-.905-.98608v-.98682H47.7899c-1.4419,1.5791-2.1626,2.36841-3.60449,3.94726V53.959H42.38316c-1.082,1.18384-1.623,1.77588-2.70508,2.95948v.98657c-1.44189,1.57837-2.165,2.36743-3.6001,3.94555.00513,1.18433.00953,1.77662.02051,2.96094h-.90576c-.36328-.394-.54492-.59106-.90747-.98535-.00562-.79-.00806-1.1853-.01148-1.97559H27.96519c-.72021.79029-1.07983,1.18555-1.79907,1.97559.00366.78906.00561,1.18359.01074,1.9729-.71728.78809-1.07568,1.18213-1.79346,1.97046.72852.79053,1.09327,1.186,1.82447,1.97705h1.81225c.71436-.791,1.07105-1.18652,1.78467-1.97705h.906c.36572.39551.54882.59351.915.98926.009.78857.01391,1.18286.02417,1.97119h.90478c.36841.39624.55249.59448.92139.99072.01709,1.18213.02588,1.77295.0437,2.95508h4.52734c.355-.394.53247-.59082.88721-.98486h2.71533c.00733.394.011.59082.01856.98486.36816.39526.55224.59277.92065.988h4.50537c.73609.78979,1.10376,1.18432,1.83716,1.97412h1.79224c.73217.78857,1.09765,1.18286,1.8269,1.97143.00586.39527.009.59278.01465.988.72729.78906,1.09009,1.18359,1.814,1.9729h4.45752c.72217.78906,1.08228,1.18384,1.801,1.97315h.887c.00537.78955.00733,1.18408.01074,1.97363-1.062,1.18457-1.59814,1.77685-2.65893,2.96142C58.88926,91.84523,58.92271,93.02858,59.01011,95.39528Zm83.96875-1.25854c-.46582.70508-.70459,1.05957-1.19287,1.77026.08032.53662.12134.80591.21192,1.3457-.82789,1.16748-1.25635,1.75415-2.13648,2.92847-3.239,2.00122-4.78882,3.00317-7.53149,4.98511-.30664-.00244-.45313-.00366-.73316-.00611-.6311.481-.9375.72071-1.53051,1.19971-.50879-.00586-.73536-.00879-1.14991-.0144.13086-.44727.19385-.67139.312-1.11939.58838-.89721.87891-1.34717,1.4502-2.24707-.21582-.00171-.32031-.00244-.523-.00439.14893-.77539.21069-1.16309.29932-1.93726-.25293-.00146-.37622-.0022-.61817-.00342-.26635.2898-.39673.43482-.65161.72437-.42407-.00293-.62768-.0044-1.03345-.00757-.30029.3794-.4458.56909-.72778.948-.3728-.00366-.55737-.00562-.94018-.00928-.35083.51636-.5188.77442-.84229,1.28955-.14526-.002-.219-.00293-.37012-.00464.17871-.668.26709-1.00219.44068-1.67065.28589-.44189.43286-.66309.73657-1.10571.6123-2.16675.90308-3.25147,1.43726-5.40747.39233-.46412.5935-.69629,1.00708-1.15967.8623-.00147,1.28417-.0022,2.13989-.00391.40234-.43481.6084-.6521,1.03027-1.08594.11035-.28857.1648-.43261.27271-.72021.74853-.76074,1.13769-1.13965,1.9414-1.89356.52344-.00073.78687-.001,1.31983-.0017,1.47363-1.3125,2.22241-1.96167,3.83984-3.28931.12891.437.19287.65576.32105,1.09277h.8518c-.20361.4292-.3081.63867-.53,1.05835-.25415.00025-.38061.00025-.63134.00025-.20118.39013-.30372.58593-.51172.97851.17895.875.24853,1.31543.36645,2.20117.467-.001.70508-.00122,1.19312-.00195.67016-1.09082.99267-1.63232,1.60766-2.7041.46875-.34082.70459-.51074,1.177-.84888.15357.58667.22535.88159.365,1.47412-.77539,1.28687-1.18554,1.939-2.04248,3.2522C142.138,94.13771,142.41246,94.13747,142.97886,94.13674ZM131.16441,82.42287c.19775-.17114.29736-.25659.49756-.42773.08935.21313.13379.31958.22192.53295-.29712.25562-.44433.38355-.73584.63917-.18139.50561-.27026.75854-.4414,1.26391-.16968.00025-.25464.00025-.42481.00049-.55273-1.26514-.83813-1.89746-1.43628-3.16138-.239-.50512-.36059-.75781-.60791-1.26318.1167-.33692.17578-.50537.29492-.84253-.332-.67749-.50219-1.01611-.852-1.6936.19263-.66895.29-1.00318.48242-1.67188.32105.60986.4773.9148.782,1.52466.37158.74365.55127,1.11548.90039,1.85937.21655.46143.32275.6919.53125,1.15332.2832,0,.42456-.00048.70654-.00048-.15356.40893-.22974.61328-.37964,1.02221C130.89073,81.7842,130.98277,81.99709,131.16441,82.42287Zm2.69092-1.97583c.11767-.28857.17676-.43286.2959-.72144.49414-.00024.741-.00048,1.23462-.00073,1.792-1.44751,2.72241-2.1709,4.59228-3.61743.20483.5127.304.769.49585,1.282-.58447.44825-.87549.67237-1.45264,1.12036.19532.53223.2898.79834.47388,1.33057-.95581.73975-1.42725,1.10962-2.34863,1.84985-.27808.61817-.41577.92725-.68628,1.54566-.45923.00024-.688.00049-1.14551.00073-.68311.00049-1.02393.00049-1.7063.001.26563-.67285.40235-1.009.67944-1.68189C134.11827,81.11232,134.03184,80.89064,133.85533,80.447Zm-.11524,5.52637c.38916-.00025.58374-.00025.97388-.00049-.11572.29614-.17261.44409-.28442.74048-.40015,0-.59961,0-.999.00024-.103-.27734-.155-.416-.25976-.69311-.9458.00024-1.41748.00048-2.36866.001-.10644-.25-.15966-.375-.26757-.625.084-.25927.12646-.38891.21338-.64819.40966-.00024.61377-.00024,1.02148-.00073.59619-.02564.89355-.03858,1.48926-.06446C133.45445,85.19924,133.55064,85.45729,133.74009,85.97341Zm14.36328,1.42676c-.09692-.30176-.145-.45264-.24-.75416-.16674-.52807-.24878-.792-.41162-1.31933h-.57617c-.50342.34961-.75268.52441-1.24487.874-.146.2627-.21851.39405-.363.6565-.38745.00024-.57886.00024-.95874.00048.11792-.21923.17725-.32885.29639-.54785-.72876.00025-1.08667.00049-1.79175.00074.35864-.27.54-.405.90649-.67481.14917-.2793.22412-.41894.37476-.69824-.20923-.7168-.31372-1.075-.52759-1.791-.29346.00025-.43945.00049-.73022.00049-.12183-.40674-.18335-.61011-.30786-1.01684-.0962.00024-.1438.00024-.23951.00024l.14966-.29077c.03613.11621.054.17431.08985.29053.94531-.00049,1.42382-.00074,2.39746-.00147.21826-.40308.32763-.60425.5459-1.00732l2.261-.00122c.39087,1.20922.57935,1.8142.96655,3.02563-.25586.43994-.38378.65991-.63867,1.10034.27051.86084.40723,1.29151.69092,2.15381C148.49083,87.40017,148.36119,87.40017,148.10337,87.40017Zm6.0879-30.8733c-.36744.4021-.55127.60328-.91846,1.00538-.49854.54565-.74756.81835-1.2461,1.364h-2.00244v.63013c-.2041.22338-.30615.3352-.5105.55859a11.488,11.488,0,0,1-.7893-.98462l.49975-.85937.68384-.7981a6.56245,6.56245,0,0,1,1.18653-.15283c.439-.48047.6582-.72046,1.09716-1.20069v-1.124l.12207-1.20508a3.82491,3.82491,0,0,1-1.28857-.814V51.20217h1.1665l.9253,1.01318v.835c0,.26758-.43164.61695-.43164.61695a12.73611,12.73611,0,0,1,1.50586,1.22778Zm1.81958-18.93579h4.63647v.67359H157.516c-.3518.38525-.52783.57788-.87988.96313l1.81958,1.9917h-3.97559v1.72437c.53711.58789.80542.88159,1.34229,1.46923v2.17359c-1.19214-1.30493-1.78809-1.95752-2.98023-3.26245V40.54079h-3.64453v.84839h-3.84033c-.93042,1.01855-1.39575,1.52783-2.32617,2.54614v1.18189h3.18628c.67138.73535,1.00732,1.10278,1.679,1.83789.46875.51318.70313.76977,1.17188,1.28271v2.75977c-.72681.79541-1.09009,1.19336-1.81665,1.98877-.52515.5747-.78784.86206-1.31275,1.43676.72632.79541,1.0896,1.19312,1.81641,1.98829v1.54223h-1.5896c-.36206-.39648-.543-.59448-.90478-.99072V55.51442c-.46436-.5083-.69654-.76245-1.16089-1.2705h-1.36768c-.40991-.44874-.61475-.6731-1.0249-1.12183-.71826.78613-1.07715,1.1792-1.79541,1.96533.553.605.82934.90772,1.38232,1.51318h1.47656c-.40087.43848-.60107.65772-1.0017,1.0962L144.1,60.24855a17.332,17.332,0,0,1-.08252,1.78174c-1.54492,1.552-2.37964,2.32764-4.11377,3.87891-.95972,0-1.4397.00024-2.40088.00024-.918.8274-1.38867,1.24121-2.3457,2.06861.83593,1.32568,1.21435,1.98828,1.91088,3.31347-.21264.6084-.32348.9126-.55078,1.521-.36157.2915-.54272.4375-.90478.729-.596.00049-.89429.00049-1.49268.00074-.60962-1.2251-.93677-1.83765-1.647-3.06324-.19141.61841-.2915.92774-.49805,1.54615-.25512.76391-.38818,1.14575-.65942,1.90991.43579.84131.64306,1.2622,1.04053,2.10376-.29.76172-.437,1.14258-.72852,1.90454-.25269.65991-.37891.98974-.62769,1.64966-.27539-.61451-.4165-.92163-.70727-1.53589.16943-.45679.25439-.68506.42432-1.14136-.33985-.70752-.51539-1.061-.87964-1.76831.21069-.59155.31543-.88721.52026-1.47852.3313-1.27685.48975-1.91528.76416-3.19238-.19385-.32861-.29272-.49316-.49414-.82178-.36694.30982-.55127.46485-.92212.77491.15772-.53028.23389-.79566.37866-1.32593-.79882-1.26782-1.22656-1.9021-2.148-3.17066-.57421.00025-.86181.00025-1.43847.00025-.53711.00024-.80615.00024-1.346.00024-.08838.46143-.13647.6919-.239,1.15332-1.7002,1.48-2.59571,2.22022-4.44751,3.70069-.22144.74463-.33692,1.1167-.57129,1.86132.19165.29834.28686.44727.47607.74561-1.01977.80322-1.53638,1.20459-2.51538,2.00757.061-.50879.0918-.76343.15234-1.27222h-.10791c.0691-.21777.10352-.32666.17237-.54443.02661-.2273.03955-.34107.06543-.56836-.20313-.34473-.30518-.51685-.51-.86133.12012-.39453.17944-.5918.2959-.98633-.48169-.7893-.72559-1.18384-1.23023-1.97314.41382-1.57935.60254-2.36914.88672-3.94849-.57764-.78857-.87695-1.18286-1.501-1.97143h-5.38452c-.31714-.394-.47876-.59107-.80859-.98511H106.306c-.66943-.79028-1.01611-1.1853-1.73266-1.97559.00219-.394.00024-.59106.00024-.9851H102.7711c0,.78906.0061,1.18359-.011,1.97265.70117.78931,1.041,1.18408,1.69727,1.97315h1.77954c.64868.78857.96094,1.18286,1.562,1.97143h.87964c-.0542.39575-.0835.59375-.14478.9895-2.05639,1.9729-3.102,2.95923-5.09423,4.93213h-2.48487c-.27612-.39306-.4165-.58935-.70239-.98242.09985-.79028.14795-1.1853.2356-1.97559-.596-.78955-.90455-1.18457-1.54151-1.97412.05982-.7893.08594-1.18383.1272-1.97314-.66748-.78906-1.01172-1.18384-1.71631-1.9729H95.56822c-.00684.78906-.01514,1.18384-.03906,1.9729.3435.39355.51342.59033.84838.98364-.05444,1.18555-.0913,1.77832-.1748,2.96362,1.582,1.97242,2.311,2.9585,3.6543,4.93067h4.85815c-.07861.39526-.11792.59277-.19726.98779a89.03352,89.03352,0,0,0-7.27515,7.896c-.06934.78857-.10083,1.18286-.154,1.97143.26049.394.39013.59107.64941.98487-.12158,1.97339-.12207,2.9602-.12207,4.93359-1.10132,1.57837-1.65454,2.36768-2.78613,3.946V95.836H94.118c-.28515.394-.42846.59106-.717.9851v1.97559c-1.15576,1.57837-1.74512,2.36768-2.96777,3.946h-4.842v-3.946c-.68457-.79028-1.03394-1.1853-1.749-1.97559v-3.9458c-.35888-.3955-.54223-.5935-.90478-.989.00049-.78833.00049-1.18213.001-1.97046.7229-.78906,1.08715-1.18359,1.78051-1.9729-.00171-.395-.00268-.59229-.0039-.98755-.69776-.78931-1.05445-1.18384-1.77564-1.97314v-.98487c-.71777-.78857-1.07593-1.18286-1.79248-1.97143-.00049-1.9751-.001-2.96289-.00195-4.938H79.348l-.90161-.9834H75.75547c-.35693.39331-.53515.58984-.8916.9834H70.3856c-1.79761-1.9729-2.69922-2.95923-4.50708-4.93213-.01343-1.57764-.02-2.3667-.031-3.94434.35546-.39453.53369-.59179.88964-.98657-.00219-.395-.00317-.59253-.00537-.98755h-.89673c-.00439-.7893-.00634-1.18383-.00952-1.97314,1.07324-1.18433,1.61133-1.77661,2.68994-2.96094h.90528c.35962-.395.53955-.59253.8999-.98755.00073-.78857,0-1.18286,0-1.97143.36157-.39307.54248-.58936.90381-.98242h4.50732c.35987-.39576.54-.59351.8999-.98926h4.50977v1.97168c.3606.39453.54077.59179.90137.98633h3.60473c.35987.394.53492.59106.90015.9851h.90112c-.01245-.78857-.00048-1.18286-.00048-1.97143h1.804c.72119.78857,1.06665,1.18286,1.8042,1.97143H94.661c.70654-.78857,1.08106-1.18286,1.802-1.97143V56.37258H91.95567c-.721-.78907-1.0813-1.18384-1.80225-1.9729v-.988H89.2523c-.3606.39551-.541.59277-.90137.988h-.90258V51.439c-.72022-.78906-1.08033-1.18383-1.80079-1.9729h-2.709V51.439c.72241.78907,1.084,1.1836,1.8064,1.97266h.90258v1.97314h-1.804c-.36182-.394-.543-.59106-.905-.9851v-.988c-.719-.78906-1.07813-1.18359-1.79712-1.97266h-2.706c-.72144.78907-1.08228,1.1836-1.80372,1.97266v.988c-.35986.394-.54.59106-.8999.9851h-3.606c-.3606-.394-.54078-.59106-.90137-.9851V51.439c.36059-.394.54077-.59106.90137-.98486h.90234c.36059.3938.54077.59082.90137.98486h1.80224v-1.9729h-.8999v-.98486c.35986-.39526.54-.59277.8999-.988h1.801c.72265-.78906,1.08374-1.18359,1.80639-1.97265h.89991l.90234-.9878h.90137V42.56105H79.33921V40.58693c.35987-.39453.54-.59179.89991-.98657h.90234c.3606-.39575.54077-.59351.90137-.9895v-.98364c.35815-.39576.53735-.59351.89575-.989h.905c.72168-.7893,1.08252-1.18384,1.804-1.97314h8.11182c.36035.39575.54077.59375.90112.98926v1.9729h.89991c.72-.78907,1.07983-1.18384,1.7998-1.9729h.905v1.9729h.8999c.72046-.78907,1.08057-1.18384,1.801-1.9729h5.40967V33.68166h1.80224c.36011.39331.54.58984.90015.9834V36.6382h1.80224V34.66506l1.80494-1.96973h.90258c.35987-.39673.5398-.59521.89991-.99219h4.50976c.11621-.126.17432-.18921.29077-.31543a4.84838,4.84838,0,0,1,.31641.992h1.88379c.71289.78027,1.06909,1.17041,1.78222,1.95068h6.70142c.30567.33472.45874.5022.76441.83692h3.22412c.626-.68531.939-1.02808,1.56494-1.71314h3.16382c.32251.353.48364.5293.8059.88232h4.96582c.43506.47608.65259.71412,1.08741,1.19019h8.57617C154.87925,36.35256,155.25669,36.76516,156.01085,37.59108Z"/><path class="cls-2" d="M296.63389,124.70949a.797.797,0,0,0-.86426-.6914h-7.01586a.79615.79615,0,0,0-.864.6914l-8.39868,38.83594a1.166,1.166,0,0,0-.0498.32031q0,.54346.71679.543h5.40943a.76545.76545,0,0,0,.79-.71484l1.38355-7.37305h8.99145l1.43262,7.37305a.76558.76558,0,0,0,.791.71484h5.38452q.71667,0,.71606-.61621a1.25406,1.25406,0,0,0-.02441-.24707Zm-7.63281,25.76758,3.23608-17.63086,3.2356,17.63086Z"/><path class="cls-2" d="M236.454,124.01809h-4.66821a1.01276,1.01276,0,0,0-1.0127,1.01171V155.729a1.78855,1.78855,0,0,1-2.02539,2.02149h-2.61889a1.78856,1.78856,0,0,1-2.0254-2.02149V125.0298a1.01233,1.01233,0,0,0-1.01269-1.01171h-4.86621a1.01276,1.01276,0,0,0-1.0127,1.01171v32.1045a6.50269,6.50269,0,0,0,7.28736,7.27441h5.68115a6.502,6.502,0,0,0,7.28638-7.27441V125.0298a1.01276,1.01276,0,0,0-1.0127-1.01171Z"/><path class="cls-2" d="M464.20781,124.70949a.79659.79659,0,0,0-.864-.6914h-7.01562a.79609.79609,0,0,0-.86426.6914l-8.39838,38.83594a1.166,1.166,0,0,0-.0498.32031c0,.36231.238.543.71679.543h5.40888a.76552.76552,0,0,0,.79028-.71484l1.38379-7.37305h8.99121l1.43262,7.37305a.76557.76557,0,0,0,.791.71484h5.38476q.71631,0,.71582-.61621a1.25406,1.25406,0,0,0-.02441-.24707ZM456.575,150.47707l3.23658-17.63086,3.23535,17.63086Z"/><path class="cls-2" d="M391.23326,124.70949a.79659.79659,0,0,0-.864-.6914h-7.01587a.79614.79614,0,0,0-.864.6914l-8.39868,38.83594a1.166,1.166,0,0,0-.04981.32031q0,.54346.7168.543h5.40943a.76545.76545,0,0,0,.79-.71484l1.38355-7.37305h8.99145l1.43262,7.37305a.76558.76558,0,0,0,.791.71484h5.38476q.71631,0,.71582-.61621a1.25406,1.25406,0,0,0-.02441-.24707Zm-7.63257,25.76758,3.23608-17.63086,3.2356,17.63086Z"/><path class="cls-2" d="M272.82627,124.01809h-6.68261a1.05047,1.05047,0,0,0-1.1106.88867l-5.59643,25.15039L253.839,124.90676a1.05094,1.05094,0,0,0-1.1106-.88867h-6.68261a.894.894,0,0,0-1.0105,1.01171V163.398a.894.894,0,0,0,1.01269,1.01074h4.66871a.89454.89454,0,0,0,1.01294-1.01074V140.66262h.34545l5.0149,22.834a1.05576,1.05576,0,0,0,1.11132.91211h2.46949a1.05616,1.05616,0,0,0,1.11157-.91211l5.01465-22.834h.3457V163.398a.89109.89109,0,0,0,1.00586,1.01074h4.68262a.89092.89092,0,0,0,1.00561-1.01074V125.0298A.894.894,0,0,0,272.82627,124.01809Z"/><path class="cls-2" d="M345.85948,124.01809h-5.26074a.70963.70963,0,0,0-.81568.78906v38.78808a.72006.72006,0,0,0,.81568.81348h5.26074a.76415.76415,0,0,0,.81518-.81348V124.80715A.70937.70937,0,0,0,345.85948,124.01809Z"/><path class="cls-2" d="M209.28477,124.01809h-5.21191a.70955.70955,0,0,0-.81543.78906v16.07812h-6.47168V124.80715a.70938.70938,0,0,0-.81519-.78906h-5.21167q-.865,0-.86474.78906v38.78808q0,.813.86474.81348h5.21167a.76382.76382,0,0,0,.81519-.81348V147.5425h6.47168v16.05273a.7645.7645,0,0,0,.81543.81348h5.21191q.86425,0,.86426-.81348V124.80715Q210.149,124.01907,209.28477,124.01809Z"/><path class="cls-2" d="M331.90635,124.01809h-5.26172a.71.71,0,0,0-.81567.78906v21.33008h-.2959l-7.68237-21.47754a.88346.88346,0,0,0-.91406-.6416H311.923a.70936.70936,0,0,0-.81543.78906v38.78808a.76451.76451,0,0,0,.81543.81348h5.2605a.72.72,0,0,0,.81568-.81348V142.19191h.24682l7.75611,21.55078a.872.872,0,0,0,.8894.666h5.01489a.76272.76272,0,0,0,.81421-.81348V124.80715A.70905.70905,0,0,0,331.90635,124.01809Z"/><path class="cls-2" d="M372.21666,124.01809h-18.6023a.70931.70931,0,0,0-.8147.78906v5.05566a.76323.76323,0,0,0,.8125.81348h5.85767v32.91894a.72118.72118,0,0,0,.81836.81348h5.28027a.71036.71036,0,0,0,.793-.81348V130.67629h5.85742a.71829.71829,0,0,0,.81153-.81348v-5.05566A.7089.7089,0,0,0,372.21666,124.01809Z"/><path class="cls-2" d="M440.13755,124.01809h-5.26049a.70936.70936,0,0,0-.81543.78906v38.78808a.71979.71979,0,0,0,.81543.81348h5.26049a.76454.76454,0,0,0,.81568-.81348V124.80715A.70954.70954,0,0,0,440.13755,124.01809Z"/><path class="cls-2" d="M419.72837,124.01809H407.01646a.71026.71026,0,0,0-.81641.78906v38.78808a.76486.76486,0,0,0,.81568.81348h5.26074a.76416.76416,0,0,0,.81519-.81348V150.8716H416.575l3.384,12.82227a.80439.80439,0,0,0,.86718.71484h5.28028q.94189,0,.71972-.91211l-3.49609-13.2168q3.69288-1.60254,3.69336-6.68261V131.2925a6.50586,6.50586,0,0,0-7.29517-7.27441Zm.40357,18.17382a1.78875,1.78875,0,0,1-2.02539,2.02149h-5.01489V130.67629h5.01489a1.78874,1.78874,0,0,1,2.02539,2.02148Z"/><path class="cls-2" d="M505.42241,124.40676h-5.60157c-4.69922,0-7.19922,2.5-7.19922,7.20019v5.3003a.71353.71353,0,0,0,.79883.80029h5.20117a.7368.7368,0,0,0,.80079-.80029v-3.89991a1.774,1.774,0,0,1,2-2.00049h2.40039a1.81715,1.81715,0,0,1,2,2.00049v7.40039l-11.90235,6.40039c-.94922.5-1.29883.89991-1.29883,1.8501v14.751a.89747.89747,0,0,0,1,1h18a.89747.89747,0,0,0,1-1v-7.65088a.89747.89747,0,0,0-1-1H506.8228a.89747.89747,0,0,0-1,1v2.05029h-5.40039a.89747.89747,0,0,1-1-1v-4.3501a1.25658,1.25658,0,0,1,.69921-1.20019l11.15039-6.00049c.95118-.5,1.34961-.8999,1.34961-1.8501V131.607C512.62162,126.90676,510.0728,124.40676,505.42241,124.40676Z"/><path class="cls-2" d="M531.42241,124.40676h-5.60157c-4.69922,0-7.19922,2.5-7.19922,7.20019v25.60156c0,4.7002,2.5,7.20069,7.19922,7.20069h5.60157c4.69921,0,7.19921-2.50049,7.19921-7.20069V131.607C538.62162,126.90676,536.12162,124.40676,531.42241,124.40676Zm.75,31.55175a1.77481,1.77481,0,0,1-2,2H527.272a1.774,1.774,0,0,1-2-2V132.857a1.79494,1.79494,0,0,1,2-2h2.9004a1.79578,1.79578,0,0,1,2,2Z"/><path class="cls-2" d="M557.42241,124.40676h-5.60157c-4.69922,0-7.19922,2.5-7.19922,7.20019v5.3003a.71353.71353,0,0,0,.79883.80029h5.20117a.7368.7368,0,0,0,.80079-.80029v-3.89991a1.774,1.774,0,0,1,2-2.00049h2.40039a1.81715,1.81715,0,0,1,2,2.00049v7.40039l-11.90235,6.40039c-.94922.5-1.29883.89991-1.29883,1.8501v14.751a.89747.89747,0,0,0,1,1h18a.89747.89747,0,0,0,1-1v-7.65088a.89747.89747,0,0,0-1-1H558.8228a.89747.89747,0,0,0-1,1v2.05029h-5.40039a.89747.89747,0,0,1-1-1v-4.3501a1.25658,1.25658,0,0,1,.69921-1.20019l11.15039-6.00049c.95118-.5,1.34961-.8999,1.34961-1.8501V131.607C564.62162,126.90676,562.0728,124.40676,557.42241,124.40676Z"/><path class="cls-2" d="M578.12162,151.25832l11.15039-6.00049c.95118-.5,1.34961-.8999,1.34961-1.8501V131.607c0-4.70019-2.54882-7.20019-7.19921-7.20019h-5.60157c-4.69922,0-7.19922,2.5-7.19922,7.20019v5.3003a.71353.71353,0,0,0,.79883.80029h5.20117a.7368.7368,0,0,0,.80079-.80029v-3.89991a1.774,1.774,0,0,1,2-2.00049h2.40039a1.81715,1.81715,0,0,1,2,2.00049v7.40039l-11.90235,6.40039c-.94922.5-1.29883.89991-1.29883,1.8501v14.751a.89747.89747,0,0,0,1,1h18a.89747.89747,0,0,0,1-1v-7.65088a.89747.89747,0,0,0-1-1H584.8228a.89747.89747,0,0,0-1,1v2.05029h-5.40039a.89747.89747,0,0,1-1-1v-4.3501A1.25658,1.25658,0,0,1,578.12162,151.25832Z"/><path class="cls-2" d="M229.15416,52.56594q0,.54345.7163.543h5.40992a.76524.76524,0,0,0,.79028-.71485L237.454,45.021h8.99121l1.43189,7.37305a.76679.76679,0,0,0,.791.71485h5.38477q.71776,0,.71679-.61622a1.1886,1.1886,0,0,0-.02539-.24707l-8.39868-38.83691a.79489.79489,0,0,0-.863-.69043h-7.01586a.79661.79661,0,0,0-.86451.69043l-8.39868,38.83691A1.15884,1.15884,0,0,0,229.15416,52.56594Zm12.79492-31.01953,3.23657,17.63085H238.714Z"/><path class="cls-2" d="M218.027,53.10891h5.26172a.76343.76343,0,0,0,.81469-.81348V13.50734a.70912.70912,0,0,0-.81469-.78906H218.027a.70938.70938,0,0,0-.81519.78906V52.29543A.71981.71981,0,0,0,218.027,53.10891Z"/><path class="cls-2" d="M317.16124,53.10891h5.68042a7.37351,7.37351,0,0,0,5.43481-1.84961,7.34381,7.34381,0,0,0,1.8523-5.42481V13.73a1.01027,1.01027,0,0,0-1.0127-1.01172h-4.66772a1.01027,1.01027,0,0,0-1.0127,1.01172V44.42922a1.789,1.789,0,0,1-2.02637,2.02148h-2.61841a1.78828,1.78828,0,0,1-2.02514-2.02148V13.73a1.01027,1.01027,0,0,0-1.0127-1.01172h-4.86645A1.01151,1.01151,0,0,0,309.87413,13.73V45.83449a7.34188,7.34188,0,0,0,1.85254,5.42481A7.3725,7.3725,0,0,0,317.16124,53.10891Z"/><path class="cls-2" d="M218.58848,8.01h4.41992a1.55478,1.55478,0,0,0,1.19-.59986l6.21-6.81c.24-.3.06-.6001-.3-.6001h-5.96973c-.48022,0-.66016.18017-.95019.6001l-4.89991,6.81005C218.0482,7.71022,218.22837,8.01,218.58848,8.01Z"/><path class="cls-2" d="M407.36216,53.10891h5.40943a.76548.76548,0,0,0,.79-.71485l1.38354-7.37305h8.99146l1.43261,7.37305a.76559.76559,0,0,0,.791.71485H431.545q.71631,0,.71583-.61622a1.23982,1.23982,0,0,0-.02442-.24707L423.838,13.40871a.797.797,0,0,0-.86425-.69043h-7.01587a.79614.79614,0,0,0-.864.69043l-8.39868,38.83691a1.16058,1.16058,0,0,0-.0498.32032Q406.64537,53.10939,407.36216,53.10891Zm12.07911-31.5625,3.23559,17.63085h-6.47168Z"/><path class="cls-2" d="M352.97569,53.10891h5.01465a.76341.76341,0,0,0,.81445-.81348V13.50734a.70923.70923,0,0,0-.81445-.78906h-5.262a.70976.70976,0,0,0-.81518.78906V34.83742h-.2959l-7.68262-21.47754a.88375.88375,0,0,0-.9143-.6416h-5.01343a.70963.70963,0,0,0-.81567.78906V52.29543a.76486.76486,0,0,0,.81567.81348h5.26074a.71971.71971,0,0,0,.81519-.81348V30.89211h.24731L352.086,52.44289A.87205.87205,0,0,0,352.97569,53.10891Z"/><path class="cls-2" d="M394.00108,53.10891h5.2605a.76452.76452,0,0,0,.81567-.81348V13.50734a.70953.70953,0,0,0-.81567-.78906h-5.2605a.70945.70945,0,0,0-.81543.78906V52.29543A.71988.71988,0,0,0,394.00108,53.10891Z"/><path class="cls-2" d="M366.68345,53.10891H378.836a7.37191,7.37191,0,0,0,5.43433-1.84961,7.342,7.342,0,0,0,1.85278-5.42481V20.0425a7.4334,7.4334,0,0,0-1.85278-5.4502,7.3166,7.3166,0,0,0-5.43433-1.874H366.68345a.70937.70937,0,0,0-.81518.78906V52.29543A.71981.71981,0,0,0,366.68345,53.10891Zm6.07642-33.73243h4.64331a1.81149,1.81149,0,0,1,2.02661,2.07129V44.42922a1.78922,1.78922,0,0,1-2.02661,2.02148h-4.64331Z"/><path class="cls-2" d="M280.65416,52.09816V29.36281h.3457l5.01489,22.834a1.05656,1.05656,0,0,0,1.11133.91211h2.46948a1.05694,1.05694,0,0,0,1.11157-.91211l5.01465-22.834h.34571V52.09816a.8911.8911,0,0,0,1.00586,1.01075H301.756a.89093.89093,0,0,0,1.00562-1.01075V13.73a.89361.89361,0,0,0-1.0105-1.01172h-6.68262a1.04968,1.04968,0,0,0-1.11059.8877l-5.59644,25.15136L282.76377,13.606a1.05014,1.05014,0,0,0-1.11059-.8877h-6.68262a.89361.89361,0,0,0-1.0105,1.01172V52.09816a.894.894,0,0,0,1.0127,1.01075h4.6687A.89438.89438,0,0,0,280.65416,52.09816Z"/><path class="cls-2" d="M439.62,53.10891h18.10565a.71971.71971,0,0,0,.81518-.81348V47.23976a.70928.70928,0,0,0-.81518-.78906H445.69639V13.50734a.70955.70955,0,0,0-.81543-.78906H439.62a.70938.70938,0,0,0-.81519.78906V52.29543A.71981.71981,0,0,0,439.62,53.10891Z"/><path class="cls-2" d="M202.961,12.7173H190.808a.7093.7093,0,0,0-.81494.78907V52.29445a.71974.71974,0,0,0,.81494.81348H202.961a7.3715,7.3715,0,0,0,5.43433-1.84961,7.34289,7.34289,0,0,0,1.85254-5.42481v-25.792a7.43429,7.43429,0,0,0-1.85254-5.45019A7.31619,7.31619,0,0,0,202.961,12.7173Zm.593,31.71094a1.78855,1.78855,0,0,1-2.02539,2.02149h-4.644V19.37551h4.644a1.81084,1.81084,0,0,1,2.02539,2.07129Z"/><path class="cls-2" d="M273.99913,102.10012h-12.0293V69.15773a.70914.70914,0,0,0-.81567-.78906h-5.2605a.709.709,0,0,0-.81543.78906v38.78711a.71979.71979,0,0,0,.81543.81348h18.10547a.71988.71988,0,0,0,.81543-.81348v-5.05566A.70946.70946,0,0,0,273.99913,102.10012Z"/><path class="cls-2" d="M297.05748,69.0591a.79644.79644,0,0,0-.864-.69043h-7.01562a.79593.79593,0,0,0-.86426.69043L279.91514,107.895a1.16594,1.16594,0,0,0-.0498.32031c0,.36231.238.543.71679.543h5.40894a.76552.76552,0,0,0,.79028-.71484l1.38379-7.37305h8.99121l1.43262,7.37305a.76543.76543,0,0,0,.791.71484h5.38476q.71631,0,.71582-.61621a1.25406,1.25406,0,0,0-.02441-.24707Zm-7.63282,25.76758,3.23658-17.63086,3.23535,17.63086Z"/><path class="cls-2" d="M465.21391,107.94484v-5.05566a.86366.86366,0,0,0-.17383-.61621.92179.92179,0,0,0-.64477-.17285H451.70219v-10.208h9.70313q.81883,0,.81909-.86328V86.02394a.73317.73317,0,0,0-.81909-.83886h-9.70313V75.0757h12.69312q.81774,0,.8186-.86328V69.15773a.70955.70955,0,0,0-.81543-.78906H445.77354a.75511.75511,0,0,0-.55566.209.78585.78585,0,0,0-.21021.58007v38.78711a.82891.82891,0,0,0,.21021.5918.73032.73032,0,0,0,.55566.22168h18.62494A.72037.72037,0,0,0,465.21391,107.94484Z"/><path class="cls-2" d="M217.97764,108.75832h18.625a.71983.71983,0,0,0,.81494-.81348v-5.05566a.86148.86148,0,0,0-.17334-.61621.921.921,0,0,0-.64477-.17285H223.90586v-10.208H233.61q.81812,0,.8186-.86328V86.02394a.733.733,0,0,0-.8186-.83886h-9.70411V75.0757h12.69361q.81774,0,.81811-.86328V69.15773a.709.709,0,0,0-.81494-.78906h-18.625a.75512.75512,0,0,0-.55566.209.78388.78388,0,0,0-.21021.58007v38.78711a.82678.82678,0,0,0,.21021.5918A.73034.73034,0,0,0,217.97764,108.75832Z"/><path class="cls-2" d="M339.34678,69.0591a.79681.79681,0,0,0-.86426-.69043h-7.01586a.79613.79613,0,0,0-.864.69043L322.204,107.895a1.16594,1.16594,0,0,0-.0498.32031q0,.54346.71679.543h5.40943a.76509.76509,0,0,0,.78979-.71484l1.38379-7.37305h8.99121l1.43286,7.37305a.76559.76559,0,0,0,.791.71484h5.38452q.71667,0,.71606-.61621a1.25449,1.25449,0,0,0-.02465-.24707ZM331.714,94.82668,334.95,77.19582l3.2356,17.63086Z"/><path class="cls-2" d="M411.81236,106.90871a7.342,7.342,0,0,0,1.85278-5.4248V89.82082a1.90554,1.90554,0,0,0-1.334-1.874l-12.0293-3.94532V77.04836a1.8448,1.8448,0,0,1,2.02539-2.02246h2.4209a1.789,1.789,0,0,1,2.02539,2.02246v3.94531a.70906.70906,0,0,0,.81543.78906h5.26172a.70874.70874,0,0,0,.81445-.78906V75.64211a6.50139,6.50139,0,0,0-7.28711-7.27344h-5.68066a6.54258,6.54258,0,0,0-7.28711,7.27344V87.55226a1.80845,1.80845,0,0,0,1.38281,1.874l11.98047,3.9209v6.73144a1.78836,1.78836,0,0,1-2.02539,2.02149h-2.4209a1.78836,1.78836,0,0,1-2.02539-2.02149V96.18215a.71988.71988,0,0,0-.81543-.81348h-5.26074a.71988.71988,0,0,0-.81543.81348v5.30176a6.54273,6.54273,0,0,0,7.28711,7.27441H406.378A7.37187,7.37187,0,0,0,411.81236,106.90871Z"/><path class="cls-2" d="M380.27159,68.36867a.70907.70907,0,0,0-.81543.78906v38.78711a.71988.71988,0,0,0,.81543.81348h5.26074a.76484.76484,0,0,0,.81543-.81348V69.15773a.70907.70907,0,0,0-.81543-.78906Z"/><path class="cls-2" d="M529.616,108.75832h5.261a.7645.7645,0,0,0,.81542-.81348V69.15773a.70916.70916,0,0,0-.81542-.78906h-5.261a.709.709,0,0,0-.81519.78906v38.78711A.71981.71981,0,0,0,529.616,108.75832Z"/><path class="cls-2" d="M359.42588,108.75832h5.68067a6.50265,6.50265,0,0,0,7.28711-7.27441V89.82082a1.90554,1.90554,0,0,0-1.334-1.874l-12.02929-3.94532V77.04836a1.84509,1.84509,0,0,1,2.02539-2.02246h2.4209a1.789,1.789,0,0,1,2.02539,2.02246v3.94531a.70906.70906,0,0,0,.81543.78906H371.579a.70883.70883,0,0,0,.8147-.78906V75.64211a6.50141,6.50141,0,0,0-7.28711-7.27344h-5.68067a6.54286,6.54286,0,0,0-7.28711,7.27344V87.55226a1.80846,1.80846,0,0,0,1.38282,1.874l11.98047,3.9209v6.73144a1.78836,1.78836,0,0,1-2.02539,2.02149h-2.4209a1.78836,1.78836,0,0,1-2.02539-2.02149V96.18215a.71989.71989,0,0,0-.81543-.81348h-5.261a.71981.71981,0,0,0-.81519.81348v5.30176a6.543,6.543,0,0,0,7.28711,7.27441Z"/><path class="cls-2" d="M521.71391,101.48391V96.03469a.76484.76484,0,0,0-.81543-.81348H515.835a.71979.71979,0,0,0-.81543.81348v4.04394a1.79205,1.79205,0,0,1-2.0332,2.02149H510.3582a1.79206,1.79206,0,0,1-2.03321-2.02149V77.04836a1.79274,1.79274,0,0,1,2.03321-2.02246h2.62817a1.79274,1.79274,0,0,1,2.0332,2.02246V81.0923a.709.709,0,0,0,.81543.78907h5.06348a.70956.70956,0,0,0,.81543-.78907V75.64211a6.53925,6.53925,0,0,0-7.27832-7.27344h-5.67481a7.44923,7.44923,0,0,0-5.45239,1.84863,7.29435,7.29435,0,0,0-1.875,5.42481v25.8418a7.29131,7.29131,0,0,0,1.875,5.4248,7.44546,7.44546,0,0,0,5.45239,1.84961h5.67481a6.5394,6.5394,0,0,0,7.27832-7.27441Z"/><path class="cls-2" d="M438.95787,74.21242V69.15773a.70826.70826,0,0,0-.81324-.78906H419.5421a.70875.70875,0,0,0-.81446.78906v5.05469a.76256.76256,0,0,0,.8125.81348h5.85742v32.91894a.72111.72111,0,0,0,.81812.81348H431.496a.71053.71053,0,0,0,.79322-.81348V75.0259h5.85742A.71822.71822,0,0,0,438.95787,74.21242Z"/><path class="cls-2" d="M559.45317,69.0591a.79682.79682,0,0,0-.86426-.69043h-7.01563a.79592.79592,0,0,0-.86425.69043L542.31059,107.895a1.166,1.166,0,0,0-.04981.32031q0,.54346.7168.543h5.40894a.76537.76537,0,0,0,.79028-.71484l1.38379-7.37305h8.99121l1.43262,7.37305a.76542.76542,0,0,0,.791.71484h5.38477q.71593,0,.71582-.61621a1.25333,1.25333,0,0,0-.02442-.24707Zm-7.63306,25.76758,3.23657-17.63086L558.292,94.82668Z"/><path class="cls-2" d="M493.64262,108.53664a.80025.80025,0,0,0,.22168-.5918V69.15773a.70883.70883,0,0,0-.8147-.78906h-5.26147a.70936.70936,0,0,0-.81543.78906V90.48684h-.2959L478.99418,69.0093a.8839.8839,0,0,0-.91406-.64063H473.0662a.709.709,0,0,0-.81518.78906v38.78711a.76447.76447,0,0,0,.81518.81348h5.261a.72.72,0,0,0,.81543-.81348V86.54152h.24707l7.75562,21.55078a.87231.87231,0,0,0,.88989.666h5.0144A.80412.80412,0,0,0,493.64262,108.53664Z"/><path class="cls-2" d="M202.961,68.36818H190.808a.7093.7093,0,0,0-.81494.78907v38.78808a.71974.71974,0,0,0,.81494.81348H202.961a6.50234,6.50234,0,0,0,7.28687-7.27442V75.6924a7.43429,7.43429,0,0,0-1.85254-5.45019A7.31619,7.31619,0,0,0,202.961,68.36818Zm.593,31.71094a1.78854,1.78854,0,0,1-2.02539,2.02148h-4.644V75.02639h4.644a1.81083,1.81083,0,0,1,2.02539,2.07128Z"/></g></svg>