<svg xmlns="http://www.w3.org/2000/svg" viewBox="0 0 512.11191 156.98219"><defs><style>.cls-1{fill:none;}.cls-2{fill:#3cb4dc;}</style></defs><g id="chinese"><path class="cls-1" d="M61.52472,77.11646h-.887c-.71875-.7893-1.07886-1.18408-1.801-1.97326H54.37921c-.72388-.78919-1.08667-1.18372-1.814-1.97278-.00562-.39526-.00879-.59277-.01465-.988-.72925-.78857-1.09473-1.18286-1.82691-1.97143H48.93146c-.7334-.78968-1.10108-1.18445-1.83716-1.97412H42.58893c-.36841-.39527-.55249-.59278-.92066-.98792-.00756-.394-.01123-.59094-.01855-.985H38.93439c-.35474.394-.53223.59094-.88721.985H33.51984c-.01783-1.18225-.02662-1.77319-.04371-2.9552-.36889-.39624-.553-.59448-.92138-.9906H31.65c-.01025-.78845-.01513-1.18274-.02417-1.97131-.36621-.39576-.54931-.59363-.915-.98926h-.906c-.71363.79065-1.07031,1.18616-1.78467,1.97693H26.20782c-.7312-.79077-1.09594-1.18628-1.82446-1.97693.71777-.78833,1.07617-1.18237,1.79346-1.97046-.00513-.78918-.00708-1.18372-.01074-1.9729.71923-.79016,1.07885-1.1853,1.79907-1.97546h6.30859c.00342.79016.00586,1.1853.01148,1.97546.36255.39429.54419.59119.90747.98535h.90576c-.011-1.18433-.01538-1.77661-.02051-2.96081,1.43506-1.57825,2.1582-2.36744,3.6001-3.94568v-.98658c1.082-1.18359,1.623-1.77563,2.70508-2.95935h1.80224v-.98632c1.4419-1.579,2.1626-2.36841,3.6045-3.94727h3.60229v.98657c.36206.39453.543.5918.905.98621h2.69971v-.98621c-.72119-.79028-1.08155-1.18542-1.80249-1.976v-.9834c.36206-.39514.54321-.59277.905-.988v-.9851c-.36182-.395-.543-.59253-.905-.9878V34.689H51.39215c-.36011.39624-.54.59449-.8999.99085h-.8999V33.70411H45.98761V37.6526H44.18536c-.72094.78918-1.08154,1.18384-1.80224,1.97314h-.89991V37.6526H38.77545l-.90112-.9878V34.689c.72168-.78857,1.08227-1.18286,1.80371-1.97143H45.088V31.7328c.35986-.39588.5398-.59363.89966-.98938h.8999c.36084-.39344.54151-.59009.90235-.98352h3.60229v.98352c-.36011.39575-.54.5935-.8999.98938v.98474h1.80493c.35889-.3938.53833-.59082.89722-.98474h2.70752v-.98938c-.72095-.78858-1.0813-1.18286-1.80249-1.97144h-.905c-.721-.78857-1.0813-1.18286-1.80225-1.97143H46.88751c-.35986.395-.54.59253-.8999.98767V29.7599H44.18536V28.772c.36084-.39355.54151-.59033.90259-.98376v-.98767H42.38312V29.7599c-.36011.39343-.54.59008-.89991.98352H37.87433V29.7599H39.678V28.772c-.36084-.39355-.5415-.59033-.90259-.98376H36.97321V25.81251H32.46735v.988c.36157.395.54223.59253.9038.98767v2.9552h-.9038c-.721-.78858-1.08155-1.18286-1.80249-1.97144H26.15778c-.36158.39527-.54224.59278-.90381.98792H20.75323c-.36084-.39514-.5415-.59265-.90234-.98792H14.44366c-.72094.78858-1.08154,1.18286-1.80224,1.97144H10.83649c-.36036.39575-.54078.5935-.90113.98938v.98474H7.22906c-.36035.39465-.54077.592-.90112.98657V34.689c.36035.39624.54077.59449.90112.99085h3.60743c.36059-.39636.54052-.59461.90112-.99085h3.60718c.72094.79041,1.08154,1.18555,1.80249,1.97583v1.9729c.35937.39527.53906.5929.89843.988v2.95935c-.71972.78968-1.07983,1.18445-1.7998,1.97425v.98645c-.7207.78979-1.081,1.18469-1.80225,1.97424v2.958c.36036.39624.54078.59448.90113.99084,0,1.97205-.0022,2.95813-.00074,4.9303.72193.78918,1.08326,1.18372,1.80689,1.9729.35913-.395.53857-.59253.89746-.98755-.3606-.39416-.54077-.59106-.90088-.98535-.00146-1.18482-.00171-1.7771-.00073-2.96191h.89844c-.00049.78894-.00049,1.18359.00048,1.97265,1.08448,1.18482,1.62745,1.77735,2.7168,2.96216.00147.39307.00244.5896.00415.98242-.36011.39527-.54.59278-.90039.988.00171.39563.00269.5935.00464.98926.72607.78857,1.0896,1.18286,1.81787,1.97131h.908c.36279.39612.54419.59436.90772.9906h3.63061c.00415.39282.0061.58936.01025.9823h2.71582c.73584.78906,1.10425,1.18372,1.84205,1.9729.00561.39514.0083.59265.01367.98792.36865.39379.553.59082.92163.98474H35.359c.01855,1.18445.02783,1.77649.04467,2.96081-.71337.7898-1.0708,1.18457-1.78759,1.97412.0188,1.57911.0271,2.36866.03857,3.94751.73291.79016,1.09888,1.18531,1.82935,1.97559.00171.39282.00244.58935.00342.9823.73217.791,1.09692,1.18652,1.83813,1.97742.0061.39282.00977.58935.01855.98205.74634.7887,1.12232,1.18274,1.87916,1.97144h1.81567c.13574,3.55285.272,5.3291.52734,8.882.396.394.594.59106.99024.9851.08716,1.18433.13159,1.77661.21631,2.9607.78979.7893,1.18408,1.18383,1.967,1.9729.10791,1.57959.15844,2.36938.23755,3.94873.38427.39331.57568.59008.95581.98352.052,1.18542.07251,1.77807.09643,2.9635.74194.78931,1.105,1.184,1.82129,1.97326h2.65869c-.00732-1.97473-.03711-2.962-.12207-4.93676h-.88135c-.3706-.39344-.55712-.59021-.93212-.98352-.01954-.39453-.03-.59192-.052-.98658.33374-.39453.49951-.59179.83008-.98657-.04712-.79016-.07275-1.1853-.12573-1.97558.65527-.78907.98047-1.1836,1.63013-1.9729h1.75341c.97217-1.18409,1.4563-1.77637,2.43042-2.9607-.12548-1.97339-.18994-2.96008-.30029-4.93359.32935-.394.49463-.59107.82593-.98511h1.76538c.66675-.78918,1.00244-1.18359,1.67871-1.9729-.0874-2.3667-.12085-3.55017-.13354-5.91687,1.06079-1.18445,1.59692-1.77673,2.65893-2.96118C61.532,78.30067,61.53009,77.90589,61.52472,77.11646Z"/><path class="cls-1" d="M82.93732,84.45924c.36255.39551.54589.5935.90478.989V89.394c.71509.79029,1.06445,1.18543,1.749,1.97559v3.946h4.84205c1.22265-1.57837,1.812-2.36767,2.96777-3.946V89.394c.28857-.394.43188-.59106.717-.98511h.71191V86.43482c1.1316-1.57837,1.68482-2.36767,2.78614-3.946,0-1.97339.00049-2.96008.12207-4.93359-.25928-.39393-.38892-.59083-.64942-.98487.05323-.78857.08472-1.18286.15406-1.97131a89.019,89.019,0,0,1,7.27514-7.89612c.07935-.395.11866-.59253.19727-.98767H99.857c-1.34326-1.97229-2.07226-2.95837-3.65429-4.93079.08349-1.1853.12036-1.77807.1748-2.96362-.335-.39343-.50488-.59021-.84839-.98364.02393-.78919.03223-1.18384.03907-1.9729h1.78906c.70459.78906,1.04883,1.18371,1.71631,1.9729-.04126.7893-.06739,1.18384-.1272,1.97314.637.78967.94556,1.18457,1.5415,1.97412-.08764.79029-.13574,1.18531-.23559,1.97559.28589.39307.42627.58948.70239.98242h2.48486c1.99219-1.9729,3.03785-2.95923,5.09424-4.93213.06128-.39575.09058-.59375.14478-.9895h-.87964c-.60108-.78857-.91333-1.18286-1.562-1.97131h-1.77954c-.65625-.78931-.9961-1.184-1.69727-1.97327.01709-.78894.011-1.18359.011-1.97266h1.80249c0,.39405.002.59107-.00025.98511.71656.79028,1.06324,1.1853,1.73267,1.97559h3.57886c.32983.394.49145.59106.80859.98523h5.38452c.624.78845.92334,1.18274,1.501,1.97131-.28418,1.57947-.4729,2.36914-.88672,3.94849.50464.7893.74853,1.18383,1.23022,1.97314-.11645.39453-.17578.5918-.29589.98633.20483.34448.30688.51672.51.86121-.02588.22741-.03882.34118-.06543.56848-.06885.21777-.10328.32666-.17237.54443h.10791c-.06054.50891-.09131.76343-.15234,1.27222.979-.803,1.4956-1.20435,2.51538-2.00757-.18921-.29822-.28442-.44727-.47607-.74561.23437-.74463.34985-1.11682.57128-1.86145,1.85181-1.48034,2.74732-2.22046,4.44751-3.70056.10254-.4613.15064-.692.239-1.15332.53979-.00012.80884-.00012,1.34594-.00024.57667,0,.86426,0,1.43848-.00025.92139,1.26856,1.34912,1.90271,2.14795,3.17066-.14477.53027-.22095.79553-.37866,1.3258.37085-.30993.55517-.465.92212-.7749.20141.32874.30029.49329.49414.8219-.27442,1.2771-.43286,1.91541-.76416,3.1925-.20484.59131-.30957.88685-.52027,1.4784.36426.70727.5398,1.06079.87964,1.76831-.16992.45642-.25488.68457-.42431,1.14123.29077.61438.43188.92151.70727,1.536.24878-.65992.375-.98975.62769-1.64966.2915-.762.43847-1.14283.72851-1.90454-.39746-.84156-.60473-1.26233-1.04052-2.10376.27124-.76416.40429-1.146.65942-1.90992.20654-.6184.30664-.92773.49805-1.54614.7102,1.22547,1.03735,1.83814,1.647,3.06323.59839-.00024.89673-.00036,1.49268-.00073.36206-.29162.54321-.4375.90478-.72912.2273-.60828.33814-.91248.55078-1.52088-.69653-1.32519-1.075-1.98779-1.91089-3.31348.957-.82739,1.42774-1.24121,2.34571-2.0686.96118,0,1.44116-.00012,2.40087-.00024,1.73414-1.55139,2.56885-2.32691,4.11377-3.87879a17.33839,17.33839,0,0,0,.08252-1.782c-.93237-1.02063-1.39843-1.53088-2.33081-2.55151.40064-.4386.60083-.65784,1.00171-1.09644h-1.47656c-.553-.60535-.82935-.908-1.38232-1.51318.71826-.786,1.07714-1.1792,1.79541-1.96521.41015.44861.615.67309,1.0249,1.12182h1.36767c.46436.50818.69654.76221,1.16089,1.27051V49.536c.36182.39612.54273.59412.90479.99048h1.5896V48.98438c-.72681-.79528-1.09009-1.19287-1.81641-1.98828.5249-.5747.7876-.86206,1.31275-1.43676.72656-.79541,1.08984-1.19324,1.81665-1.98865V40.81092c-.46875-.51306-.70313-.76965-1.17188-1.28271-.67163-.73523-1.00757-1.10266-1.67895-1.83789h-3.18628v-1.182c.93042-1.01843,1.39575-1.52759,2.32617-2.546h3.84033v-.84851h3.64453v2.78345c1.19214,1.30493,1.78809,1.95752,2.98023,3.26245V36.98622c-.53687-.58777-.80518-.88147-1.34229-1.46936V33.79249h3.97559l-1.81958-1.9917c.352-.38525.52807-.57788.87988-.96313h3.13135v-.67359H156.0108c-.75415-.8258-1.13159-1.23865-1.886-2.06445h-8.57618c-.43481-.47608-.65234-.71423-1.0874-1.19031h-4.96582c-.32226-.3529-.4834-.5293-.80591-.88232H135.5257l-1.565,1.71325h-3.22412c-.30566-.33484-.45874-.50219-.7644-.83691h-6.70142c-.71313-.78027-1.06933-1.17041-1.78222-1.95068H119.6048a4.84433,4.84433,0,0,0-.31641-.99183c-.11645.1261-.17456.18934-.29077.31531h-4.50977c-.3601.397-.54.59546-.8999.99219h-.90259l-1.80493,1.96973v1.97314h-1.80224V27.23805c-.36011-.39344-.54-.59009-.90015-.9834h-1.80225V28.2273h-5.40967c-.72045.78919-1.08056,1.18384-1.801,1.9729h-.8999V28.2273h-.905c-.72.78919-1.07984,1.18384-1.79981,1.9729h-.8999V28.2273c-.36035-.39563-.54077-.5935-.90112-.98925H85.64752c-.72143.7893-1.08227,1.18383-1.804,1.97314h-.905c-.3584.39563-.5376.59338-.89575.989V31.184c-.3606.39587-.54078.59363-.90137.98938h-.90235c-.35986.39465-.54.59192-.8999.98657v1.97424h2.70362V37.1056h-.90137c-.36084.39514-.54151.59277-.90235.98792h-.8999c-.72265.78918-1.08374,1.18359-1.80639,1.97277h-1.801c-.35986.39515-.54.59278-.8999.98792v.98486h.8999V44.012H73.9295c-.36059-.394-.54077-.59106-.90136-.98486h-.90235c-.36059.3938-.54077.59082-.90136.98486v2.9607c.36059.394.54077.59106.90136.98523h3.606c.35986-.39417.54-.59119.8999-.98523v-.988c.72144-.78894,1.08228-1.1836,1.80371-1.97266h2.70606c.719.78906,1.07812,1.18372,1.79712,1.97266v.988c.36206.394.54321.59106.905.98523h1.804V45.98463h-.90259c-.72241-.78894-1.084-1.1836-1.80639-1.97266v-1.9729h2.709c.72046.78906,1.08057,1.18372,1.80078,1.9729v2.9607h.90259c.36035-.39515.54077-.59266.90137-.988h.90112v.988c.721.78906,1.0813,1.18371,1.80225,1.9729H96.463v1.97168c-.721.78857-1.09546,1.18286-1.802,1.97143H91.05646c-.73755-.78857-1.083-1.18286-1.8042-1.97143h-1.804c0,.78857-.012,1.18286.00049,1.97143h-.90112c-.36524-.394-.54029-.59106-.90015-.98511H82.04279c-.3606-.39453-.54078-.59179-.90137-.98632V48.94557H76.63165c-.35986.39575-.54.5935-.8999.98925H71.22443c-.36133.39295-.54224.58948-.90381.98243,0,.78857.00073,1.18286,0,1.97143-.36035.395-.54029.59253-.89991.98755h-.90527c-1.07861,1.18433-1.6167,1.77661-2.68994,2.96094.00317.7893.00513,1.18384.00952,1.97314h.89673c.0022.395.00317.59253.00537.98755-.356.39478-.53418.59192-.88965.98657.011,1.57776.01758,2.36658.031,3.94434,1.80786,1.9729,2.70947,2.95923,4.50708,4.93213h4.47827c.35645-.39343.53467-.59009.8916-.98352h2.69092c.3606.39343.54077.59009.90161.98352h1.79688c.001,1.97522.00146,2.96277.00195,4.93811.71655.78845,1.07471,1.18274,1.79248,1.97131v.98487c.72119.78918,1.07788,1.18383,1.77563,1.97314.00122.39514.0022.59253.00391.98767-.69336.78919-1.05762,1.18372-1.78052,1.97278C82.9378,83.277,82.9378,83.67091,82.93732,84.45924Z"/><path class="cls-1" d="M142.28961,74.70338c.0957,0,.14331,0,.2395-.00025-.03589-.11621-.05371-.17431-.08984-.29052Z"/><path class="cls-1" d="M131.76935,77.32069c-.40772.00036-.61182.00036-1.02149.00061-.08691.25928-.12939.38879-.21338.64807.10791.25.16114.375.26758.625.95117-.00037,1.42285-.00061,2.36865-.001.10474.27722.15674.4159.25977.69324.39941-.00012.59888-.00012.999-.00037.11182-.29614.16871-.44421.28443-.74035-.39014.00024-.58472.00036-.97388.00049-.18945-.51612-.28564-.77417-.48144-1.29029C132.6629,77.282,132.36554,77.29493,131.76935,77.32069Z"/><path class="cls-1" d="M135.31476,75.80958c.45752-.00037.68628-.00049,1.14551-.00073.2705-.61841.4082-.92749.68627-1.54566.92139-.74023,1.39283-1.1101,2.34864-1.85-.18408-.53211-.27857-.79834-.47388-1.33032.57715-.44812.86816-.67225,1.45264-1.12049-.1919-.51294-.291-.76929-.49585-1.282-1.86988,1.44653-2.8003,2.16992-4.59229,3.61743-.49365.00025-.74048.00049-1.23462.00086-.11914.28845-.17822.43273-.29589.72131.17651.44348.26293.66528.43261,1.10876-.2771.67261-.41382,1.00891-.67944,1.68177C134.29083,75.81007,134.63165,75.81007,135.31476,75.80958Z"/><path class="cls-1" d="M130.37653,72.90943c-.2085-.46142-.3147-.692-.53125-1.15344-.34913-.74377-.52881-1.1156-.9004-1.85925-.30468-.60987-.46093-.9148-.782-1.52466-.19238.6687-.28979,1.00293-.48242,1.67187.34985.67749.52,1.01612.85205,1.69373-.11914.337-.17822.50549-.29492.84241.24731.50537.3689.75793.60791,1.26318.59814,1.264.88354,1.89624,1.43628,3.16138.17016-.00025.25513-.00025.4248-.00037.17115-.50561.26-.75842.44141-1.264.2915-.25561.43872-.38354.73584-.63916-.08814-.21338-.13257-.31982-.22192-.53308-.2002.17127-.29981.25672-.49756.428-.18164-.4259-.27368-.63891-.46094-1.06482.1499-.40893.22607-.61328.37964-1.02222C130.80109,72.90907,130.65973,72.90931,130.37653,72.90943Z"/><path class="cls-1" d="M153.117,45.6233v-.835l-.92529-1.01318h-1.1665v1.744a3.82609,3.82609,0,0,0,1.28857.81409l-.12207,1.205v1.12414c-.439.48023-.6582.72034-1.09717,1.20056a6.55236,6.55236,0,0,0-1.18652.15308l-.68384.798-.49975.85938a11.48971,11.48971,0,0,0,.7893.98462c.20435-.22339.3064-.33521.5105-.5586v-.63012h2.00244c.49854-.54566.74756-.81836,1.2461-1.364.36718-.4021.551-.60327.91845-1.00537v-1.632a12.74406,12.74406,0,0,0-1.50586-1.22766S153.117,45.89088,153.117,45.6233Z"/><path class="cls-1" d="M148.7,76.71876c-.38721-1.21143-.57568-1.81641-.96655-3.02576-.91846.00061-1.36963.00086-2.261.00135-.21826.403-.32763.60437-.5459,1.00732-.97363.00073-1.45214.001-2.39746.00146.12451.40674.186.61011.30786,1.01685.29078,0,.43677-.00024.73023-.00037.21387.71595.31836,1.0741.52759,1.7909-.15064.27929-.22559.41894-.37476.69824-.36645.26978-.54785.40478-.90649.6748.70508-.00024,1.063-.00036,1.79175-.00073-.11915.219-.17847.32862-.29639.54785.37988-.00024.57129-.00024.95874-.00048.14453-.26258.217-.39393.363-.65638.49218-.34973.74145-.52453,1.24487-.874.22925-.00012.34424-.00012.57617-.00012.16284.52734.24487.79126.41162,1.31933.095.30152.14307.4524.24.75415.25781,0,.38745,0,.64893-.00024-.28369-.8623-.42041-1.293-.69092-2.15381C148.31622,77.37879,148.44415,77.1587,148.7,76.71876Z"/><path class="cls-1" d="M143.28082,81.98536c-.47241.33814-.70825.50806-1.177.84876-.615,1.07177-.9375,1.6134-1.60767,2.70422-.488.00073-.72607.001-1.19311.00183-.11792-.88562-.1875-1.32605-.36646-2.20105.208-.3927.31055-.58838.51172-.97851l.63135-.00025c.22192-.41968.32642-.62915.53-1.05835h-.85181c-.12817-.43713-.19214-.65576-.321-1.09277-1.61743,1.32776-2.36621,1.9768-3.83985,3.2893-.53295.00074-.79638.001-1.31982.00171-.80371.75391-1.19287,1.13294-1.94141,1.89344-.10791.28772-.16235.43188-.2727.72033-.42188.43384-.62793.65113-1.03027,1.08606-.85572.00159-1.27759.0022-2.1399.00379-.41357.46338-.61474.69555-1.00708,1.15966-.53418,2.156-.825,3.24085-1.43725,5.40748-.30371.44262-.45069.66381-.73658,1.10571-.17358.66846-.262,1.00268-.44067,1.67065.15112.00183.22485.00281.37012.00464.32348-.51514.49145-.77319.84228-1.28955.38282.00366.56739.00562.94019.00928.282-.37891.42749-.56861.72778-.948.40576.00305.60938.00464,1.03345.00757.25488-.28955.38525-.43457.65161-.72437.24194.00135.36523.002.61816.00342-.08862.77405-.15039,1.16174-.29931,1.93726.20263.002.30713.00268.523.00439-.57129.8999-.86182,1.34985-1.4502,2.24719-.11816.44788-.18115.672-.312,1.11927.41455.00573.64111.00854,1.1499.0144.593-.479.89942-.71887,1.53052-1.19971.28.00245.42651.00367.73315.00611,2.74268-1.98194,4.29248-2.98389,7.5315-4.985.88013-1.17431,1.30859-1.76111,2.13647-2.92859-.09057-.53979-.13159-.80908-.21191-1.3457.48828-.71082.727-1.06519,1.19287-1.77026-.56641.00073-.84082.00109-1.37549.002.85694-1.31323,1.26709-1.96533,2.04248-3.2522C143.50616,82.867,143.43439,82.572,143.28082,81.98536Z"/></g><g id="guides"><path class="cls-2" d="M121.42076.23733a49.6323,49.6323,0,0,0-37.61743,17.5459A49.63234,49.63234,0,0,0,46.18589.23733C20.33189.23733.2523,20.31546.2523,46.16214c0,21.68457,13.24683,40.65625,35.46289,62.7395l48.08814,48.08057,48.08789-48.08057c22.2163-22.08325,35.46313-41.05493,35.46313-62.7395C167.35435,20.31546,147.27476.23733,121.42076.23733Zm-62.41065,87.731c-.67627.78931-1.012,1.18372-1.67871,1.9729H55.566c-.3313.394-.49658.59106-.82593.98511.11035,1.97351.17481,2.9602.3003,4.93359-.97412,1.18433-1.45826,1.77661-2.43042,2.96069H50.85655c-.64966.78931-.97486,1.18384-1.63013,1.97291.053.79028.07861,1.18542.12573,1.97558-.33056.39478-.49633.592-.83007.98657.022.39466.03247.592.052.98658.375.39331.56152.59008.93213.98352h.88134c.085,1.97473.11475,2.962.12207,4.93676H47.85093c-.71631-.7893-1.07934-1.184-1.82129-1.97326-.02392-1.18543-.04443-1.77808-.09643-2.9635-.38013-.39344-.57153-.59021-.95581-.98352-.0791-1.57935-.12964-2.36915-.23755-3.94873-.783-.78907-1.17725-1.1836-1.967-1.97291-.08472-1.18408-.12915-1.77636-.21631-2.96069-.39624-.394-.59424-.59106-.99023-.98511-.25538-3.55285-.39161-5.3291-.52735-8.882H39.22325c-.75684-.7887-1.13281-1.18274-1.87915-1.97144-.00879-.3927-.01245-.58923-.01856-.98206-.74121-.79089-1.10595-1.1864-1.83813-1.97741-.001-.39295-.00171-.58948-.00342-.9823-.73047-.79029-1.09644-1.18543-1.82935-1.97559-.01147-1.57886-.01977-2.36841-.03857-3.94751.7168-.78955,1.07422-1.18432,1.7876-1.97412-.01685-1.18433-.02613-1.77637-.04468-2.96081H32.63853c-.36865-.39393-.553-.591-.92163-.98475-.00537-.39526-.00806-.59277-.01367-.98791-.73779-.78919-1.1062-1.18384-1.842-1.9729H27.14537c-.00415-.39295-.00611-.58948-.01026-.9823H23.5045c-.36353-.39624-.54492-.59448-.90772-.9906h-.908c-.72827-.78845-1.09179-1.18274-1.81787-1.97131-.002-.39576-.00293-.59363-.00464-.98926.36036-.39527.54029-.59278.90039-.988-.0017-.39282-.00268-.58936-.00415-.98242-1.08935-1.18482-1.63232-1.77735-2.71679-2.96216-.001-.78906-.001-1.18372-.00049-1.97266h-.89844c-.001,1.18482-.00073,1.7771.00073,2.96192.36011.39429.54029.59118.90088.98535-.35888.395-.53833.59253-.89746.98755-.72363-.78919-1.085-1.18372-1.80688-1.9729-.00147-1.97217.00073-2.95825.00073-4.9303-.36035-.39636-.54077-.5946-.90112-.99084v-2.958c.72119-.78955,1.08154-1.18445,1.80224-1.97425v-.98645c.72-.78979,1.08008-1.18457,1.79981-1.97424V39.62576c-.35938-.39514-.53907-.59277-.89844-.988v-1.9729c-.721-.79028-1.08154-1.18542-1.80249-1.97583H11.73765c-.36059.39624-.54053.59449-.90112.99085H7.22911c-.36035-.39636-.54077-.59461-.90113-.99085v-.98486c.36036-.39453.54078-.59192.90113-.98657h2.7063v-.98474c.36035-.39588.54077-.59363.90112-.98938h1.80493c.7207-.78858,1.0813-1.18287,1.80225-1.97144h5.40722c.36084.39526.54151.59277.90235.98792H25.254c.36157-.39515.54224-.59266.90381-.98792H30.6649c.721.78857,1.08154,1.18286,1.80249,1.97144h.90381v-2.9552c-.36158-.39515-.54224-.59266-.90381-.98767v-.988h4.50586v1.97571h1.80224c.36109.39343.54175.59021.90259.98376v.98792H37.87437v.98352h3.60889c.35986-.39344.53979-.59009.8999-.98352V26.80057H45.088v.98767c-.36108.39343-.54174.59021-.90258.98376v.98792h1.80224V27.78824c.35987-.39515.54-.59266.8999-.98767h4.50464c.721.78857,1.0813,1.18286,1.80225,1.97143h.905c.72119.78857,1.08154,1.18286,1.80249,1.97144v.98938H53.19444c-.35889.39392-.53833.59094-.89722.98474H50.49229v-.98474c.35986-.39588.5398-.59363.8999-.98938v-.98352H47.7899c-.36084.39343-.54151.59008-.90235.98352h-.8999c-.35986.39575-.53979.5935-.89966.98938v.98474H39.67808c-.72143.78857-1.082,1.18286-1.80371,1.97143v1.97583l.90112.9878h2.70777v1.97314h.8999c.7207-.78931,1.0813-1.184,1.80225-1.97314h1.80224V33.70413h3.60474v1.97571h.8999c.35986-.39636.5398-.59461.8999-.99085h1.80225v1.97583c.36206.39527.54321.59278.905.9878v.9851c-.36182.39527-.543.5929-.905.988v.9834c.721.79053,1.0813,1.18567,1.80249,1.97595v.98621H52.29722c-.36206-.39441-.543-.59168-.905-.98621v-.98657H47.7899c-1.4419,1.57886-2.1626,2.36828-3.60449,3.94726v.98633H42.38316c-1.082,1.18372-1.623,1.77576-2.70508,2.95935v.98658c-1.44189,1.57824-2.165,2.36743-3.6001,3.94567.00513,1.18421.00953,1.77649.02051,2.96082h-.90576c-.36328-.39417-.54492-.59106-.90747-.98535-.00562-.79016-.00806-1.1853-.01148-1.97547H27.96519c-.72021.79017-1.07983,1.18531-1.79907,1.97547.00366.78918.00561,1.18371.01074,1.9729-.71728.78808-1.07568,1.18213-1.79346,1.97046.72852.79065,1.09327,1.18615,1.82447,1.97693h1.81225c.71436-.79078,1.07105-1.18628,1.78467-1.97693h.906c.36572.39563.54882.5935.915.98926.009.78857.01391,1.18286.02417,1.97131h.90478c.36841.39612.55249.59436.92139.9906.01709,1.182.02588,1.773.0437,2.9552h4.52734c.355-.394.53247-.59094.88721-.985h2.71533c.00733.394.011.59095.01856.985.36816.39514.55224.59265.92065.98791h4.50537c.73609.78968,1.10376,1.18445,1.83716,1.97413h1.79224c.73217.78857,1.09765,1.18286,1.8269,1.97143.00586.39526.009.59277.01465.988.72729.78906,1.09009,1.18359,1.814,1.97278h4.45752c.72217.78918,1.08228,1.184,1.801,1.97326h.887c.00537.78943.00733,1.18421.01074,1.97376-1.062,1.18445-1.59814,1.77673-2.65893,2.96118C58.88926,84.41812,58.92271,85.60159,59.01011,87.96829Zm83.96875-1.25855c-.46582.70508-.70459,1.05945-1.19287,1.77027.08032.53662.12134.80591.21192,1.3457-.82789,1.16748-1.25635,1.75427-2.13648,2.92859-3.239,2.0011-4.78882,3.00305-7.53149,4.985-.30664-.00245-.45313-.00367-.73316-.00611-.6311.48084-.9375.72071-1.53051,1.19971-.50879-.00586-.73536-.00867-1.14991-.0144.13086-.44727.19385-.67139.312-1.11927.58838-.89734.87891-1.34729,1.4502-2.24719-.21582-.00171-.32031-.00244-.523-.00439.14893-.77552.21069-1.16321.29932-1.93726-.25293-.00147-.37622-.00208-.61817-.00342-.26635.2898-.39673.43482-.65161.72437-.42407-.00293-.62768-.00452-1.03345-.00757-.30029.37939-.4458.56909-.72778.948-.3728-.00367-.55737-.00562-.94018-.00928-.35083.51636-.5188.77441-.84229,1.28955-.14526-.00183-.219-.00281-.37012-.00464.17871-.668.26709-1.0022.44068-1.67065.28589-.4419.43286-.66309.73657-1.10572.6123-2.16662.90308-3.25146,1.43726-5.40747.39233-.46411.5935-.69629,1.00708-1.15966.8623-.00159,1.28417-.0022,2.13989-.00379.40234-.43494.6084-.65222,1.03027-1.08606.11035-.28845.1648-.43262.27271-.72034.74853-.76049,1.13769-1.13952,1.9414-1.89343.52344-.00073.78687-.001,1.31983-.00171,1.47363-1.3125,2.22241-1.96154,3.83984-3.2893.12891.437.19287.65564.32105,1.09277h.8518c-.20361.4292-.3081.63867-.53,1.05835l-.63134.00024c-.20118.39014-.30372.58582-.51172.97852.17895.875.24853,1.31543.36645,2.201.467-.00086.70508-.0011,1.19312-.00183.67016-1.09082.99267-1.63245,1.60766-2.70423.46875-.34069.70459-.51062,1.177-.84875.15357.58667.22535.88159.365,1.47412-.77539,1.28687-1.18554,1.939-2.04248,3.2522C142.138,86.71084,142.41246,86.71048,142.97886,86.70974ZM131.16441,74.996c.19775-.17126.29736-.25671.49756-.428.08935.21326.13379.3197.22192.53308-.29712.25562-.44433.38355-.73584.63916-.18139.50562-.27026.75843-.4414,1.264-.16968.00012-.25464.00012-.42481.00037-.55273-1.26514-.83813-1.89734-1.43628-3.16138-.239-.50525-.36059-.75781-.60791-1.26318.1167-.33692.17578-.50537.29492-.84241-.332-.67761-.50219-1.01624-.852-1.69373.19263-.66894.29-1.00317.48242-1.67187.32105.60986.4773.91479.782,1.52466.37158.74365.55127,1.11548.90039,1.85925.21655.46143.32275.692.53125,1.15344.2832-.00012.42456-.00036.70654-.00049-.15356.40894-.22974.61328-.37964,1.02222C130.89073,74.35708,130.98277,74.5701,131.16441,74.996Zm2.69092-1.97595c.11767-.28858.17676-.43286.2959-.72132.49414-.00036.741-.00061,1.23462-.00085,1.792-1.44751,2.72241-2.1709,4.59228-3.61743.20483.51269.304.769.49585,1.282-.58447.44824-.87549.67236-1.45264,1.12048.19532.532.2898.79822.47388,1.33033-.95581.73986-1.42725,1.10974-2.34863,1.85-.27808.61817-.41577.92725-.68628,1.54566-.45923.00024-.688.00036-1.14551.00073-.68311.00049-1.02393.00049-1.7063.001.26563-.67285.40235-1.00915.67944-1.68176C134.11827,73.68533,134.03184,73.46353,133.85533,73.02005Zm-.11524,5.52636c.38916-.00012.58374-.00024.97388-.00048-.11572.29614-.17261.44421-.28442.74035-.40015.00025-.59961.00025-.999.00037-.103-.27734-.155-.416-.25976-.69324-.9458.00037-1.41748.00061-2.36866.001-.10644-.25-.15966-.375-.26757-.625.084-.25928.12646-.3888.21338-.64807.40966-.00025.61377-.00025,1.02148-.00061.59619-.02576.89355-.0387,1.48926-.06458C133.45445,77.77224,133.55064,78.0303,133.74009,78.54641Zm14.36328,1.42676c-.09692-.30176-.145-.45263-.24-.75415-.16674-.52807-.24878-.792-.41162-1.31933-.23193,0-.34692,0-.57617.00012-.50342.34949-.75268.52429-1.24487.874-.146.26245-.21851.3938-.363.65637-.38745.00025-.57886.00025-.95874.00049.11792-.21924.17725-.32886.29639-.54785-.72876.00037-1.08667.00049-1.79175.00073.35864-.27.54-.405.90649-.6748.14917-.2793.22412-.41895.37476-.69824-.20923-.7168-.31372-1.075-.52759-1.7909-.29346.00012-.43945.00037-.73022.00037-.12183-.40674-.18335-.61011-.30786-1.01685-.0962.00025-.1438.00025-.23951.00025l.14966-.29077c.03613.11621.054.17431.08985.29052.94531-.00049,1.42382-.00073,2.39746-.00146.21826-.403.32763-.60437.5459-1.00733.89135-.00048,1.34252-.00073,2.261-.00134.39087,1.20935.57935,1.81433.96655,3.02576-.25586.43994-.38378.66-.63867,1.10034.27051.86084.40723,1.2915.69092,2.15381C148.49083,79.97317,148.36119,79.97317,148.10337,79.97317Zm6.0879-30.87329c-.36744.4021-.55127.60327-.91846,1.00537-.49854.54566-.74756.81836-1.2461,1.364h-2.00244v.63012c-.2041.22339-.30615.33521-.5105.5586a11.48971,11.48971,0,0,1-.7893-.98462l.49975-.85938.68384-.798a6.55238,6.55238,0,0,1,1.18653-.15308c.439-.48022.6582-.72033,1.09716-1.20056V47.53824l.12207-1.205a3.82609,3.82609,0,0,1-1.28857-.81409v-1.744h1.1665l.9253,1.01319v.835c0,.26758-.43164.61694-.43164.61694a12.74491,12.74491,0,0,1,1.50586,1.22766Zm1.81958-18.93579h4.63647v.67358H157.516c-.3518.38526-.52783.57789-.87988.96314l1.81958,1.9917h-3.97559v1.72436c.53711.58789.80542.8816,1.34229,1.46936V39.1597c-1.19214-1.30494-1.78809-1.95752-2.98023-3.26246V33.1138h-3.64453v.84851h-3.84033c-.93042,1.01843-1.39575,1.52759-2.32617,2.546v1.182h3.18628c.67138.73523,1.00732,1.10266,1.679,1.83789.46875.51306.70313.76965,1.17188,1.28271v2.75977c-.72681.79541-1.09009,1.19323-1.81665,1.98864-.52515.57471-.78784.86206-1.31275,1.43677.72632.79541,1.0896,1.193,1.81641,1.98828v1.54212h-1.5896c-.36206-.39636-.543-.59436-.90478-.99048V48.08743c-.46436-.5083-.69654-.76233-1.16089-1.27051h-1.36768c-.40991-.44873-.61475-.67322-1.0249-1.12182-.71826.786-1.07715,1.1792-1.79541,1.96521.553.60522.82934.90783,1.38232,1.51318h1.47656c-.40087.4386-.60107.65784-1.0017,1.09644.93237,1.02063,1.39843,1.53088,2.33081,2.55151a17.33839,17.33839,0,0,1-.08252,1.782c-1.54492,1.55188-2.37964,2.32739-4.11377,3.87879-.95972.00012-1.4397.00024-2.40088.00024-.918.82739-1.38867,1.24121-2.3457,2.0686.83593,1.32569,1.21435,1.98828,1.91088,3.31348-.21264.6084-.32348.9126-.55078,1.52087-.36157.29163-.54272.4375-.90478.72913-.596.00037-.89429.00049-1.49268.00073-.60962-1.2251-.93677-1.83777-1.647-3.06323-.19141.61841-.2915.92773-.49805,1.54614-.25512.76392-.38818,1.14575-.65942,1.90991.43579.84144.64306,1.26221,1.04053,2.10376-.29.76172-.437,1.14258-.72852,1.90455-.25269.65991-.37891.98974-.62769,1.64965-.27539-.6145-.4165-.92163-.70727-1.536.16943-.45666.25439-.68481.42432-1.14123-.33985-.70752-.51539-1.061-.87964-1.76831.21069-.59156.31543-.88709.52026-1.4784.3313-1.2771.48975-1.9154.76416-3.1925-.19385-.32861-.29272-.49317-.49414-.8219-.36694.30994-.55127.465-.92212.7749.15772-.53027.23389-.79553.37866-1.3258-.79882-1.26795-1.22656-1.9021-2.148-3.17066-.57421.00025-.86181.00025-1.43847.00025-.53711.00012-.80615.00012-1.346.00024-.08838.4613-.13647.692-.239,1.15332-1.7002,1.4801-2.59571,2.22022-4.44751,3.70056-.22144.74463-.33692,1.11682-.57129,1.86145.19165.29834.28686.44739.47607.74561-1.01977.80322-1.53638,1.20459-2.51538,2.00757.061-.50879.0918-.76331.15234-1.27222h-.10791c.0691-.21777.10352-.32666.17237-.54443.02661-.2273.03955-.34107.06543-.56849-.20313-.34448-.30518-.51672-.51-.8612.12012-.39453.17944-.5918.2959-.98633-.48169-.78931-.72559-1.18384-1.23023-1.97314.41382-1.57935.60254-2.369.88672-3.94849-.57764-.78858-.87695-1.18286-1.501-1.97131h-5.38452c-.31714-.39417-.47876-.59119-.80859-.98523H106.306c-.66943-.79029-1.01611-1.18531-1.73266-1.97559.00219-.394.00024-.59106.00024-.98511H102.7711c0,.78907.0061,1.18372-.011,1.97266.70117.78931,1.041,1.184,1.69727,1.97327h1.77954c.64868.78845.96094,1.18273,1.562,1.97131h.87964c-.0542.39575-.0835.59375-.14478.9895-2.05639,1.9729-3.102,2.95923-5.09423,4.93213h-2.48487c-.27612-.39294-.4165-.58936-.70239-.98242.09985-.79029.14795-1.1853.2356-1.97559-.596-.78955-.90455-1.18445-1.54151-1.97412.05982-.78931.08594-1.18384.1272-1.97314-.66748-.78919-1.01172-1.18384-1.71631-1.9729H95.56822c-.00684.78906-.01514,1.18371-.03906,1.9729.3435.39343.51342.59021.84838.98364-.05444,1.18555-.0913,1.77832-.1748,2.96362,1.582,1.97241,2.311,2.9585,3.6543,4.93079h4.85815c-.07861.39514-.11792.59265-.19726.98767A89.01765,89.01765,0,0,0,97.24278,74.599c-.06934.78845-.10083,1.18274-.154,1.97131.26049.394.39013.59094.64941.98486-.12158,1.97351-.12207,2.96021-.12207,4.9336-1.10132,1.57837-1.65454,2.36767-2.78613,3.946V88.409H94.118c-.28515.39405-.42846.59107-.717.98511v1.97559c-1.15576,1.57837-1.74512,2.36767-2.96777,3.946h-4.842v-3.946c-.68457-.79016-1.03394-1.18531-1.749-1.97559v-3.9458c-.35888-.39551-.54223-.59351-.90478-.989.00049-.78833.00049-1.18225.001-1.97046.7229-.78906,1.08715-1.1836,1.78051-1.97278-.00171-.39514-.00268-.59253-.0039-.98767-.69776-.78931-1.05445-1.184-1.77564-1.97315v-.98486c-.71777-.78857-1.07593-1.18286-1.79248-1.97131-.00049-1.97534-.001-2.96289-.00195-4.93811H79.348c-.36084-.39344-.541-.59009-.90161-.98352H75.75547c-.35693.39343-.53515.59008-.8916.98352H70.3856c-1.79761-1.9729-2.69922-2.95923-4.50708-4.93213-.01343-1.57776-.02-2.36658-.031-3.94434.35546-.39465.53369-.59179.88964-.98657-.00219-.395-.00317-.59253-.00537-.98755h-.89673c-.00439-.78931-.00634-1.18384-.00952-1.97314,1.07324-1.18433,1.61133-1.77662,2.68994-2.96094h.90528c.35962-.395.53955-.59253.8999-.98755.00073-.78857,0-1.18286,0-1.97144.36157-.39294.54248-.58947.90381-.98242h4.50732c.35987-.39575.54-.5935.8999-.98926h4.50977v1.97168c.3606.39454.54077.5918.90137.98633h3.60473c.35987.39405.53492.59107.90015.98511h.90112c-.01245-.78857-.00048-1.18286-.00048-1.97144h1.804c.72119.78858,1.06665,1.18287,1.8042,1.97144H94.661c.70654-.78857,1.08106-1.18286,1.802-1.97144V48.94558H91.95567c-.721-.78918-1.0813-1.18383-1.80225-1.9729v-.988H89.2523c-.3606.39538-.541.59289-.90137.988h-.90258V44.012c-.72022-.78918-1.08033-1.18384-1.80079-1.9729h-2.709V44.012c.72241.78906,1.084,1.18372,1.8064,1.97266h.90258v1.97326h-1.804c-.36182-.39416-.543-.59118-.905-.98523v-.988c-.719-.78894-1.07813-1.1836-1.79712-1.97266h-2.706c-.72144.78906-1.08228,1.18372-1.80372,1.97266v.988c-.35986.39405-.54.59107-.8999.98523h-3.606c-.3606-.39416-.54078-.59118-.90137-.98523V44.012c.36059-.394.54077-.59106.90137-.98486h.90234c.36059.3938.54077.59082.90137.98486h1.80224v-1.9729h-.8999v-.98486c.35986-.39514.54-.59278.8999-.98792h1.801c.72265-.78918,1.08374-1.18359,1.80639-1.97278h.89991c.36084-.39514.5415-.59277.90234-.98791h.90137V35.13418H79.33921V33.15994c.35987-.39465.54-.59192.89991-.98657h.90234c.3606-.39575.54077-.59351.90137-.98938v-.98377c.35815-.39563.53735-.59338.89575-.989h.905c.72168-.78931,1.08252-1.18384,1.804-1.97314h8.11182c.36035.39575.54077.59362.90112.98925v1.9729h.89991c.72-.78906,1.07983-1.18371,1.7998-1.9729h.905v1.9729h.8999c.72046-.78906,1.08057-1.18371,1.801-1.9729h5.40967V26.25467h1.80224c.36011.39331.54.59.90015.9834v1.97314h1.80224V27.23807l1.80494-1.96973h.90258c.35987-.39673.5398-.59522.89991-.99219h4.50976c.11621-.126.17432-.18921.29077-.31531a4.84433,4.84433,0,0,1,.31641.99182h1.88379c.71289.78028,1.06909,1.17041,1.78222,1.95069h6.70142c.30567.33472.45874.50207.76441.83691h3.22412l1.56494-1.71325h3.16382c.32251.353.48364.52941.8059.88232h4.96582c.43506.47607.65259.71423,1.08741,1.19031h8.57617C154.87925,28.92544,155.25669,29.33828,156.01085,30.16409Z"/><path class="cls-2" d="M226.61094,78.05691h-5.916V88.6116h-6.53247V77.63113h-5.58472V88.6116h-6.4375V78.62527h-5.86939V88.6116h-6.3894V94.055h6.3894v24.84961h35.35743v-5.44238h-29.488V94.055h6.4375v14.05859h18.0332V94.055H232.859V88.6116h-6.24805Zm-5.916,24.89649h-6.53247V94.055h6.53247Z"/><path class="cls-2" d="M308.50987,84.68387c.18921-2.84082.28418-5.39649.33081-7.38477h-6.48413c-.18945,8,.70972,29.20508-18.50708,39.47559a18.08462,18.08462,0,0,1,4.68579,4.59179c9.84473-5.77441,14.81543-14.34179,17.418-22.67285,2.74585,8.1416,8,17.3711,18.50781,22.38867a14.9941,14.9941,0,0,1,4.11792-4.875C312.05967,108.91824,309.172,91.07351,308.50987,84.68387Z"/><path class="cls-2" d="M403.85167,105.32058h13.585V99.87723h-13.585V91.68875h15.8562V86.19851H404.704l2.509-1.84668a53.79312,53.79312,0,0,0-9.08813-7.14648l-4.63843,3.21777a70.04785,70.04785,0,0,1,7.09961,5.77539H381.65245v5.49024h15.999v8.18848H384.16124v5.44335h13.49023v9.13477H379.66514v5.53809h42.36231v-5.53809H403.85167Z"/><path class="cls-2" d="M466.9998,82.45926l-5.8689-1.752c-2.55688,8.75684-6.5791,16.66114-12.78021,23.05078a51.67875,51.67875,0,0,1-12.35352-20.25781l-5.39648,1.60938c3.21875,8.89843,7.52637,16.47168,13.30078,22.57715a52.692,52.692,0,0,1-18.0332,8.89941,26.82113,26.82113,0,0,1,2.93457,5.0166,58.64935,58.64935,0,0,0,19.26343-9.9873,52.06783,52.06783,0,0,0,18.55462,9.70312,24.39735,24.39735,0,0,1,3.83423-5.15918,50.18878,50.18878,0,0,1-17.84473-8.66113C459.33207,100.58719,463.78129,92.06766,466.9998,82.45926Z"/><path class="cls-2" d="M452.70512,88.51785a89.652,89.652,0,0,0-5.15936-11.40723l-4.96949,1.70313A83.63837,83.63837,0,0,1,447.49913,90.553Z"/><path class="cls-2" d="M479.07719,80.09207v40.80078h5.82129v-3.07617H505.9141v2.98144h6.0586v-40.706ZM505.9141,112.136H484.89848V101.53348H505.9141Zm0-16.1875H484.89848V85.77176H505.9141Z"/><path class="cls-2" d="M275.70225,98.97781V78.8616h-33.749V98.97781h7.52637a35.45941,35.45941,0,0,1-12.78,6.72168,25.97548,25.97548,0,0,1,3.69262,4.63867,37.98214,37.98214,0,0,0,8.61377-4.40234v1.7041c0,3.0293-.94629,7.00488-8.8501,9.6084a20.79654,20.79654,0,0,1,3.88038,4.54394c9.41894-3.45507,10.792-9.41894,10.792-13.916v-3.26563h-4.02344a31.99036,31.99036,0,0,0,5.67969-5.63281h4.876a28.556,28.556,0,0,0,5.53711,5.67969h-3.5498v16.66113h5.8689v-14.957a34.60464,34.60464,0,0,0,8,3.834,25.26771,25.26771,0,0,1,3.7395-4.82812,33.66267,33.66267,0,0,1-12.96973-6.38965Zm-19.833-4.54394H247.586V91.02566h8.2832Zm0-7.62012H247.586v-3.4082h8.2832Zm5.68042-3.4082h8.28321v3.4082h-8.28321Zm0,11.02832V91.02566h8.28321v3.40821Z"/><path class="cls-2" d="M355.23448,90.26883h-7.57324v22.81445h23.61914V90.26883H360.53526c.42578-.85254.89941-1.79883,1.3728-2.793h12.7793V82.885h-7.573q1.34912-1.91748,2.8396-4.11817l-5.44238-1.51464a38.25151,38.25151,0,0,1-2.98242,5.63281h-7.38379l2.36621-1.042a33.65338,33.65338,0,0,0-3.124-4.96973l-4.78,1.98828a31.92333,31.92333,0,0,1,2.36622,4.02344H344.537v4.59082h11.35962C355.70713,88.42312,355.47056,89.36941,355.23448,90.26883Zm10.50781,18.83789H352.96177v-2.60254h12.78052Zm0-6.2002H352.96177v-2.55566h12.78052Zm0-8.709v2.60351H352.96177V94.19754Z"/><path class="cls-2" d="M346.42979,114.02957c-1.4668-.66211-2.55566-1.37207-3.502-1.89356V94.14969H331.94639v5.207h5.585v12.92187a24.33994,24.33994,0,0,0-6.53149,4.59082l3.40747,4.7334c2.13086-2.69824,4.54394-5.44336,6.20093-5.44336,1.18384,0,2.74511,1.27832,4.92309,2.36719,3.54981,1.751,7.62012,2.31934,13.29981,2.31934,4.59179,0,12.16479-.28418,15.28882-.47364a19.83776,19.83776,0,0,1,1.51489-5.44336,147.00633,147.00633,0,0,1-16.6145,1.041C353.95616,115.97,349.64854,115.63894,346.42979,114.02957Z"/><path class="cls-2" d="M343.11729,86.7659a47.8705,47.8705,0,0,0-6.86352-7.71485l-4.30738,2.74512a48.45121,48.45121,0,0,1,6.532,8.09375Z"/><path class="cls-2" d="M190.776,57.6066h16.94092a.84508.84508,0,0,0,.9414-.94141V49.46548a.84473.84473,0,0,0-.9414-.94092H203.1993a.84438.84438,0,0,0-.94092.94092v1.9292h-5.08252a.84438.84438,0,0,1-.94092-.94092V46.35953a1.18358,1.18358,0,0,1,.65869-1.1294l10.49414-5.647c.89405-.47022,1.27051-.84668,1.27051-1.74121V26.73648c0-4.42334-2.3999-6.77637-6.77637-6.77637h-5.2705c-4.42383,0-6.77637,2.353-6.77637,6.77637v4.98828a.67167.67167,0,0,0,.75293.75293h4.894a.69279.69279,0,0,0,.75293-.75293v-3.6709a1.6698,1.6698,0,0,1,1.88233-1.88183h2.25879a1.7099,1.7099,0,0,1,1.88232,1.88183V35.0187l-11.19971,6.02344c-.89453.47071-1.22363.84717-1.22363,1.74121V56.66519A.84473.84473,0,0,0,190.776,57.6066Z"/><path class="cls-2" d="M225.41414,19.96011h-5.27051c-4.42382,0-6.77636,2.353-6.77636,6.77637V50.83023c0,4.42334,2.35254,6.77637,6.77636,6.77637h5.27051c4.42334,0,6.77637-2.353,6.77637-6.77637V26.73648C232.19051,22.31314,229.83748,19.96011,225.41414,19.96011Zm.70557,29.69385a1.67,1.67,0,0,1-1.88233,1.88232h-2.729a1.67,1.67,0,0,1-1.88232-1.88232V27.91275a1.68967,1.68967,0,0,1,1.88232-1.88233h2.729a1.68967,1.68967,0,0,1,1.88233,1.88233Z"/><path class="cls-2" d="M237.84041,57.6066h16.94092a.84508.84508,0,0,0,.9414-.94141V49.46548a.84473.84473,0,0,0-.9414-.94092h-4.51758a.84438.84438,0,0,0-.94092.94092v1.9292h-5.08252a.84437.84437,0,0,1-.94091-.94092V46.35953a1.18356,1.18356,0,0,1,.65869-1.1294l10.49414-5.647c.894-.47022,1.2705-.84668,1.2705-1.74121V26.73648c0-4.42334-2.3999-6.77637-6.77636-6.77637h-5.27051c-4.42383,0-6.77637,2.353-6.77637,6.77637v4.98828a.67167.67167,0,0,0,.75293.75293h4.894a.6928.6928,0,0,0,.75293-.75293v-3.6709a1.6698,1.6698,0,0,1,1.88232-1.88183h2.25879a1.70989,1.70989,0,0,1,1.88232,1.88183V35.0187l-11.1997,6.02344c-.89454.47071-1.22364.84717-1.22364,1.74121V56.66519A.84473.84473,0,0,0,237.84041,57.6066Z"/><path class="cls-2" d="M261.37264,57.6066h16.94092a.84508.84508,0,0,0,.9414-.94141V49.46548a.84473.84473,0,0,0-.9414-.94092H273.796a.84438.84438,0,0,0-.94092.94092v1.9292h-5.08252a.84438.84438,0,0,1-.94092-.94092V46.35953a1.18358,1.18358,0,0,1,.65869-1.1294l10.49414-5.647c.894-.47022,1.27051-.84668,1.27051-1.74121V26.73648c0-4.42334-2.3999-6.77637-6.77637-6.77637h-5.2705c-4.42383,0-6.77637,2.353-6.77637,6.77637v4.98828a.67167.67167,0,0,0,.75293.75293h4.894a.69279.69279,0,0,0,.75293-.75293v-3.6709A1.6698,1.6698,0,0,1,268.714,26.172h2.25878a1.7099,1.7099,0,0,1,1.88233,1.88183V35.0187l-11.19971,6.02344c-.89453.47071-1.22363.84717-1.22363,1.74121V56.66519A.84473.84473,0,0,0,261.37264,57.6066Z"/><path class="cls-2" d="M290.5992,35.25406V45.842h-7.29443v6.58838h20.98828v9.647h7.05859v-9.647h15.62305V45.842H311.35164V40.007h11.71729V33.654H311.35164V28.85415h12.84668V22.26578H298.26961c.4707-1.082.894-2.21143,1.27051-3.29395l-7.01172-1.78809c-1.88233,5.97657-5.41162,11.95264-9.50586,15.48194a47.10773,47.10773,0,0,1,5.88232,4.4707C289.46981,36.57144,290.03426,35.91275,290.5992,35.25406ZM304.29305,45.842h-6.82373V40.007h6.82373Zm-9.31739-16.9878h9.31739V33.654H291.82234A47.00051,47.00051,0,0,0,294.97566,28.85415Z"/></g></svg>